<svg width="16" height="16" viewBox="0 0 16 16" fill="none" xmlns="http://www.w3.org/2000/svg">
<mask id="mask0_10_61" style="mask-type:luminance" maskUnits="userSpaceOnUse" x="0" y="0" width="16" height="16">
<path d="M0.85968 0.00436401H15.1445V16H0.85968V0.00436401Z" fill="white"/>
</mask>
<g mask="url(#mask0_10_61)">
<path d="M1.54761 3.72548C1.61699 4.64898 1.77979 6.22924 2.14526 7.80018C2.3969 8.88339 2.74442 9.96347 3.22121 10.8133C3.92948 12.0765 4.91972 13.0806 5.85239 13.8303C6.70005 14.512 7.50024 14.9849 8.00359 15.2532C8.50455 14.9865 9.30242 14.515 10.1501 13.8342C11.0819 13.0852 12.0738 12.0795 12.7843 10.8133C13.2589 9.96503 13.6064 8.8857 13.8573 7.80168C14.2219 6.22999 14.3855 4.64898 14.4549 3.72548C13.5448 3.30753 12.8997 2.75543 12.4454 2.18553C12.0294 1.66373 11.7707 1.12638 11.6118 0.666567H4.39384C4.20605 1.20929 3.88038 1.85987 3.31783 2.46545C2.88462 2.93382 2.30806 3.37652 1.54761 3.72548ZM1.50479 7.94596C1.09732 6.18968 0.934457 4.43185 0.875251 3.54016L0.85968 3.30678L1.07704 3.21606C1.84835 2.89577 2.41718 2.47089 2.8332 2.02195C3.39889 1.41249 3.69027 0.754918 3.83832 0.247807L3.90763 0.0105591H12.0972L12.1673 0.247807C12.2959 0.688249 12.5327 1.24266 12.9597 1.7777C13.389 2.31505 14.0162 2.83766 14.9254 3.21606L15.1428 3.30678L15.1272 3.54016C15.068 4.43185 14.9044 6.19118 14.4977 7.94745C14.2351 9.08346 13.8666 10.2217 13.3578 11.1312C12.5989 12.4843 11.5471 13.5528 10.5615 14.3445C9.58131 15.1322 8.65881 15.6541 8.15396 15.9131L8.00277 15.9898L7.85322 15.9131C7.34523 15.6525 6.42191 15.1292 5.44096 14.3406C4.4538 13.5474 3.40353 12.4804 2.64779 11.1312C2.13741 10.2201 1.76811 9.08108 1.50479 7.94596Z" fill="black"/>
</g>
<path d="M7.81036 2.90302H9.1183C10.4945 2.82154 10.8489 2.80804 11.0533 2.80804H11.2713C13.9829 2.80804 15.4 3.55384 15.4 4.96421C15.4 5.65577 15.0731 6.15763 14.4327 6.48304C13.9967 6.69998 13.6833 6.83569 12.7975 7.0119C13.6833 7.12037 14.0647 7.25608 14.569 7.51376C15.3865 7.96114 15.8363 8.70693 15.8363 9.57495C15.8363 10.0766 15.659 10.5784 15.3455 10.9446C14.7325 11.6634 13.8739 11.948 12.198 11.948H7.81036V11.7581C8.23278 11.5819 8.35534 11.365 8.35534 10.8631V3.98797C8.35534 3.48611 8.23278 3.26917 7.81036 3.09297V2.90302ZM10.5764 6.84919H11.2033C12.6611 6.84919 13.397 6.22536 13.397 4.9777C13.397 3.83876 12.6885 3.1607 11.5302 3.1607C10.8353 3.1607 10.5764 3.37764 10.5764 3.96073V6.84919ZM10.5764 7.29682V10.8496C10.5764 11.4057 10.8489 11.6091 11.5712 11.6091C11.9391 11.6091 12.2387 11.5549 12.4841 11.4599C13.1518 11.175 13.6288 10.3342 13.6288 9.41224C13.6288 8.01537 12.8246 7.29682 11.2578 7.29682H10.5764Z" fill="black"/>
<mask id="mask1_10_61" style="mask-type:luminance" maskUnits="userSpaceOnUse" x="5" y="2" width="3" height="3">
<path d="M5.76141 2.74866H7.77561V4.81909H5.76141V2.74866Z" fill="white"/>
</mask>
<g mask="url(#mask1_10_61)">
<path d="M6.09139 3.13633L6.11255 3.1975C6.13477 3.28272 6.16504 3.36495 6.19222 3.44818L6.20842 3.48729L6.21244 3.50635C6.22047 3.52435 6.22757 3.5434 6.2336 3.56246L6.27497 3.58152C6.32539 3.59058 6.37687 3.59158 6.42628 3.59957C6.50194 3.60963 6.57358 3.63769 6.64823 3.64969C6.72288 3.66175 6.80557 3.6818 6.88223 3.70386C6.89033 3.76203 6.89635 3.8212 6.91249 3.87831C6.92862 3.93548 6.93471 4.00671 6.95286 4.06888C6.971 4.13105 6.9791 4.18916 6.99022 4.24933L7.00127 4.28045C7.00937 4.32956 7.02048 4.37867 7.02952 4.42785C7.07742 4.45053 7.12382 4.4759 7.16871 4.50402C7.30596 4.58724 7.44315 4.67047 7.58636 4.7427C7.63985 4.77275 7.69636 4.79987 7.75688 4.81387C7.81741 4.82793 7.88295 4.78081 7.94247 4.7547C8.06352 4.69859 8.17547 4.62636 8.2925 4.56219C8.35302 4.52507 8.41154 4.48502 8.47307 4.4509C8.49624 4.43666 8.51777 4.42029 8.53767 4.40179C8.54678 4.33687 8.55952 4.2727 8.57597 4.20922C8.60222 4.10294 8.62947 3.99665 8.64761 3.88837L8.65364 3.86032C8.66375 3.8192 8.66676 3.77809 8.67787 3.73797L8.68089 3.70886C8.72929 3.6868 8.78279 3.6798 8.83521 3.66974C8.90584 3.65275 8.97748 3.63969 9.04811 3.62063C9.14493 3.59558 9.24582 3.58752 9.34364 3.56546C9.35978 3.49229 9.38904 3.42312 9.40819 3.34989C9.44353 3.25161 9.46877 3.15138 9.50004 3.0521C9.52019 3.00899 9.52019 2.95381 9.55648 2.9207C9.62812 2.89164 9.70076 2.86359 9.77039 2.82747V2.75024C9.66849 2.7683 9.56358 2.7673 9.46168 2.78836C9.35978 2.80942 9.23772 2.80642 9.12779 2.82847C9.01779 2.85053 8.91796 2.84153 8.81506 2.85959C8.75855 2.85853 8.70311 2.87359 8.64661 2.87259L8.63549 2.88065L8.55174 2.88464C8.50942 2.89364 8.46604 2.89364 8.42466 2.9037C8.38329 2.9137 8.32276 2.9087 8.27235 2.9177C8.15732 2.92676 8.04029 2.93076 7.92634 2.94981C7.88295 2.95181 7.84057 2.95381 7.79819 2.95881C7.63276 2.95381 7.46832 2.92676 7.30389 2.9197C7.23633 2.9107 7.1667 2.9127 7.10116 2.89464C6.91557 2.88664 6.73292 2.84653 6.54633 2.84053C6.48179 2.83147 6.41718 2.82947 6.35364 2.81341C6.26386 2.80742 6.17508 2.79436 6.0853 2.78936C5.98447 2.7683 5.88156 2.7623 5.77966 2.7613L5.76654 2.80942C5.85632 2.86459 5.95621 2.89964 6.046 2.95381C6.05504 3.01498 6.07626 3.07516 6.09139 3.13633Z" fill="black"/>
</g>
<mask id="mask2_10_61" style="mask-type:luminance" maskUnits="userSpaceOnUse" x="3" y="3" width="5" height="9">
<path d="M3.68842 3.52347H7.77495V11.9982H3.68842V3.52347Z" fill="white"/>
</mask>
<g mask="url(#mask2_10_61)">
<path d="M11.6304 8.131C11.5518 8.06577 11.4983 7.97555 11.4186 7.91138C11.3339 7.82215 11.2461 7.73493 11.1564 7.6507C11.0857 7.57547 11.0101 7.50324 10.9394 7.42807C10.9536 7.38996 10.9828 7.3599 11.001 7.32379C11.0443 7.24256 11.1029 7.16933 11.1452 7.08816C11.1876 7.00694 11.237 6.95576 11.2724 6.8836C11.3077 6.81136 11.3551 6.7392 11.4055 6.67303C11.461 6.5908 11.5114 6.50557 11.5659 6.42235C11.6143 6.35811 11.6497 6.28595 11.7001 6.22278C11.7505 6.15961 11.805 6.06738 11.8615 5.99315L11.8585 5.97709C11.7919 5.95004 11.7344 5.90492 11.6668 5.87987C11.5346 5.80764 11.3954 5.74947 11.2603 5.6823C11.1049 5.60507 10.9435 5.5429 10.7932 5.45767C10.7296 5.42862 10.6661 5.3995 10.5995 5.37444C10.5995 5.52284 10.6237 5.67024 10.6187 5.8187C10.5916 5.78858 10.5667 5.75684 10.544 5.72341C10.4936 5.64518 10.423 5.58201 10.3695 5.50585C10.316 5.42962 10.2474 5.35239 10.197 5.26816C10.1246 5.17794 10.0573 5.08402 9.99528 4.98643C9.93475 4.9032 9.86914 4.82297 9.81163 4.73774C9.75921 4.67151 9.7027 4.6114 9.6563 4.54217L9.68656 4.52718L9.71281 4.52511L9.72285 4.51812C9.75086 4.51355 9.77842 4.50718 9.8056 4.49906C9.86312 4.48506 9.92163 4.478 9.97707 4.45894C10.0658 4.44189 10.1536 4.41583 10.2434 4.40283C10.3332 4.38978 10.4038 4.36372 10.4845 4.34766L10.5117 4.34266C10.5495 4.33248 10.5878 4.32542 10.6268 4.32161C10.6318 4.45195 10.657 4.58129 10.659 4.71263C10.6752 4.87308 10.6903 5.03254 10.7004 5.19299C10.7165 5.22305 10.7317 5.25616 10.7619 5.27316C10.7922 5.29022 10.8376 5.29222 10.8749 5.30428C10.9123 5.31627 10.9748 5.32833 11.0182 5.35639L11.0636 5.35839C11.0843 5.34245 11.1062 5.32808 11.1291 5.31527L11.1392 5.28522C11.1271 5.23811 11.1231 5.18893 11.114 5.14182C11.0918 5.0526 11.0918 4.96031 11.0706 4.87108C11.0639 4.84203 11.0605 4.81266 11.0605 4.78286L11.0524 4.7718C11.0454 4.66051 11.0212 4.55123 11.0101 4.43989C11.0049 4.3819 10.9962 4.32442 10.9838 4.26743C10.9768 4.20126 10.9697 4.1351 10.9586 4.06993C10.9495 4.02881 10.9143 4.00469 10.882 3.98164C10.7846 3.90153 10.6938 3.81468 10.6096 3.72096C10.544 3.66179 10.4865 3.59562 10.423 3.53445L10.3624 3.54544C10.2515 3.57556 10.1355 3.57956 10.0275 3.61967L10.0023 3.62367C9.84798 3.67078 9.68958 3.7049 9.53425 3.75001C9.44748 3.77507 9.35971 3.79819 9.27193 3.81924L9.25178 3.82624C9.20538 3.83824 9.15798 3.8473 9.11158 3.8563C9.04095 3.88341 8.96228 3.87935 8.89366 3.91347L8.89064 3.94658C8.87451 4.04181 8.86038 4.13709 8.83614 4.23032C8.83213 4.27749 8.82101 4.32461 8.82001 4.37172L8.84826 4.37772C8.93905 4.44695 9.01879 4.53018 9.10348 4.60634C9.1701 4.66051 9.22654 4.72468 9.29115 4.78086C9.35569 4.83697 9.40008 4.87408 9.4515 4.92326C9.52414 4.98843 9.59377 5.05659 9.67143 5.11577C9.7491 5.17494 9.82576 5.22905 9.89036 5.30028C9.92464 5.33533 9.94078 5.38151 9.97205 5.41856C10.0033 5.45567 10.0194 5.50885 10.0517 5.54996C10.084 5.59107 10.1193 5.65724 10.1556 5.70935C10.192 5.76153 10.2222 5.81564 10.2605 5.86481C10.3382 5.96303 10.4018 6.07138 10.4765 6.17166C10.5329 6.24483 10.5733 6.32806 10.6318 6.39923C10.6732 6.4464 10.7054 6.50051 10.7427 6.55069C10.6963 6.6058 10.6499 6.66097 10.6015 6.71414C10.5087 6.83142 10.4098 6.94477 10.312 7.05805C10.2141 7.18739 10.0971 7.30073 10.0023 7.43207C9.94888 7.49924 9.89137 7.56141 9.84089 7.63064C9.79047 7.69981 9.73799 7.74292 9.69259 7.80409C9.61292 7.90538 9.52615 8.0016 9.4515 8.10689C9.41722 8.16306 9.40711 8.22823 9.38093 8.2874C9.36172 8.33151 9.35267 8.37862 9.33353 8.4218C9.30326 8.51203 9.27702 8.60425 9.24067 8.69254L9.23765 8.71153L9.22152 8.75165C9.2084 8.79276 9.19728 8.83388 9.18215 8.87399L9.17612 8.89205C9.14988 8.97727 9.11459 9.0595 9.08534 9.14373C9.05608 9.22796 9.03593 9.29113 9.01169 9.36536L8.99957 9.39441C8.98243 9.45458 8.98344 9.51675 8.97132 9.57792C8.9673 9.62203 8.96831 9.66715 8.96529 9.71226L8.9673 9.70426C8.95418 9.8326 8.95619 9.963 8.92492 10.0883C8.88053 10.0723 8.84525 10.0402 8.80588 10.0141C8.77072 9.98937 8.73845 9.96125 8.70907 9.92989C8.56171 10.0205 8.40701 10.0963 8.24502 10.1575C8.14922 10.2056 8.05033 10.2437 7.95351 10.2889C7.89902 10.3089 7.84961 10.343 7.7921 10.354C7.75273 10.351 7.71845 10.331 7.68316 10.3159C7.59639 10.2738 7.5036 10.2447 7.41984 10.1976C7.24229 10.1234 7.0567 10.0572 6.90237 9.93989C6.83475 9.983 6.76311 10.0231 6.70058 10.0733C6.67641 10.0542 6.65318 10.0362 6.62901 10.0181C6.61689 9.8236 6.6108 9.62903 6.58663 9.43652L6.57853 9.42753V9.39741C6.54626 9.31924 6.52811 9.23502 6.49584 9.15679L6.47462 9.10661C6.44436 9.00639 6.40807 8.90711 6.37379 8.80782L6.35357 8.75571C6.33643 8.70853 6.32331 8.66042 6.30315 8.61431C6.29606 8.59125 6.29003 8.56714 6.284 8.54408L6.26988 8.52708C6.26065 8.48859 6.24753 8.45148 6.23051 8.41574C6.20728 8.33751 6.18009 8.26034 6.15285 8.18312C6.13162 8.12194 6.09232 8.07083 6.04994 8.02266C5.99042 7.95449 5.94001 7.87826 5.87948 7.81009C5.76345 7.67675 5.65251 7.54035 5.54352 7.40202C5.36496 7.18239 5.17836 6.97082 4.99679 6.75319C4.94028 6.68602 4.87976 6.62185 4.82834 6.55169C4.89188 6.4604 4.96753 6.37817 5.02303 6.28195C5.07345 6.20772 5.12895 6.13655 5.17635 6.06032C5.23286 5.96203 5.31253 5.88087 5.37004 5.78358C5.41343 5.72241 5.45072 5.65824 5.49712 5.59907C5.54352 5.5399 5.58289 5.45667 5.62627 5.3865C5.6888 5.28022 5.79472 5.21299 5.88651 5.13482C5.97228 5.07365 6.03983 4.99242 6.12258 4.92825C6.23553 4.82297 6.34955 4.71969 6.46049 4.6124C6.55737 4.52718 6.64816 4.43589 6.75006 4.35766C6.74095 4.31055 6.73492 4.26244 6.72682 4.21532C6.69958 4.11504 6.69355 4.01075 6.6673 3.90947C6.6118 3.89241 6.55335 3.88541 6.49684 3.87635C6.44034 3.86736 6.35865 3.8463 6.29003 3.82724C6.19623 3.80119 6.10136 3.77913 6.00756 3.75201L5.98232 3.74102C5.95206 3.73196 5.92079 3.72496 5.89053 3.71696C5.828 3.6939 5.76245 3.68484 5.69992 3.66579C5.63738 3.64673 5.56374 3.63273 5.49813 3.60861C5.41468 3.58662 5.3303 3.56925 5.24491 3.5565L5.20461 3.54544C5.18797 3.54057 5.1712 3.53657 5.15413 3.53345C5.08858 3.58156 5.03509 3.64473 4.97663 3.7019C4.89489 3.78113 4.81923 3.86636 4.73246 3.94152C4.69818 3.96964 4.67094 4.00676 4.63364 4.03281C4.61851 4.04581 4.59628 4.05687 4.59829 4.07892C4.59729 4.12903 4.59428 4.17921 4.59428 4.22832L4.58624 4.24138C4.58517 4.29549 4.56803 4.34666 4.56401 4.39977C4.55799 4.43789 4.55698 4.476 4.54788 4.51412C4.54668 4.5408 4.54329 4.56717 4.53777 4.59335C4.52264 4.68257 4.5136 4.7738 4.49746 4.86308C4.48133 4.95231 4.47021 5.01448 4.46111 5.09171C4.45175 5.12145 4.44573 5.15188 4.44296 5.18293C4.43694 5.2451 4.42181 5.30728 4.42181 5.37045L4.48836 5.34239C4.56502 5.33133 4.64576 5.33033 4.71834 5.30028L4.74056 5.29622L4.8112 5.27516L4.83738 5.26516C4.84447 5.17994 4.86563 5.09671 4.87065 5.01148C4.88277 4.88814 4.90399 4.7648 4.91203 4.64046C4.92013 4.51612 4.92716 4.42189 4.93928 4.31355C4.97054 4.32361 5.00282 4.3326 5.03509 4.34166C5.15011 4.36572 5.26513 4.39078 5.38109 4.41283C5.49712 4.43489 5.63939 4.477 5.77049 4.49806L5.80075 4.51012C5.83861 4.51943 5.87697 4.52611 5.91577 4.53018C5.88815 4.57066 5.85788 4.60909 5.82498 4.64546C5.74223 4.7608 5.65553 4.87208 5.57177 4.98643C5.48808 5.10071 5.40332 5.21405 5.32766 5.33433C5.29238 5.3845 5.249 5.42962 5.21365 5.47973C5.16888 5.54184 5.12041 5.60101 5.06843 5.65724C5.01895 5.71235 4.98166 5.77658 4.92816 5.8287C4.92816 5.74247 4.9433 5.65724 4.95541 5.57202C4.95924 5.50503 4.96697 5.43849 4.97864 5.37245C4.88478 5.41456 4.78495 5.44568 4.69617 5.49779C4.6074 5.54996 4.50248 5.58701 4.4046 5.63019C4.30678 5.6733 4.20287 5.73341 4.09796 5.77758C3.95776 5.83669 3.8266 5.91292 3.68842 5.97509C3.71868 6.01421 3.74385 6.05732 3.7711 6.09843C3.82158 6.1706 3.86999 6.24383 3.91739 6.317C3.94163 6.35411 3.9739 6.38623 3.99506 6.42535C4.06569 6.55968 4.1625 6.67803 4.23816 6.80937C4.31382 6.9407 4.38746 7.05705 4.46921 7.17839C4.50952 7.24756 4.56301 7.30873 4.6003 7.37996C4.6074 7.39695 4.62655 7.41401 4.61543 7.43307C4.58417 7.48724 4.53476 7.52636 4.49037 7.56947C4.40159 7.6587 4.3098 7.74592 4.22001 7.83415C4.18473 7.87526 4.14838 7.91538 4.10907 7.95349C4.06971 7.99161 4.02632 8.05178 3.97792 8.09389C3.92951 8.136 3.872 8.20817 3.80846 8.25328L3.80545 8.2824C3.85184 8.2904 3.89724 8.30246 3.94364 8.31146C3.99003 8.32052 4.06569 8.33651 4.12621 8.35357L4.15648 8.36463C4.20388 8.37463 4.25028 8.38768 4.29768 8.40074C4.34508 8.41374 4.40058 8.41674 4.44899 8.4338C4.55799 8.46691 4.67094 8.48597 4.78194 8.51303L4.82124 8.52402C4.86595 8.53127 4.91002 8.54127 4.9534 8.55414C4.98517 8.56276 5.01744 8.56876 5.05022 8.5722C4.96044 8.72059 4.91303 8.88905 4.82834 9.04044C4.81521 9.0635 4.79299 9.08962 4.81013 9.11667C4.8586 9.2069 4.90092 9.30119 4.94229 9.39541C5.03716 9.53681 5.12387 9.68421 5.21365 9.8286C5.30751 9.95294 5.37507 10.0933 5.46686 10.2197C5.49781 10.2785 5.52939 10.337 5.56166 10.3951C5.56574 10.2658 5.56273 10.1375 5.56675 10.0081C5.57479 9.94595 5.57278 9.88278 5.57786 9.81961C5.5869 9.77443 5.57987 9.72932 5.59092 9.68421C5.59902 9.51775 5.60812 9.3523 5.62018 9.18584C5.62326 9.16678 5.62018 9.14473 5.63531 9.13073C5.6878 9.0655 5.75536 9.01539 5.81387 8.95622C5.87239 8.89705 5.9218 8.86399 5.97027 8.81082C6.01867 8.75771 6.06005 8.73359 6.10343 8.69354C6.10136 8.72759 6.10237 8.76271 6.09333 8.79576C6.08579 8.838 6.08039 8.88042 6.07719 8.92316C6.05697 8.97827 6.05396 9.03744 6.04285 9.09462C6.03883 9.10861 6.03481 9.12167 6.03079 9.13573L6.02878 9.16578L6.02068 9.17784C6.01466 9.24401 6.00254 9.31018 5.99344 9.37535L5.98132 9.41547C5.97127 9.46864 5.96317 9.52275 5.95106 9.57592C5.939 9.62903 5.92889 9.71432 5.91477 9.78249C5.90422 9.82011 5.8958 9.85822 5.88953 9.89677C5.87948 9.98806 5.85123 10.0763 5.83409 10.1665L5.82297 10.1966C5.81287 10.2367 5.80382 10.2769 5.79472 10.318L5.7826 10.348C5.77758 10.3781 5.76747 10.4082 5.76647 10.4382C5.7816 10.4954 5.81588 10.5445 5.84313 10.5957C5.87038 10.6468 5.90874 10.713 5.93693 10.7742C5.97002 10.8232 5.99858 10.8747 6.02269 10.9286C6.0711 11.0028 6.10343 11.086 6.15485 11.1572C6.20628 11.2284 6.23754 11.3096 6.27992 11.3849C6.29744 11.421 6.3169 11.4562 6.33844 11.4901L6.34453 11.5082C6.39093 11.5764 6.42521 11.6526 6.46859 11.7228C6.47261 11.6947 6.47763 11.6666 6.48372 11.6395L6.49584 11.6004C6.49885 11.5874 6.50187 11.5734 6.50488 11.5603L6.51398 11.5283L6.52102 11.5212C6.5293 11.4661 6.54073 11.4116 6.55536 11.3577C6.5725 11.2996 6.57752 11.2385 6.59975 11.1813L6.62593 11.082C6.76311 11.1964 6.90639 11.3046 7.05067 11.4089C7.09098 11.439 7.12224 11.4791 7.16362 11.5072C7.20499 11.5353 7.26351 11.5874 7.31794 11.6215C7.36152 11.6488 7.40157 11.6806 7.43799 11.7168C7.50159 11.7769 7.57925 11.8221 7.6448 11.8812C7.6912 11.9173 7.73358 11.9594 7.77897 11.9965C7.81225 11.9685 7.84352 11.9373 7.87786 11.9103C7.97568 11.8371 8.06546 11.7549 8.16334 11.6817C8.23291 11.6185 8.31465 11.5714 8.38422 11.5092C8.45385 11.447 8.54765 11.3768 8.63341 11.3156C8.7333 11.2375 8.83414 11.1602 8.93905 11.0891C8.94916 11.1292 8.95826 11.1682 8.96931 11.2084L8.98143 11.2385C8.98953 11.2816 8.99555 11.3257 9.00667 11.3688C9.03184 11.429 9.03492 11.4951 9.04804 11.5593L9.05809 11.5904C9.0682 11.6335 9.07623 11.6777 9.08534 11.7218L9.10047 11.7168C9.11058 11.6897 9.12332 11.664 9.13883 11.6395C9.20237 11.5543 9.24167 11.455 9.29516 11.3638C9.34866 11.2725 9.40918 11.1572 9.47071 11.057C9.58366 10.8414 9.70772 10.6318 9.81163 10.4112C9.79958 10.3871 9.78846 10.3631 9.77735 10.338C9.74809 10.2287 9.72185 10.1174 9.69868 10.0071C9.68154 9.93689 9.67953 9.86472 9.66133 9.79449C9.64318 9.72432 9.63615 9.63309 9.61392 9.55487C9.59176 9.47664 9.59076 9.42253 9.57663 9.3563C9.5625 9.29013 9.55742 9.21396 9.53726 9.14473C9.51711 9.07556 9.5151 8.98227 9.49287 8.90211C9.47071 8.82188 9.46763 8.76071 9.4606 8.68948C9.51202 8.73565 9.5625 8.78276 9.61694 8.82388C9.67445 8.88705 9.74408 8.93716 9.8046 8.99733C9.85602 9.04244 9.90141 9.09462 9.95491 9.13673C9.95491 9.22995 9.96602 9.32224 9.96702 9.41547C9.97431 9.48145 9.97732 9.54768 9.97607 9.61404L9.98517 9.62503C9.98517 9.67421 9.98316 9.72432 9.9912 9.77243C10.0063 9.979 10.0063 10.1856 10.0083 10.3921C10.0206 10.3787 10.031 10.364 10.0397 10.348C10.0548 10.2889 10.0891 10.2377 10.1203 10.1866C10.1748 10.0923 10.2424 10.0051 10.2948 9.90883C10.3806 9.79049 10.4522 9.66315 10.5309 9.54081C10.5591 9.50169 10.5763 9.45558 10.6055 9.41647C10.6671 9.33524 10.6913 9.23502 10.7357 9.14473C10.7458 9.12267 10.7579 9.09962 10.7518 9.07456C10.7458 9.0495 10.7196 9.00839 10.7064 8.97427C10.6933 8.94016 10.6691 8.89805 10.655 8.85899C10.6328 8.77877 10.5814 8.71053 10.5551 8.63137L10.5269 8.5722C10.6035 8.55514 10.6802 8.53708 10.7569 8.52102L10.7982 8.51003C10.8376 8.49997 10.8779 8.49197 10.9183 8.48397C10.9778 8.46491 11.0393 8.45585 11.1009 8.44486L11.1311 8.4328C11.1785 8.4218 11.2259 8.41374 11.2724 8.40174L11.3016 8.39068C11.3528 8.38194 11.4033 8.36988 11.453 8.35457C11.5135 8.33751 11.575 8.32651 11.6355 8.31046L11.7374 8.2904L11.7818 8.2864C11.7334 8.23023 11.6768 8.18511 11.6304 8.131Z" fill="black"/>
</g>
<mask id="mask3_10_61" style="mask-type:luminance" maskUnits="userSpaceOnUse" x="5" y="4" width="3" height="5">
<path d="M5.18274 4.88306H7.77556V8.97794H5.18274V4.88306Z" fill="white"/>
</mask>
<g mask="url(#mask3_10_61)">
<path d="M9.48651 7.38192C9.58433 7.3027 9.67612 7.21547 9.77903 7.14124C9.8123 7.11818 9.83955 7.08813 9.86981 7.06101C9.92431 7.0119 9.98684 6.97079 10.0383 6.91761C10.0897 6.8645 10.1523 6.82439 10.2078 6.77522C10.2632 6.7261 10.3086 6.68899 10.3611 6.64887C10.3187 6.5877 10.2652 6.53459 10.2188 6.47642C10.1724 6.41825 10.1059 6.35308 10.0555 6.28691C9.98182 6.18663 9.88695 6.1014 9.83553 5.98612C9.81029 5.92495 9.77802 5.86678 9.75178 5.80561C9.73665 5.77249 9.72151 5.73744 9.69326 5.71338C9.63682 5.66221 9.58634 5.60503 9.52581 5.55892C9.42561 5.46732 9.32271 5.37878 9.21716 5.29318C9.17121 5.24894 9.12311 5.20721 9.07288 5.16784C8.99622 5.11073 8.92559 5.0465 8.85301 4.98539C8.81766 4.95627 8.77836 4.93022 8.74502 4.8981L8.72889 4.8951C8.53934 4.99995 8.34364 5.09186 8.14179 5.17084C8.02275 5.21195 7.9108 5.26913 7.79578 5.3193C7.74536 5.3183 7.70198 5.28918 7.65558 5.27413C7.48914 5.1889 7.30756 5.13779 7.14112 5.05256C7.03721 5.00139 6.93029 4.95527 6.8304 4.8941C6.65485 5.04756 6.47026 5.1889 6.29572 5.34336C6.21304 5.40753 6.13637 5.47869 6.05764 5.54793C5.99712 5.59104 5.94771 5.64615 5.8912 5.69332C5.8556 5.72381 5.83036 5.76124 5.81554 5.80561C5.80242 5.84172 5.78126 5.87377 5.76613 5.90889C5.73587 5.96606 5.71773 6.03023 5.67635 6.08134C5.58155 6.20068 5.48467 6.31903 5.38176 6.43231C5.32545 6.50385 5.26423 6.57102 5.19818 6.63388L5.20226 6.64688C5.29908 6.71811 5.38283 6.80533 5.47663 6.88056C5.53006 6.91961 5.57244 6.97179 5.62493 7.0129C5.72984 7.09213 5.82264 7.18635 5.93157 7.26158C6.0405 7.33675 6.13939 7.42704 6.23419 7.52026C6.31085 7.58743 6.38551 7.65866 6.46625 7.72183C6.45212 7.82312 6.42186 7.9214 6.40673 8.02262C6.38318 8.10848 6.36736 8.19577 6.35932 8.28437C6.42989 8.34354 6.52269 8.36559 6.60243 8.41071L6.61856 8.45182L6.6266 8.49093C6.65083 8.5661 6.65184 8.64733 6.67607 8.72256C6.68712 8.76967 6.69824 8.81785 6.71739 8.86296C6.7366 8.90807 6.73961 8.92913 6.74966 8.96218C6.79813 8.91307 6.84955 8.86496 6.89494 8.81378C6.89293 8.77267 6.89996 8.71956 6.86468 8.68944C6.96557 8.64733 7.07049 8.61528 7.17032 8.56916C7.27021 8.52299 7.37612 8.47888 7.48003 8.43576C7.56479 8.39465 7.64949 8.35453 7.73827 8.32148C7.75949 8.31242 7.78366 8.29842 7.80689 8.31242C7.88054 8.34554 7.95619 8.37659 8.02984 8.41171C8.16093 8.46988 8.29209 8.52505 8.42425 8.58116C8.49991 8.61428 8.57557 8.65539 8.65932 8.66239C8.67238 8.71956 8.66937 8.77873 8.6936 8.83284C8.71777 8.88701 8.72889 8.93013 8.77328 8.95918C8.81365 8.91307 8.84089 8.8569 8.86306 8.80079C8.88528 8.74462 8.8893 8.71256 8.90845 8.67145C8.91956 8.59422 8.92258 8.51599 8.93269 8.43776C9.01738 8.37559 9.1233 8.34854 9.20706 8.28337C9.20806 8.2212 9.19092 8.16202 9.18282 8.10085C9.15664 8.04368 9.15356 7.97951 9.1395 7.91834C9.12939 7.88029 9.11426 7.84417 9.10214 7.80806C9.09812 7.787 9.08199 7.76395 9.08701 7.74289C9.21817 7.62055 9.34933 7.49721 9.48651 7.38192ZM8.99723 6.54665C8.95184 6.56771 8.90745 6.59177 8.86105 6.60882C8.81465 6.62582 8.7874 6.60576 8.75413 6.62082C8.70264 6.66893 8.66434 6.7281 8.62196 6.78328C8.57958 6.83845 8.53419 6.89456 8.4888 6.94873C8.49206 6.9726 8.49746 6.99597 8.50493 7.0189C8.51705 7.11319 8.53017 7.20841 8.54832 7.3017C8.55033 7.35681 8.55033 7.41198 8.5534 7.46715L8.56546 7.49921C8.56747 7.51926 8.5917 7.54738 8.56853 7.56338C8.49891 7.56944 8.42827 7.56238 8.35871 7.56537C8.26484 7.65966 8.15792 7.73789 8.06412 7.83311C7.98062 7.92903 7.88883 8.01625 7.78875 8.09486C7.74838 8.06274 7.70198 8.03968 7.66462 8.00357C7.60918 7.94746 7.55368 7.89329 7.50326 7.83311C7.4084 7.75289 7.32671 7.65866 7.22582 7.58643C7.16479 7.57493 7.10326 7.57025 7.04123 7.57244L7.017 7.54132C7.01599 7.47715 7.01499 7.41398 7.018 7.35081C7.02371 7.31394 7.02673 7.27683 7.0271 7.23953L7.03621 7.23047C7.04324 7.12218 7.06948 7.0149 7.06848 6.90562C7.00456 6.86057 6.95346 6.80408 6.91516 6.73616C6.90103 6.71205 6.88992 6.68699 6.87077 6.66693C6.85156 6.64688 6.79813 6.62988 6.75876 6.61882C6.70326 6.60276 6.65184 6.57871 6.59835 6.55865C6.54492 6.53859 6.4864 6.50654 6.42889 6.48548C6.40773 6.47842 6.38551 6.47142 6.37037 6.45537C6.26044 6.34508 6.17266 6.21574 6.07177 6.0974C6.06373 6.08734 6.05262 6.07434 6.06072 6.06029C6.094 5.99612 6.14542 5.946 6.19589 5.89483C6.22308 5.86478 6.26847 5.86578 6.29874 5.83972C6.35524 5.83666 6.40874 5.85472 6.46317 5.86578L6.52978 5.88583L6.56005 5.89583C6.62158 5.92089 6.68813 5.92995 6.75173 5.952L6.8233 5.97606L6.85357 5.98612C6.90605 6.00718 6.96156 6.01917 7.01599 6.03723L7.03822 6.04023L7.05837 6.06129C7.06597 6.1029 7.0757 6.14401 7.08763 6.18463C7.09874 6.2478 7.10678 6.31197 7.11689 6.37514C7.14213 6.44637 7.14005 6.52253 7.15318 6.59476C7.15927 6.61482 7.16328 6.63488 7.16831 6.65594C7.18344 6.77928 7.20165 6.90262 7.20767 7.02696C7.20365 7.06301 7.20064 7.09913 7.19355 7.13524C7.19254 7.22447 7.1673 7.31169 7.16831 7.40098C7.43665 7.39992 7.70399 7.40498 7.97233 7.40198C8.12264 7.40198 8.27294 7.39992 8.42325 7.40198C8.41616 7.37993 8.41013 7.35887 8.4031 7.33675C8.396 7.31469 8.40002 7.31169 8.39901 7.2987C8.38187 7.21547 8.37484 7.13124 8.36473 7.04702C8.3577 6.98278 8.36473 6.91761 8.37786 6.85544C8.39098 6.79327 8.39098 6.71411 8.40711 6.64588C8.42319 6.56059 8.43499 6.47467 8.4424 6.3882L8.4505 6.37714L8.45351 6.34708C8.47065 6.25686 8.48377 6.16457 8.50393 6.07434L8.51504 6.05129C8.57456 6.02517 8.63709 6.01117 8.69963 5.99312L8.71884 5.98812L8.7491 5.97706L8.78941 5.96406C8.92057 5.92395 9.05273 5.88683 9.18489 5.85072C9.2242 5.83666 9.26457 5.85172 9.30494 5.85272C9.39974 5.88983 9.49153 5.96706 9.49963 6.07534C9.49053 6.13651 9.44815 6.18463 9.40577 6.22674C9.34424 6.29291 9.29081 6.36714 9.22219 6.42631C9.20549 6.44299 9.19035 6.46105 9.17679 6.48042L9.15155 6.48848C9.09304 6.48948 9.04764 6.52453 8.99723 6.54665Z" fill="black"/>
</g>
<path d="M6.67039 6.12549C6.64013 6.08338 6.58362 6.07638 6.5403 6.05332C6.47167 6.01921 6.39803 6.00015 6.32338 5.98309C6.28778 6.00046 6.25117 6.01521 6.21344 6.02727C6.22958 6.06232 6.25682 6.09044 6.28301 6.11849C6.32338 6.16861 6.36375 6.21878 6.40405 6.26889C6.42829 6.30001 6.46766 6.312 6.50395 6.32406C6.56974 6.3553 6.63799 6.37967 6.70875 6.39723C6.72526 6.40179 6.74203 6.40292 6.75898 6.40067C6.77599 6.39835 6.79181 6.39292 6.80657 6.38423C6.80657 6.36518 6.80657 6.34612 6.80556 6.32706C6.77028 6.25283 6.71578 6.19272 6.67039 6.12549Z" fill="black"/>
<mask id="mask4_10_61" style="mask-type:luminance" maskUnits="userSpaceOnUse" x="6" y="8" width="2" height="3">
<path d="M6.85498 8.77005H7.77622V10.0337H6.85498V8.77005Z" fill="white"/>
</mask>
<g mask="url(#mask4_10_61)">
<path d="M8.3769 9.1618C8.31939 9.11869 8.26589 9.07157 8.20845 9.02746C8.10046 8.94623 7.99554 8.85694 7.87048 8.79983L7.84021 8.79077L7.80085 8.77878C7.76958 8.78465 7.739 8.79302 7.70906 8.80383L7.65964 8.82089C7.57187 8.86001 7.49822 8.92118 7.42357 8.97929C7.38327 9.0214 7.32877 9.04546 7.28639 9.08457C7.21274 9.1518 7.12805 9.20591 7.05239 9.27108C7.01604 9.3022 6.98778 9.34131 6.9525 9.37437C6.91721 9.40748 6.90309 9.43454 6.89901 9.47265C6.89398 9.50745 6.88588 9.54151 6.87483 9.57494C6.86774 9.59599 6.86272 9.61805 6.85669 9.63911L6.9051 9.67722C6.97837 9.70415 7.05 9.73495 7.11995 9.76945C7.17243 9.7895 7.22586 9.80956 7.27735 9.83262C7.36405 9.87173 7.45691 9.89479 7.54161 9.9379L7.55774 9.94196C7.62737 9.96902 7.69292 10.0041 7.76355 10.0302C7.82106 10.0322 7.87048 9.99907 7.92196 9.98001C8.07528 9.90984 8.23563 9.85667 8.39002 9.7885C8.46367 9.75645 8.53625 9.72233 8.6119 9.69628C8.64116 9.68397 8.66904 9.66928 8.69566 9.65216C8.69063 9.58493 8.67651 9.51976 8.66238 9.45459C8.6109 9.32225 8.4798 9.25002 8.3769 9.1618Z" fill="black"/>
</g>
</svg>
