<svg width="150" height="150" viewBox="0 0 150 150" fill="none" xmlns="http://www.w3.org/2000/svg">
<rect width="150" height="150" rx="75" fill="#769882"/>
<path d="M92.7258 64.9265C92.6004 64.7978 92.475 64.6691 92.7258 64.9265V64.9265ZM72.7864 116.011V31.7279L60.4967 46.3971H68.5226L54.101 66.9853H63.8826L47.9561 90.5331H65.5129H67.0177V92.0772V118.327L72.7864 116.011ZM84.4491 90.5331C84.9507 90.5331 85.4523 90.5331 85.9539 90.5331C86.8318 90.5331 87.835 90.5331 88.7128 90.4044C89.9669 90.4044 91.2209 90.1471 92.2242 89.761C93.3528 89.375 94.2307 88.989 95.1085 88.4743C95.2339 88.3456 95.4847 88.3456 95.4847 88.2169C97.8674 86.6728 99.2469 83.9706 99.7485 81.2684C100.25 78.4375 99.8739 75.4779 98.6198 73.2904C98.4944 73.1618 98.4944 73.0331 98.369 72.9044C97.742 71.875 96.8642 70.8456 95.8609 70.0735C94.9831 69.3015 93.8545 68.6581 92.6004 68.2721C92.6004 68.2721 92.475 68.2721 92.2242 68.1434C91.7226 68.0147 91.4717 67.886 91.0955 67.7574C89.4653 66.8566 89.4653 66.0846 90.5939 63.8971C90.8447 63.3824 91.0955 62.8676 91.2209 62.4816C92.2242 59.6507 92.3496 56.8199 91.4717 54.375C90.7193 51.9301 88.9636 49.8713 86.7064 48.5846C86.3301 48.4559 85.9539 48.1985 85.5777 48.0699C83.4458 47.2978 83.0696 46.9118 83.6966 45.239C83.822 44.9816 83.822 44.8529 83.9474 44.5956C84.0728 44.4669 84.1982 44.2096 84.3237 43.8235C84.8253 42.5368 84.9507 41.1213 84.8253 39.7059C84.6999 38.1618 84.1982 36.489 83.3204 35.2022C82.4426 33.9154 81.1885 32.7574 79.4329 31.9853C78.3042 31.5993 77.0502 31.3419 75.4199 31.2132V116.011L80.9377 118.327V92.0772V90.5331H84.4491ZM73.288 28.125H75.2945H76.0469H76.1723C77.928 28.2537 79.4328 28.511 80.8123 29.0257C83.195 29.9265 84.9507 31.4706 86.2047 33.4007C87.4588 35.2022 88.0858 37.3897 88.2112 39.4485C88.3366 41.3787 88.0858 43.3088 87.4588 44.8529C87.4588 44.9816 87.3334 45.1103 87.3334 45.1103C87.7096 45.239 87.9604 45.3676 88.3366 45.625C91.3463 47.2978 93.4782 50 94.6069 53.0882C95.6101 56.1765 95.6101 59.7794 94.2307 63.3824C93.9799 63.8971 93.729 64.5404 93.4782 65.0551L93.729 65.1838C95.3593 65.6985 96.7388 66.5993 97.8674 67.5C99.1215 68.5294 100.25 69.8162 101.003 71.2316C101.128 71.489 101.253 71.6177 101.379 71.7463C102.884 74.5772 103.511 78.3088 102.884 81.7831C102.257 85.386 100.376 88.7316 97.2404 90.7904C96.9896 90.9191 96.8642 91.0478 96.7388 91.1765C95.6101 91.8199 94.4815 92.3346 93.2274 92.7206C91.9734 93.1066 90.4685 93.364 88.9636 93.4926C88.0858 93.4926 87.208 93.6213 86.2047 93.6213C85.7031 93.6213 85.2015 93.6213 84.6999 93.6213V121.673L74.542 126.563L64.3842 121.673V93.6213H45.0718H42.1875L43.8178 91.1765L57.8632 70.0735H47.9561L62.3777 49.4853H53.7248L70.5291 29.4118C71.5323 28.2537 72.0339 28.125 73.288 28.125ZM68.2718 121.029L74.1658 123.217L80.4361 121.029L74.1658 118.842L68.2718 121.029Z" fill="white"/>
</svg>
