<svg width="32" height="38" viewBox="0 0 32 38" fill="none" xmlns="http://www.w3.org/2000/svg">
<path fill-rule="evenodd" clip-rule="evenodd" d="M29.05 27.451L24.55 29.0074C24.325 29.0074 24.325 29.0074 24.1 29.0074C23.875 29.0074 23.875 28.7851 23.875 28.7851L21.625 22.5592H10.375L8.125 28.7851C8.125 29.0074 7.9 29.0074 7.9 29.0074C7.675 29.0074 7.675 29.0074 7.45 29.0074L2.95 27.451H2.725C2.725 27.451 2.725 27.451 2.5 27.2286V27.0063V26.7839L11.5 2.99215C11.95 2.10274 12.4 1.43568 13.3 0.990974C13.975 0.323915 14.875 0.101562 16 0.101562C16.9 0.101562 17.8 0.323915 18.475 0.768621C19.15 1.21333 19.825 1.88039 20.275 2.7698L29.5 26.7839V27.0063V27.2286C29.5 27.2286 29.275 27.2286 29.05 27.451C29.275 27.451 29.05 27.451 29.05 27.451ZM16.675 8.99568L16 6.9945L11.725 17.8898H20.05L16.675 8.99568ZM2.5 33.4545H29.5C30.175 33.4545 30.625 33.6769 31.075 34.1216C31.525 34.5663 31.75 35.011 31.75 35.678C31.75 36.3451 31.525 36.7898 31.075 37.2345C30.625 37.6792 29.95 37.9016 29.5 37.9016H2.5C1.825 37.9016 1.375 37.6792 0.925 37.2345C0.475 36.7898 0.25 36.1227 0.25 35.678C0.25 35.011 0.475 34.5663 0.925 34.1216C1.375 33.6769 1.825 33.4545 2.5 33.4545Z" fill="#EB5757"/>
</svg>
