<svg width="92" height="38" viewBox="0 0 92 38" fill="none" xmlns="http://www.w3.org/2000/svg">
<g clip-path="url(#clip0_1101_119586)">
<path d="M17.1274 5.25266C16.061 6.49768 14.3544 7.48002 12.648 7.33956C12.4347 5.65615 13.2701 3.86718 14.2478 2.76226C15.3142 1.48217 17.1808 0.570142 18.6917 0.5C18.8694 2.25373 18.1763 3.97239 17.1276 5.25266H17.1274ZM18.6739 7.67291C16.203 7.53263 14.0878 9.05822 12.9146 9.05822C11.7238 9.05822 9.92831 7.74306 7.97305 7.77813C5.43128 7.8132 3.06705 9.23358 1.76941 11.496C-0.896957 16.0207 1.07625 22.7202 3.65358 26.403C4.91567 28.2269 6.42659 30.2261 8.41739 30.1559C10.3017 30.0858 11.0482 28.946 13.3236 28.946C15.6165 28.946 16.2743 30.1559 18.2651 30.1209C20.327 30.0858 21.6247 28.2972 22.8867 26.4731C24.3264 24.4038 24.9131 22.3868 24.9486 22.2816C24.9131 22.2465 20.967 20.756 20.9315 16.2662C20.8959 12.5133 24.0422 10.7245 24.1844 10.6192C22.4067 8.02363 19.6339 7.74306 18.6739 7.67291ZM32.9478 2.58691V29.9282H37.2493V20.5807H43.2041C48.6433 20.5807 52.4651 16.8978 52.4651 11.5663C52.4651 6.235 48.7144 2.58708 43.3463 2.58708H32.9476L32.9478 2.58691ZM37.2493 6.16468H42.2086C45.9416 6.16468 48.0745 8.12884 48.0745 11.5837C48.0745 15.0385 45.9416 17.0204 42.1908 17.0204H37.2493V6.16468ZM60.3219 30.1384C63.0238 30.1384 65.53 28.7882 66.6677 26.6485H66.7566V29.928H70.7383V16.3188C70.7383 12.373 67.5388 9.82996 62.6148 9.82996C58.0465 9.82996 54.6692 12.408 54.5448 15.9506H58.4199C58.7399 14.267 60.3217 13.1621 62.4904 13.1621C65.1212 13.1621 66.5966 14.3722 66.5966 16.5996V18.1076L61.2283 18.4233C56.2334 18.7214 53.5317 20.7383 53.5317 24.2459C53.5317 27.7885 56.3223 30.1384 60.3219 30.1384ZM61.4771 26.894C59.1844 26.894 57.7266 25.8068 57.7266 24.1405C57.7266 22.4221 59.1309 21.4224 61.815 21.2645L66.5966 20.9664V22.5096C66.5966 25.0701 64.3925 26.894 61.4773 26.894H61.4771ZM76.0531 37.3639C80.2482 37.3639 82.2212 35.7857 83.9454 30.9978L91.5 10.093H87.1272L82.0613 26.245H81.9724L76.9064 10.093H72.4092L79.6971 29.9981L79.306 31.2082C78.6484 33.2601 77.5818 34.0494 75.6799 34.0494C75.3422 34.0494 74.6846 34.0143 74.4178 33.9792V37.2587C74.6666 37.3289 75.733 37.3639 76.0531 37.3639Z" fill="black"/>
</g>
<defs>
<clipPath id="clip0_1101_119586">
<rect width="91" height="37" fill="white" transform="translate(0.5 0.5)"/>
</clipPath>
</defs>
</svg>
