<svg width="128" height="34" viewBox="0 0 128 34" fill="none" xmlns="http://www.w3.org/2000/svg">
<path d="M101.619 7.6449C100.37 6.98174 98.4954 6.48438 95.84 6.48438C94.5904 6.48438 93.1847 6.65016 91.9351 6.81595C90.9979 6.98174 90.8417 6.98174 90.2169 7.14753C88.9673 7.47911 88.8111 8.80543 88.8111 8.80543L88.3425 10.4633C88.1863 11.6238 88.6549 11.4581 88.9673 11.4581C89.4359 11.2923 89.7483 11.1265 90.8417 10.7949C91.9351 10.4633 93.0285 10.2975 93.9656 10.2975C95.2152 10.2975 96.3086 10.4633 96.9334 10.7949C97.5582 11.1265 97.8706 11.6238 97.8706 12.287C97.8706 12.4528 97.8706 12.6186 97.8706 12.7844C97.8706 12.9502 97.7144 13.116 97.402 13.116C95.5276 13.2817 94.278 13.4475 92.5599 13.6133C90.9979 13.7791 89.5921 14.2765 88.3425 14.7738C87.0929 15.437 86.1557 16.1002 85.5309 17.0949C84.9062 18.0896 84.5938 19.2502 84.5938 20.7423C84.5938 22.0686 85.0623 23.2291 85.9995 24.0581C86.9367 24.887 88.0301 25.3844 89.4359 25.3844C90.3731 25.3844 90.9979 25.3844 91.4665 25.2186C91.9351 25.0528 92.4037 24.887 93.0285 24.7212C93.4971 24.5554 93.9656 24.2238 94.4342 23.8923C94.9028 23.5607 95.2152 23.3949 95.6838 23.0633L95.5276 23.5607C95.3714 24.2238 95.84 24.7212 96.4648 24.887C96.9334 24.887 98.3392 24.887 98.964 24.887H99.4326C100.057 24.887 100.682 24.2238 100.838 23.5607L103.338 12.7844C103.338 12.4528 103.494 12.287 103.494 11.9554C103.494 11.6238 103.494 11.2923 103.494 11.1265C103.494 9.63437 102.869 8.47385 101.619 7.6449ZM95.84 20.7423C95.3714 21.0738 95.059 21.2396 94.5904 21.4054C93.9657 21.737 93.3409 21.737 92.8723 21.737C92.0913 21.737 91.4665 21.5712 90.9979 21.4054C90.5293 21.2396 90.3731 20.7423 90.3731 20.0791C90.3731 19.416 90.5293 18.7528 90.8417 18.4212C91.1541 17.9238 91.6227 17.5923 92.2475 17.4265C92.8723 17.2607 93.4971 17.0949 94.4342 16.9291C95.2152 16.7633 96.621 16.5975 96.7772 16.5975C96.9334 16.5975 97.0896 16.4317 96.9334 17.0949C96.9334 17.2607 96.4648 19.2502 96.3086 20.0791C96.3086 20.2449 95.9962 20.5765 95.84 20.7423Z" fill="#298FC2"/>
<path d="M58.7939 6.65394C58.1289 6.65394 57.1314 7.3322 56.6326 8.01046C56.6326 8.01046 51.6451 16.6583 51.1464 17.5061C50.8139 18.0148 50.6476 17.6757 50.4814 17.5061C50.4814 17.3365 48.9851 8.01046 48.9851 8.01046C48.8189 7.3322 47.9876 6.65394 47.1564 6.65394H43.9976C43.1664 6.65394 42.8339 7.3322 43.0001 8.01046C43.0001 8.01046 45.3276 21.7452 45.8264 24.967C45.9926 26.8322 45.8264 27.0018 45.8264 27.0018L42.8339 32.4279C42.3351 33.1061 42.6676 33.7844 43.3326 33.7844H46.9901C47.6551 33.7844 48.6526 33.1061 49.1514 32.4279L62.9501 8.51916C62.9501 8.51916 64.2801 6.48438 63.1164 6.48438C62.1189 6.65394 58.7939 6.65394 58.7939 6.65394Z" fill="#28356A"/>
<path d="M15.571 11.7359C14.5963 12.4359 13.1342 12.9609 11.3472 12.9609H10.5349C9.72268 12.9609 9.23532 12.2609 9.56022 11.5609L10.5349 6.83594C10.6974 6.13594 11.3472 5.43594 12.1595 5.43594H13.2967C14.5963 5.43594 15.571 5.61094 16.2209 6.13594C16.8707 6.66094 17.1956 7.36094 17.1956 8.23594C17.1956 9.81094 16.7082 10.8609 15.571 11.7359ZM22.8815 4.38594C22.3941 3.51094 21.9068 2.81094 21.0945 2.28594C20.2822 1.76094 19.3075 1.41094 18.1703 1.06094C17.0331 0.885937 15.7335 0.710938 14.1089 0.710938H7.12341C6.31114 0.710938 5.66132 1.41094 5.49887 2.11094L0.625236 24.5109C0.462782 25.2109 0.950145 25.9109 1.59996 25.9109H5.0115C5.66132 25.9109 6.47359 25.2109 6.63605 24.5109L7.77323 19.0859C8.09813 18.2109 8.74795 17.6859 9.56022 17.6859H10.5349C14.7588 17.6859 17.8454 16.8109 20.2822 14.8859C22.5566 13.1359 23.6937 10.6859 23.6937 7.71094C23.5313 6.31094 23.3688 5.26094 22.8815 4.38594Z" fill="#28356A"/>
<path d="M76.4818 11.4781C75.5002 12.3531 74.0277 12.7031 72.2281 12.7031H71.41C70.592 12.7031 70.2648 12.0031 70.4284 11.3031L71.41 6.57812C71.5736 5.87813 72.2281 5.17812 73.0461 5.17812H74.1913C75.5002 5.17812 76.4818 5.35312 77.1362 5.87812C77.7906 6.40312 78.1178 7.10313 78.1178 7.97813C78.1178 9.55313 77.627 10.7781 76.4818 11.4781ZM84.0076 4.12812C83.5168 3.25312 82.8624 2.55312 82.208 2.02812C81.3899 1.50312 80.4083 1.15312 79.2631 0.803125C77.9542 0.628125 76.6454 0.453125 75.0094 0.453125H67.8107C66.9927 0.453125 66.3383 1.15312 66.1747 1.85312L61.4301 24.2531C61.2665 24.9531 61.7574 25.6531 62.4118 25.6531H65.8475C66.5019 25.6531 67.3199 24.9531 67.4835 24.2531L68.6288 18.8281C68.7924 18.1281 69.6104 17.4281 70.2648 17.4281H71.41C75.6638 17.4281 78.7723 16.5531 81.2263 14.6281C83.3532 12.8781 84.4984 10.4281 84.4984 7.45312C84.4984 6.22813 84.3348 5.00312 84.0076 4.12812Z" fill="#298FC2"/>
<path d="M38.51 7.7577C37.25 7.10598 35.36 6.61719 32.6825 6.61719C31.4225 6.61719 30.005 6.78012 28.745 6.94305C27.8 7.10598 27.6425 7.10598 27.0125 7.26891C25.7525 7.59477 25.595 8.89822 25.595 8.89822L25.1225 10.5275C24.965 11.668 25.4375 11.5051 25.7525 11.5051C26.3825 11.3422 26.54 11.1793 27.8 11.0163C28.9025 10.6905 30.005 10.5275 30.95 10.5275C32.21 10.5275 33.3125 10.6905 33.9425 11.0163C34.5725 11.3422 34.8875 11.831 34.8875 12.4827C34.8875 12.6456 34.8875 12.8086 34.8875 12.9715C34.8875 13.1344 34.73 13.2974 34.415 13.2974C32.525 13.4603 31.265 13.6232 29.5325 13.7862C27.9575 13.9491 26.54 14.4379 25.28 14.9267C24.02 15.5784 23.075 16.2301 22.445 17.2077C21.815 18.3482 21.5 19.4887 21.5 20.9551C21.5 22.2586 21.9725 23.3991 22.9175 24.2137C23.8625 25.0284 24.965 25.5172 26.3825 25.5172C27.3275 25.5172 27.9575 25.5172 28.43 25.3543C28.9025 25.1913 29.375 25.0284 30.005 24.8655C30.4775 24.7025 30.95 24.3767 31.4225 24.0508C31.895 23.7249 32.21 23.562 32.6825 23.2362L32.525 23.7249C32.3675 24.3767 32.84 24.8655 33.47 25.0284C33.9425 25.0284 35.36 25.0284 35.99 25.0284H36.4625C37.0925 24.8655 37.7225 24.3767 37.88 23.7249L40.2425 12.8086C40.2425 12.4827 40.4 12.3198 40.4 11.9939C40.4 11.668 40.4 11.3422 40.4 11.1793C40.4 9.54995 39.77 8.57236 38.51 7.7577ZM32.6825 20.6293C32.21 20.9551 31.895 21.118 31.4225 21.281C30.7925 21.6068 30.1625 21.6068 29.69 21.6068C28.9025 21.6068 28.2725 21.4439 27.8 21.281C27.3275 21.118 27.17 20.6293 27.17 19.9775C27.17 19.3258 27.3275 18.6741 27.6425 18.3482C27.9575 17.8594 28.43 17.5336 29.06 17.3706C29.69 17.2077 30.32 17.0448 31.265 16.8818C32.0525 16.7189 33.47 16.556 33.6275 16.556C33.785 16.556 33.9425 16.3931 33.785 17.0448C33.785 17.2077 33.3125 19.1629 33.155 19.9775C33.155 20.1405 32.84 20.4663 32.6825 20.6293Z" fill="#28356A"/>
<path d="M112.864 0.21875H109.72C109.058 0.21875 108.396 0.747421 108.065 1.45232C108.065 1.45232 108.065 1.45232 108.065 1.62854C108.065 1.62854 108.065 1.98099 107.899 2.50966L103.596 23.1278C103.431 23.6565 103.431 24.009 103.431 24.009C103.265 24.7139 103.762 25.2425 104.424 25.4187H107.568C108.23 25.4187 108.892 24.8901 109.223 24.1852C109.223 24.1852 109.223 24.1852 109.223 24.009L113.857 1.62854C114.023 0.747421 113.692 0.21875 112.864 0.21875Z" fill="#298FC2"/>
<path d="M119.006 6.50279C118.845 6.50279 118.845 6.50279 118.683 6.50279C118.522 6.50279 118.522 6.50279 118.36 6.50279C118.037 6.50279 117.714 6.34132 117.552 6.17986C117.391 6.01839 117.229 5.69546 117.229 5.37253V3.75788H116.906V3.27348H117.229V2.30469H117.714V3.27348H118.845V3.75788H117.714V5.21106C117.714 5.37253 117.714 5.53399 117.714 5.53399C117.714 5.69546 117.714 5.69546 117.875 5.85693L118.037 6.01839C118.037 6.01839 118.199 6.01839 118.36 6.01839C118.522 6.01839 118.522 6.01839 118.683 6.01839C118.845 6.01839 118.845 6.01839 118.845 6.01839V6.50279H119.006Z" fill="#22284F"/>
<path d="M127.192 6.50279H126.562V4.21291C126.562 4.02209 126.562 3.83127 126.562 3.64045C126.562 3.44962 126.562 3.44962 126.352 3.2588C126.352 3.06798 126.142 3.06798 126.142 3.06798C125.932 3.06798 125.932 3.06798 125.722 3.06798C125.512 3.06798 125.302 3.06798 125.092 3.2588C124.882 3.2588 124.672 3.44962 124.462 3.64045V3.83127V4.02209V6.50279H123.832V4.21291C123.832 4.02209 123.832 3.83127 123.832 3.64045C123.832 3.44962 123.832 3.44962 123.622 3.2588C123.622 3.06798 123.412 3.06798 123.412 3.06798C123.202 3.06798 123.202 3.06798 122.992 3.06798C122.782 3.06798 122.572 3.06798 122.362 3.2588C122.152 3.2588 121.942 3.44962 121.732 3.64045V6.50279H121.102V2.68633H121.732V3.06798C121.942 2.87716 122.152 2.68633 122.362 2.68633C122.572 2.68633 122.782 2.49551 122.992 2.49551C123.202 2.49551 123.622 2.49551 123.832 2.68633C124.042 2.87716 124.252 2.87716 124.252 3.06798C124.462 2.87716 124.882 2.68633 125.092 2.49551C125.302 2.30469 125.512 2.30469 125.932 2.30469C126.352 2.30469 126.772 2.49551 126.982 2.68633C127.192 2.87716 127.402 3.2588 127.402 3.83127V6.50279H127.192Z" fill="#22284F"/>
</svg>
