<svg xmlns="http://www.w3.org/2000/svg" width="100" height="26" viewBox="0 0 100 26" fill="none">
<mask id="mask0_115_341" style="mask-type:luminance" maskUnits="userSpaceOnUse" x="6" y="0" width="24" height="26">
<path d="M6 0H29.1395V25.9404H6V0Z" fill="white"/>
</mask>
<g mask="url(#mask0_115_341)">
<path d="M7.11435 6.03628C7.22673 7.53394 7.49046 10.0966 8.08247 12.6443C8.4901 14.4009 9.05302 16.1525 9.82535 17.5307C10.9727 19.5792 12.5767 21.2076 14.0875 22.4235C15.4607 23.5289 16.7568 24.2958 17.5721 24.731C18.3836 24.2984 19.6761 23.5339 21.0492 22.4297C22.5587 21.2151 24.1655 19.5842 25.3164 17.5307C26.085 16.1551 26.6479 14.4047 27.0543 12.6467C27.6449 10.0979 27.91 7.53394 28.0223 6.03628C26.5482 5.35849 25.5032 4.46314 24.7674 3.53892C24.0934 2.6927 23.6743 1.82126 23.4169 1.07559H11.7249C11.4207 1.95573 10.8931 3.01078 9.98188 3.99286C9.28012 4.75243 8.34618 5.47036 7.11435 6.03628ZM7.04499 12.8808C6.38494 10.0325 6.12112 7.18182 6.02522 5.73573L6 5.35728L6.35209 5.21014C7.60151 4.69073 8.52294 4.00168 9.19682 3.27363C10.1132 2.28525 10.5852 1.21887 10.825 0.396471L10.9373 0.0117188H24.2032L24.3169 0.396471C24.5251 1.11075 24.9088 2.00984 25.6004 2.87753C26.2957 3.74896 27.3118 4.59649 28.7846 5.21014L29.1368 5.35728L29.1116 5.73573C29.0156 7.18182 28.7506 10.0349 28.0918 12.8832C27.6664 14.7254 27.0695 16.5714 26.2454 18.0464C25.016 20.2406 23.3122 21.9734 21.7157 23.2572C20.1279 24.5348 18.6335 25.3811 17.8158 25.8011L17.5708 25.9256L17.3286 25.8011C16.5058 25.3786 15.0101 24.5299 13.4211 23.251C11.822 21.9646 10.1207 20.2344 8.8965 18.0464C8.06976 16.5688 7.47154 14.7215 7.04499 12.8808Z" fill="#202020"/>
</g>
<path d="M17.2578 4.69894H19.3765C21.6058 4.56681 22.1797 4.54492 22.5109 4.54492H22.864C27.2563 4.54492 29.552 5.75439 29.552 8.0416C29.552 9.16315 29.0224 9.97706 27.9849 10.5047C27.2787 10.8565 26.771 11.0767 25.3362 11.3623C26.771 11.5382 27.3891 11.7584 28.2059 12.1763C29.5301 12.9017 30.2587 14.1113 30.2587 15.5189C30.2587 16.3324 29.9714 17.1463 29.4637 17.74C28.4707 18.9057 27.0799 19.3674 24.3652 19.3674H17.2578V19.0594C17.942 18.7737 18.1405 18.4218 18.1405 17.6079V6.45843C18.1405 5.64455 17.942 5.29273 17.2578 5.00698V4.69894ZM21.7384 11.0984H22.7538C25.1153 11.0984 26.3073 10.0869 26.3073 8.06349C26.3073 6.21646 25.1597 5.11682 23.2834 5.11682C22.1578 5.11682 21.7384 5.46863 21.7384 6.41425V11.0984ZM21.7384 11.8245V17.5861C21.7384 18.4879 22.1797 18.8178 23.3498 18.8178C23.9458 18.8178 24.431 18.7298 24.8285 18.5759C25.9103 18.1137 26.6828 16.7502 26.6828 15.255C26.6828 12.9897 25.3802 11.8245 22.8421 11.8245H21.7384Z" fill="#202020"/>
<path d="M44.2761 20.356V20.8397C39.9281 19.1904 37.7871 16.9031 36.7273 12.5931C36.5727 12.6149 36.4404 12.6149 36.3742 12.6149H36.0874C35.8225 12.6149 35.6016 12.6149 35.1822 12.5488V17.6068C35.1822 18.4207 35.3807 18.7725 36.065 19.0582V19.3662H30.6797V19.0582C31.3638 18.7725 31.5624 18.4207 31.5624 17.6068V6.45728C31.5624 5.6434 31.3638 5.29159 30.6797 5.00583V4.6978H32.3788C32.7544 4.6978 33.4387 4.67591 34.3434 4.60985C35.4031 4.54378 36.617 4.5 37.3452 4.5C41.4289 4.5 43.6582 5.92916 43.6582 8.5463C43.6582 9.68977 43.1505 10.7455 42.2013 11.4492C41.8043 11.7572 41.0976 12.0648 40.1047 12.3729C41.3406 16.4416 42.8637 19.4762 44.2761 20.356ZM35.1822 6.65509V11.867C35.4695 11.889 35.668 11.9113 35.8225 11.9113H36.2859C38.7801 11.9113 40.0603 10.7674 40.0603 8.56824C40.0603 6.6332 38.5595 5.11568 36.7053 5.11568C35.6236 5.11568 35.1822 5.53357 35.1822 6.65509Z" fill="#202020"/>
<path d="M46.1292 14.6609L45.2021 17.6076C45.1357 17.7615 45.1138 17.9374 45.1138 18.0915C45.1138 18.5974 45.4449 18.8831 46.3941 19.0813V19.367H42.5977V19.0813C43.4585 18.8393 43.8999 18.4652 44.231 17.6076L48.5132 4.56641H51.3384L55.5323 17.6076C55.8191 18.4214 56.2166 18.9054 56.7462 19.0813V19.367H51.3605V19.0813C51.8682 18.9054 52.0667 18.6853 52.0667 18.2455C52.0667 18.0696 52.0227 17.8496 51.9344 17.6076L50.9853 14.6609H46.1292ZM46.4824 13.7809H50.6981L48.5794 7.29339L46.4824 13.7809Z" fill="#202020"/>
<path d="M63.2769 19.3677H60.4739L56.1475 6.45871C55.8607 5.64483 55.4852 5.22696 54.9336 4.98498V4.69922H60.2974V4.98498C59.8555 5.16088 59.6351 5.44703 59.6351 5.82075C59.6351 6.01854 59.6791 6.21674 59.7672 6.45871L63.2109 16.8828L66.4997 6.45871C66.5439 6.30469 66.5659 6.15067 66.5659 5.99665C66.5659 5.44703 66.2567 5.18318 65.3077 4.98498V4.69922H68.9937V4.98498C68.1994 5.22696 67.7355 5.64483 67.4487 6.45871L63.2769 19.3677Z" fill="#202020"/>
<path d="M79.1437 4.69922L79.3866 7.51416H78.8789C78.1946 5.93058 77.2235 5.24883 75.4795 5.24883H74.2875C73.2502 5.24883 72.8308 5.60066 72.8308 6.4806V10.8786H74.8397C76.2521 10.8786 76.9584 10.4171 77.1129 9.36163H77.5767V13.1221H77.1129C77.0466 12.0006 76.4066 11.5167 74.8397 11.5167H72.8308V17.4104C72.8308 18.532 73.2283 18.8181 74.7069 18.8181H75.7887C77.8414 18.8181 79.0111 18.0261 79.7177 16.1567L80.181 16.3326L79.3866 19.3677H68.3281V19.0596C69.0124 18.7739 69.2109 18.4222 69.2109 17.6082V6.45871C69.2109 5.64483 69.0124 5.29302 68.3281 5.00726V4.69922H79.1437Z" fill="#202020"/>
<path d="M93.9988 20.356V20.8397C89.6508 19.1904 87.5097 16.9031 86.4501 12.5931C86.2954 12.6149 86.1632 12.6149 86.0969 12.6149H85.81C85.5453 12.6149 85.3243 12.6149 84.9049 12.5488V17.6068C84.9049 18.4207 85.1034 18.7725 85.7877 19.0582V19.3662H80.4023V19.0582C81.0866 18.7725 81.2852 18.4207 81.2852 17.6068V6.45728C81.2852 5.6434 81.0866 5.29159 80.4023 5.00583V4.6978H82.1016C82.477 4.6978 83.1613 4.67591 84.0661 4.60985C85.1258 4.54378 86.3397 4.5 87.068 4.5C91.1515 4.5 93.3809 5.92916 93.3809 8.5463C93.3809 9.68977 92.8732 10.7455 91.9241 11.4492C91.5271 11.7572 90.8204 12.0648 89.8274 12.3729C91.0632 16.4416 92.5863 19.4762 93.9988 20.356ZM84.9049 6.65509V11.867C85.1921 11.889 85.3906 11.9113 85.5453 11.9113H86.0086C88.5028 11.9113 89.7829 10.7674 89.7829 8.56824C89.7829 6.6332 88.2823 5.11568 86.428 5.11568C85.3464 5.11568 84.9049 5.53357 84.9049 6.65509Z" fill="#202020"/>
<mask id="mask1_115_341" style="mask-type:luminance" maskUnits="userSpaceOnUse" x="13" y="4" width="5" height="4">
<path d="M13.9414 4.44922H17.2042V7.80689H13.9414V4.44922Z" fill="#202020"/>
</mask>
<g mask="url(#mask1_115_341)">
<path d="M14.4754 5.07923L14.5097 5.17844C14.5457 5.31666 14.5947 5.45001 14.6388 5.58497L14.665 5.6484L14.6715 5.67931C14.6845 5.7085 14.696 5.7394 14.7058 5.77031L14.7728 5.80121C14.8545 5.8159 14.9379 5.81752 15.0179 5.8305C15.1405 5.84681 15.2565 5.89231 15.3774 5.91176C15.4984 5.93132 15.6322 5.96385 15.7565 5.99961C15.7696 6.09394 15.7794 6.18991 15.8054 6.28252C15.8316 6.37525 15.8415 6.49075 15.871 6.59159C15.9002 6.6924 15.9134 6.78664 15.9314 6.88422L15.9493 6.93468C15.9624 7.01433 15.9805 7.09398 15.9951 7.17372C16.0727 7.21051 16.1479 7.25164 16.2206 7.29725C16.4429 7.43221 16.6651 7.56718 16.8971 7.68432C16.9837 7.73307 17.0753 7.77704 17.1733 7.79974C17.2714 7.82254 17.3775 7.74613 17.474 7.70377C17.67 7.61278 17.8514 7.49564 18.041 7.39158C18.1389 7.33139 18.2337 7.26644 18.3335 7.21112C18.371 7.18801 18.4058 7.16146 18.438 7.13146C18.4529 7.02619 18.4734 6.92211 18.5002 6.81917C18.5426 6.64681 18.5868 6.47444 18.6162 6.29884L18.626 6.25334C18.6424 6.18667 18.6472 6.12 18.6652 6.05493L18.6701 6.00771C18.7485 5.97196 18.8351 5.96059 18.92 5.94429C19.0345 5.91673 19.1505 5.89555 19.265 5.86464C19.4218 5.824 19.5852 5.81093 19.7437 5.77517C19.7698 5.65651 19.8172 5.54434 19.8482 5.42558C19.9054 5.26618 19.9463 5.10366 19.997 4.94264C20.0296 4.87273 20.0296 4.78324 20.0884 4.72955C20.2045 4.68243 20.3221 4.63693 20.4349 4.57837V4.45312C20.2699 4.4824 20.1 4.48079 19.9348 4.51493C19.7698 4.54908 19.572 4.54421 19.394 4.57998C19.2159 4.61575 19.0541 4.60116 18.8875 4.63045C18.7959 4.62873 18.7061 4.65315 18.6145 4.65152L18.5965 4.6646L18.4608 4.67108C18.3923 4.68567 18.322 4.68567 18.2551 4.70198C18.188 4.7182 18.09 4.71009 18.0083 4.72468C17.822 4.73938 17.6323 4.74586 17.4478 4.77676C17.3775 4.78 17.3089 4.78324 17.2403 4.79135C16.9723 4.78324 16.7059 4.73938 16.4395 4.72793C16.3301 4.71333 16.2173 4.71657 16.1111 4.68729C15.8105 4.67432 15.5147 4.60927 15.2124 4.59953C15.1078 4.58485 15.0032 4.58161 14.9003 4.55556C14.7548 4.54584 14.611 4.52465 14.4656 4.51655C14.3022 4.4824 14.1355 4.47268 13.9705 4.47105L13.9492 4.54908C14.0947 4.63855 14.2565 4.6954 14.4019 4.78324C14.4166 4.88245 14.4509 4.98003 14.4754 5.07923Z" fill="#202020"/>
</g>
<mask id="mask2_115_341" style="mask-type:luminance" maskUnits="userSpaceOnUse" x="10" y="5" width="8" height="15">
<path d="M10.5781 5.70508H17.1978V19.4486H10.5781V5.70508Z" fill="#202020"/>
</mask>
<g mask="url(#mask2_115_341)">
<path d="M23.4432 13.1766C23.3157 13.0709 23.2291 12.9246 23.1001 12.8204C22.9628 12.6758 22.8206 12.5343 22.6752 12.3978C22.5608 12.2758 22.4383 12.1586 22.3238 12.0367C22.3467 11.9748 22.3941 11.9261 22.4236 11.8676C22.4938 11.7358 22.5886 11.6171 22.6572 11.4855C22.7258 11.3538 22.8059 11.2707 22.8632 11.1537C22.9204 11.0365 22.9971 10.9195 23.0787 10.8123C23.1687 10.6788 23.2504 10.5407 23.3386 10.4057C23.417 10.3016 23.4743 10.1844 23.556 10.082C23.6376 9.97953 23.7259 9.82996 23.8175 9.70969L23.8125 9.68365C23.7047 9.63978 23.6115 9.56663 23.5021 9.52588C23.288 9.40886 23.0624 9.31448 22.8435 9.20552C22.5918 9.08029 22.3305 8.9794 22.0869 8.8413C21.9839 8.79418 21.8811 8.74692 21.7732 8.70631C21.7732 8.947 21.8123 9.18599 21.8042 9.42669C21.7604 9.37787 21.7202 9.32636 21.6832 9.27217C21.6016 9.14538 21.4873 9.04294 21.4005 8.91941C21.3141 8.79574 21.2028 8.67051 21.1212 8.53396C21.0038 8.38765 20.8949 8.2353 20.7945 8.07702C20.6964 7.94205 20.5902 7.81195 20.4969 7.67373C20.412 7.56632 20.3205 7.46884 20.2453 7.35657L20.2943 7.33225L20.3369 7.32891L20.3531 7.31756C20.3984 7.31016 20.4431 7.29981 20.4871 7.28665C20.5804 7.26394 20.6751 7.2525 20.7649 7.22159C20.9087 7.19393 21.0509 7.15168 21.1963 7.13059C21.3418 7.10943 21.4561 7.06717 21.5869 7.04112L21.631 7.03302C21.6922 7.0165 21.7543 7.00505 21.8174 6.99887C21.8254 7.21024 21.8663 7.42 21.8696 7.63299C21.8958 7.89321 21.9203 8.1518 21.9367 8.41199C21.9628 8.46081 21.9873 8.51444 22.0363 8.54203C22.0854 8.56962 22.1588 8.57287 22.2192 8.59254C22.2798 8.61193 22.3811 8.63146 22.4513 8.67702L22.5249 8.68027C22.5586 8.65438 22.5939 8.63103 22.631 8.61037L22.6474 8.56155C22.6278 8.48514 22.6212 8.40548 22.6065 8.32907C22.5706 8.18433 22.5706 8.03467 22.5363 7.88997C22.5254 7.84285 22.5199 7.79522 22.5199 7.74688L22.5069 7.72896C22.4954 7.54849 22.4563 7.37126 22.4383 7.19069C22.4299 7.09665 22.4158 7.00343 22.3957 6.91101C22.3844 6.80371 22.3729 6.6964 22.3549 6.59072C22.3402 6.52404 22.2831 6.48493 22.2307 6.44753C22.0731 6.31763 21.9259 6.17679 21.7895 6.02479C21.6832 5.92884 21.5901 5.82152 21.4873 5.72232L21.3892 5.74016C21.2095 5.78899 21.0214 5.79549 20.8467 5.86053L20.8058 5.86701C20.5558 5.94342 20.2992 5.99875 20.0476 6.07191C19.907 6.11254 19.7649 6.15003 19.6227 6.18419L19.59 6.19553C19.5149 6.21499 19.4381 6.22968 19.3629 6.24427C19.2486 6.28824 19.1211 6.28166 19.0099 6.33699L19.0051 6.39069C18.9789 6.54511 18.956 6.69964 18.9168 6.85083C18.9103 6.92733 18.8923 7.00374 18.8906 7.08014L18.9364 7.08987C19.0835 7.20214 19.2126 7.33711 19.3498 7.46063C19.4577 7.54849 19.5491 7.65255 19.6538 7.74364C19.7584 7.83464 19.8303 7.89483 19.9135 7.97457C20.0312 8.08026 20.144 8.19081 20.2698 8.28676C20.3956 8.3827 20.5198 8.47043 20.6244 8.58603C20.68 8.64278 20.7062 8.71777 20.7568 8.77777C20.8075 8.83805 20.8335 8.92422 20.8859 8.99087C20.9381 9.05765 20.9954 9.16491 21.0541 9.24939C21.113 9.334 21.1621 9.42173 21.2241 9.50154C21.3499 9.66087 21.4529 9.83647 21.5739 9.99919C21.6653 10.1178 21.7306 10.2528 21.8254 10.3682C21.8925 10.4446 21.9447 10.5325 22.0052 10.6139C21.93 10.7032 21.8549 10.7927 21.7765 10.8789C21.6261 11.0691 21.4659 11.2529 21.3076 11.4366C21.1489 11.6464 20.9593 11.8302 20.8058 12.0432C20.7192 12.1521 20.6261 12.2529 20.5443 12.3652C20.4627 12.4774 20.3776 12.5473 20.304 12.6465C20.175 12.8108 20.0345 12.9667 19.9135 13.1375C19.858 13.2286 19.8416 13.3343 19.7993 13.4303C19.7682 13.5017 19.7535 13.5782 19.7225 13.6482C19.6734 13.7945 19.6309 13.9441 19.5721 14.0873L19.5671 14.1181L19.5411 14.1832C19.5197 14.2499 19.5017 14.3165 19.4773 14.3816L19.4675 14.4109C19.425 14.549 19.3679 14.6824 19.3205 14.819C19.2731 14.9557 19.2404 15.0581 19.2012 15.1784L19.1815 15.2255C19.1538 15.3231 19.1553 15.4239 19.1357 15.5231C19.1292 15.5947 19.1309 15.6678 19.1259 15.741L19.1292 15.728C19.1079 15.9361 19.1112 16.1477 19.0605 16.3508C18.9887 16.3248 18.9315 16.2727 18.8678 16.2306C18.8108 16.1904 18.7586 16.1448 18.7109 16.0939C18.4722 16.2409 18.2216 16.3639 17.9592 16.4631C17.804 16.5412 17.6438 16.6029 17.4871 16.676C17.3988 16.7086 17.3187 16.7639 17.2256 16.7817C17.1618 16.7769 17.1063 16.7444 17.0491 16.7199C16.9086 16.6517 16.7582 16.6046 16.6225 16.5281C16.335 16.4077 16.0343 16.3005 15.7842 16.1102C15.6747 16.1801 15.5587 16.2451 15.4574 16.3265C15.4183 16.2955 15.3807 16.2662 15.3415 16.2369C15.3218 15.9215 15.3121 15.606 15.2729 15.2938L15.2597 15.2793V15.2304C15.2075 15.1037 15.1781 14.967 15.1258 14.8402L15.0914 14.7588C15.0424 14.5962 14.9836 14.4352 14.9281 14.2742L14.8953 14.1897C14.8676 14.1132 14.8463 14.0352 14.8137 13.9605C14.8022 13.923 14.7924 13.8839 14.7826 13.8466L14.7598 13.819C14.7448 13.7566 14.7236 13.6963 14.696 13.6384C14.6584 13.5115 14.6143 13.3864 14.5702 13.2612C14.5358 13.162 14.4721 13.0791 14.4035 13.001C14.3071 12.8903 14.2254 12.7668 14.1274 12.6563C13.9394 12.4399 13.7597 12.2188 13.5831 11.9945C13.2939 11.6382 12.9916 11.2952 12.6975 10.9421C12.606 10.8333 12.5079 10.7292 12.4247 10.6154C12.5276 10.4674 12.6501 10.334 12.74 10.178C12.8217 10.0576 12.9116 9.94217 12.9884 9.81864C13.0799 9.65917 13.209 9.52758 13.3021 9.3698C13.3724 9.27061 13.4328 9.16647 13.508 9.07053C13.5831 8.97459 13.6469 8.8396 13.7172 8.72584C13.8185 8.55349 13.9901 8.44439 14.1388 8.31761C14.2777 8.21847 14.3871 8.08675 14.5212 7.98268C14.7041 7.81195 14.8888 7.64444 15.0685 7.47046C15.2255 7.33225 15.3725 7.18421 15.5376 7.05734C15.5229 6.98093 15.5131 6.90291 15.5 6.82651C15.4558 6.66387 15.4461 6.49475 15.4035 6.3305C15.3136 6.30283 15.2189 6.29149 15.1274 6.2768C15.0359 6.26221 14.9036 6.22805 14.7924 6.19715C14.6405 6.1549 14.4868 6.11912 14.3348 6.07515L14.294 6.05732C14.2449 6.04263 14.1943 6.03127 14.1453 6.01831C14.044 5.98091 13.9378 5.96622 13.8365 5.93532C13.7352 5.90441 13.6159 5.88172 13.5096 5.84259C13.3745 5.80693 13.2378 5.77876 13.0995 5.75809L13.0342 5.74016C13.0072 5.73225 12.9801 5.72577 12.9524 5.7207C12.8462 5.79873 12.7596 5.90117 12.6649 5.99388C12.5325 6.12236 12.4099 6.26058 12.2693 6.38248C12.2138 6.42807 12.1697 6.48827 12.1093 6.53052C12.0848 6.5516 12.0488 6.56953 12.052 6.6053C12.0504 6.68657 12.0455 6.76794 12.0455 6.84758L12.0325 6.86876C12.0307 6.95652 12.003 7.03951 11.9965 7.12564C11.9867 7.18745 11.9851 7.24926 11.9703 7.31106C11.9684 7.35433 11.9629 7.3971 11.954 7.43956C11.9295 7.58426 11.9148 7.7322 11.8887 7.87699C11.8625 8.02169 11.8445 8.12252 11.8298 8.24771C11.8146 8.29596 11.8049 8.34534 11.8004 8.39572C11.7906 8.49646 11.7661 8.59735 11.7661 8.6998L11.8739 8.65424C11.9981 8.63641 12.1289 8.63471 12.2465 8.58603L12.2825 8.57938L12.3969 8.54528L12.4393 8.52901C12.4508 8.39091 12.4851 8.25591 12.4932 8.11765C12.5128 7.91763 12.5472 7.71761 12.5602 7.51595C12.5733 7.31432 12.5847 7.16151 12.6044 6.9858C12.655 7.00211 12.7073 7.0167 12.7596 7.0314C12.9459 7.07041 13.1322 7.11104 13.32 7.14681C13.508 7.18258 13.7385 7.25088 13.9508 7.28503L13.9998 7.30458C14.0612 7.31968 14.1233 7.33052 14.1861 7.33711C14.1414 7.40277 14.0924 7.46509 14.0391 7.52406C13.905 7.71111 13.7646 7.89158 13.6289 8.07702C13.4934 8.26228 13.3561 8.44623 13.2335 8.64122C13.1763 8.72258 13.1061 8.79574 13.0488 8.87696C12.9763 8.97771 12.8978 9.07364 12.8136 9.16491C12.7334 9.25434 12.673 9.35848 12.5864 9.44296C12.5864 9.30316 12.6109 9.16491 12.6305 9.02667C12.6367 8.91799 12.6492 8.81017 12.6681 8.70306C12.5161 8.7714 12.3544 8.82177 12.2106 8.90625C12.0668 8.99087 11.8968 9.051 11.7383 9.12105C11.5798 9.19095 11.4115 9.28844 11.2415 9.36004C11.0144 9.45598 10.802 9.57951 10.5781 9.68039C10.6272 9.74379 10.6679 9.81369 10.7121 9.88033C10.7938 9.99735 10.8723 10.1162 10.949 10.2348C10.9883 10.2951 11.0406 10.3471 11.0748 10.4105C11.1893 10.6284 11.3461 10.8203 11.4686 11.0333C11.5912 11.2464 11.7105 11.435 11.8429 11.6318C11.9082 11.7439 11.9949 11.8431 12.0553 11.9587C12.0668 11.9863 12.0978 12.0139 12.0798 12.0447C12.0291 12.1326 11.9491 12.1961 11.8772 12.266C11.7334 12.4106 11.5847 12.5521 11.4393 12.6952C11.3821 12.7618 11.3232 12.8269 11.2595 12.8888C11.1958 12.9506 11.1255 13.0481 11.0471 13.1164C10.9687 13.1848 10.8755 13.3018 10.7726 13.375L10.7677 13.4222C10.8429 13.4351 10.9164 13.4546 10.9916 13.4693C11.0667 13.4839 11.1893 13.51 11.2873 13.5375L11.3363 13.5555C11.4131 13.5718 11.4883 13.5929 11.5651 13.6141C11.6418 13.6352 11.7317 13.64 11.8102 13.6677C11.9867 13.7214 12.1697 13.7523 12.3495 13.7962L12.4132 13.814C12.4856 13.8258 12.557 13.8419 12.6272 13.8629C12.6787 13.8769 12.731 13.8866 12.7841 13.8921C12.6386 14.1328 12.5619 14.4059 12.4247 14.6514C12.4034 14.6889 12.3674 14.7312 12.3952 14.7751C12.4737 14.9214 12.5422 15.0744 12.6092 15.2272C12.7629 15.4564 12.9034 15.6956 13.0488 15.9296C13.2009 16.1314 13.3103 16.3591 13.459 16.5639C13.5091 16.6593 13.5603 16.7541 13.6125 16.8484C13.6192 16.6387 13.6143 16.4305 13.6208 16.2208C13.6338 16.1199 13.6305 16.0175 13.6388 15.915C13.6534 15.8419 13.642 15.7687 13.6599 15.6956C13.6731 15.4256 13.6878 15.1573 13.7073 14.8873C13.7123 14.8563 13.7073 14.8207 13.7318 14.7979C13.8169 14.6922 13.9263 14.6108 14.0211 14.5149C14.1159 14.4189 14.1959 14.3653 14.2744 14.2791C14.3528 14.193 14.4199 14.1539 14.4901 14.089C14.4868 14.1442 14.4884 14.201 14.4738 14.2547C14.4616 14.3232 14.4528 14.3921 14.4476 14.4613C14.4149 14.5507 14.41 14.6466 14.392 14.7393C14.3855 14.7621 14.379 14.7832 14.3725 14.8061L14.3692 14.8548L14.3561 14.8743C14.3463 14.9817 14.3267 15.0889 14.312 15.1946L14.2923 15.2597C14.2761 15.3459 14.2629 15.4336 14.2433 15.52C14.2238 15.606 14.2074 15.7444 14.1845 15.8549C14.1674 15.9159 14.1538 15.9777 14.1436 16.0403C14.1274 16.1883 14.0816 16.3313 14.0538 16.4776L14.0358 16.5264C14.0195 16.5915 14.0048 16.6566 13.9901 16.7233L13.9704 16.7721C13.9623 16.8208 13.9459 16.8696 13.9443 16.9184C13.9688 17.0111 14.0243 17.0907 14.0685 17.1737C14.1126 17.2566 14.1748 17.364 14.2204 17.463C14.274 17.5427 14.3203 17.6262 14.3593 17.7136C14.4378 17.8339 14.4901 17.9689 14.5734 18.0844C14.6567 18.1998 14.7074 18.3314 14.776 18.4535C14.8044 18.5121 14.8359 18.5691 14.8708 18.6242L14.8807 18.6535C14.9558 18.7641 15.0114 18.8877 15.0816 19.0014C15.0882 18.956 15.0963 18.9104 15.1062 18.8666L15.1258 18.803C15.1307 18.782 15.1355 18.7592 15.1404 18.7381L15.1552 18.686L15.1666 18.6746C15.18 18.5853 15.1985 18.4968 15.2222 18.4095C15.25 18.3153 15.2581 18.2161 15.2941 18.1234L15.3365 17.9624C15.5587 18.1478 15.7908 18.3234 16.0245 18.4924C16.0899 18.5413 16.1405 18.6064 16.2075 18.6519C16.2745 18.6973 16.3694 18.782 16.4575 18.8373C16.5281 18.8816 16.5929 18.9331 16.6519 18.9918C16.7549 19.0893 16.8807 19.1624 16.987 19.2584C17.0621 19.317 17.1308 19.3852 17.2043 19.4455C17.2583 19.3999 17.3089 19.3495 17.3645 19.3055C17.5229 19.1868 17.6683 19.0535 17.8269 18.9348C17.9396 18.8323 18.072 18.7559 18.1847 18.6552C18.2974 18.5543 18.4494 18.4404 18.5884 18.3412C18.7502 18.2144 18.9135 18.0892 19.0835 17.9738C19.0999 18.0388 19.1146 18.1022 19.1324 18.1673L19.1521 18.2161C19.1652 18.286 19.175 18.3576 19.193 18.4275C19.2337 18.525 19.2388 18.6324 19.2601 18.7364L19.2763 18.7869C19.2926 18.8568 19.3056 18.9283 19.3205 18.9999L19.345 18.9918C19.3614 18.9479 19.382 18.9062 19.4071 18.8666C19.5099 18.7283 19.5736 18.5673 19.6604 18.4193C19.747 18.2713 19.845 18.0844 19.9446 17.9218C20.1276 17.5721 20.3287 17.2322 20.4969 16.8745C20.4774 16.8355 20.4594 16.7964 20.4414 16.7558C20.394 16.5785 20.3514 16.398 20.3139 16.2191C20.2862 16.1053 20.283 15.9882 20.2534 15.8743C20.2241 15.7605 20.2126 15.6126 20.1767 15.4857C20.1407 15.3589 20.1392 15.2711 20.1163 15.1637C20.0933 15.0564 20.0851 14.9329 20.0525 14.8207C20.0199 14.7085 20.0167 14.5572 19.9806 14.4272C19.9446 14.2971 19.9397 14.1978 19.9284 14.0823C20.0116 14.1572 20.0933 14.2336 20.1815 14.3002C20.2747 14.4027 20.3875 14.484 20.4856 14.5815C20.5688 14.6547 20.6424 14.7393 20.729 14.8076C20.729 14.9588 20.7471 15.1085 20.7486 15.2597C20.7604 15.3667 20.7653 15.4741 20.7633 15.5817L20.7781 15.5995C20.7781 15.6793 20.7748 15.7605 20.7878 15.8386C20.8123 16.1735 20.8123 16.5086 20.8156 16.8435C20.8354 16.8218 20.8522 16.798 20.8664 16.7721C20.8908 16.676 20.9463 16.5932 20.997 16.5102C21.0853 16.3574 21.1948 16.216 21.2797 16.0598C21.4185 15.8679 21.5347 15.6613 21.662 15.4629C21.7079 15.3995 21.7356 15.3247 21.783 15.2613C21.8826 15.1296 21.9219 14.967 21.9938 14.8207C22.0101 14.7849 22.0296 14.7475 22.0199 14.7068C22.0101 14.6661 21.9677 14.5995 21.9464 14.5442C21.9252 14.4888 21.8859 14.4205 21.8629 14.3573C21.8271 14.2271 21.7438 14.1164 21.7014 13.9881L21.6555 13.8921C21.7797 13.8644 21.9038 13.8351 22.0281 13.8091L22.0951 13.7913C22.1588 13.775 22.2242 13.762 22.2896 13.7491C22.3859 13.7181 22.4857 13.7035 22.5853 13.6856L22.6343 13.666C22.7111 13.6482 22.7879 13.6352 22.8632 13.6157L22.9106 13.5978C22.9934 13.5835 23.0752 13.564 23.1557 13.5392C23.2537 13.5115 23.3534 13.4937 23.4514 13.4676L23.6164 13.4351L23.6883 13.4286C23.6099 13.3376 23.5184 13.2644 23.4432 13.1766Z" fill="#202020"/>
</g>
<mask id="mask3_115_341" style="mask-type:luminance" maskUnits="userSpaceOnUse" x="13" y="7" width="5" height="8">
<path d="M13.0078 7.90625H17.2078V14.547H13.0078V7.90625Z" fill="#202020"/>
</mask>
<g mask="url(#mask3_115_341)">
<path d="M19.9778 11.9623C20.1362 11.8338 20.285 11.6923 20.4516 11.5719C20.5056 11.5346 20.5497 11.4859 20.5987 11.4419C20.687 11.3622 20.7883 11.2956 20.8715 11.2093C20.955 11.1232 21.0563 11.0581 21.1461 10.9783C21.236 10.8987 21.3094 10.8385 21.3945 10.7734C21.3258 10.6742 21.2392 10.5881 21.1641 10.4938C21.0888 10.3995 20.9811 10.2938 20.8994 10.1865C20.7801 10.0238 20.6264 9.88567 20.5432 9.69861C20.5023 9.59941 20.45 9.50518 20.4075 9.40599C20.383 9.35222 20.3584 9.29533 20.3127 9.25642C20.2213 9.17336 20.1395 9.08068 20.0414 9.00582C19.8791 8.85739 19.7125 8.71377 19.5415 8.57496C19.4671 8.50322 19.3891 8.43544 19.3078 8.37162C19.1835 8.27908 19.0692 8.17488 18.9516 8.07577C18.8943 8.02855 18.8306 7.9863 18.7767 7.93422L18.7505 7.92935C18.4435 8.09939 18.1265 8.24837 17.7995 8.37657C17.6067 8.44322 17.4254 8.5359 17.239 8.61726C17.1574 8.61571 17.0871 8.56845 17.0119 8.54397C16.7424 8.40586 16.4482 8.32294 16.1785 8.1847C16.0102 8.10171 15.8371 8.02693 15.6752 7.92773C15.3909 8.17659 15.0919 8.40586 14.8091 8.65632C14.6752 8.76032 14.551 8.87578 14.4235 8.98799C14.3254 9.05789 14.2454 9.14732 14.1539 9.22387C14.0962 9.27326 14.0553 9.33396 14.0313 9.40599C14.01 9.46457 13.9758 9.5165 13.9513 9.57338C13.9022 9.6662 13.8728 9.77021 13.8058 9.85313C13.6523 10.0467 13.4953 10.2386 13.3286 10.4222C13.2374 10.5383 13.1383 10.6472 13.0312 10.7491L13.0379 10.7702C13.1947 10.8858 13.3304 11.0271 13.4823 11.1493C13.5689 11.2125 13.6375 11.2971 13.7225 11.3638C13.8925 11.4923 14.0428 11.6451 14.2193 11.7671C14.3957 11.889 14.5559 12.0355 14.7095 12.1866C14.8336 12.2956 14.9546 12.411 15.0853 12.5135C15.0625 12.6777 15.0135 12.8372 14.9889 13.0014C14.9508 13.1406 14.9252 13.2821 14.9122 13.4257C15.0265 13.5218 15.1768 13.5575 15.306 13.6306L15.332 13.6974L15.3451 13.7608C15.3844 13.8826 15.3859 14.0144 15.4253 14.1365C15.4431 14.2127 15.4611 14.291 15.4922 14.3641C15.5233 14.4373 15.5282 14.4714 15.5444 14.525C15.623 14.4454 15.7063 14.3674 15.7797 14.2843C15.7765 14.2177 15.788 14.1315 15.7308 14.0827C15.8942 14.0144 16.0642 13.9624 16.2259 13.8876C16.3876 13.8127 16.5593 13.7413 16.7275 13.6714C16.8649 13.6046 17.002 13.5396 17.1459 13.486C17.1802 13.4713 17.2194 13.4486 17.257 13.4713C17.3763 13.525 17.4988 13.5753 17.6181 13.6323C17.8305 13.7267 18.043 13.8161 18.2571 13.9071C18.3797 13.9609 18.5022 14.0275 18.6379 14.0388C18.659 14.1315 18.6542 14.2275 18.6934 14.3152C18.7326 14.4031 18.7505 14.473 18.8224 14.5201C18.8878 14.4454 18.9319 14.3542 18.9679 14.2633C19.0038 14.1721 19.0103 14.1202 19.0415 14.0535C19.0594 13.9283 19.0642 13.8014 19.0807 13.6746C19.2179 13.5737 19.3894 13.5299 19.5251 13.4242C19.5267 13.3233 19.4989 13.2273 19.4859 13.1281C19.4435 13.0355 19.4385 12.9315 19.4157 12.8321C19.3993 12.7704 19.3748 12.7118 19.3552 12.6534C19.3487 12.6192 19.3225 12.5818 19.3307 12.5477C19.5431 12.3492 19.7556 12.1492 19.9778 11.9623ZM19.1852 10.6077C19.1116 10.6418 19.0398 10.6809 18.9646 10.7085C18.8895 10.7361 18.8453 10.7035 18.7914 10.728C18.7081 10.806 18.646 10.9019 18.5773 10.9915C18.5087 11.0809 18.4351 11.1719 18.3616 11.2598C18.3669 11.2984 18.3757 11.3363 18.3877 11.3735C18.4074 11.5265 18.4286 11.6809 18.4581 11.8321C18.4613 11.9216 18.4613 12.011 18.4663 12.1004L18.4858 12.1525C18.489 12.185 18.5282 12.2306 18.4907 12.2565C18.378 12.2664 18.2636 12.2549 18.1509 12.2598C17.9989 12.4127 17.8257 12.5395 17.6737 12.694C17.5384 12.8495 17.3897 12.991 17.2276 13.1184C17.1622 13.0663 17.0871 13.0289 17.0265 12.9704C16.9368 12.8794 16.8468 12.7915 16.7652 12.694C16.6115 12.5638 16.4792 12.411 16.3157 12.2939C16.2168 12.2753 16.1172 12.2677 16.0168 12.2712L15.9776 12.2207C15.9759 12.1167 15.9743 12.0143 15.9791 11.9118C15.9883 11.8521 15.9933 11.7918 15.9938 11.7314L16.0085 11.7167C16.02 11.5411 16.0625 11.367 16.0609 11.1899C15.9573 11.1167 15.8746 11.0252 15.8126 10.9151C15.7897 10.8759 15.7717 10.8353 15.7407 10.8027C15.7096 10.7702 15.623 10.7427 15.5591 10.7248C15.4693 10.6987 15.386 10.6597 15.2994 10.6271C15.2128 10.5946 15.118 10.5427 15.0248 10.5086C14.9906 10.4971 14.9546 10.4856 14.9301 10.4596C14.752 10.2809 14.6098 10.071 14.4463 9.87916C14.4333 9.86289 14.4153 9.8418 14.4284 9.81888C14.4824 9.71488 14.5656 9.63366 14.6474 9.5506C14.6915 9.50192 14.765 9.50348 14.814 9.46131C14.9055 9.45636 14.9922 9.48551 15.0804 9.50348L15.1883 9.53602L15.2373 9.5523C15.337 9.59291 15.4448 9.60762 15.5478 9.64328L15.6637 9.68233L15.7128 9.69861C15.7977 9.73285 15.8877 9.75224 15.9759 9.78153L16.0118 9.78648L16.0445 9.82058C16.0568 9.88807 16.0727 9.95472 16.0919 10.0207C16.1099 10.1231 16.1229 10.2271 16.1393 10.3296C16.1802 10.445 16.1768 10.5685 16.198 10.6857C16.2079 10.7183 16.2144 10.7508 16.2226 10.7849C16.2471 10.985 16.2766 11.1849 16.2863 11.3866C16.2798 11.4451 16.275 11.5037 16.2635 11.5622C16.2618 11.7069 16.2209 11.8484 16.2226 11.9932C16.6573 11.9915 17.0903 11.9997 17.525 11.9949C17.7685 11.9949 18.0119 11.9915 18.2554 11.9949C18.244 11.9591 18.2342 11.9248 18.2227 11.889C18.2113 11.8532 18.2178 11.8484 18.2162 11.8273C18.1884 11.6923 18.177 11.5558 18.1606 11.4191C18.1493 11.315 18.1606 11.2093 18.1818 11.1085C18.2032 11.0076 18.2032 10.8793 18.2293 10.7686C18.2553 10.6302 18.2744 10.491 18.2864 10.3508L18.2996 10.3328L18.3045 10.284C18.3323 10.1377 18.3535 9.98812 18.3862 9.8418L18.4041 9.80431C18.5005 9.762 18.6018 9.73936 18.7031 9.71007L18.7343 9.70186L18.7832 9.68403L18.8486 9.66295C19.061 9.59786 19.2751 9.53772 19.4892 9.47914C19.5528 9.45636 19.6182 9.4807 19.6836 9.4824C19.8373 9.54253 19.986 9.66776 19.999 9.84336C19.9843 9.94255 19.9156 10.0207 19.847 10.0889C19.7473 10.1963 19.6608 10.3165 19.5496 10.4125C19.5226 10.4396 19.4981 10.4689 19.4761 10.5003L19.4353 10.5134C19.3404 10.5149 19.2669 10.5718 19.1852 10.6077Z" fill="#202020"/>
</g>
<path d="M15.412 9.92624C15.3631 9.85804 15.2715 9.84672 15.2014 9.80922C15.0902 9.75389 14.9709 9.72305 14.85 9.69531C14.7923 9.72361 14.733 9.74753 14.6719 9.76705C14.698 9.82379 14.7422 9.8695 14.7846 9.91492C14.85 9.99628 14.9154 10.0776 14.9807 10.1589C15.0199 10.2094 15.0837 10.2288 15.1425 10.2483C15.249 10.299 15.3595 10.3386 15.4742 10.367C15.5009 10.3744 15.5281 10.3762 15.5555 10.3725C15.5831 10.3689 15.6087 10.3599 15.6326 10.3459C15.6326 10.3149 15.6326 10.2841 15.6311 10.2532C15.5739 10.1328 15.4856 10.0353 15.412 9.92624Z" fill="#202020"/>
<mask id="mask4_115_341" style="mask-type:luminance" maskUnits="userSpaceOnUse" x="15" y="14" width="3" height="3">
<path d="M15.707 14.2129H17.1993V16.2622H15.707V14.2129Z" fill="#202020"/>
</mask>
<g mask="url(#mask4_115_341)">
<path d="M18.1774 14.8477C18.0843 14.7778 17.9977 14.7014 17.9046 14.63C17.7297 14.4982 17.5597 14.3533 17.3571 14.2608L17.3081 14.2461L17.2443 14.2266C17.1937 14.2362 17.1441 14.2498 17.0956 14.2673L17.0157 14.2949C16.8734 14.3583 16.7542 14.4575 16.6332 14.5517C16.5679 14.6201 16.4797 14.6591 16.411 14.7225C16.2916 14.8316 16.1545 14.9193 16.0319 15.025C15.9731 15.0754 15.9272 15.139 15.8701 15.1924C15.8129 15.2462 15.7901 15.2901 15.7835 15.3519C15.7753 15.4084 15.7622 15.4636 15.7443 15.5178C15.7328 15.5519 15.7246 15.5877 15.7148 15.6219L15.7934 15.6836C15.912 15.7273 16.028 15.7773 16.1413 15.8332C16.2264 15.8657 16.313 15.8982 16.3963 15.9356C16.5368 15.9991 16.6872 16.0365 16.8243 16.1064L16.8505 16.113C16.9633 16.1569 17.0694 16.2136 17.1839 16.2561C17.277 16.2594 17.3571 16.2056 17.4404 16.1747C17.6889 16.061 17.9486 15.9747 18.1987 15.8641C18.318 15.8121 18.4356 15.7567 18.5581 15.7146C18.6055 15.6946 18.6507 15.6707 18.6938 15.643C18.6856 15.534 18.6627 15.4283 18.6399 15.3226C18.5564 15.108 18.3442 14.9908 18.1774 14.8477Z" fill="#202020"/>
</g>
</svg>