<svg width="40" height="40" viewBox="0 0 40 40" fill="none" xmlns="http://www.w3.org/2000/svg">
<path fill-rule="evenodd" clip-rule="evenodd" d="M40 10.8805V11.3241V12.6606V13.3771V15.1572H38.0972H32.5479V15.8682V16.2264L34.0972 16.2264H34.4507H36V18.0065V19.7922V21.5723H34.4507H34.0972H32.5479V22.4652V23.1761H37.5258H39.4285V24.9562V25.94V27.2765V27.7201H37.8793H37.5258H35.9765V29.0566H37.5258H37.8793H39.4285V29.5002V30.8367V31.5532V33.3333H37.5258H8.78339H6.88062V32.9751V31.5532V31.195H5.33134H4.97784H3.42857V29.4149V27.6292V25.8491H4.97784H5.33134H6.88062V24.9562V24.2453H1.90278H0V22.4652V21.4814V20.1449V19.7013H1.54927H1.90278H3.45205L3.45205 18.3648H1.90278H1.54928H0V17.9211V16.5847V15.8682V14.088L1.90278 14.088L7.45209 14.088V13.3771V13.0189H5.90281H5.54931H4.00004V11.2388V9.45307V7.67296H5.54931H5.90281H7.45209V6.78011V5.89284V5H9.35486H38.0972H40V6.78011V7.76391V9.10039V9.54403H38.4507H38.0972H36.548V10.8805H38.0972H38.4507H40ZM38.0972 13.3771V12.6606H36.548H34.6452V10.8805V10.3459L16 10.3459V9.63387L34.6452 9.63387V9.54403V7.76391H36.548H38.0972V6.78011H9.35486V7.67296V9.45307H7.45209H5.90281V11.2388H7.45209H9.35486V13.0189V13.3771H38.0972ZM1.90278 15.8682V16.5847H3.45205L5.35483 16.5847V18.3648V18.7219L25.1428 18.7219V19.434L5.35483 19.434V19.7013V21.4814L3.45205 21.4814H1.90278V22.4652L30.6451 22.4652V21.5723V19.7922H32.5479H34.0972V18.0065H32.5479H30.6451V16.2264V15.8682L1.90278 15.8682ZM37.5258 31.5532H8.78339V31.195V29.4149H6.88062H5.33134V27.6292H6.88062H8.78339V25.8491V24.9562H37.5258V25.94H35.9765H34.0737V27.7201V27.81L15.4286 27.81V28.522L34.0737 28.522V29.0566V30.8367H35.9765H37.5258V31.5532Z" fill="#326B43"/>
</svg>
