<svg width="40" height="40" viewBox="0 0 40 40" fill="none" xmlns="http://www.w3.org/2000/svg">
<path fill-rule="evenodd" clip-rule="evenodd" d="M12.9532 19.7836C12.6508 19.4774 12.6508 19.0487 12.9532 18.7426C13.2556 18.4364 13.6789 18.4364 13.9813 18.7426L14.2233 18.9875V6.86291H25.775V7.16909V34.9087H14.2233V21.0695L12.9532 19.7836ZM14.7676 19.5386L15.7958 20.5796H25.2307V17.7016H14.8281V19.5386H14.7676ZM16.4006 21.1307L17.0658 21.8043C17.3682 22.1105 17.3682 22.5392 17.0658 22.8453C16.7634 23.1515 16.3401 23.1515 16.0377 22.8453L14.7676 21.5594V23.9476H25.1702V21.0695H16.4006V21.1307ZM25.2307 10.8432H14.8281V13.7213H25.2307V10.8432ZM14.7676 10.2921H25.1702V7.41402H14.7676V10.2921ZM25.2307 14.2724H14.8281V17.1504H25.2307V14.2724ZM25.2307 24.5599H14.8281V27.438H25.2307V24.5599ZM25.2307 27.9891H14.8281V30.8672H25.2307V27.9891ZM25.2307 31.4183H14.8281V34.2964H25.2307V31.4183ZM39.4436 38.889H0.554688V37.4193H7.87282V0.555664H32.065V37.4193H39.3831V38.889H39.4436ZM8.47762 37.4193H10.1106V2.82137H29.8877V37.4193H31.5207V1.16802H8.47762V37.4193ZM11.5621 37.4193H28.4362V4.29102H11.5621V37.4193Z" fill="#326B43"/>
</svg>
