<svg width="40" height="40" viewBox="0 0 40 40" fill="none" xmlns="http://www.w3.org/2000/svg">
<path fill-rule="evenodd" clip-rule="evenodd" d="M30.2451 22.9754L32.3567 27.4065L30.2451 31.8375H9.8135L7.70186 27.4065L9.8135 22.9754H30.2451ZM28.7612 30.4914L27.734 28.0795H9.35693L10.4984 30.4914H28.7612ZM27.734 26.7334L28.7612 24.3215H10.5554L9.414 26.7334H27.734ZM30.8729 27.4065L29.9027 24.8263L28.9325 27.4065L29.9027 30.1549L30.8729 27.4065Z" fill="#326B43"/>
<path fill-rule="evenodd" clip-rule="evenodd" d="M32.3567 15.7958L30.2451 11.3647H9.8135L7.70186 15.7958L9.8135 20.2269H30.2451L32.3567 15.7958ZM27.734 16.5249L28.7612 18.9368H10.4984L9.35693 16.5249H27.734ZM28.7612 12.7669L27.734 15.1788H9.414L10.5554 12.7669H28.7612ZM29.9027 13.2717L30.8729 15.8519L29.9027 18.6003L28.9325 15.8519L29.9027 13.2717Z" fill="#326B43"/>
<path fill-rule="evenodd" clip-rule="evenodd" d="M19.9719 2.22217L2.67923 7.66287L2.22266 7.83114V37.2222H37.7782V7.83114C34.8107 6.90572 31.8432 5.96628 28.8756 5.02684C25.9079 4.08734 22.9396 3.14764 19.9719 2.22217ZM3.59237 8.78467L20.029 3.62441L36.4656 8.78467V35.876H3.59237V8.78467Z" fill="#326B43"/>
</svg>
