<svg width="40" height="40" viewBox="0 0 40 40" fill="none" xmlns="http://www.w3.org/2000/svg">
<path fill-rule="evenodd" clip-rule="evenodd" d="M25.5547 16.4445C24.9991 15.8889 24.2214 15.5556 23.388 15.5556C22.5547 15.5556 21.7769 15.8889 21.2214 16.4445C20.6658 17 20.3325 17.7778 20.3325 18.6112C20.3325 19.4445 20.6658 20.2223 21.2214 20.7778C21.7769 21.3334 22.5547 21.6667 23.388 21.6667C24.2214 21.6667 24.9991 21.3334 25.5547 20.7778C26.1102 20.2223 26.4436 19.4445 26.4436 18.6112C26.4991 17.7778 26.1102 17 25.5547 16.4445ZM13.5547 28.4445L12.1102 25.9445L9.94358 27.1667V19.3334H7.44358L11.388 12.5556L9.22136 11.3334L16.0547 7.4445L14.8325 5.27783H22.6658V2.77783L29.4436 6.72226L30.6658 4.5556L34.5547 11.3889L36.7214 10.1667V18H39.2214L35.2769 24.7778L37.4436 26L30.6102 29.8889L31.8325 32.0556H28.6658L28.9991 32.8334L26.9436 37.2223C18.8325 37.2223 10.7214 37.2223 2.61024 37.2223L0.554688 32.8334L2.61024 28.4445H13.5547ZM22.7214 28.4445V23.0556C21.7769 22.8889 20.888 22.4445 20.2769 21.8334C19.4991 21.0556 18.9991 19.9445 18.9991 18.7223C18.9991 17.5 19.4991 16.3889 20.2769 15.6112C20.9436 14.9445 21.7769 14.5001 22.7214 14.3889V6.72226H17.1658L17.9436 8.05561L11.9991 11.5L13.3325 12.2778L9.88802 18.2223H11.388V25.1112L12.7214 24.3334L15.1658 28.6667H22.7214V28.4445ZM24.0547 5.0556V6.5556V14.2223C24.9991 14.3889 25.888 14.8334 26.4991 15.4445C27.2769 16.2223 27.7769 17.3334 27.7769 18.5556C27.7769 19.7778 27.2769 20.8889 26.4991 21.6667C25.8325 22.3334 24.9991 22.7778 24.0547 22.8889V28.2778H27.0547L28.1102 30.6112H29.5547L28.7769 29.2778L34.7214 25.8334L33.388 25.0556L36.8325 19.1112H35.4436V12.2223L34.1102 13.0001L30.6658 7.0556L29.888 8.38893L24.0547 5.0556ZM4.1658 35.8889L5.1658 33.5C12.6102 33.5 20.0547 33.5 27.4436 33.5L26.3325 35.8889C18.9436 35.8889 11.5547 35.8889 4.1658 35.8889ZM5.11024 32.1667L4.11024 29.7778C11.4991 29.7778 18.888 29.7778 26.2769 29.7778L27.388 32.1667C19.9991 32.1667 12.5547 32.1667 5.11024 32.1667ZM2.11024 32.8334L3.05469 30.2778L3.99913 32.8334L3.05469 35.5556L2.11024 32.8334Z" fill="#326B43"/>
</svg>
