<svg width="40" height="40" viewBox="0 0 40 40" fill="none" xmlns="http://www.w3.org/2000/svg">
<path fill-rule="evenodd" clip-rule="evenodd" d="M3.76954 36.9789H38.082V18.8379H30.5688V22.1363H30.1547V24.08H21.6357V27.3783H21.2216V29.322H12.7026V32.6203H12.2885V34.564H3.76954V36.9789ZM36.3664 6.11573V15.4218H39.4427V38.3336H38.7328H2.29055V33.0915C2.29055 32.5614 2.52718 32.0902 2.82298 31.7369C3.17794 31.3835 3.65121 31.2068 4.18364 31.2068H5.36683V23.9033L4.36113 24.4923C3.8287 24.7868 3.23709 24.8457 2.70466 24.7279C2.17222 24.6101 1.69895 24.2567 1.40316 23.7266C1.10736 23.1965 1.04819 22.6075 1.1665 22.0774C1.28482 21.5473 1.63979 21.0761 2.17222 20.7816C5.07104 19.1324 35.834 1.40381 35.834 1.40381C36.3664 1.10931 36.958 1.05041 37.4904 1.16821C37.9637 1.28601 38.437 1.6394 38.7328 2.0517L38.7919 2.1695C39.0877 2.69959 39.1469 3.28858 39.0286 3.81867C38.9103 4.34876 38.5553 4.81995 38.0229 5.11445L36.3664 6.11573ZM32.2252 15.4218V8.5306L27.4333 11.2989V20.7816H29.0898V17.4244C29.0898 16.8943 29.3264 16.4231 29.6222 16.0697C29.9772 15.7163 30.4505 15.5396 30.9829 15.5396H32.2252V15.4218ZM34.9466 6.94032L33.6451 7.70601V15.4218H34.9466V6.94032ZM23.2922 20.7227V13.6548L18.5002 16.4231V26.0236H20.1567V22.6664C20.1567 22.1363 20.3933 21.6651 20.6891 21.3117C21.0441 20.9583 21.5174 20.7816 22.0498 20.7816H23.2922V20.7227ZM26.0135 12.1234L24.712 12.8891V20.7227H26.0135V12.1234ZM14.3591 25.9647V18.779L9.56716 21.5473V31.2657H11.2236V27.9084C11.2236 27.3783 11.4603 26.9071 11.7561 26.5537C12.111 26.2003 12.5843 26.0236 13.1167 26.0236H14.3591V25.9647ZM17.0804 17.2477L15.7789 18.0134V25.9647H17.0804V17.2477ZM3.71037 23.2554L37.3721 3.87757C37.5496 3.75977 37.6679 3.64197 37.7271 3.40638C37.7862 3.22968 37.7862 3.05298 37.6679 2.87628V2.81739C37.5496 2.64069 37.3721 2.52289 37.1947 2.46399C37.0172 2.40509 36.7805 2.40509 36.6622 2.52289L3.00045 21.9007C2.82297 22.0185 2.70465 22.1363 2.64549 22.3719C2.58633 22.5486 2.58634 22.7842 2.70466 22.902C2.82297 23.0787 2.9413 23.1965 3.17794 23.2554C3.35542 23.3732 3.5329 23.3732 3.71037 23.2554ZM8.14734 22.3719L6.84582 23.1376V31.2657H8.14734V22.3719ZM38.082 18.249V16.8354H36.4256H32.2844H31.1012C30.9829 16.8354 30.8646 16.8943 30.7463 16.9532C30.6871 17.071 30.6279 17.1888 30.6279 17.3066V18.1901C33.0535 18.249 35.5382 18.249 38.082 18.249ZM29.5631 22.1363H27.4333H23.2922H22.109C21.9907 22.1363 21.8723 22.1952 21.754 22.2541C21.6357 22.3719 21.6357 22.4897 21.6357 22.6075V23.491H29.5631V22.1363ZM20.63 27.3783H18.5002H14.3591H13.1759C13.0576 27.3783 12.9393 27.4372 12.8209 27.4961C12.7618 27.6139 12.7026 27.7317 12.7026 27.8495V28.733H20.63V27.3783ZM11.6969 32.6203H9.56716H5.426H4.24281C4.12449 32.6203 4.00616 32.6792 3.88784 32.7381C3.76953 32.8559 3.76954 32.9737 3.76954 33.0915V33.975H11.6969V32.6203Z" fill="#326B43"/>
</svg>
