<svg width="40" height="40" viewBox="0 0 40 40" fill="none" xmlns="http://www.w3.org/2000/svg">
<path fill-rule="evenodd" clip-rule="evenodd" d="M23.0502 1.80066C23.3228 1.58825 23.7159 1.63699 23.9283 1.90953L33.9396 14.7547L34.7269 15.7649H33.4461H26.6951V36.0162C26.6951 36.3618 26.4149 36.6419 26.0694 36.6419C25.7239 36.6419 25.4438 36.3618 25.4438 36.0162V15.1393V14.5136H26.0694H32.1652L22.9414 2.67874C22.729 2.4062 22.7777 2.01307 23.0502 1.80066ZM17.7163 5.47433C17.7163 5.24397 17.9031 5.05723 18.1334 5.05723H20.9838C21.2142 5.05723 21.4009 5.24397 21.4009 5.47433C21.4009 5.70469 21.2142 5.89143 20.9838 5.89143H18.1334C17.9031 5.89143 17.7163 5.70469 17.7163 5.47433ZM17.7163 10.3873C17.7163 10.157 17.9031 9.97024 18.1334 9.97024H20.9838C21.2142 9.97024 21.4009 10.157 21.4009 10.3873C21.4009 10.6177 21.2142 10.8044 20.9838 10.8044H18.1334C17.9031 10.8044 17.7163 10.6177 17.7163 10.3873ZM18.1334 14.2689C17.9031 14.2689 17.7163 14.4556 17.7163 14.686C17.7163 14.9163 17.9031 15.1031 18.1334 15.1031H20.9838C21.2142 15.1031 21.4009 14.9163 21.4009 14.686C21.4009 14.4556 21.2142 14.2689 20.9838 14.2689H18.1334ZM17.7163 18.9846C17.7163 18.7542 17.9031 18.5675 18.1334 18.5675H20.9838C21.2142 18.5675 21.4009 18.7542 21.4009 18.9846C21.4009 19.2149 21.2142 19.4017 20.9838 19.4017H18.1334C17.9031 19.4017 17.7163 19.2149 17.7163 18.9846ZM18.1334 22.8661C17.9031 22.8661 17.7163 23.0528 17.7163 23.2832C17.7163 23.5135 17.9031 23.7003 18.1334 23.7003H20.9838C21.2142 23.7003 21.4009 23.5135 21.4009 23.2832C21.4009 23.0528 21.2142 22.8661 20.9838 22.8661H18.1334ZM18.3285 21.4409C18.3285 21.2105 18.5153 21.0238 18.7456 21.0238H20.3678C20.5982 21.0238 20.7849 21.2105 20.7849 21.4409C20.7849 21.6712 20.5982 21.858 20.3678 21.858H18.7456C18.5153 21.858 18.3285 21.6712 18.3285 21.4409ZM18.7456 16.111C18.5153 16.111 18.3285 16.2977 18.3285 16.5281C18.3285 16.7584 18.5153 16.9452 18.7456 16.9452H20.3678C20.5982 16.9452 20.7849 16.7584 20.7849 16.5281C20.7849 16.2977 20.5982 16.111 20.3678 16.111H18.7456ZM18.3285 12.2294C18.3285 11.9991 18.5153 11.8123 18.7456 11.8123H20.3678C20.5982 11.8123 20.7849 11.9991 20.7849 12.2294C20.7849 12.4598 20.5982 12.6465 20.3678 12.6465H18.7456C18.5153 12.6465 18.3285 12.4598 18.3285 12.2294ZM18.7456 7.51373C18.5153 7.51373 18.3285 7.70048 18.3285 7.93083C18.3285 8.16119 18.5153 8.34794 18.7456 8.34794H20.3678C20.5982 8.34794 20.7849 8.16119 20.7849 7.93083C20.7849 7.70048 20.5982 7.51373 20.3678 7.51373H18.7456ZM12.606 7.11979C12.606 6.88943 12.4193 6.70269 12.1889 6.70269C11.9586 6.70269 11.7718 6.88943 11.7718 7.11979L11.7718 27.999C11.7718 28.0777 11.7936 28.1513 11.8315 28.2141C10.0736 28.3934 8.702 29.8783 8.702 31.6836C8.702 33.6097 10.2634 35.1711 12.1896 35.1711C14.1157 35.1711 15.6772 33.6097 15.6772 31.6836C15.6772 29.8779 14.3049 28.3927 12.5464 28.214C12.5842 28.1512 12.606 28.0777 12.606 27.999L12.606 7.11979ZM12.1896 29.0302C10.7242 29.0302 9.5362 30.2181 9.5362 31.6836C9.5362 33.149 10.7242 34.3369 12.1896 34.3369C13.655 34.3369 14.843 33.149 14.843 31.6836C14.843 30.2181 13.655 29.0302 12.1896 29.0302ZM15.0818 4.91981L15.0818 25.3698C16.408 26.0723 17.6551 27.4409 18.2839 28.7454C18.946 30.119 19.1248 31.676 18.7911 33.164C18.4575 34.6519 17.6311 35.9835 16.4459 36.943C15.2606 37.9024 13.7861 38.4333 12.2613 38.4497C10.7365 38.4662 9.25089 37.9671 8.04528 37.0334C6.83968 36.0997 5.98478 34.7862 5.61921 33.3058C5.25364 31.8253 5.39882 30.2649 6.03122 28.8773C6.63772 27.5465 7.97577 26.1084 9.284 25.3798L9.284 5.22284V5.12092L9.31635 5.02427C9.4414 4.65064 9.71091 4.11409 10.1357 3.65957C10.5563 3.20956 11.1735 2.79678 11.9816 2.78003C12.3879 2.72236 12.9732 2.75292 13.5448 3.00799C14.1643 3.28441 14.7484 3.81801 15.0497 4.72196L15.0818 4.81828L15.0818 4.91981ZM13.8305 25.7252C13.8305 25.984 13.9876 26.206 14.2117 26.3012C14.2577 26.3453 14.3112 26.3831 14.3716 26.4124C15.4751 26.9481 16.6096 28.1536 17.1567 29.2887C17.6964 30.4084 17.8421 31.6774 17.5702 32.8902C17.2982 34.103 16.6246 35.1884 15.6586 35.9704C14.6925 36.7524 13.4907 37.1851 12.2478 37.1985C11.005 37.2119 9.79412 36.8051 8.81146 36.0441C7.8288 35.283 7.13199 34.2124 6.83402 33.0058C6.53605 31.7991 6.65439 30.5272 7.16984 29.3962C7.68598 28.2638 8.91265 26.9724 10.0174 26.4064C10.077 26.3759 10.1297 26.3371 10.1746 26.2921C10.3877 26.1923 10.5353 25.976 10.5353 25.7252L10.5353 5.33288C10.6264 5.1015 10.8005 4.78081 11.0499 4.514C11.3284 4.21606 11.6542 4.0308 12.0327 4.0308H12.0845L12.1355 4.02229C12.3342 3.98919 12.6922 3.99775 13.0349 4.15068C13.3366 4.28533 13.6429 4.53724 13.8305 5.02782L13.8305 25.7252ZM11.3781 31.6835C11.3781 31.4532 11.1913 31.2664 10.961 31.2664C10.7306 31.2664 10.5439 31.4532 10.5439 31.6835C10.5439 32.0819 10.6067 32.515 10.8899 32.8454C11.1851 33.1898 11.6351 33.3288 12.1892 33.3288C12.4195 33.3288 12.6063 33.1421 12.6063 32.9117C12.6063 32.6814 12.4195 32.4946 12.1892 32.4946C11.7607 32.4946 11.5966 32.3881 11.5233 32.3025C11.4381 32.2031 11.3781 32.0221 11.3781 31.6835Z" fill="#326B43"/>
</svg>
