<svg width="40" height="40" viewBox="0 0 40 40" fill="none" xmlns="http://www.w3.org/2000/svg">
<path fill-rule="evenodd" clip-rule="evenodd" d="M30.8832 23.2854L33.1268 28.1385L30.8832 32.9916H9.17465L6.93102 28.1385L9.17465 23.2854H30.8832ZM29.3066 31.5172L28.2151 28.8756H8.68954L9.90231 31.5172H29.3066ZM28.2151 27.4013L29.3066 24.7597H9.96295L8.75018 27.4013H28.2151ZM31.5502 28.1385L30.5194 25.3126L29.4885 28.1385L30.5194 31.1486L31.5502 28.1385Z" fill="#326B43"/>
<path fill-rule="evenodd" clip-rule="evenodd" d="M33.1268 15.422L30.8832 10.5689H9.17465L6.93102 15.422L9.17465 20.2751H30.8832L33.1268 15.422ZM28.2151 16.2206L29.3066 18.8622H9.90231L8.68954 16.2206H28.2151ZM29.3066 12.1047L28.2151 14.7462H8.75018L9.96295 12.1047H29.3066ZM30.5194 12.6576L31.5502 15.4834L30.5194 18.4936L29.4885 15.4834L30.5194 12.6576Z" fill="#326B43"/>
<path fill-rule="evenodd" clip-rule="evenodd" d="M19.9679 0.555664L1.59448 6.51453L1.10938 6.69883V38.889H38.8872V6.69883C35.7342 5.68527 32.5812 4.65636 29.4282 3.62744C26.275 2.59847 23.1211 1.56928 19.9679 0.555664ZM2.5647 7.74316L20.0286 2.09145L37.4925 7.74316V37.4146H2.5647V7.74316Z" fill="#326B43"/>
</svg>
