<svg width="40" height="40" viewBox="0 0 40 40" fill="none" xmlns="http://www.w3.org/2000/svg">
<path fill-rule="evenodd" clip-rule="evenodd" d="M6.0625 20.045V15.2515H7.72917V20.045C7.72917 20.3322 7.82216 20.7814 8.0767 21.135C8.30064 21.446 8.6812 21.7346 9.41877 21.7346H11.9883L11.9885 23.4013H9.41877C8.138 23.4013 7.25708 22.849 6.72414 22.1088C6.2218 21.4111 6.0625 20.5989 6.0625 20.045Z" fill="#326B43"/>
<path fill-rule="evenodd" clip-rule="evenodd" d="M23.1406 18.3152V14.7471H20.9184V18.3152C20.9184 18.3941 20.8758 18.6067 20.7016 18.791C20.5557 18.9454 20.2169 19.1864 19.4277 19.1864H14.1948L14.1943 21.4086H19.4277C20.7199 21.4086 21.6821 20.9889 22.3167 20.3173C22.9231 19.6757 23.1406 18.8971 23.1406 18.3152Z" fill="#326B43"/>
<path fill-rule="evenodd" clip-rule="evenodd" d="M34.4688 19.6127V14.7471H32.8021V19.6127C32.8021 19.9181 32.6968 20.4043 32.397 20.7938C32.127 21.1444 31.6521 21.4825 30.7445 21.4825H28.59L28.5895 23.1492H30.7445C32.1496 23.1492 33.1202 22.5863 33.7175 21.8106C34.2849 21.0738 34.4688 20.2085 34.4688 19.6127Z" fill="#326B43"/>
<path fill-rule="evenodd" clip-rule="evenodd" d="M29.1953 22.3519V14.7471H26.9731V22.3519C26.9731 22.919 26.7891 23.7991 26.2656 24.5072C25.7828 25.1604 24.959 25.7461 23.4587 25.7461H21.02V27.9683H23.4587C25.6589 27.9683 27.1478 27.0522 28.0526 25.8282C28.9168 24.6591 29.1953 23.2866 29.1953 22.3519Z" fill="#326B43"/>
<path fill-rule="evenodd" clip-rule="evenodd" d="M11.2812 14.7471H14.6146V22.7169C14.6454 22.9072 14.7377 23.1895 14.8943 23.399C14.9712 23.5018 15.0464 23.5643 15.1164 23.6022C15.1796 23.6365 15.2849 23.6767 15.4709 23.6767H19.003C19.7743 23.6767 20.8941 23.8944 21.869 24.5964C22.9289 25.3595 23.6972 26.6167 23.6972 28.3709V37.7058H20.3638V28.3709C20.3638 28.0034 20.2891 27.7777 20.2182 27.6402C20.1466 27.5014 20.0478 27.3925 19.9213 27.3015C19.6348 27.0951 19.2408 27.0101 19.003 27.0101H15.4709C13.9591 27.0101 12.883 26.2752 12.2251 25.3956C11.6137 24.5782 11.355 23.6413 11.2895 22.9863L11.2812 22.9036V14.7471Z" fill="#326B43"/>
<path fill-rule="evenodd" clip-rule="evenodd" d="M12.6831 2.33376C16.1266 2.24978 23.9536 2.13117 27.6128 2.33445C31.3318 2.54107 32.9384 5.20008 33.3579 6.77647C37.4905 8.60118 37.9817 12.8997 37.7196 14.822L37.6541 15.3025H2.36941L2.30632 14.8188C1.69384 10.1232 4.58485 7.59485 6.39823 6.78116C6.72379 5.21308 7.823 4.15545 9.00912 3.47887C10.2714 2.75887 11.701 2.42592 12.644 2.3361L12.6635 2.33424L12.6831 2.33376ZM12.7303 3.44405C11.9067 3.52521 10.6479 3.82324 9.55965 4.444C8.46665 5.06746 7.61524 5.97167 7.44459 7.25157L7.40031 7.58363L7.08597 7.69944C5.71458 8.20472 3.05748 10.1984 3.3582 14.1914H36.6616C36.7498 12.316 36.0531 9.04568 32.6738 7.69396L32.3904 7.58058L32.3341 7.28053C32.1128 6.10031 30.8507 3.62716 27.5512 3.44385C23.9512 3.24386 16.1928 3.35988 12.7303 3.44405Z" fill="#326B43"/>
<path fill-rule="evenodd" clip-rule="evenodd" d="M10.2303 5.46336C11.0065 4.86482 11.8364 4.52069 12.3762 4.38574L12.5109 4.92471C12.0415 5.04206 11.282 5.35389 10.5696 5.90329C9.85941 6.45099 9.20993 7.22357 8.92715 8.26043L8.89014 8.39611L8.75887 8.4466C7.72332 8.84489 5.65712 10.3154 5.65712 12.9809H5.10156C5.10156 10.1035 7.24396 8.49052 8.42966 7.98098C8.76994 6.86552 9.48154 6.04083 10.2303 5.46336Z" fill="#326B43"/>
</svg>
