<svg xmlns="http://www.w3.org/2000/svg" width="24" height="24" viewBox="0 0 24 24" fill="none">
    <g clip-path="url(#clip0_442_33797)">
        <g clip-path="url(#clip1_442_33797)">
            <path d="M23.43 4.92C22.95 4.34 22.25 4 21.5 4H6.49L6.23 2.16C6.14576 1.56179 5.84859 1.01402 5.39304 0.617249C4.93749 0.220477 4.35412 0.00131863 3.75 0L2.49 0C2.21 0 1.99 0.22 1.99 0.5C1.99 0.78 2.21 1 2.49 1H3.75C4.5 1 5.13 1.56 5.24 2.29L7.02 15.12C7.17368 16.1945 7.70888 17.1778 8.52778 17.8902C9.34668 18.6026 10.3946 18.9965 11.48 19H19.5C19.78 19 20 18.78 20 18.5C20 18.22 19.78 18 19.5 18H11.48C9.75 18 8.26 16.71 8.02 15H18.66C20.8 15 22.65 13.48 23.07 11.38L23.95 6.99C24.1 6.25 23.91 5.5 23.43 4.91V4.92ZM22.97 6.8L22.09 11.19C21.9289 11.9815 21.4997 12.6933 20.8749 13.2052C20.25 13.7171 19.4678 13.9978 18.66 14H7.88L6.63 5H21.5C21.95 5 22.37 5.2 22.66 5.55C22.95 5.9 23.06 6.35 22.97 6.8ZM9 20.01C7.9 20.01 7 20.91 7 22.01C7 23.11 7.9 24.01 9 24.01C10.1 24.01 11 23.11 11 22.01C11 20.91 10.1 20.01 9 20.01ZM9 23.01C8.45 23.01 8 22.56 8 22.01C8 21.46 8.45 21.01 9 21.01C9.55 21.01 10 21.46 10 22.01C10 22.56 9.55 23.01 9 23.01ZM18 20.01C16.9 20.01 16 20.91 16 22.01C16 23.11 16.9 24.01 18 24.01C19.1 24.01 20 23.11 20 22.01C20 20.91 19.1 20.01 18 20.01ZM18 23.01C17.45 23.01 17 22.56 17 22.01C17 21.46 17.45 21.01 18 21.01C18.55 21.01 19 21.46 19 22.01C19 22.56 18.55 23.01 18 23.01ZM0.5 5.5C0.5 5.5 0.5 5.5 0.5 5H3.04C3.32 5 3.54 5.22 3.54 5.5C3.54 5.78 3.32 6 3.04 6H0.5C0.5 5.47493 0.5 5.5 0.5 5.5ZM0.5 9.5C0.5 9.22 0.5 9.5 0.5 9H3.5C3.78 9 4 9.22 4 9.5C4 9.78 3.78 10 3.5 10H0.5C0.5 9.5 0.5 9.78 0.5 9.5ZM5 13.5C5 13.78 4.78 14 4.5 14H0.5C0.5 13.5 0.500556 13.78 0.500556 13.5C0.500556 13.22 0.500699 13.5 0.5 13H4.5C4.78 13 5 13.22 5 13.5Z" fill="#326B43" />
        </g>
    </g>
    <defs>
        <clipPath id="clip0_442_33797">
            <rect width="24" height="24" fill="white" />
        </clipPath>
        <clipPath id="clip1_442_33797">
            <rect width="24" height="24" fill="white" />
        </clipPath>
    </defs>
</svg>