<svg xmlns="http://www.w3.org/2000/svg" width="24" height="24" viewBox="0 0 24 24">
    <path d="M19.721 9.33C19.735 9.138 19.75 8.946 19.75 8.75C19.75 4.477 16.273 1 12 1C7.727 1 4.25 4.477 4.25 8.75C4.25 8.946 4.265 9.138 4.279 9.33C1.746 10.606 0 13.225 0 16.25C0 20.523 3.477 24 7.75 24C9.26129 24.0006 10.7394 23.5565 12 22.723C13.2606 23.5565 14.7387 24.0006 16.25 24C20.523 24 24 20.523 24 16.25C24 13.225 22.254 10.606 19.721 9.33ZM5.25 8.75C5.25 5.028 8.278 2 12 2C15.722 2 18.75 5.028 18.75 8.75C18.75 8.807 18.743 8.862 18.741 8.918C17.9393 8.6425 17.0977 8.50127 16.25 8.5C14.7387 8.49937 13.2606 8.94348 12 9.777C10.7394 8.94348 9.26129 8.49937 7.75 8.5C6.878 8.5 6.042 8.652 5.259 8.918C5.258 8.861 5.25 8.806 5.25 8.75ZM14.5 16.25C14.4998 17.254 14.2752 18.2453 13.8427 19.1514C13.4101 20.0575 12.7806 20.8555 12 21.487C11.2195 20.8554 10.59 20.0574 10.1575 19.1513C9.72498 18.2453 9.50034 17.254 9.5 16.25C9.5 16.193 9.507 16.138 9.509 16.082C10.292 16.349 11.128 16.5 12 16.5C12.872 16.5 13.708 16.348 14.491 16.082C14.492 16.139 14.5 16.194 14.5 16.25ZM12 15.5C11.1836 15.4983 10.3744 15.3478 9.612 15.056C9.8985 13.466 10.7458 12.0315 12 11.013C13.2542 12.0315 14.1015 13.466 14.388 15.056C13.6257 15.3484 12.8164 15.4988 12 15.5ZM8.676 14.618C7.81508 14.1291 7.07204 13.4571 6.4994 12.6494C5.92675 11.8418 5.53847 10.9182 5.362 9.944C6.12427 9.65164 6.93359 9.50116 7.75 9.5C8.991 9.5 10.15 9.842 11.15 10.429C9.89675 11.5233 9.02926 12.9922 8.676 14.618ZM12.849 10.429C13.849 9.842 15.009 9.5 16.249 9.5C17.0654 9.50172 17.8746 9.65218 18.637 9.944C18.4603 10.9181 18.0719 11.8416 17.4993 12.6492C16.9266 13.4568 16.1837 14.1289 15.323 14.618C14.9697 12.9922 14.1023 11.5233 12.849 10.429ZM7.749 23C5.95944 22.9979 4.24378 22.286 2.97837 21.0206C1.71296 19.7552 1.00112 18.0396 0.999 16.25C1.00052 15.0564 1.31837 13.8845 1.92019 12.8537C2.52202 11.8229 3.3863 10.9701 4.425 10.382C4.67156 11.5134 5.16795 12.5753 5.87787 13.4901C6.58778 14.4048 7.49325 15.1493 8.528 15.669C8.514 15.861 8.499 16.053 8.499 16.249C8.499 18.569 9.529 20.649 11.149 22.07C10.149 22.657 8.989 23 7.749 23ZM16.249 23C15.008 23 13.849 22.658 12.849 22.071C13.6808 21.3462 14.3476 20.4517 14.8047 19.4476C15.2618 18.4436 15.4986 17.3532 15.499 16.25C15.499 16.054 15.484 15.862 15.47 15.67C16.5045 15.15 17.4098 14.4055 18.1197 13.4907C18.8296 12.576 19.3261 11.5142 19.573 10.383C20.6119 10.9708 21.4764 11.8236 22.0782 12.8545C22.6801 13.8853 22.9978 15.0573 22.999 16.251C22.9969 18.0406 22.285 19.7562 21.0196 21.0216C19.7542 22.287 18.0386 22.9979 16.249 23Z" fill="#326b43" />
</svg>