<svg xmlns="http://www.w3.org/2000/svg" width="24" height="24" viewBox="0 0 24 24">
    <path d="M21.841 10H20.49C20.37 10.342 20.228 10.675 20.067 11H20.991L21.803 16H15.67L15.129 16.529L15.934 23H8.067L8.872 16.529L8.331 16H2.185L3.007 11H3.942C3.78146 10.6755 3.64086 10.3416 3.521 10H2.159L0 23.124V24H24V23.295L21.841 10ZM7.059 23H1.034L2.021 17H7.811L7.059 23ZM16.941 23L16.189 17H21.965L22.939 23H16.941ZM12 16.791L16.949 11.95C18.271 10.628 19 8.87 19 7C19 5.13 18.271 3.373 16.949 2.05C15.628 0.728 13.87 0 12 0C10.13 0 8.373 0.728 7.05 2.05C4.321 4.779 4.321 9.22 7.054 11.953L12 16.791ZM7.757 2.757C8.89 1.624 10.397 1 12 1C13.603 1 15.109 1.624 16.242 2.757C17.376 3.89 18 5.397 18 7C18 8.603 17.376 10.109 16.246 11.239L12 15.393L7.757 11.243C6.624 10.11 6 8.603 6 7C6 5.397 6.624 3.891 7.757 2.757ZM12 9.98C13.648 9.98 14.99 8.639 14.99 6.99C14.99 5.341 13.648 4 12 4C10.352 4 9.01 5.341 9.01 6.99C9.01 8.639 10.351 9.98 12 9.98ZM12 5C13.098 5 13.99 5.893 13.99 6.99C13.99 8.087 13.097 8.98 12 8.98C10.903 8.98 10.01 8.087 10.01 6.99C10.01 5.893 10.903 5 12 5Z" fill="#326b43" />
</svg>