<svg width="40" height="40" viewBox="0 0 40 40" fill="none" xmlns="http://www.w3.org/2000/svg">
<path d="M29.082 37.9193C27.1987 37.9193 25.2154 37.4693 23.1654 36.6026C21.1654 35.7526 19.1487 34.5859 17.182 33.1693C15.2154 31.7359 13.332 30.1193 11.5654 28.3693C9.7987 26.5859 8.1987 24.7026 6.78203 22.7693C5.3487 20.7693 4.1987 18.7859 3.38203 16.8359C2.51536 14.7859 2.08203 12.7859 2.08203 10.9026C2.08203 9.60261 2.31536 8.36927 2.76536 7.21927C3.2487 6.01927 3.98203 4.93594 4.9987 3.98594C6.28203 2.73594 7.7487 2.08594 9.31537 2.08594C9.96537 2.08594 10.632 2.23594 11.1987 2.5026C11.8487 2.8026 12.3987 3.2526 12.7987 3.8526L16.6654 9.30261C17.0154 9.78594 17.282 10.2526 17.4654 10.7193C17.682 11.2193 17.7987 11.7193 17.7987 12.2026C17.7987 12.8359 17.6154 13.4526 17.2654 14.0359C17.0154 14.4859 16.632 14.9693 16.1487 15.4526L15.0154 16.6359C15.032 16.6859 15.0487 16.7193 15.0654 16.7526C15.2654 17.1026 15.6654 17.7026 16.432 18.6026C17.232 19.5359 18.0154 20.3693 18.782 21.1693C19.782 22.1526 20.582 22.9026 21.3487 23.5359C22.2987 24.3359 22.9154 24.7359 23.282 24.9193L23.2487 25.0026L24.4654 23.8026C24.982 23.2859 25.482 22.9026 25.9654 22.6526C26.882 22.0859 28.0487 21.9859 29.2154 22.4693C29.6487 22.6526 30.1154 22.9026 30.6154 23.2526L36.1487 27.1859C36.7487 27.6026 37.2154 28.1359 37.482 28.7693C37.732 29.4026 37.8487 29.9859 37.8487 30.5693C37.8487 31.3693 37.6654 32.1693 37.3154 32.9193C36.9654 33.6693 36.532 34.3193 35.982 34.9193C35.032 35.9693 33.9987 36.7193 32.7987 37.2026C31.6487 37.6693 30.3987 37.9193 29.082 37.9193ZM9.31537 4.58594C8.3987 4.58594 7.5487 4.98594 6.73203 5.78594C5.98203 6.5026 5.43203 7.28594 5.0987 8.13594C4.7487 9.00261 4.58203 9.91927 4.58203 10.9026C4.58203 12.4526 4.9487 14.1359 5.68203 15.8693C6.43203 17.6359 7.48203 19.4693 8.81536 21.3026C10.1487 23.1359 11.6654 24.9193 13.332 26.6026C14.9987 28.2526 16.7987 29.7859 18.6487 31.1359C20.4487 32.4526 22.2987 33.5193 24.132 34.2859C26.982 35.5026 29.6487 35.7859 31.8487 34.8693C32.6987 34.5193 33.4487 33.9859 34.132 33.2193C34.5154 32.8026 34.8154 32.3526 35.0654 31.8193C35.2654 31.4026 35.3654 30.9693 35.3654 30.5359C35.3654 30.2693 35.3154 30.0026 35.182 29.7026C35.1487 29.6193 35.032 29.4193 34.7154 29.2026L29.182 25.2693C28.8487 25.0359 28.5487 24.8693 28.2654 24.7526C27.832 24.5859 27.5487 24.5693 27.182 24.8026C26.8487 24.9693 26.5487 25.2193 26.2154 25.5526L24.9487 26.8026C24.2987 27.4359 23.2987 27.5859 22.532 27.3026L22.082 27.1026C21.3987 26.7359 20.5987 26.1693 19.7154 25.4193C18.8987 24.7359 18.0654 23.9526 16.9987 22.9026C16.1654 22.0526 15.3654 21.1693 14.5154 20.2026C13.732 19.2859 13.1654 18.5026 12.8154 17.8526L12.5987 17.3526C12.4987 16.9859 12.4654 16.7693 12.4654 16.5359C12.4654 15.9359 12.682 15.4026 13.0987 14.9859L14.3487 13.6859C14.682 13.3526 14.932 13.0359 15.0987 12.7526C15.232 12.5359 15.282 12.3526 15.282 12.1859C15.282 12.0526 15.232 11.8526 15.1487 11.6526C15.0487 11.3693 14.8654 11.0859 14.632 10.7526L10.7654 5.28594C10.5987 5.0526 10.3987 4.88594 10.1487 4.76927C9.88203 4.6526 9.5987 4.58594 9.31537 4.58594ZM23.2487 25.0193L22.982 26.1526L23.432 24.9859C23.3654 24.9693 23.2987 24.9859 23.2487 25.0193Z" fill="#326B43"/>
<path d="M28.3331 14.5365C28.0164 14.5365 27.6997 14.4198 27.4497 14.1698L24.1164 10.8365C23.6331 10.3531 23.6331 9.55313 24.1164 9.06979C24.5997 8.58646 25.3997 8.58646 25.8831 9.06979L28.3331 11.5198L34.1164 5.75313C34.5997 5.26979 35.3997 5.26979 35.8831 5.75313C36.3664 6.23646 36.3664 7.03646 35.8831 7.51979L29.2164 14.1865C28.9664 14.4031 28.6497 14.5365 28.3331 14.5365Z" fill="#326B43"/>
</svg>
