<svg xmlns="http://www.w3.org/2000/svg" width="20" height="20" viewBox="0 0 20 20" fill="none">
    <path d="M1.66693 15.275C1.66693 15.575 1.73359 15.8833 1.87526 16.1833C2.01693 16.4833 2.20026 16.7667 2.44193 17.0333C2.85026 17.4833 3.30026 17.8083 3.80859 18.0167C4.30859 18.225 4.85026 18.3333 5.43359 18.3333C6.28359 18.3333 7.19193 18.1333 8.15026 17.725C9.10859 17.3167 10.0669 16.7667 11.0169 16.075C11.9753 15.375 12.8836 14.6 13.7503 13.7417C14.6086 12.875 15.3836 11.9667 16.0753 11.0167C16.7586 10.0667 17.3086 9.11666 17.7086 8.17499C18.1086 7.22499 18.3086 6.31666 18.3086 5.44999C18.3086 4.88332 18.2086 4.34166 18.0086 3.84166C17.8086 3.33332 17.4919 2.86666 17.0503 2.44999C16.5169 1.92499 15.9336 1.66666 15.3169 1.66666C15.0836 1.66666 14.8503 1.71666 14.6419 1.81666C14.4253 1.91666 14.2336 2.06666 14.0836 2.28332L12.1503 5.00832C12.0003 5.21666 11.8919 5.40832 11.8169 5.59166C11.7419 5.76666 11.7003 5.94166 11.7003 6.09999C11.7003 6.29999 11.7586 6.49999 11.8753 6.69166C11.9836 6.88332 12.1419 7.08332 12.3419 7.28332L12.9753 7.94166C13.0669 8.03332 13.1086 8.14166 13.1086 8.27499C13.1086 8.34166 13.1003 8.39999 13.0836 8.46666C13.0586 8.53332 13.0336 8.58332 13.0169 8.63332C12.8669 8.90832 12.6086 9.26666 12.2419 9.69999C11.8669 10.1333 11.4669 10.575 11.0336 11.0167C10.5836 11.4583 10.1503 11.8667 9.70859 12.2417C9.27526 12.6083 8.91693 12.8583 8.63359 13.0083C8.59193 13.025 8.54193 13.05 8.48359 13.075C8.41693 13.1 8.35026 13.1083 8.27526 13.1083C8.13359 13.1083 8.02526 13.0583 7.93359 12.9667L7.30026 12.3417C7.09193 12.1333 6.89193 11.975 6.70026 11.875C6.50859 11.7583 6.31693 11.7 6.10859 11.7C5.95026 11.7 5.78359 11.7333 5.60026 11.8083C5.41693 11.8833 5.22526 11.9917 5.01693 12.1333L2.25859 14.0917C2.04193 14.2417 1.89193 14.4167 1.80026 14.625C1.71693 14.8333 1.66693 15.0417 1.66693 15.275Z" stroke="#326B43" stroke-width="1.5" stroke-miterlimit="10" />
</svg>