<svg xmlns="http://www.w3.org/2000/svg" width="40" height="40" viewBox="0 0 40 40" fill="none">
    <g clip-path="url(#clip0_1_7222)">
        <path d="M9.99971 20C15.5147 20 19.9997 15.515 19.9997 10C19.9997 4.485 15.5147 0 9.99971 0C4.48471 0 -0.000286458 4.485 -0.000286458 10C-0.000286458 15.515 4.48471 20 9.99971 20ZM13.333 17.6267C12.3097 18.075 11.1864 18.3333 9.99971 18.3333C8.81305 18.3333 7.68971 18.0767 6.66638 17.6267V15C6.66638 14.08 7.41471 13.3333 8.33305 13.3333H11.6664C12.5847 13.3333 13.333 14.08 13.333 15V17.6267ZM9.99971 1.66667C14.5947 1.66667 18.333 5.405 18.333 10C18.333 12.7117 17.0114 15.1017 14.9997 16.6233V15C14.9997 13.1617 13.5047 11.6667 11.6664 11.6667H8.33305C6.49471 11.6667 4.99971 13.1617 4.99971 15V16.6233C2.98805 15.1 1.66638 12.71 1.66638 10C1.66638 5.405 5.40471 1.66667 9.99971 1.66667ZM9.99971 10C11.838 10 13.333 8.505 13.333 6.66667C13.333 4.82833 11.838 3.33333 9.99971 3.33333C8.16138 3.33333 6.66638 4.82833 6.66638 6.66667C6.66638 8.505 8.16138 10 9.99971 10ZM9.99971 5C10.3298 4.99967 10.6526 5.09728 10.9272 5.28047C11.2018 5.46366 11.4159 5.7242 11.5424 6.02912C11.6689 6.33404 11.7021 6.66962 11.6377 6.9934C11.5734 7.31718 11.4145 7.6146 11.1811 7.84802C10.9476 8.08144 10.6502 8.24037 10.3264 8.30469C10.0027 8.36901 9.66708 8.33583 9.36217 8.20935C9.05725 8.08287 8.79671 7.86878 8.61352 7.59417C8.43032 7.31956 8.33272 6.99677 8.33305 6.66667C8.33305 5.74667 9.08138 5 9.99971 5ZM40.0264 10.0833L38.473 10.6883L35.3997 2.81333C32.9014 10.1433 21.5764 27.2 -0.00195312 31.5V29.7933C21.248 25.405 32.0514 8.36833 33.968 1.8L25.6264 5.05333L25.0214 3.5L33.478 0.201667C33.7848 0.0805942 34.1124 0.0214396 34.4421 0.0276138C34.7718 0.0337881 35.097 0.105169 35.399 0.237641C35.701 0.370112 35.9737 0.561053 36.2015 0.799453C36.4294 1.03785 36.6077 1.319 36.7264 1.62667L40.0247 10.0817L40.0264 10.0833ZM28.2897 19.5917L28.333 39.9983L26.6664 40.0017L26.6264 21.2483C27.2014 20.7 27.7547 20.1467 28.2897 19.5917ZM1.66638 34.5183C2.23305 34.3933 2.78138 34.25 3.33305 34.11V40H1.66638V34.5183ZM34.9997 13.3333H36.6664V40H34.9997V13.3333ZM19.9714 26.6417L19.9997 39.9983L18.333 40.0017L18.3064 27.7133C18.8664 27.36 19.4347 27.01 19.9714 26.6417ZM11.6447 31.2533L11.6664 39.9967L9.99971 40L9.97971 31.98C10.5497 31.7517 11.0914 31.4983 11.6447 31.2533Z" fill="#326B43" />
    </g>
    <defs>
        <clipPath id="clip0_1_7222">
            <rect width="40" height="40" fill="white" />
        </clipPath>
    </defs>
    </svg>