<svg width="40" height="40" viewBox="0 0 40 40" fill="none" xmlns="http://www.w3.org/2000/svg">
<g clip-path="url(#clip0_1101_119522)">
<path d="M4.16667 5.0026H40V3.33594H4.16667C3.062 3.33726 2.00296 3.77667 1.22185 4.55779C0.440735 5.3389 0.00132321 6.39794 0 7.5026L0 32.5026C0 34.7993 1.86833 36.6693 4.16667 36.6693H40V10.0026H4.16667C2.78833 10.0026 1.66667 8.88094 1.66667 7.5026C1.66667 6.12427 2.78833 5.0026 4.16667 5.0026ZM4.16667 11.6693H38.3333V35.0026H4.16667C2.78833 35.0026 1.66667 33.8809 1.66667 32.5026V10.8343C2.36333 11.3576 3.22833 11.6693 4.16667 11.6693ZM31.6667 23.3359C31.6667 22.8939 31.8423 22.47 32.1548 22.1574C32.4674 21.8449 32.8913 21.6693 33.3333 21.6693C33.7754 21.6693 34.1993 21.8449 34.5118 22.1574C34.8244 22.47 35 22.8939 35 23.3359C35 23.778 34.8244 24.2019 34.5118 24.5145C34.1993 24.827 33.7754 25.0026 33.3333 25.0026C32.8913 25.0026 32.4674 24.827 32.1548 24.5145C31.8423 24.2019 31.6667 23.778 31.6667 23.3359Z" fill="#326B43"/>
</g>
<defs>
<clipPath id="clip0_1101_119522">
<rect width="40" height="40" fill="white"/>
</clipPath>
</defs>
</svg>
