<svg xmlns="http://www.w3.org/2000/svg" width="40" height="40" viewBox="0 0 40 40" fill="none">
    <path d="M40 31.6667H9.16667C7.78833 31.6667 6.66667 30.545 6.66667 29.1667V4.16667C6.66667 1.87 4.79833 0 2.5 0H0V1.66667H2.5C3.87833 1.66667 5 2.78833 5 4.16667V29.1667C5 31.465 6.86833 33.3333 9.16667 33.3333H10V35C10 37.7567 12.2433 40 15 40C17.7567 40 20 37.7567 20 35V33.3333H26.6667V35C26.6667 37.7567 28.91 40 31.6667 40C34.4233 40 36.6667 37.7567 36.6667 35V33.3333H40V31.6667ZM18.3333 35C18.3333 36.8383 16.8383 38.3333 15 38.3333C13.1617 38.3333 11.6667 36.8383 11.6667 35V33.3333H18.3333V35ZM35 35C35 36.8383 33.505 38.3333 31.6667 38.3333C29.8283 38.3333 28.3333 36.8383 28.3333 35V33.3333H35V35ZM38.3333 9.16667C38.3333 6.87 36.465 5 34.1667 5H14.1667C13.062 5.00132 12.003 5.44073 11.2218 6.22185C10.4407 7.00296 10.0013 8.062 10 9.16667V28.3333H38.3333V9.16667ZM21.6667 6.66667H26.6667V15H21.6667V6.66667ZM36.6667 26.6667H11.6667V9.16667C11.6667 7.78833 12.7883 6.66667 14.1667 6.66667H20V16.6667H28.3333V6.66667H34.1667C35.545 6.66667 36.6667 7.78833 36.6667 9.16667V26.6667Z" fill="#326B43" />
</svg>