<svg xmlns="http://www.w3.org/2000/svg" width="216" height="52" viewBox="0 0 216 52" fill="none">
    <path d="M27.2878 19.4405C27.1523 19.3046 27.2201 19.3725 27.2878 19.4405V19.4405ZM16.5216 46.4261V1.90327L9.88589 9.65229H14.2194L6.4326 20.5281H11.7141L3.11473 32.9673H12.5944H13.4069V33.783V47.6497L16.5216 46.4261ZM22.8188 32.9673C23.0897 32.9673 23.3605 32.9673 23.6313 32.9673C24.1053 32.9673 24.647 32.9673 25.121 32.8993C25.7981 32.8993 26.4752 32.7634 27.0169 32.5595C27.6263 32.3556 28.1003 32.1516 28.5743 31.8797C28.642 31.8118 28.7774 31.8118 28.7774 31.7438C30.0639 30.9281 30.8088 29.5007 31.0796 28.0732C31.3505 26.5778 31.1473 25.0144 30.4702 23.8588C30.4025 23.7908 30.4025 23.7229 30.3348 23.6549C29.9962 23.1111 29.5223 22.5673 28.9806 22.1595C28.5066 21.7516 27.8972 21.4118 27.2201 21.2078C27.2201 21.2078 27.1524 21.2078 27.0169 21.1399C26.7461 21.0719 26.6107 21.0039 26.4075 20.9359C25.5273 20.4601 25.5273 20.0523 26.1367 18.8967C26.2721 18.6248 26.4075 18.3529 26.4752 18.149C27.0169 16.6536 27.0846 15.1582 26.6107 13.8667C26.2044 12.5752 25.2564 11.4876 24.0376 10.8078C23.8345 10.7399 23.6313 10.6039 23.4282 10.5359C22.2771 10.1281 22.074 9.92418 22.4125 9.04052C22.4802 8.90458 22.4802 8.8366 22.548 8.70065C22.6157 8.63268 22.6834 8.49673 22.7511 8.29281C23.0219 7.61307 23.0897 6.86536 23.0219 6.11765C22.9542 5.30196 22.6834 4.4183 22.2094 3.73856C21.7354 3.05882 21.0583 2.44706 20.1103 2.03922C19.5009 1.83529 18.8238 1.69935 17.9436 1.63137V46.4261L20.9229 47.6497V33.783V32.9673H22.8188ZM16.7925 0H17.8759H18.2821H18.3498C19.2978 0.0679739 20.1103 0.203922 20.8552 0.475817C22.1417 0.951634 23.0897 1.76732 23.7668 2.78693C24.4439 3.73856 24.7824 4.89412 24.8502 5.9817C24.9179 7.00131 24.7824 8.02092 24.4439 8.8366C24.4439 8.90458 24.3762 8.97255 24.3762 8.97255C24.5793 9.04052 24.7147 9.1085 24.9179 9.24444C26.5429 10.1281 27.694 11.5556 28.3034 13.1869C28.8451 14.8183 28.8451 16.7216 28.1003 18.6248C27.9649 18.8967 27.8295 19.2366 27.694 19.5085L27.8295 19.5765C28.7097 19.8484 29.4545 20.3242 30.0639 20.8C30.7411 21.3438 31.3505 22.0235 31.7567 22.7712C31.8245 22.9072 31.8922 22.9752 31.9599 23.0431C32.7724 24.5386 33.111 26.5098 32.7724 28.3451C32.4339 30.2484 31.4182 32.0157 29.7254 33.1033C29.59 33.1712 29.5223 33.2392 29.4545 33.3072C28.8451 33.6471 28.2357 33.919 27.5586 34.1229C26.8815 34.3268 26.069 34.4627 25.2564 34.5307C24.7824 34.5307 24.3085 34.5987 23.7668 34.5987C23.4959 34.5987 23.2251 34.5987 22.9542 34.5987V49.417L17.4696 52L11.985 49.417V34.5987H1.55737H0L0.880251 33.3072L8.46395 22.1595H3.11473L10.9016 11.2837H6.22947L15.3028 0.679739C15.8445 0.0679739 16.1154 0 16.7925 0ZM14.084 49.0771L17.2665 50.2327L20.652 49.0771L17.2665 47.9216L14.084 49.0771Z" fill="#232323" />
    <path d="M67.3737 0.204102H68.3894H72.3167H82.6088C82.812 0.204102 82.9474 0.340049 82.9474 0.543971L81.39 5.57404C81.3223 5.70998 81.2546 5.91391 81.0515 5.91391H72.7229V14.6146H80.5775C80.7806 14.6146 80.916 14.7505 80.916 14.9544V19.9845C80.916 20.1884 80.7806 20.3244 80.5775 20.3244H72.7229V29.025H81.0515C81.2546 29.025 81.3223 29.161 81.39 29.3649L82.9474 34.395C83.0151 34.5309 82.812 34.7348 82.6088 34.7348H72.3844H68.3894H67.3737C67.1706 34.7348 67.0352 34.5989 67.0352 34.395V0.543971C67.0352 0.340049 67.1706 0.204102 67.3737 0.204102Z" fill="#232323" />
    <path d="M203.27 0.203716H208.281H210.041H215.661C215.865 0.203716 216 0.339664 216 0.543585L214.443 5.57365C214.375 5.7096 214.307 5.91352 214.104 5.91352H210.041H208.552V34.2586C208.552 34.4625 208.416 34.5985 208.213 34.5985H203.202C202.999 34.5985 202.864 34.4625 202.864 34.2586V5.84555H201.374H197.312C197.108 5.84555 197.041 5.7096 196.973 5.50568L195.416 0.475611C195.348 0.339664 195.551 0.135742 195.754 0.135742H201.374H203.27V0.203716Z" fill="#232323" />
    <path d="M107.257 0.204102H112.267C112.47 0.204102 112.606 0.340049 112.606 0.543971V11.2159L118.294 0.611945C118.361 0.408023 118.632 0.272075 118.768 0.272075H123.981C124.184 0.272075 124.252 0.408023 124.117 0.611945L116.059 15.6342L124.184 34.191C124.252 34.395 124.184 34.5309 123.981 34.5309H118.768C118.564 34.5309 118.361 34.395 118.294 34.191L112.606 21.1401V34.259C112.606 34.4629 112.47 34.5989 112.267 34.5989H107.257C107.053 34.5989 106.918 34.4629 106.918 34.259V0.543971C106.918 0.340049 107.053 0.204102 107.257 0.204102Z" fill="#232323" />
    <path d="M132.578 5.84593V19.1008H137.657C138.131 19.1008 138.537 18.693 138.537 18.2172V6.72959C138.537 6.25377 138.131 5.84593 137.657 5.84593H132.578ZM127.229 0.204102H131.698H132.24H139.417C142.058 0.204102 144.157 2.37926 144.157 4.96227V19.9165C144.157 22.5675 141.99 24.6747 139.417 24.6747H132.578V34.191C132.578 34.3949 132.443 34.5309 132.24 34.5309H127.229C127.026 34.5309 126.891 34.3949 126.891 34.191V19.9165V15.1583V9.65247V4.8943V0.543971C126.958 0.340049 127.094 0.204102 127.229 0.204102Z" fill="#232323" />
    <path d="M182.484 5.84593V19.1008H183.026H185.395H187.021C187.495 19.1008 187.901 18.693 187.901 18.2172V6.72959C187.901 6.25377 187.495 5.84593 187.021 5.84593H185.395H183.026H182.484ZM176.322 19.1008H176.864V5.84593H176.322H173.817H172.327C171.853 5.84593 171.447 6.25377 171.447 6.72959V18.2172C171.447 18.693 171.853 19.1008 172.327 19.1008H173.817H176.322ZM177.202 0.204102H178.286H181.062H182.145H188.713C191.354 0.204102 193.453 2.37926 193.453 4.96227V19.9165C193.453 22.5675 191.286 24.6747 188.713 24.6747H182.416V34.191C182.416 34.3949 182.281 34.5309 182.078 34.5309H177.067C176.864 34.5309 176.728 34.3949 176.728 34.191V24.6747H170.431C167.79 24.6747 165.691 22.4995 165.691 19.9165V4.96227C165.691 2.31129 167.858 0.204102 170.431 0.204102H177.202Z" fill="#232323" />
    <path d="M57.2167 0.204102H52.2061C52.0706 0.204102 51.8675 0.340049 51.8675 0.543971L45.9766 24.8786C45.9766 24.9466 45.9766 24.9466 45.9766 25.0146L45.3672 34.191C45.3672 34.3949 45.5026 34.5309 45.638 34.5309H50.6487C50.8518 34.5309 50.9873 34.3949 50.9873 34.191L51.1227 30.9963L51.4612 24.9466L54.6437 11.7597L57.8261 24.9466L58.1647 30.9963L58.3001 34.191C58.3001 34.3949 58.4355 34.5309 58.6387 34.5309H63.6493C63.8524 34.5309 63.9202 34.3949 63.9202 34.191L63.4462 24.9466C63.4462 24.8786 63.4462 24.8786 63.4462 24.8106L57.5553 0.543971C57.5553 0.340049 57.3521 0.204102 57.2167 0.204102Z" fill="#232323" />
    <path d="M152.284 23.2472L155.06 11.7597L157.836 23.2472H152.284ZM157.565 0.204102H152.554C152.419 0.204102 152.216 0.340049 152.216 0.543971L146.257 24.8786C146.257 24.9466 146.257 24.9466 146.257 25.0146L145.783 34.259C145.783 34.4629 145.919 34.5989 146.054 34.5989H151.065C151.268 34.5989 151.403 34.4629 151.403 34.259L151.539 31.0642L151.606 29.2969H158.445L158.513 31.0642L158.648 34.259C158.648 34.4629 158.784 34.5989 158.987 34.5989H163.998C164.201 34.5989 164.268 34.4629 164.268 34.259L163.862 25.0146C163.862 24.9466 163.862 24.9466 163.862 24.8786L157.971 0.543971C157.904 0.340049 157.768 0.204102 157.565 0.204102Z" fill="#232323" />
    <path d="M102.855 6.04985V9.17665C102.855 9.65247 102.787 9.78841 102.381 9.92436L97.8443 11.2838C97.5058 11.4198 97.2349 11.3518 97.2349 10.944V6.72959C97.2349 6.25377 96.8287 5.84593 96.3547 5.84593H92.1566C91.6826 5.84593 91.2763 6.25377 91.2763 6.72959V28.0054C91.2763 28.4812 91.6826 28.8891 92.1566 28.8891H96.3547C96.8287 28.8891 97.2349 28.4812 97.2349 28.0054V24.5387V23.859C97.2349 23.4512 97.5058 23.3832 97.8443 23.5191L102.381 24.8786C102.787 25.0146 102.855 25.1505 102.855 25.6263V26.2381V28.7531V29.7727C102.855 32.4237 100.688 34.5309 98.1152 34.5309H90.3961C87.7553 34.5309 85.6562 32.3557 85.6562 29.7727V4.96227C85.6562 2.31129 87.823 0.204102 90.3961 0.204102H98.1152C100.756 0.204102 102.855 2.37926 102.855 4.96227V6.04985Z" fill="#232323" />
    <path d="M49.0913 42.6196L50.5133 50.6405H49.159L48.1434 43.5713H47.9402L46.9245 50.6405H45.5703L46.9923 42.6196H49.0913Z" fill="#232323" />
    <path d="M54.6421 42.6196V43.7752H52.6107V45.9503H54.5067V47.0379H52.6107V49.485H54.7098V50.6405H51.3242V42.6196H54.6421Z" fill="#232323" />
    <path d="M60.1278 47.6495C60.1278 48.4652 60.0601 49.009 59.9247 49.4168C59.5184 50.5724 58.7059 50.8443 57.961 50.8443C57.0131 50.8443 56.336 50.3685 55.9974 49.4168C55.7943 48.8051 55.7266 48.0574 55.7266 46.6299C55.7266 45.2704 55.7266 44.5227 55.9974 43.843C56.4037 42.6874 57.2162 42.4155 57.961 42.4155C58.7059 42.4155 59.5184 42.6874 59.9247 43.911C60.0601 44.2508 60.1278 44.7266 60.1278 45.5423H58.8413C58.8413 45.1345 58.8413 44.8626 58.8413 44.5907C58.8413 44.2508 58.7059 43.5031 58.0288 43.5031C57.3516 43.5031 57.2839 44.1828 57.2162 44.5907C57.1485 45.1345 57.1485 46.0861 57.1485 46.494C57.1485 47.7855 57.1485 48.1933 57.2162 48.6012C57.2839 48.941 57.3516 49.6208 58.0288 49.6208C58.7059 49.6208 58.8413 48.873 58.8413 48.6012C58.8413 48.3972 58.8413 48.1253 58.8413 47.5815H60.1278V47.6495Z" fill="#232323" />
    <path d="M65.0717 49.485H67.103L66.1551 43.6392H65.952L65.0717 49.485ZM67.103 42.6196L68.3896 49.485H68.5927V50.6405H63.3789V49.485H63.582L65.004 42.6196H67.103Z" fill="#232323" />
    <path d="M72.519 42.6196L74.0087 50.6405H72.5867L71.5711 43.5713H71.3679L70.3523 50.6405H68.998L70.42 42.6196H72.519Z" fill="#232323" />
    <path d="M77.2586 43.7073C76.92 43.7073 76.5815 43.7073 76.3106 43.9792C76.0398 44.2511 76.0398 44.7269 76.0398 44.9308C76.0398 45.2027 76.1075 45.6106 76.3106 45.8825C76.5815 46.1544 76.8523 46.2223 77.1909 46.2223H77.5294V43.7073H77.2586ZM78.7483 50.6406H77.4617V47.3099H77.0555C76.92 47.3099 76.7169 47.3099 76.5138 47.5138C76.3784 47.6498 76.3106 47.9217 76.2429 48.1936L75.6335 50.6406H74.2793L75.1595 47.5818C75.2273 47.3099 75.3627 46.9021 75.8367 46.6982C75.6335 46.6302 75.4304 46.5622 75.2273 46.2903C74.821 45.8145 74.7533 45.2707 74.7533 44.7269C74.7533 43.8433 75.0918 43.2995 75.4304 43.0276C76.0398 42.5518 76.7846 42.5518 77.2586 42.5518H78.816V50.6406H78.7483Z" fill="#232323" />
    <path d="M83.7579 49.485H85.7892L84.8413 43.6392H84.6381L83.7579 49.485ZM85.857 42.6196L87.1435 49.485H87.3466V50.6405H82.1328V49.485H82.3359L83.6225 42.6196H85.857Z" fill="#232323" />
    <path d="M91.4787 42.6196V43.7752H89.515V45.9503H91.3432V47.0379H89.515V49.485H91.6141V50.6405H88.2285V42.6196H91.4787Z" fill="#232323" />
    <path d="M95.812 42.6196L97.234 50.6405H95.8797L94.8641 43.5713H94.6609L93.6452 50.6405H92.291L93.713 42.6196H95.812Z" fill="#232323" />
    <path d="M99.4682 47.3098H100.89L100.281 43.5713H100.078L99.4682 47.3098ZM101.229 42.6196L102.786 50.5726H101.432L101.093 48.3974H99.2651L98.9265 50.5726H97.5723L99.1296 42.6196H101.229Z" fill="#232323" />
</svg>