<svg xmlns="http://www.w3.org/2000/svg" width="24" height="24" viewBox="0 0 24 24" fill="none">
    <path d="M22.1565 20.9321L16.9876 15.7632C18.3962 14.0404 19.0888 11.8422 18.922 9.62318C18.7553 7.40414 17.7421 5.33407 16.0919 3.84116C14.4417 2.34824 12.2808 1.5467 10.0562 1.60232C7.83163 1.65794 5.71351 2.56648 4.13999 4.13999C2.56648 5.71351 1.65794 7.83163 1.60232 10.0562C1.5467 12.2808 2.34824 14.4417 3.84116 16.0919C5.33407 17.7421 7.40414 18.7553 9.62318 18.922C11.8422 19.0888 14.0404 18.3962 15.7632 16.9876L20.9321 22.1565C21.0954 22.3143 21.3141 22.4016 21.5412 22.3996C21.7682 22.3976 21.9854 22.3065 22.146 22.146C22.3065 21.9854 22.3976 21.7682 22.3996 21.5412C22.4016 21.3141 22.3143 21.0954 22.1565 20.9321ZM10.2869 17.2145C8.91672 17.2145 7.57733 16.8082 6.43809 16.047C5.29884 15.2858 4.41091 14.2038 3.88657 12.938C3.36224 11.6721 3.22505 10.2792 3.49235 8.93536C3.75965 7.59153 4.41945 6.35714 5.3883 5.3883C6.35714 4.41945 7.59153 3.75965 8.93536 3.49235C10.2792 3.22505 11.6721 3.36224 12.938 3.88657C14.2038 4.41091 15.2858 5.29884 16.047 6.43809C16.8082 7.57733 17.2145 8.91672 17.2145 10.2869C17.2125 12.1236 16.4819 13.8844 15.1832 15.1832C13.8844 16.4819 12.1236 17.2125 10.2869 17.2145Z" fill="#8E8E8E" />
</svg>