<svg xmlns="http://www.w3.org/2000/svg" width="32" height="32" viewBox="0 0 32 32" fill="none">
    <path d="M15.9993 0C12.4643 0.00388213 9.07519 1.40989 6.57555 3.90953C4.0759 6.40917 2.6699 9.7983 2.66602 13.3333C2.66602 20.376 13.866 30.044 15.138 31.124L15.9993 31.852L16.8607 31.124C18.1327 30.044 29.3327 20.376 29.3327 13.3333C29.3288 9.7983 27.9228 6.40917 25.4232 3.90953C22.9235 1.40989 19.5344 0.00388213 15.9993 0ZM15.9993 20C14.6808 20 13.3919 19.609 12.2955 18.8765C11.1992 18.1439 10.3447 17.1027 9.84015 15.8846C9.33557 14.6664 9.20355 13.3259 9.46078 12.0327C9.71801 10.7395 10.353 9.55164 11.2853 8.61929C12.2177 7.68694 13.4055 7.052 14.6987 6.79476C15.992 6.53753 17.3324 6.66955 18.5506 7.17414C19.7687 7.67872 20.8099 8.5332 21.5425 9.62953C22.275 10.7259 22.666 12.0148 22.666 13.3333C22.6639 15.1008 21.9608 16.7953 20.7111 18.045C19.4613 19.2948 17.7668 19.9979 15.9993 20Z" fill="#769882" />
    <path d="M19.7603 9.74157C19.6504 9.63177 19.5015 9.57009 19.3462 9.57009C19.1909 9.57009 19.042 9.63177 18.9321 9.74157L16.2463 12.4274L13.5604 9.74157C13.4505 9.63177 13.3016 9.57009 13.1463 9.57009C12.991 9.57009 12.842 9.63177 12.7322 9.74157C12.6224 9.85139 12.5607 10.0003 12.5607 10.1556C12.5607 10.3109 12.6224 10.4599 12.7322 10.5697L15.4181 13.2556L12.7322 15.9415C12.6224 16.0513 12.5607 16.2002 12.5607 16.3555C12.5607 16.5108 12.6224 16.6598 12.7322 16.7696C12.842 16.8794 12.991 16.9411 13.1463 16.9411C13.3016 16.9411 13.4505 16.8794 13.5604 16.7696L16.2463 14.0837L18.9321 16.7696C19.042 16.8794 19.1909 16.9411 19.3462 16.9411C19.5015 16.9411 19.6504 16.8794 19.7603 16.7696C19.87 16.6598 19.9317 16.5108 19.9317 16.3555C19.9317 16.2002 19.87 16.0513 19.7603 15.9415L17.0744 13.2556L19.7603 10.5697C19.87 10.4599 19.9317 10.3109 19.9317 10.1556C19.9317 10.0003 19.87 9.85139 19.7603 9.74157Z" fill="#769882" />
    </svg>