<svg width="90" height="141" viewBox="0 0 90 141" fill="none" xmlns="http://www.w3.org/2000/svg">
<path d="M74.6412 52.7137C74.2708 52.3451 74.456 52.5294 74.6412 52.7137ZM45.1922 125.886V5.16078L27.0412 26.1725H38.8949L17.5953 55.6627H32.042L8.51984 89.3922H34.4498H36.6723V91.6039V129.204L45.1922 125.886ZM62.4171 89.3922C63.1579 89.3922 63.8988 89.3922 64.6396 89.3922C65.9361 89.3922 67.4178 89.3922 68.7143 89.2079C70.5665 89.2079 72.4186 88.8392 73.9003 88.2863C75.5673 87.7333 76.8638 87.1804 78.1603 86.4431C78.3455 86.2588 78.7159 86.2588 78.7159 86.0745C82.235 83.8627 84.2723 79.9922 85.0132 76.1216C85.754 72.0667 85.1984 67.8274 83.3462 64.6941C83.161 64.5098 83.161 64.3255 82.9758 64.1412C82.0497 62.6667 80.7532 61.1922 79.2715 60.0863C77.975 58.9804 76.3081 58.0588 74.456 57.5059C74.456 57.5059 74.2708 57.5059 73.9003 57.3216C73.1595 57.1373 72.789 56.9529 72.2334 56.7686C69.8256 55.4784 69.8256 54.3725 71.4925 51.2392C71.863 50.502 72.2334 49.7647 72.4186 49.2118C73.9003 45.1569 74.0855 41.102 72.789 37.6C71.6778 34.098 69.0848 31.149 65.7509 29.3059C65.1953 29.1216 64.6396 28.7529 64.084 28.5686C60.9354 27.4627 60.3797 26.9098 61.3058 24.5137C61.491 24.1451 61.491 23.9608 61.6762 23.5922C61.8614 23.4078 62.0466 23.0392 62.2319 22.4863C62.9727 20.6431 63.1579 18.6157 62.9727 16.5882C62.7875 14.3765 62.0466 11.9804 60.7501 10.1373C59.4536 8.29412 57.6015 6.63529 55.0085 5.52941C53.3416 4.97647 51.4895 4.60784 49.0817 4.42353V125.886L57.2311 129.204V91.6039V89.3922H62.4171ZM45.933 0H48.8965H50.0077H50.193C52.786 0.184314 55.0085 0.552941 57.0459 1.2902C60.5649 2.58039 63.1579 4.79216 65.0101 7.55686C66.8622 10.1373 67.7883 13.2706 67.9735 16.2196C68.1587 18.9843 67.7883 21.749 66.8622 23.9608C66.8622 24.1451 66.677 24.3294 66.677 24.3294C67.2326 24.5137 67.6031 24.698 68.1587 25.0667C72.6038 27.4627 75.7525 31.3333 77.4194 35.7569C78.9011 40.1804 78.9011 45.3412 76.8638 50.502C76.4933 51.2392 76.1229 52.1608 75.7525 52.898L76.1229 53.0824C78.5307 53.8196 80.568 55.1098 82.235 56.4C84.0871 57.8745 85.754 59.7176 86.8653 61.7451C87.0505 62.1137 87.2357 62.298 87.4209 62.4824C89.6435 66.5373 90.5696 71.8824 89.6435 76.8588C88.7174 82.0196 85.9392 86.8118 81.3089 89.7608C80.9385 89.9451 80.7532 90.1294 80.568 90.3137C78.9011 91.2353 77.2342 91.9726 75.382 92.5255C73.5299 93.0784 71.3073 93.4471 69.0848 93.6314C67.7883 93.6314 66.4918 93.8157 65.0101 93.8157C64.2692 93.8157 63.5284 93.8157 62.7875 93.8157V133.996L47.7852 141L32.7829 133.996V93.8157H4.25992H0L2.40778 90.3137L23.1517 60.0863H8.51984L29.8194 30.5961H17.0397L41.8583 1.84314C43.34 0.184314 44.0809 0 45.933 0ZM38.5245 133.075L47.2295 136.208L56.4902 133.075L47.2295 129.941L38.5245 133.075Z" fill="#E8F0EB"/>
</svg>
