<svg xmlns="http://www.w3.org/2000/svg" width="40" height="40" viewBox="0 0 40 40" fill="none">
    <g clip-path="url(#clip0_398_28585)">
        <path d="M5.83305 8.33333C8.12971 8.33333 9.99971 6.465 9.99971 4.16667C9.99971 1.86833 8.12971 0 5.83305 0C3.53638 0 1.66638 1.86833 1.66638 4.16667C1.66638 6.465 3.53638 8.33333 5.83305 8.33333ZM5.83305 1.66667C7.21138 1.66667 8.33305 2.78833 8.33305 4.16667C8.33305 5.545 7.21138 6.66667 5.83305 6.66667C4.45471 6.66667 3.33305 5.545 3.33305 4.16667C3.33305 2.78833 4.45471 1.66667 5.83305 1.66667ZM39.9164 29.855L39.5397 28.23L24.4264 31.7333L19.1564 9.00333L17.5314 9.38167L19.6064 18.3333H13.013L10.458 13.225C9.97647 12.2539 9.23253 11.4371 8.31054 10.8671C7.38854 10.2971 6.32533 9.99673 5.24138 10H3.33138C1.49305 10 -0.00195312 11.495 -0.00195312 13.3333V23.6017C-0.00195312 24.7683 0.59138 25.83 1.59638 26.4467L8.33138 30.4717V40H9.99805V29.5283L2.46138 25.0233C2.21755 24.8749 2.01613 24.666 1.87658 24.417C1.73703 24.168 1.66406 23.8871 1.66471 23.6017V13.3333C1.66471 12.4133 2.41305 11.6667 3.33138 11.6667H5.24138C5.73638 11.6667 6.21805 11.7533 6.66471 11.9133V24.175L8.33138 25.1717V13.0367C8.57971 13.3133 8.79471 13.6267 8.96805 13.97L11.983 20H19.993L22.698 31.67C22.1382 31.6494 21.5798 31.7418 21.0564 31.9417C20.533 32.1416 20.0553 32.4448 19.6516 32.8334C19.248 33.222 18.9267 33.6878 18.707 34.2033C18.4874 34.7187 18.3738 35.2731 18.373 35.8333C18.373 38.1317 20.243 40 22.5397 40C24.8364 40 26.7064 38.1317 26.7064 35.8333C26.7069 34.8485 26.3572 33.8957 25.7197 33.145L39.913 29.855H39.9164ZM22.543 38.3333C21.1647 38.3333 20.043 37.2117 20.043 35.8333C20.043 34.455 21.1647 33.3333 22.543 33.3333C23.9214 33.3333 25.043 34.455 25.043 35.8333C25.043 37.2117 23.9214 38.3333 22.543 38.3333ZM1.66638 30L3.33305 30.9967V40H1.66638V30ZM25.923 24.3967C26.148 25.3533 26.7314 26.1667 27.568 26.6833C27.9786 26.9386 28.4358 27.1095 28.9131 27.1862C29.3904 27.2629 29.8782 27.2438 30.348 27.13L35.528 25.9C36.4727 25.6739 37.2897 25.0833 37.8005 24.2571C38.3113 23.4309 38.4746 22.4362 38.2547 21.49L37.008 16.17C36.8988 15.6987 36.697 15.2539 36.4143 14.8614C36.1316 14.4688 35.7737 14.1363 35.3614 13.8833C34.9513 13.6277 34.4944 13.4564 34.0174 13.3794C33.5403 13.3024 33.0527 13.3213 32.583 13.435L27.4047 14.665C26.4598 14.8907 25.6426 15.4812 25.1317 16.3075C24.6208 17.1339 24.4577 18.1288 24.678 19.075L25.9247 24.395L25.923 24.3967ZM27.788 16.2867L32.9664 15.0567C33.2229 14.9955 33.4889 14.9857 33.7492 15.0277C34.0095 15.0698 34.2589 15.1629 34.483 15.3017C34.9397 15.585 35.2597 16.0283 35.383 16.5517L36.6297 21.8717C36.7499 22.3885 36.6606 22.9319 36.3815 23.3832C36.1023 23.8344 35.6559 24.1568 35.1397 24.28L29.9597 25.51C29.7029 25.5723 29.4363 25.583 29.1753 25.5415C28.9144 25.5 28.6642 25.4071 28.4394 25.2682C28.2146 25.1292 28.0197 24.9471 27.8658 24.7323C27.7119 24.5174 27.6022 24.2742 27.543 24.0167L26.2964 18.6967C26.1762 18.1798 26.2655 17.6364 26.5446 17.1852C26.8238 16.7339 27.2702 16.4115 27.7864 16.2883L27.788 16.2867Z" fill="#326B43" />
    </g>
    <defs>
        <clipPath id="clip0_398_28585">
            <rect width="40" height="40" fill="white" />
        </clipPath>
    </defs>
</svg>