<svg xmlns="http://www.w3.org/2000/svg" width="24" height="24" viewBox="0 0 24 24">
    <path d="M17.5 11C13.916 11 11 13.916 11 17.5C11 21.084 13.916 24 17.5 24C21.084 24 24 21.084 24 17.5C24 13.916 21.084 11 17.5 11ZM17.5 23C14.468 23 12 20.533 12 17.5C12 14.467 14.468 12 17.5 12C20.532 12 23 14.467 23 17.5C23 20.533 20.532 23 17.5 23ZM18 17.293L19.854 19.147L19.147 19.854L17.001 17.708V14.501H18.001V17.294L18 17.293ZM21.5 4H18V1.5C18 0.673 17.327 0 16.5 0H7.5C6.673 0 6 0.673 6 1.5V4H2.5C1.8372 4.00079 1.20178 4.26444 0.73311 4.73311C0.264441 5.20178 0.000793929 5.8372 0 6.5L0 24H12.023C11.6615 23.6948 11.3257 23.3603 11.019 23H1V13H10.288C10.508 12.649 10.752 12.315 11.02 12H1V6.5C1 5.673 1.673 5 2.5 5H21.5C22.327 5 23 5.673 23 6.5V11.02C23.36 11.326 23.695 11.662 24 12.024V6.5C24 5.122 22.879 4 21.5 4ZM7 4V1.5C7 1.36739 7.05268 1.24021 7.14645 1.14645C7.24021 1.05268 7.36739 1 7.5 1H16.5C16.6326 1 16.7598 1.05268 16.8536 1.14645C16.9473 1.24021 17 1.36739 17 1.5V4H7Z" fill="#326b43" />
</svg>