<svg width="40" height="40" viewBox="0 0 40 40" fill="none" xmlns="http://www.w3.org/2000/svg">
<g clip-path="url(#clip0_1101_119536)">
<path d="M5 18.3333H18.3333V5H5V18.3333ZM6.66667 6.66667H16.6667V16.6667H6.66667V6.66667ZM35 5H21.6667V18.3333H35V5ZM33.3333 16.6667H23.3333V6.66667H33.3333V16.6667ZM5 35H18.3333V21.6667H5V35ZM6.66667 23.3333H16.6667V33.3333H6.66667V23.3333ZM31.6667 31.6667V26.6667H35V21.6667H30V25H26.6667V21.6667H21.6667V26.6667H25V30H21.6667V35H26.6667V31.6667H31.6667ZM31.6667 23.3333H33.3333V25H31.6667V23.3333ZM23.3333 25V23.3333H25V25H23.3333ZM26.6667 26.6667H30V30H26.6667V26.6667ZM25 33.3333H23.3333V31.6667H25V33.3333ZM1.66667 11.6667H0V4.16667C0 1.87 1.87 0 4.16667 0H11.6667V1.66667H4.16667C2.78833 1.66667 1.66667 2.78833 1.66667 4.16667V11.6667ZM4.16667 38.3333H11.6667V40H4.16667C3.062 39.9987 2.00296 39.5593 1.22185 38.7781C0.440735 37.997 0.00132321 36.938 0 35.8333L0 28.3333H1.66667V35.8333C1.66667 37.2117 2.78833 38.3333 4.16667 38.3333ZM38.3333 28.3333H40V35.8333C40 38.13 38.13 40 35.8333 40H28.3333V38.3333H35.8333C37.2117 38.3333 38.3333 37.2117 38.3333 35.8333V28.3333ZM40 4.16667V11.6667H38.3333V4.16667C38.3333 2.78833 37.2117 1.66667 35.8333 1.66667H28.3333V0H35.8333C38.13 0 40 1.87 40 4.16667Z" fill="#326B43"/>
</g>
<defs>
<clipPath id="clip0_1101_119536">
<rect width="40" height="40" fill="white"/>
</clipPath>
</defs>
</svg>
