<svg width="24" height="24" viewBox="0 0 24 24" fill="none" xmlns="http://www.w3.org/2000/svg">
<g clip-path="url(#clip0_1113_124074)">
<path d="M11.999 24C11.2009 24.0003 10.4134 23.8169 9.69761 23.4641C8.98177 23.1112 8.35676 22.5982 7.871 21.965C7.07998 22.0684 6.27577 21.9887 5.52046 21.7319C4.76516 21.4751 4.07896 21.0482 3.51487 20.4841C2.95077 19.92 2.52385 19.2338 2.26709 18.4785C2.01032 17.7232 1.93057 16.919 2.034 16.128C0.755 15.145 0 13.625 0 12C0 10.375 0.755 8.855 2.034 7.872C1.92995 7.08086 2.00927 6.27638 2.26582 5.52079C2.52236 4.7652 2.94926 4.07874 3.5135 3.5145C4.07774 2.95026 4.7642 2.52336 5.51979 2.26682C6.27538 2.01027 7.07986 1.93095 7.871 2.035C8.854 0.755 10.375 0 11.999 0C13.623 0 15.144 0.755 16.127 2.035C17.725 1.823 19.335 2.366 20.484 3.515C21.633 4.664 22.173 6.272 21.964 7.872C23.243 8.855 23.998 10.375 23.998 12C23.998 13.625 23.243 15.145 21.964 16.128C22.068 16.9191 21.9887 17.7236 21.7322 18.4792C21.4756 19.2348 21.0487 19.9213 20.4845 20.4855C19.9203 21.0497 19.2338 21.4766 18.4782 21.7332C17.7226 21.9897 16.9181 22.069 16.127 21.965C15.6412 22.5982 15.0162 23.1112 14.3004 23.4641C13.5846 23.8169 12.7971 24.0003 11.999 24ZM8.325 20.868L8.51 21.142C8.89474 21.7139 9.41418 22.1825 10.0226 22.5065C10.631 22.8304 11.3097 22.9999 11.999 22.9999C12.6883 22.9999 13.367 22.8304 13.9754 22.5065C14.5838 22.1825 15.1033 21.7139 15.488 21.142L15.673 20.868L15.998 20.931C16.6741 21.0626 17.3723 21.0262 18.031 20.8248C18.6898 20.6235 19.289 20.2634 19.776 19.7763C20.2631 19.2891 20.623 18.6899 20.8242 18.0311C21.0254 17.3723 21.0618 16.6741 20.93 15.998L20.868 15.673L21.142 15.488C21.7139 15.1035 22.1825 14.5842 22.5065 13.976C22.8305 13.3677 23 12.6892 23 12C23 11.3108 22.8305 10.6323 22.5065 10.024C22.1825 9.41575 21.7139 8.89651 21.142 8.512L20.868 8.327L20.93 8.002C21.063 7.32568 21.0276 6.62702 20.8269 5.96763C20.6261 5.30823 20.2662 4.70836 19.7788 4.22092C19.2915 3.73348 18.6917 3.37344 18.0324 3.17255C17.373 2.97166 16.6743 2.9361 15.998 3.069L15.673 3.132L15.488 2.858C15.1033 2.28608 14.5838 1.81751 13.9754 1.49353C13.367 1.16955 12.6883 1.00011 11.999 1.00011C11.3097 1.00011 10.631 1.16955 10.0226 1.49353C9.41418 1.81751 8.89474 2.28608 8.51 2.858L8.325 3.132L8 3.069C7.32377 2.93687 6.62544 2.97297 5.96644 3.17413C5.30744 3.37529 4.70799 3.73534 4.22083 4.2226C3.73368 4.70986 3.37375 5.30938 3.17272 5.96842C2.97169 6.62746 2.93573 7.3258 3.068 8.002L3.13 8.327L2.856 8.512C2.28408 8.89651 1.81548 9.41575 1.49147 10.024C1.16747 10.6323 0.998009 11.3108 0.998009 12C0.998009 12.6892 1.16747 13.3677 1.49147 13.976C1.81548 14.5842 2.28408 15.1035 2.856 15.488L3.13 15.673L3.068 15.998C2.93496 16.6743 2.97038 17.373 3.17114 18.0324C3.37189 18.6918 3.73181 19.2916 4.21915 19.7791C4.7065 20.2665 5.30629 20.6266 5.96565 20.8274C6.625 21.0283 7.32366 21.0639 8 20.931L8.325 20.868ZM11.556 14.563L17.349 8.856L16.648 8.144L10.852 13.853C10.8049 13.8996 10.7491 13.9365 10.6878 13.9615C10.6264 13.9865 10.5607 13.9991 10.4945 13.9987C10.4282 13.9982 10.3627 13.9846 10.3017 13.9588C10.2407 13.9329 10.1854 13.8953 10.139 13.848L7.346 11.141L6.651 11.859L9.438 14.561C9.57698 14.7003 9.74205 14.8109 9.92377 14.8864C10.1055 14.9619 10.3003 15.0008 10.4971 15.001C10.6939 15.0012 10.8888 14.9626 11.0706 14.8875C11.2525 14.8123 11.4168 14.702 11.556 14.563Z" fill="#326B43"/>
</g>
<defs>
<clipPath id="clip0_1113_124074">
<rect width="24" height="24" fill="white"/>
</clipPath>
</defs>
</svg>
