<svg width="190" height="190" viewBox="0 0 190 190" fill="none" xmlns="http://www.w3.org/2000/svg">
<path d="M91.0404 172.187C46.3112 172.187 9.89453 135.771 9.89453 91.0413C9.89453 46.3122 46.3112 9.89551 91.0404 9.89551C135.77 9.89551 172.186 46.3122 172.186 91.0413C172.186 135.771 135.77 172.187 91.0404 172.187ZM91.0404 21.7705C52.8029 21.7705 21.7695 52.883 21.7695 91.0413C21.7695 129.2 52.8029 160.312 91.0404 160.312C129.278 160.312 160.311 129.2 160.311 91.0413C160.311 52.883 129.278 21.7705 91.0404 21.7705Z" fill="#E8F0EB"/>
<path d="M174.165 180.105C172.661 180.105 171.157 179.55 169.969 178.363L154.136 162.53C151.84 160.234 151.84 156.434 154.136 154.138C156.432 151.842 160.232 151.842 162.528 154.138L178.361 169.971C180.657 172.267 180.657 176.067 178.361 178.363C177.173 179.55 175.669 180.105 174.165 180.105Z" fill="#E8F0EB"/>
<path d="M109.273 79.8993C109.038 79.6693 109.155 79.7843 109.273 79.8993V79.8993ZM90.6217 125.567V50.2209L79.1261 63.3346H86.6334L73.1437 81.7399H82.2933L67.3959 102.791H83.8182H85.2258V104.171V127.638L90.6217 125.567ZM101.531 102.791C102 102.791 102.469 102.791 102.938 102.791C103.76 102.791 104.698 102.791 105.519 102.676C106.692 102.676 107.865 102.446 108.804 102.101C109.859 101.756 110.68 101.41 111.501 100.95C111.619 100.835 111.853 100.835 111.853 100.72C114.082 99.3399 115.372 96.9242 115.842 94.5085C116.311 91.9778 115.959 89.332 114.786 87.3765C114.669 87.2614 114.669 87.1464 114.551 87.0314C113.965 86.1111 113.144 85.1908 112.205 84.5007C111.384 83.8105 110.328 83.2353 109.155 82.8902C109.155 82.8902 109.038 82.8902 108.804 82.7752C108.334 82.6601 108.1 82.5451 107.748 82.4301C106.223 81.6248 106.223 80.9346 107.279 78.9791C107.513 78.519 107.748 78.0588 107.865 77.7137C108.804 75.183 108.921 72.6523 108.1 70.4667C107.396 68.281 105.754 66.4405 103.642 65.2902C103.29 65.1752 102.938 64.9451 102.587 64.8301C100.592 64.1399 100.24 63.7948 100.827 62.2993C100.944 62.0693 100.944 61.9542 101.062 61.7242C101.179 61.6092 101.296 61.3791 101.414 61.034C101.883 59.8837 102 58.6183 101.883 57.3529C101.765 55.9725 101.296 54.4771 100.475 53.3268C99.654 52.1765 98.481 51.1412 96.8387 50.451C95.783 50.1059 94.61 49.8758 93.0851 49.7608V125.567L98.2463 127.638V104.171V102.791H101.531ZM91.0909 47H92.9678H93.6716H93.7889C95.4311 47.115 96.8387 47.3451 98.129 47.8052C100.358 48.6105 102 49.9908 103.173 51.7163C104.346 53.3268 104.933 55.2824 105.05 57.1229C105.167 58.8484 104.933 60.5739 104.346 61.9542C104.346 62.0693 104.229 62.1843 104.229 62.1843C104.581 62.2993 104.815 62.4144 105.167 62.6444C107.982 64.1399 109.977 66.5556 111.032 69.3163C111.971 72.0771 111.971 75.298 110.68 78.519C110.446 78.9791 110.211 79.5542 109.977 80.0144L110.211 80.1294C111.736 80.5895 113.026 81.3948 114.082 82.2C115.255 83.1203 116.311 84.2706 117.015 85.5359C117.132 85.766 117.249 85.8811 117.367 85.9961C118.774 88.5268 119.361 91.8627 118.774 94.9686C118.188 98.1895 116.428 101.18 113.496 103.021C113.261 103.136 113.144 103.251 113.026 103.366C111.971 103.941 110.915 104.401 109.742 104.746C108.569 105.092 107.161 105.322 105.754 105.437C104.933 105.437 104.111 105.552 103.173 105.552C102.704 105.552 102.235 105.552 101.765 105.552V130.629L92.2639 135L82.7625 130.629V105.552H64.6979H62L63.5249 103.366L76.6628 84.5007H67.3959L80.8856 66.0954H72.7918L88.5103 48.1503C89.4487 47.115 89.9179 47 91.0909 47ZM86.3988 130.054L91.912 132.009L97.7771 130.054L91.912 128.098L86.3988 130.054Z" fill="#E8F0EB"/>
</svg>
