<svg xmlns="http://www.w3.org/2000/svg" width="22" height="22" viewBox="0 0 22 22">
    <path
        d="M19.5064 10.0169C19.8192 9.63031 20.0676 9.32009 20.251 9.08604C21.572 7.40699 22.1446 6.3344 21.9691 5.86678L21.9003 5.75726C21.8545 5.69148 21.7359 5.63107 21.5452 5.57639C21.3542 5.52175 21.1099 5.51301 20.8122 5.54909L17.5134 5.57133C17.4371 5.56406 17.3601 5.56576 17.2842 5.57639C17.2079 5.58749 17.1583 5.59863 17.1352 5.60926C17.1122 5.6204 17.0933 5.62933 17.0781 5.6366L17.0323 5.66947C16.9942 5.69124 16.9522 5.72968 16.9064 5.7846C16.8606 5.83948 16.8222 5.90309 16.7918 5.97633C16.4329 6.85959 16.0245 7.68098 15.5662 8.44023C15.2836 8.89288 15.0239 9.28556 14.7875 9.61727C14.5507 9.94974 14.3522 10.1942 14.1918 10.3509C14.0315 10.5078 13.8862 10.634 13.7565 10.7286C13.6265 10.8238 13.5274 10.8637 13.4589 10.8492C13.3937 10.8357 13.3287 10.821 13.2641 10.8052C13.1571 10.7397 13.0711 10.6505 13.0064 10.5371C12.9414 10.4242 12.8976 10.2817 12.8746 10.1101C12.8518 9.93864 12.8382 9.79068 12.8346 9.66638C12.8306 9.54237 12.8326 9.3673 12.8404 9.14072C12.848 8.91437 12.8518 8.76135 12.8518 8.68084C12.8518 8.40372 12.8576 8.10247 12.8691 7.7775C12.8804 7.45278 12.8901 7.19526 12.8976 7.00542C12.9052 6.81586 12.909 6.61492 12.909 6.40311C12.909 6.19178 12.8956 6.0254 12.8687 5.90478C12.8417 5.78427 12.8015 5.66683 12.7486 5.55442C12.695 5.4415 12.6168 5.35371 12.5136 5.29184C12.4105 5.2297 12.2827 5.18063 12.13 5.14384C11.725 5.05605 11.2096 5.00916 10.5836 5.00145C9.16319 4.98743 8.25065 5.07494 7.84597 5.2645C7.68562 5.34502 7.54044 5.4543 7.41071 5.5931C7.27313 5.7539 7.25416 5.84165 7.35356 5.85567C7.81183 5.92146 8.13613 6.07862 8.32706 6.3267L8.39587 6.45799C8.44922 6.55324 8.50262 6.72108 8.55622 6.96188C8.60961 7.20273 8.644 7.46918 8.65941 7.76127C8.6976 8.29416 8.6976 8.75021 8.65941 9.13009C8.62123 9.50993 8.58506 9.80542 8.55068 10.0167C8.51625 10.2286 8.46468 10.4 8.39612 10.5313C8.32731 10.663 8.28156 10.7433 8.25854 10.7726C8.23552 10.8016 8.21655 10.8199 8.20138 10.8272C8.10268 10.8635 7.99783 10.882 7.89209 10.8819C7.78509 10.8819 7.65533 10.8306 7.50258 10.7283C7.34979 10.6265 7.19122 10.4858 7.02732 10.3069C6.86292 10.1282 6.67802 9.87795 6.47163 9.55659C6.26549 9.23574 6.0515 8.85586 5.83019 8.41798L5.64707 8.10025C5.53251 7.89619 5.37592 7.59853 5.17739 7.20802C4.97885 6.81752 4.80305 6.43985 4.65055 6.07451C4.58934 5.92146 4.49776 5.80467 4.37564 5.72415L4.31849 5.69128C4.2803 5.66224 4.21909 5.63107 4.13512 5.59839C4.05031 5.56535 3.96192 5.54143 3.87157 5.52708L0.733062 5.54885C0.412363 5.54885 0.194858 5.6185 0.0802987 5.75726L0.0345082 5.8228C0.011365 5.85955 0 5.91806 0 5.9981C0 6.07862 0.0230192 6.17704 0.0688098 6.29359C0.527087 7.32315 1.02537 8.31597 1.56357 9.27201C2.10207 10.2286 2.56973 10.9989 2.9668 11.5828C3.36387 12.1673 3.76854 12.718 4.18107 13.2364C4.5936 13.7548 4.86648 14.0868 5.00001 14.2326C5.13354 14.3789 5.23851 14.4885 5.31493 14.5612L5.60124 14.8243C5.78436 14.9994 6.05373 15.2092 6.40886 15.4539C6.76394 15.6986 7.157 15.9394 7.58875 16.1764C8.02 16.4139 8.52229 16.607 9.09488 16.757C9.66751 16.9069 10.2249 16.967 10.7672 16.9376H12.0844C12.3518 16.9158 12.554 16.8358 12.6915 16.6967L12.7372 16.6421C12.7675 16.5985 12.7964 16.5309 12.8232 16.4397C12.8497 16.3485 12.8635 16.2479 12.8635 16.1386C12.8556 15.8248 12.8807 15.5414 12.9378 15.29C12.995 15.038 13.0599 14.8484 13.1326 14.7203C13.2052 14.5929 13.2871 14.485 13.3789 14.3973C13.4705 14.3095 13.5352 14.257 13.5736 14.2386C13.6118 14.2207 13.6425 14.2079 13.6653 14.2002C13.8483 14.1419 14.0641 14.1985 14.3124 14.3699C14.5606 14.5419 14.7935 14.7532 15.0113 15.0051C15.2287 15.257 15.4903 15.5397 15.7958 15.8538C16.1011 16.1676 16.3684 16.4012 16.5976 16.5545L16.8267 16.6863C16.9794 16.7736 17.1778 16.8538 17.4223 16.9271C17.6667 16.9999 17.8807 17.0183 18.0637 16.9818L20.9961 16.9378C21.2862 16.9378 21.5116 16.8923 21.672 16.8009C21.8323 16.7102 21.9277 16.6092 21.9583 16.4999C21.9886 16.3904 21.9907 16.2668 21.9641 16.1277C21.9373 15.9892 21.9105 15.8925 21.884 15.8378C21.8572 15.7832 21.8323 15.7372 21.8093 15.701C21.4275 15.044 20.6982 14.2371 19.6215 13.2809L19.5985 13.2591L19.5872 13.248L19.5758 13.2373H19.5643C19.0754 12.7919 18.7663 12.4926 18.6365 12.339C18.3999 12.0475 18.3462 11.7517 18.4762 11.4524C18.5673 11.2254 18.9107 10.7472 19.5064 10.0169Z" fill="white" />
</svg>