<svg xmlns="http://www.w3.org/2000/svg" width="22" height="22" viewBox="0 0 22 22">
    <path fill-rule="evenodd" clip-rule="evenodd"
        d="M13.5454 12.2468C13.1417 12.4118 12.8837 13.0438 12.6221 13.3668C12.4879 13.5322 12.3279 13.558 12.1217 13.4751C10.6063 12.8713 9.4446 11.8601 8.60835 10.4655C8.46669 10.2493 8.4921 10.0784 8.66294 9.87759C8.91543 9.58009 9.23293 9.24217 9.30126 8.84134C9.45293 7.95467 8.29377 5.20426 6.76295 6.45051C2.35797 10.0401 14.1112 19.5605 16.2325 14.4113C16.8325 12.9518 14.2146 11.9726 13.5454 12.2468ZM10.9988 19.803C9.44085 19.803 7.90794 19.3888 6.56586 18.6047C6.35045 18.4784 6.09003 18.4451 5.8492 18.5105L2.93297 19.3109L3.9488 17.073C4.01674 16.9236 4.04397 16.7589 4.02772 16.5956C4.01148 16.4322 3.95234 16.2761 3.8563 16.143C2.76963 14.6368 2.19505 12.8584 2.19505 10.9997C2.19505 6.14509 6.1442 2.19592 10.9988 2.19592C15.8533 2.19592 19.802 6.14509 19.802 10.9997C19.802 15.8538 15.8529 19.803 10.9988 19.803ZM10.9988 0.333008C5.11712 0.333008 0.332148 5.11801 0.332148 10.9997C0.332148 13.0688 0.919645 15.0559 2.03589 16.7805L0.415481 20.3493C0.342259 20.5105 0.316461 20.6892 0.341107 20.8645C0.365752 21.0398 0.439822 21.2045 0.554647 21.3393C0.642222 21.4418 0.750959 21.5241 0.873379 21.5805C0.995799 21.637 1.129 21.6663 1.26381 21.6663C1.86464 21.6663 5.14087 20.6368 5.97462 20.408C7.51586 21.2326 9.2446 21.6663 10.9988 21.6663C16.88 21.6663 21.6654 16.8809 21.6654 10.9997C21.6654 5.11801 16.88 0.333008 10.9988 0.333008Z" fill="white" />
</svg>