<svg xmlns="http://www.w3.org/2000/svg" width="24" height="24" viewBox="0 0 24 24">
    <path d="M24 13C24 10.203 22.794 8.024 20.521 6.681C19.342 2.713 16.073 0 12 0C9.061 0 6.54 1.415 4.919 3.691C1.924 4.463 0 7.543 0 11.633C0 16.807 2.14 19.744 6.031 19.977L6 23.996L7 24.004L7.031 19.982C8.063 19.922 8.721 19.691 9.041 19.542C9.83762 19.7958 10.6646 19.9417 11.5 19.976V24H12.5V19.976C13.3638 19.9399 14.2183 19.7837 15.039 19.512C15.6641 19.7691 16.326 19.9254 17 19.975V23.999H18V19.975C21.556 19.734 24 16.937 24 12.999V13ZM6.535 19C1.96 19 1 14.994 1 11.633C1 8.577 2.177 6.189 4.072 5.121C3.386 6.548 3 8.204 3 10C3 14.144 4.738 17.343 7.595 18.919C7.24438 18.9742 6.88993 19.0012 6.535 19ZM12.5 13.207L16.354 9.353L15.647 8.646L12.501 11.792V7H11.501V11.793L8.355 8.647L7.648 9.354L11.502 13.208V18.978C6.931 18.741 4.002 15.276 4.002 10.001C4 4.869 7.439 1 12 1C16.561 1 20 4.869 20 10C20 15.275 17.071 18.74 12.5 18.977V13.207ZM17.5 19C17.143 19 16.792 18.964 16.449 18.897C19.28 17.313 21 14.123 21 10C21 9.356 20.944 8.733 20.849 8.13C22.27 9.291 23 10.92 23 13C23 16.533 20.738 19 17.5 19Z" fill="#326b43" />
</svg>