<svg width="72" height="44" viewBox="0 0 72 44" fill="none" xmlns="http://www.w3.org/2000/svg">
<path d="M26.5 5H45.5V38H26.5V5Z" fill="#FF5F00"/>
<path d="M28.026 22C28.026 14.9723 31.3661 8.73887 36.5 4.70544C32.7271 1.77216 27.9643 0 22.7684 0C10.4587 0 0.5 9.83874 0.5 22C0.5 34.161 10.4587 44 22.7681 44C27.964 44 32.7268 42.2278 36.5 39.2943C31.3661 35.3221 28.026 29.0277 28.026 22Z" fill="#EB001B"/>
<path d="M71.4997 22C71.4997 34.161 61.8178 44 49.8503 44C44.7988 44 40.1684 42.2278 36.5 39.2943C41.5515 35.2611 44.7388 29.0277 44.7388 22C44.7388 14.9723 41.4912 8.73887 36.5 4.70544C40.1681 1.77216 44.7988 0 49.8503 0C61.8178 0 71.5 9.89999 71.5 22H71.4997Z" fill="#F79E1B"/>
<path d="M12.9716 25.8824V22.353C12.9716 20.9998 12.1048 20.1177 10.6189 20.1177C9.87618 20.1177 9.07136 20.353 8.51414 21.1177C8.081 20.4706 7.46202 20.1177 6.53341 20.1177C5.91415 20.1177 5.29546 20.294 4.79999 20.9411V20.2353H3.5V25.8824H4.79999V22.7646C4.79999 21.7649 5.35722 21.2941 6.22407 21.2941C7.09035 21.2941 7.52406 21.8235 7.52406 22.7646V25.8824H8.82406V22.7646C8.82406 21.7649 9.44275 21.2941 10.2476 21.2941C11.1144 21.2941 11.5476 21.8235 11.5476 22.7646V25.8824H12.9716ZM32.2237 20.2353H30.1191V18.5295H28.8192V20.2353H27.643V21.3527H28.8189V23.9412C28.8189 25.2355 29.3761 26 30.8619 26C31.4191 26 32.0378 25.8237 32.4715 25.5884L32.0999 24.5294C31.7285 24.7647 31.2953 24.8236 30.9857 24.8236C30.3667 24.8236 30.1191 24.4707 30.1191 23.8823V21.3527H32.2237V20.2353ZM43.2429 20.1174C42.5001 20.1174 42.0049 20.4706 41.6953 20.9411V20.2353H40.3953V25.8824H41.6953V22.7059C41.6953 21.7649 42.1284 21.2354 42.9333 21.2354C43.1809 21.2354 43.4905 21.2943 43.7381 21.353L44.1095 20.1767C43.8619 20.1177 43.4905 20.1174 43.2429 20.1174ZM26.5905 20.7059C25.9713 20.294 25.1047 20.1177 24.1761 20.1177C22.6906 20.1177 21.7002 20.8235 21.7002 21.9412C21.7002 22.8825 22.443 23.4118 23.743 23.5883L24.3619 23.6473C25.043 23.7647 25.4144 23.9413 25.4144 24.2355C25.4144 24.6471 24.9192 24.9413 24.0523 24.9413C23.1857 24.9413 22.5047 24.6471 22.0713 24.3531L21.4523 25.2942C22.1333 25.7647 23.062 26 23.9903 26C25.7237 26 26.7143 25.2355 26.7143 24.1765C26.7143 23.1765 25.9095 22.647 24.6713 22.4707L24.0523 22.4117C23.4951 22.3528 23.062 22.2354 23.062 21.8825C23.062 21.4706 23.4951 21.2354 24.1761 21.2354C24.9192 21.2354 25.6619 21.5293 26.0333 21.7059L26.5905 20.7059ZM61.1335 20.1177C60.3904 20.1177 59.8952 20.4706 59.5856 20.9411V20.2353H58.2856V25.8824H59.5856V22.7059C59.5856 21.7649 60.019 21.2354 60.8235 21.2354C61.0714 21.2354 61.381 21.2943 61.6286 21.353L62 20.1767C61.7524 20.1177 61.3811 20.1177 61.1335 20.1177ZM44.5429 23.0589C44.5429 24.7647 45.7808 26 47.7001 26C48.5667 26 49.1856 25.8237 49.8046 25.3531L49.1856 24.3531C48.6905 24.706 48.1953 24.8823 47.6381 24.8823C46.5857 24.8823 45.8429 24.1765 45.8429 23.0589C45.8429 22.0001 46.5857 21.2941 47.6381 21.2354C48.1953 21.2354 48.6905 21.4117 49.1856 21.7649L49.8046 20.7648C49.1856 20.294 48.5667 20.1177 47.7001 20.1177C45.7808 20.1177 44.5429 21.353 44.5429 23.0589ZM56.5525 23.0589V20.2353H55.2525V20.9411C54.819 20.4119 54.2001 20.1177 53.3953 20.1177C51.7239 20.1177 50.4239 21.353 50.4239 23.0589C50.4239 24.7647 51.7239 26 53.3953 26C54.2618 26 54.8811 25.706 55.2525 25.1766V25.8824H56.5525V23.0589ZM51.7856 23.0589C51.7856 22.0588 52.4666 21.2354 53.5808 21.2354C54.6332 21.2354 55.3763 22.0001 55.3763 23.0589C55.3763 24.0589 54.6332 24.8823 53.5808 24.8823C52.4666 24.8234 51.7856 24.0589 51.7856 23.0589ZM36.2477 20.1177C34.5143 20.1177 33.2761 21.2941 33.2761 23.0589C33.2761 24.8236 34.514 26 36.3095 26C37.1761 26 38.0429 25.7647 38.7239 25.2355L38.1047 24.3531C37.6095 24.706 36.9905 24.9413 36.3715 24.9413C35.5667 24.9413 34.7619 24.5884 34.5761 23.5881H38.9715V23.1178C39.0336 21.2941 37.9194 20.1177 36.2477 20.1177ZM36.2477 21.1764C37.0523 21.1764 37.6098 21.6472 37.7333 22.5296H34.6381C34.7619 21.7649 35.3191 21.1764 36.2477 21.1764ZM68.5 23.0589V18H67.2V20.9411C66.7666 20.4119 66.1476 20.1177 65.3428 20.1177C63.6714 20.1177 62.3714 21.353 62.3714 23.0589C62.3714 24.7647 63.6714 26 65.3428 26C66.2096 26 66.8286 25.706 67.2 25.1766V25.8824H68.5V23.0589ZM63.7334 23.0589C63.7334 22.0588 64.4142 21.2354 65.5286 21.2354C66.581 21.2354 67.3238 22.0001 67.3238 23.0589C67.3238 24.0589 66.581 24.8823 65.5286 24.8823C64.4142 24.8234 63.7334 24.0589 63.7334 23.0589ZM20.2761 23.0589V20.2353H18.9761V20.9411C18.5427 20.4119 17.9237 20.1177 17.1189 20.1177C15.4475 20.1177 14.1475 21.353 14.1475 23.0589C14.1475 24.7647 15.4475 26 17.1189 26C17.9858 26 18.6047 25.706 18.9761 25.1766V25.8824H20.2761V23.0589ZM15.4475 23.0589C15.4475 22.0588 16.1286 21.2354 17.2427 21.2354C18.2951 21.2354 19.0382 22.0001 19.0382 23.0589C19.0382 24.0589 18.2951 24.8823 17.2427 24.8823C16.1286 24.8234 15.4475 24.0589 15.4475 23.0589Z" fill="black"/>
</svg>
