<svg width="110" height="36" viewBox="0 0 110 36" fill="none" xmlns="http://www.w3.org/2000/svg">
<path d="M56.8722 11.5953C56.81 16.5429 61.242 19.3037 64.5805 20.9454C68.0106 22.6295 69.1628 23.7096 69.1491 25.2159C69.1236 27.5209 66.4131 28.5383 63.8767 28.5778C59.4515 28.647 56.8785 27.3722 54.8331 26.4082L53.239 33.9349C55.2912 34.8891 59.0913 35.7213 63.0319 35.7578C72.282 35.7578 78.3337 31.1504 78.3664 24.0069C78.4026 14.9408 65.9388 14.439 66.0239 10.3867C66.0533 9.15798 67.2152 7.84674 69.7614 7.51335C71.0217 7.34493 74.5008 7.21604 78.4452 9.04885L79.9934 1.76659C77.8721 0.987232 75.1458 0.240959 71.7515 0.240959C63.0451 0.240959 56.9216 4.91106 56.8722 11.5953ZM94.8693 0.868221C93.1802 0.868221 91.7568 1.86239 91.1216 3.38802L77.9083 35.2229H87.1516L88.991 30.0935H100.286L101.353 35.2229H109.5L102.391 0.868221H94.8693ZM96.1624 10.1487L98.8299 23.0493H91.5244L96.1624 10.1487ZM45.6652 0.868652L38.3792 35.2225H47.1873L54.4699 0.867794H45.6652V0.868652ZM32.635 0.867794L23.4671 24.2514L19.7585 4.3693C19.3234 2.14982 17.6049 0.868221 15.6966 0.868221H0.70991L0.5 1.86583C3.5767 2.53949 7.07236 3.62603 9.1902 4.78862C10.4863 5.4988 10.8559 6.11962 11.2816 7.80722L18.3057 35.2229H27.6138L41.8842 0.868221H32.635" fill="url(#paint0_linear_1101_119557)"/>
<defs>
<linearGradient id="paint0_linear_1101_119557" x1="50.6117" y1="36.4703" x2="51.649" y2="-0.00552194" gradientUnits="userSpaceOnUse">
<stop stop-color="#222357"/>
<stop offset="1" stop-color="#254AA5"/>
</linearGradient>
</defs>
</svg>
