<svg xmlns="http://www.w3.org/2000/svg" width="66" height="29" viewBox="0 0 66 29" fill="none">
    <path fill-rule="evenodd" clip-rule="evenodd" d="M45.7107 14.3632V15.8857H39.0796C39.1806 17.8271 39.957 18.7857 41.9526 18.7857C43.3036 18.7857 44.7556 18.3346 45.5942 17.7546V20.0827C44.8177 20.6305 43.4977 21.0332 41.7351 21.0332C38.2177 21.0332 36.2222 19.0194 36.2222 14.8869C36.2222 11.2619 37.8295 8.61963 41.1839 8.61963C43.9326 8.61963 45.7107 10.1905 45.7107 14.3632ZM41.1217 10.8832C39.8017 10.8832 39.134 11.8821 39.0719 13.7752H42.8999V13.5335C42.8999 12.0352 42.4883 10.8832 41.114 10.8832H41.1217ZM20.3744 13.6141V8.83713H23.1464V20.9124H20.3744V15.8616H16.6862V20.9124H13.9375V8.82907H16.6862V13.6141H20.3744ZM57.513 20.9124H54.3916L50.3152 14.9835V20.9124H47.5664V8.82907H50.3152V14.4116L54.1975 8.83713H56.985L53.1027 14.4116L57.513 20.9124ZM65.6504 20.3082C64.9749 20.8157 64.082 21.0574 62.8008 21.0574C59.1359 21.0574 57.35 18.8502 57.3422 14.8949C57.3422 11.2457 59.1669 8.65185 62.6843 8.65185C64.0509 8.65185 65.0681 8.89352 65.6504 9.23185V11.6485C64.8426 11.1656 63.9272 10.9102 62.9949 10.9074C61.1857 10.9074 60.1996 12.2285 60.1996 14.8224C60.1996 17.2713 60.9994 18.8019 62.9716 18.8019C64.1286 18.8019 64.9516 18.4796 65.6504 17.9802V20.3163V20.3082ZM34.3199 18.6488H35.5467V23.5627H32.9999V20.8882H26.8269V23.5627H24.2801V18.6407H25.1342C26.1048 16.6269 26.2989 12.8085 26.2989 9.86018V8.82907H34.3199V18.6488ZM27.6888 18.6488H31.5711V11.0927H28.6594V11.4471C28.6594 13.5335 28.4575 16.8282 27.6888 18.6488Z" fill="#232323" />
    <path d="M11.6256 20.904V4.229H7.55689C3.45712 4.229 1.31406 6.404 1.31406 9.62623C1.31406 12.1798 2.48653 13.7104 4.59077 15.2651L0.933594 20.904H3.96183L8.0383 14.5804L6.62512 13.6057C4.91689 12.3973 4.07053 11.4709 4.07053 9.449C4.07053 7.67678 5.27406 6.4765 7.56465 6.4765H8.81477V20.8959H11.6256V20.904Z" fill="#FE3B3B" />
</svg>