<svg width="40" height="40" viewBox="0 0 40 40" fill="none" xmlns="http://www.w3.org/2000/svg">
<path fill-rule="evenodd" clip-rule="evenodd" d="M5.27734 4.1665H35.8329V10.1035H28.7194C28.6901 10.1035 28.6342 10.1085 28.5693 10.1265C28.5054 10.1443 28.4516 10.1694 28.412 10.1971C28.3753 10.2227 28.3525 10.249 28.3367 10.2787C28.3216 10.3072 28.2967 10.3691 28.2967 10.4903V17.2005C28.2967 17.2006 28.2967 17.2008 27.4633 17.2008C28.1504 17.6723 28.1502 17.6727 28.15 17.673L28.1484 17.6752L28.146 17.6788L28.1396 17.6879C28.1365 17.6922 28.1329 17.6972 28.1288 17.7029C28.1263 17.7063 28.1237 17.71 28.1208 17.7138C28.1058 17.7344 28.0855 17.7613 28.0602 17.7932C28.01 17.8566 27.9386 17.9416 27.8484 18.0355C27.6743 18.2167 27.3997 18.4632 27.0424 18.6367C26.6748 18.8152 26.1842 18.9314 25.6405 18.7729C25.1049 18.6168 24.6482 18.232 24.2642 17.6723L24.1179 17.4592V14.4057C23.8882 14.0994 23.6437 13.9354 23.4651 13.9024C23.3738 13.8855 23.0874 13.8608 22.6445 14.4227V18.0127L22.5521 18.1922C22.4194 18.45 22.2316 18.7391 21.9946 18.9949C21.7635 19.2443 21.4395 19.5117 21.0262 19.6425C20.5766 19.7847 20.0801 19.744 19.6173 19.4569C19.189 19.1911 18.8452 18.7499 18.5581 18.1922L18.4657 18.0127V13.2554C18.2957 13.1082 18.0946 13.0168 17.8878 12.9977C17.6725 12.9778 17.3658 13.0283 16.9923 13.3101V15.6291L16.8461 15.8422C16.5786 16.2319 16.0489 16.7852 15.3151 16.9593C14.9221 17.0525 14.4856 17.031 14.0529 16.8296C13.6318 16.6337 13.2698 16.2938 12.9598 15.8422L12.8136 15.6291V10.4903C12.8136 10.4883 12.8153 10.4198 12.6852 10.325C12.5481 10.2251 12.2624 10.1035 11.7629 10.1035H5.27734V4.1665ZM27.4633 17.2008L28.1504 17.6723L28.2967 17.4592V17.2005L27.4633 17.2008ZM26.63 16.8978V10.4903C26.63 9.72029 26.9804 9.16448 27.4567 8.8313C27.8895 8.52863 28.3815 8.43684 28.7194 8.43684H34.1662V5.83317H6.94401V8.43684H11.7629C13.2163 8.43684 14.4802 9.19522 14.4802 10.4903V15.0896C14.6027 15.2301 14.6986 15.2918 14.756 15.3186C14.8231 15.3498 14.8734 15.3512 14.9304 15.3376C15.0487 15.3096 15.196 15.2111 15.3257 15.0774V12.5782L15.5783 12.3327C16.3459 11.5872 17.2043 11.2607 18.0413 11.3381C18.8575 11.4136 19.5272 11.8624 19.9587 12.4212L20.1324 12.6462V17.598C20.3033 17.8895 20.4351 18.0029 20.496 18.0407C20.533 18.0636 20.5232 18.0535 20.5236 18.0534C20.5604 18.0418 20.6499 17.994 20.772 17.8621C20.8467 17.7815 20.9169 17.6874 20.9778 17.5909V13.8921L21.1241 13.679C21.854 12.6155 22.7702 12.0789 23.7683 12.2635C24.6561 12.4278 25.2945 13.1205 25.6602 13.7126L25.7846 13.9139V16.9209C25.9503 17.1132 26.0651 17.1607 26.1068 17.1728C26.1519 17.186 26.2108 17.1878 26.3142 17.1375C26.4218 17.0853 26.5331 16.996 26.63 16.8978Z" fill="#326B43"/>
<path fill-rule="evenodd" clip-rule="evenodd" d="M2.85474 6.38867H6.24641V6.94423H3.3331C2.8476 10.343 2.88548 15.0216 4.3772 18.8708C5.13904 20.8366 6.27538 22.5743 7.90324 23.8206C9.52813 25.0645 11.6612 25.8331 14.4444 25.8331V26.3887C11.5522 26.3887 9.29732 25.5875 7.56552 24.2617C5.83671 22.9381 4.64764 21.106 3.85919 19.0715C2.28514 15.0099 2.28903 10.0953 2.81874 6.62454L2.85474 6.38867Z" fill="#326B43"/>
<path fill-rule="evenodd" clip-rule="evenodd" d="M13.8906 23.8887H26.6684V28.3331H13.8906V23.8887ZM15.0017 24.9998V27.222H25.5573V24.9998H15.0017Z" fill="#326B43"/>
<path fill-rule="evenodd" clip-rule="evenodd" d="M6.39062 9.48555L8.05524 9.40283L9.28573 34.1664H31.8268L33.0573 9.40283L34.7219 9.48555L33.4127 35.8331H7.69982L6.39062 9.48555Z" fill="#326B43"/>
<path fill-rule="evenodd" clip-rule="evenodd" d="M32.7765 31.3886L8.33203 31.3886L8.33203 30.833L32.7765 30.833L32.7765 31.3886Z" fill="#326B43"/>
<path fill-rule="evenodd" clip-rule="evenodd" d="M37.6435 6.38867H34.7213V6.94423H37.165C37.656 10.3508 37.7675 15.0288 36.3596 18.8757C35.6409 20.8393 34.5308 22.5746 32.8842 23.8196C31.2399 25.0628 29.0396 25.8331 26.1102 25.8331V26.3887C29.142 26.3887 31.4647 25.5893 33.2193 24.2627C34.9715 22.9378 36.1359 21.1032 36.8813 19.0666C38.3687 15.0025 38.2051 10.0872 37.6793 6.62474L37.6435 6.38867Z" fill="#326B43"/>
</svg>
