<svg width="40" height="40" viewBox="0 0 40 40" fill="none" xmlns="http://www.w3.org/2000/svg">
<path d="M29.793 7.0835H7.29297C7.12721 7.0835 6.96824 7.14934 6.85103 7.26655C6.73382 7.38376 6.66797 7.54274 6.66797 7.7085V37.7085C6.66797 37.8743 6.73382 38.0332 6.85103 38.1504C6.96824 38.2676 7.12721 38.3335 7.29297 38.3335H29.793C29.9587 38.3335 30.1177 38.2676 30.2349 38.1504C30.3521 38.0332 30.418 37.8743 30.418 37.7085V7.7085C30.418 7.54274 30.3521 7.38376 30.2349 7.26655C30.1177 7.14934 29.9587 7.0835 29.793 7.0835ZM20.418 29.9647V37.0835H16.668V33.0897C16.6655 32.3313 16.4888 31.5835 16.1517 30.9041L14.553 27.706C14.3018 27.1997 14.1701 26.6425 14.168 26.0772V17.6022C14.1706 16.6363 14.5539 15.7104 15.2348 15.0254C16.1494 14.1054 16.6643 12.8619 16.668 11.5647V8.3335H20.418V9.68975C20.4216 10.9869 20.9365 12.2304 21.8511 13.1504C22.532 13.8354 22.9154 14.7613 22.918 15.7272V22.9522C22.9159 23.5168 22.7844 24.0734 22.5336 24.5791L20.9336 27.781C20.5968 28.4598 20.4204 29.207 20.418 29.9647ZM15.418 8.3335V11.5647C15.4154 12.5306 15.032 13.4566 14.3511 14.1416C13.4365 15.0616 12.9216 16.305 12.918 17.6022V26.0772C12.9205 26.8357 13.0971 27.5834 13.4342 28.2629L15.033 31.461C15.2842 31.9673 15.4159 32.5245 15.418 33.0897V37.0835H11.668V33.646C11.6673 33.0639 11.5315 32.49 11.2712 31.9694C11.0109 31.4488 10.6332 30.9957 10.168 30.646L7.91797 28.9585V8.3335H15.418ZM7.91797 30.521L9.41922 31.6466C9.72922 31.8797 9.9808 32.1817 10.1541 32.5287C10.3275 32.8756 10.4178 33.2581 10.418 33.646V37.0835H7.91797V30.521ZM21.668 37.0835V29.9647C21.67 29.4002 21.8015 28.8436 22.0523 28.3379L23.6523 25.136C23.9891 24.4571 24.1655 23.71 24.168 22.9522V15.7272C24.1643 14.43 23.6494 13.1866 22.7348 12.2666C22.0539 11.5816 21.6706 10.6556 21.668 9.68975V8.3335H29.168V25.0191L26.1542 29.5435C25.6738 30.2619 25.4176 31.1068 25.418 31.971V35.2085C25.418 35.3743 25.4838 35.5332 25.601 35.6504C25.7182 35.7676 25.8772 35.8335 26.043 35.8335C26.2087 35.8335 26.3677 35.7676 26.4849 35.6504C26.6021 35.5332 26.668 35.3743 26.668 35.2085V31.971C26.6677 31.3535 26.8509 30.7499 27.1942 30.2366L29.168 27.2741V37.0835H21.668Z" fill="#326B43"/>
<path d="M33.543 3.3335H11.043C10.8772 3.3335 10.7182 3.39934 10.601 3.51655C10.4838 3.63376 10.418 3.79274 10.418 3.9585V5.2085C10.418 5.37426 10.4838 5.53323 10.601 5.65044C10.7182 5.76765 10.8772 5.8335 11.043 5.8335C11.2087 5.8335 11.3677 5.76765 11.4849 5.65044C11.6021 5.53323 11.668 5.37426 11.668 5.2085V4.5835H32.918V33.3335H32.293C32.1272 33.3335 31.9682 33.3993 31.851 33.5166C31.7338 33.6338 31.668 33.7927 31.668 33.9585C31.668 34.1243 31.7338 34.2832 31.851 34.4004C31.9682 34.5176 32.1272 34.5835 32.293 34.5835H33.543C33.7087 34.5835 33.8677 34.5176 33.9849 34.4004C34.1021 34.2832 34.168 34.1243 34.168 33.9585V3.9585C34.168 3.79274 34.1021 3.63376 33.9849 3.51655C33.8677 3.39934 33.7087 3.3335 33.543 3.3335Z" fill="#326B43"/>
<path d="M18.543 17.3149C16.9923 17.3149 15.7305 18.8937 15.7305 20.8337C15.7305 22.7737 16.9923 24.3524 18.543 24.3524C20.0936 24.3524 21.3555 22.7737 21.3555 20.8337C21.3555 18.8937 20.0936 17.3149 18.543 17.3149ZM18.543 23.1024C17.6961 23.1024 16.9805 22.0637 16.9805 20.8337C16.9805 19.6037 17.6961 18.5649 18.543 18.5649C19.3898 18.5649 20.1055 19.6037 20.1055 20.8337C20.1055 22.0637 19.3898 23.1024 18.543 23.1024Z" fill="#326B43"/>
</svg>
