<svg width="40" height="40" viewBox="0 0 40 40" fill="none" xmlns="http://www.w3.org/2000/svg">
<path fill-rule="evenodd" clip-rule="evenodd" d="M16.2664 5L16.4341 5.08907L38.3534 16.7298L38.7221 16.9256V17.3431V22.1815V27.2588V32.9467V33.5914L38.0791 33.6392L22.971 34.7624L22.7134 34.7816L22.5059 34.6278L1.94883 19.387L1.66797 19.1788V18.8292V6.33028V5.66683L2.33073 5.63656L16.0767 5.00866L16.2664 5ZM3.05686 7.5341L22.225 18.6193V23.21L3.05686 10.9387V7.5341ZM3.05686 11.5984L22.225 23.8696V28.1413L3.05686 14.6795V11.5984ZM3.05686 15.3584V18.4795L22.225 32.6906V28.8202L3.05686 15.3584ZM23.6139 33.3219L37.3332 32.3019V28.0581L23.6139 28.8732V33.3219ZM23.6139 28.3166V24.0237L37.3332 23.1241V27.2588V27.5015L23.6139 28.3166ZM23.6139 23.467L37.3332 22.5674V22.1815V18.079L23.6139 18.8741V23.4199V23.467ZM23.087 17.5134L35.5118 16.7933L15.9504 6.40477L4.76209 6.91584L23.087 17.5134Z" fill="#326B43"/>
</svg>
