<svg width="40" height="40" viewBox="0 0 40 40" fill="none" xmlns="http://www.w3.org/2000/svg">
<path fill-rule="evenodd" clip-rule="evenodd" d="M4.44271 26.1108H21.8819L24.9983 36.3886L0.660156 36.3192L4.44271 26.1108ZM4.74273 26.5549L4.05845 28.3915H21.9402L21.3085 26.5549H4.74273ZM22.0835 28.8082H3.90321L1.26004 35.9025H24.2533L22.0835 28.8082Z" fill="#326B43"/>
<path fill-rule="evenodd" clip-rule="evenodd" d="M20.4902 22.8577L5.84375 22.8577V22.0244L20.4902 22.0244V22.8577Z" fill="#326B43"/>
<path fill-rule="evenodd" clip-rule="evenodd" d="M11.835 22.6464L10.956 6.41457L16.0653 6.41309L15.1365 22.6271L11.835 22.6464ZM14.3493 21.7984L15.1829 7.24668L11.8357 7.24765L12.6242 21.8085L14.3493 21.7984Z" fill="#326B43"/>
<path fill-rule="evenodd" clip-rule="evenodd" d="M5.67663 21.7441H20.6484L21.8762 26.111H4.44141L5.67663 21.7441ZM6.00195 22.1608L5.12969 25.6499H21.1953L20.2747 22.2221L6.00195 22.1608Z" fill="#326B43"/>
<path fill-rule="evenodd" clip-rule="evenodd" d="M13.2383 3.47217L37.8209 3.47217V7.37081H39.4588V13.3023L25.4163 19.4863V22.441H24.5829V18.9427L38.6254 12.7587V8.20414H37.8209V12.1028L13.2383 12.1028V3.47217ZM14.0716 4.3055V11.2694H36.9875V4.3055L14.0716 4.3055Z" fill="#326B43"/>
<path fill-rule="evenodd" clip-rule="evenodd" d="M22.0234 22.0244H27.7389V36.5277H22.0234V22.0244ZM22.8568 22.8577V35.6944H26.9056V22.8577H22.8568Z" fill="#326B43"/>
<path fill-rule="evenodd" clip-rule="evenodd" d="M27.4693 4.03633L19.6579 11.8478L19.3633 11.5531L27.1747 3.7417L27.4693 4.03633Z" fill="#326B43"/>
<path fill-rule="evenodd" clip-rule="evenodd" d="M37.7233 4.52412L30.4001 11.8473L30.1055 11.5527L37.4287 4.22949L37.7233 4.52412Z" fill="#326B43"/>
<path fill-rule="evenodd" clip-rule="evenodd" d="M33.3287 4.03633L25.5173 11.8478L25.2227 11.5531L33.0341 3.7417L33.3287 4.03633Z" fill="#326B43"/>
</svg>
