<svg width="40" height="40" viewBox="0 0 40 40" fill="none" xmlns="http://www.w3.org/2000/svg">
<path fill-rule="evenodd" clip-rule="evenodd" d="M19.0538 1.6665H18.9226L18.7979 1.70676L3.66258 6.59018H3.62597H2.77734L2.79277 7.43866L3.02418 20.1661L2.96917 20.2253L3.02622 20.2783L3.12102 25.4923L3.12714 25.8286L3.36496 26.0664L15.182 37.8834L15.4261 38.1275H15.7712H30.5425H31.1857L31.5039 38.2497L37.5561 22.4937L37.6075 22.3601L37.6113 22.217L36.7782 22.1949C37.6113 22.217 37.6113 22.2168 37.6113 22.2166L37.6113 22.2161L37.6113 22.2149L37.6114 22.2114L37.6116 22.2006L37.6122 22.1639C37.6125 22.133 37.6128 22.0892 37.6125 22.0342C37.6119 21.9243 37.6091 21.7688 37.6005 21.5803C37.5832 21.2051 37.5422 20.6895 37.4459 20.1364C37.3503 19.5879 37.1953 18.9725 36.9368 18.4124C36.6809 17.8579 36.2916 17.289 35.6896 16.9327C34.9506 16.4953 34.1709 16.3646 33.5075 16.3481C33.461 16.0441 33.3647 15.725 33.1957 15.4186C32.7808 14.6663 31.9963 14.1151 30.8015 14.0063C30.1131 13.9437 29.4729 13.5577 28.9228 13.0149C28.3751 12.4743 27.9871 11.8456 27.8082 11.4574L27.781 11.3984L27.745 11.3444C27.204 10.5318 27.0081 9.60363 26.9052 8.80497C26.8869 8.66288 26.869 8.49828 26.8514 8.33639C26.8271 8.11329 26.8035 7.89533 26.78 7.74856C26.7583 7.61264 26.721 7.4133 26.6366 7.23195C26.5546 7.05598 26.2973 6.6443 25.7545 6.6443C25.3648 6.6443 25.0976 6.61144 24.9216 6.57089C24.904 6.56685 24.8877 6.56281 24.8726 6.5588C24.9827 5.57847 24.7657 4.74744 24.344 4.06874C23.9079 3.36696 23.2832 2.87532 22.6891 2.5345C22.0928 2.19247 21.4892 1.98032 21.0428 1.8537C20.8176 1.78979 20.627 1.74618 20.4904 1.71815C20.4219 1.70412 20.3666 1.69392 20.3268 1.68699C20.3069 1.68353 20.2909 1.68087 20.279 1.67897L20.2642 1.67665L20.2593 1.67589L20.2574 1.67561L20.2566 1.67549C20.2562 1.67544 20.2559 1.67539 20.1345 2.49984L20.2559 1.67539L20.1955 1.6665H20.1345H19.0538ZM4.72179 21.8527L4.7813 25.1257L16.1164 36.4608H20.4051L12.8188 29.4164L13.5749 28.6022L22.038 36.4608H29.6947L29.6946 36.4585C29.6711 35.9485 29.6155 35.259 29.4887 34.5322C29.3612 33.8007 29.1665 33.0612 28.8779 32.4367C28.5868 31.8067 28.2315 31.3611 27.8207 31.1183C27.384 30.8601 26.974 30.8578 26.3221 30.8859L26.2518 30.889C25.6331 30.9164 24.79 30.9539 23.9092 30.4773C23.2789 30.1363 22.963 29.6238 22.7884 29.1284C22.7055 28.8932 22.6527 28.658 22.6117 28.4557C22.596 28.3782 22.5826 28.3087 22.57 28.2437L22.5697 28.2423L22.5696 28.2417L22.5695 28.2413L22.5695 28.2413L22.5695 28.2411C22.5462 28.1206 22.5258 28.0152 22.4993 27.9013C22.4218 27.5682 22.3381 27.3952 22.2214 27.2802C22.1144 27.1747 21.876 27.0181 21.2761 26.9636C19.5694 26.8084 18.1682 25.8784 17.1394 24.8643C16.1337 23.8731 15.4162 22.7368 15.0423 21.9465C13.9779 20.3226 13.6351 18.5521 13.4676 17.2544C13.4237 16.9143 13.3946 16.6372 13.3696 16.3988L13.3696 16.3988C13.3454 16.1691 13.3251 15.9754 13.2989 15.7957C12.2052 15.7468 11.4209 15.5313 10.9139 15.1414C10.6022 14.9017 10.3875 14.5879 10.3096 14.2247C10.2481 13.9377 10.2822 13.6667 10.3654 13.4385C10.506 12.3661 10.2756 11.5505 9.87733 10.9103C9.45612 10.2334 8.81516 9.70367 8.10264 9.29546C7.39228 8.88848 6.64852 8.62398 6.07404 8.46121C5.78892 8.38043 5.5507 8.32616 5.38622 8.29247C5.3041 8.27565 5.24072 8.26404 5.19947 8.25687L5.19934 8.25684H4.47459L4.69192 20.2101L4.69375 20.3104L12.9162 27.9456L12.1602 28.7598L4.72179 21.8527ZM31.1686 34.4745L35.9458 22.0379C35.9453 21.9477 35.9429 21.817 35.9356 21.6569C35.9204 21.3286 35.8848 20.8865 35.8039 20.4224C35.7223 19.9536 35.5995 19.4922 35.4235 19.1108C35.245 18.724 35.043 18.4867 34.8407 18.367C34.3133 18.0548 33.7079 17.9931 33.1323 18.0183L25.448 29.2242C25.6813 29.2433 25.9395 29.2342 26.2503 29.2208L26.2746 29.2197C26.9114 29.1922 27.7744 29.1549 28.6688 29.6835C29.4794 30.1626 30.0221 30.9396 30.3908 31.7375C30.7621 32.5409 30.9891 33.4345 31.1306 34.2458C31.144 34.3225 31.1567 34.3988 31.1686 34.4745ZM24.2308 28.0522L31.8731 16.9075C31.8873 16.699 31.8548 16.4384 31.7363 16.2235C31.618 16.009 31.3578 15.7305 30.6504 15.6662C29.4367 15.5557 28.4558 14.8956 27.7521 14.2011C27.0712 13.5291 26.5834 12.7612 26.3224 12.2143C25.5944 11.0939 25.3636 9.88281 25.2522 9.01799C25.221 8.77562 25.2018 8.59159 25.1858 8.43742L25.1858 8.4373L25.1857 8.43667C25.1803 8.38414 25.1752 8.33507 25.1701 8.28834C24.538 8.23563 24.0354 8.08778 23.6789 7.81325C23.6665 7.80367 23.6542 7.79392 23.6421 7.784L12.533 14.0374C12.8231 14.0954 13.2326 14.1398 13.8017 14.1398C14.372 14.1398 14.6505 14.5699 14.7493 14.7819C14.8505 14.9989 14.9001 15.2503 14.9323 15.4518C14.9672 15.6699 15.0001 15.9738 15.0351 16.2972L15.0351 16.2972L15.0351 16.2973L15.0351 16.2973C15.0618 16.5437 15.0897 16.8014 15.1206 17.0411C15.2795 18.273 15.5875 19.7602 16.4646 21.0759L16.5007 21.1299L16.5279 21.1889C16.8188 21.8193 17.4365 22.817 18.3093 23.6773C19.1843 24.5398 20.245 25.1963 21.427 25.3037C22.2713 25.3805 22.9241 25.6325 23.3914 26.0932C23.849 26.5444 24.0229 27.0951 24.1226 27.5235C24.1561 27.6675 24.1869 27.8262 24.2136 27.9642L24.2137 27.9646L24.2308 28.0522ZM12.0575 12.3925L23.2341 6.10109C23.2416 5.62089 23.115 5.24871 22.9284 4.94842C22.6836 4.55452 22.3032 4.23455 21.8598 3.98018C21.4185 3.72704 20.9522 3.56043 20.588 3.45709C20.4079 3.40602 20.258 3.37186 20.1556 3.35085C20.1186 3.34326 20.088 3.33743 20.0646 3.33317H19.1849L7.39192 7.13818C7.87499 7.316 8.40599 7.54844 8.93116 7.84932C9.79425 8.34379 10.6796 9.04501 11.2924 10.0298C11.7125 10.705 11.9901 11.4911 12.0575 12.3925Z" fill="#326B43"/>
</svg>
