<svg width="40" height="40" viewBox="0 0 40 40" fill="none" xmlns="http://www.w3.org/2000/svg">
<path fill-rule="evenodd" clip-rule="evenodd" d="M37.2209 37.8637V8.93704H25.2295V2.22217H3.33203V37.8639H19.2337L19.4316 37.8637H37.2209ZM19.4316 16.8945L19.4924 10.4473H31.707L31.707 36.3534H27.6152V18.7517H27.0147V36.3534H19.4316V16.8945ZM32.3075 36.3534L32.3075 10.4473H35.7197V36.3534H32.3075ZM17.9303 16.8873L17.7467 36.3537H8.84587L8.84587 3.73241H12.9378L12.9378 22.3673H13.5383L13.5383 3.73241H23.7282V8.7184H18.0074L18.0053 8.93704H17.9303V16.8873ZM4.83327 36.3537H8.24538L8.24538 3.73241H4.83327V36.3537Z" fill="#326B43"/>
</svg>
