<svg width="40" height="40" viewBox="0 0 40 40" fill="none" xmlns="http://www.w3.org/2000/svg">
<path d="M16.3316 30.2029V31.5362V36.2899L18.9615 35.2464V31.4783V30.4348V29.0435V27.8261V19.1304L14.4356 16.6377L15.1695 15.4203L18.9615 17.5072V6.49275H20.4294V11.942L23.671 10.1449L24.405 11.3623L20.4294 13.5652V22.4928L23.671 20.6957L24.405 21.913L20.4294 24.1159V27.942V29.1594V30.5507V31.5942V35.3623L23.0594 36.4058V31.6522V30.3188V28.9275C25.3224 28.5797 27.2796 27.7681 28.6863 26.5507C30.6435 24.9275 31.8056 22.5507 31.8056 19.4783C31.8056 16.2319 30.5823 12.6377 28.3805 9.3913C26.301 6.31884 23.4264 3.5942 20.0013 1.62319C16.5151 3.5942 13.6404 6.37681 11.6221 9.3913C9.42026 12.6377 8.19702 16.2319 8.19702 19.4783C8.19702 22.5507 9.29794 24.9275 11.3163 26.5507C12.6619 27.6522 14.3744 28.4058 16.3927 28.8116V30.2029H16.3316ZM14.8637 29.913C13.09 29.4493 11.4998 28.6377 10.2765 27.5942C7.95237 25.6812 6.66797 22.9565 6.66797 19.4783C6.66797 16 8.01354 12.1159 10.3377 8.63768C12.6007 5.33333 15.7811 2.26087 19.6343 0.173913L20.0013 0L20.3683 0.173913C24.2215 2.26087 27.4019 5.27536 29.6649 8.63768C31.9891 12.1159 33.3346 16 33.3346 19.4783C33.3346 22.9565 32.0502 25.6812 29.7261 27.5942C28.3193 28.7536 26.6068 29.5652 24.5885 30.029V37.8551L19.7567 40L14.8637 37.8551V29.913ZM19.6955 38.4928L22.5089 37.5072L19.6955 36.5217L16.6985 37.5072L19.6955 38.4928Z" fill="#326B43"/>
</svg>
