<svg width="41" height="40" viewBox="0 0 41 40" fill="none" xmlns="http://www.w3.org/2000/svg">
<path fill-rule="evenodd" clip-rule="evenodd" d="M31.6738 29.37L31.8044 34.7084H31.8698L38.6617 33.6792L33.1106 29.6916L31.6738 29.37ZM31.2167 34.5797L31.0861 29.2414L29.584 28.8554L29.7146 34.1938L31.2167 34.5797ZM29.1269 34.0652L28.9963 28.7268L27.4942 28.3409L27.6248 33.6792L29.1269 34.0652ZM26.9717 33.5506L26.8411 28.2122L25.3391 27.8264L25.4697 33.1647L26.9717 33.5506ZM24.8819 33.0361L24.7513 27.6977L24.4248 27.6334V31.2995L23.7717 32.7788L24.8819 33.0361ZM8.16336 17.6642L4.11433 34.1295L10.2532 29.4986H10.3185L11.5593 24.4818H11.494L8.16336 17.6642ZM3.33063 34.7727L7.77152 16.8281L7.7062 16.7637L6.26945 16.4421L1.82858 34.5154L3.26534 34.837L3.33063 34.7727ZM12.1471 24.6748L10.9062 29.6916L16.0002 30.9136V25.6395L12.1471 24.6748ZM24.4248 26.0255L33.7636 28.2766C36.0494 29.8845 38.2698 31.5568 40.5556 33.1647L40.0984 35.0299L31.8044 36.2519L23.1839 34.1938L21.2247 38.889H19.2655L16.6533 32.5859L10.645 31.1709L3.65717 36.4449L0 35.5445L5.22455 14.4483L8.88172 15.3487L12.6695 23.1955L16.1308 24.0316V9.75312L9.33888 4.28612V0.555664H31.2167V1.32748V4.28612L24.4248 9.75312V26.0255ZM22.8574 29.5629L17.6329 30.9779L20.2451 37.2167L22.8574 30.9779V29.5629ZM17.5675 30.3348L22.7921 28.9198V27.4405L17.5675 28.8554V30.3348ZM17.5675 28.2122L22.7921 26.7973V25.318L17.5675 26.7329V28.2122ZM17.5675 26.0255L22.7921 24.6105V23.1312L17.5675 24.5462V26.0255ZM17.5675 23.903L22.7921 22.488V21.0087L17.5675 22.4237V23.903ZM17.5675 21.7805L22.7921 20.3655V18.8862L17.5675 20.3012V21.7805ZM17.5675 19.658L22.7921 18.243V16.7637L17.5675 18.1787V19.658ZM17.5675 17.4712L22.7921 16.0562V14.5769L17.5675 15.9919V17.4712ZM17.5675 15.3487L22.7921 13.9338V9.68878H17.5675V15.3487ZM28.8003 4.28612H11.6246L17.6329 9.0456V9.10994H22.8574V9.0456L28.8003 4.28612ZM10.8409 3.70724H29.584L29.6493 3.64294V2.1636H10.7756V3.64294L10.8409 3.70724Z" fill="#326B43"/>
</svg>
