<svg width="40" height="40" viewBox="0 0 40 40" fill="none" xmlns="http://www.w3.org/2000/svg">
<path fill-rule="evenodd" clip-rule="evenodd" d="M3.98904 30.5538H31.8523V27.0818H7.57878L3.98904 30.5538ZM33.2198 29.6169L35.8409 27.0818H33.2198V29.6169ZM36.4107 26.5307V16.7209L33.2198 19.8072V26.5307H36.4107ZM36.4107 28.4045L33.2198 31.4907V37.2223H31.8523V31.8765H7.74971V32.8134H7.17991V31.8765H3.59017V37.2223H2.22266V7.57249L7.17991 2.77783H37.7782V32.8134H36.4107V28.4045ZM3.98904 18.8703H31.8523V15.3983H7.57878L3.98904 18.8703ZM33.2198 17.9334L35.8409 15.3983H33.2198V17.9334ZM36.4107 14.8472V5.03737L33.2198 8.1236V14.8472H36.4107ZM31.8523 20.1929H7.74971V26.5307H31.8523V20.1929ZM7.2369 20.1929H3.64716V30.168L7.2369 26.6961V20.1929ZM3.59017 18.4845L7.17991 15.0125V8.50938H3.59017V18.4845ZM7.74971 14.8472H31.8523V8.50938H7.74971V14.8472ZM4.55884 7.18672H32.2511L35.442 4.1005H7.74971L4.55884 7.18672Z" fill="#326B43"/>
</svg>
