<svg width="571" height="225" viewBox="0 0 571 225" fill="none" xmlns="http://www.w3.org/2000/svg">
<g clip-path="url(#clip0_488_42868)">
<path d="M0.507812 176.351V142.905L71.8828 6.08108H109.848L38.4732 142.905H108.33V91.2162H109.848H143.258V142.905H173.63V176.351H143.258V218.919H108.33V176.351H0.507812ZM213.102 193.378C193.866 172.297 184.248 145.338 184.248 112.5C184.248 79.6622 193.866 52.7027 213.102 31.6216C232.338 10.5406 255.623 0 282.958 0C310.294 0 333.579 10.5406 352.815 31.6216C372.051 52.7027 381.669 79.6622 381.669 112.5C381.669 145.338 372.051 172.297 352.815 193.378C333.579 214.459 310.294 225 282.958 225C255.623 225 232.338 214.459 213.102 193.378ZM238.007 54.1216C226.466 67.9054 220.695 87.3649 220.695 112.5C220.695 137.635 226.466 157.095 238.007 170.878C249.751 184.662 264.735 191.554 282.958 191.554C301.182 191.554 316.064 184.662 327.606 170.878C339.35 157.095 345.222 137.635 345.222 112.5C345.222 87.3649 339.35 67.9054 327.606 54.1216C316.064 40.3378 301.182 33.446 282.958 33.446C264.735 33.446 249.751 40.3378 238.007 54.1216ZM396.927 176.351V142.905L468.302 6.08108H506.267L434.892 142.905H504.748V91.2162H506.267H539.677V142.905H570.049V176.351H539.677V218.919H504.748V176.351H396.927Z" fill="#E8F0EB"/>
<path d="M303.273 101.021C303.155 100.902 303.038 100.783 303.273 101.021V101.021ZM284.622 148.246V70.3307L273.126 83.8915H280.633L267.144 102.924H276.293L261.396 124.693H277.818H279.226V126.12V150.387L284.622 148.246ZM295.531 124.693C296 124.693 296.469 124.693 296.938 124.693C297.76 124.693 298.698 124.693 299.519 124.574C300.692 124.574 301.865 124.336 302.804 123.979C303.859 123.622 304.68 123.265 305.501 122.79C305.619 122.671 305.853 122.671 305.853 122.552C308.082 121.124 309.372 118.626 309.842 116.128C310.311 113.511 309.959 110.775 308.786 108.753C308.669 108.634 308.669 108.515 308.551 108.396C307.965 107.444 307.144 106.493 306.205 105.779C305.384 105.065 304.328 104.471 303.155 104.114C303.155 104.114 303.038 104.114 302.804 103.995C302.334 103.876 302.1 103.757 301.748 103.638C300.223 102.805 300.223 102.092 301.279 100.069C301.513 99.5935 301.748 99.1176 301.865 98.7608C302.804 96.1438 302.921 93.5268 302.1 91.2667C301.396 89.0065 299.754 87.1033 297.642 85.9137C297.29 85.7948 296.938 85.5569 296.587 85.4379C294.592 84.7242 294.24 84.3673 294.827 82.8209C294.944 82.583 294.944 82.4641 295.062 82.2261C295.179 82.1072 295.296 81.8693 295.414 81.5124C295.883 80.3229 296 79.0144 295.883 77.7059C295.765 76.2784 295.296 74.732 294.475 73.5425C293.654 72.3529 292.481 71.2824 290.839 70.5686C289.783 70.2118 288.61 69.9739 287.085 69.8549V148.246L292.246 150.387V126.12V124.693H295.531ZM285.091 67H286.968H287.672H287.789C289.431 67.119 290.839 67.3569 292.129 67.8327C294.358 68.6654 296 70.0928 297.173 71.8771C298.346 73.5425 298.933 75.5647 299.05 77.468C299.167 79.2523 298.933 81.0366 298.346 82.4641C298.346 82.583 298.229 82.702 298.229 82.702C298.581 82.8209 298.815 82.9399 299.167 83.1778C301.982 84.7242 303.977 87.2222 305.032 90.0771C305.971 92.932 305.971 96.2627 304.68 99.5935C304.446 100.069 304.211 100.664 303.977 101.14L304.211 101.259C305.736 101.735 307.026 102.567 308.082 103.4C309.255 104.352 310.311 105.541 311.015 106.85C311.132 107.088 311.249 107.207 311.367 107.325C312.774 109.942 313.361 113.392 312.774 116.604C312.188 119.935 310.428 123.027 307.496 124.931C307.261 125.05 307.144 125.169 307.026 125.288C305.971 125.882 304.915 126.358 303.742 126.715C302.569 127.072 301.161 127.31 299.754 127.429C298.933 127.429 298.111 127.548 297.173 127.548C296.704 127.548 296.235 127.548 295.765 127.548V153.48L286.264 158L276.762 153.48V127.548H258.698H256L257.525 125.288L270.663 105.779H261.396L274.886 86.7464H266.792L282.51 68.1895C283.449 67.119 283.918 67 285.091 67ZM280.399 152.885L285.912 154.907L291.777 152.885L285.912 150.863L280.399 152.885Z" fill="#E8F0EB"/>
</g>
<defs>
<clipPath id="clip0_488_42868">
<rect width="571" height="225" fill="white"/>
</clipPath>
</defs>
</svg>
