<svg width="564" height="222" viewBox="0 0 564 222" fill="none" xmlns="http://www.w3.org/2000/svg">
<path d="M0.5 174V141L71 5.99999H108.5L38 141H107V90H108.5H141.5V141H171.5V174H141.5V216H107V174H0.5ZM210.488 190.8C191.488 170 181.988 143.4 181.988 111C181.988 78.6 191.488 52 210.488 31.2C229.488 10.4 252.488 -8.58307e-06 279.488 -8.58307e-06C306.488 -8.58307e-06 329.488 10.4 348.488 31.2C367.488 52 376.988 78.6 376.988 111C376.988 143.4 367.488 170 348.488 190.8C329.488 211.6 306.488 222 279.488 222C252.488 222 229.488 211.6 210.488 190.8ZM235.088 53.4C223.688 67 217.988 86.2 217.988 111C217.988 135.8 223.688 155 235.088 168.6C246.688 182.2 261.488 189 279.488 189C297.488 189 312.188 182.2 323.588 168.6C335.188 155 340.988 135.8 340.988 111C340.988 86.2 335.188 67 323.588 53.4C312.188 39.8 297.488 33 279.488 33C261.488 33 246.688 39.8 235.088 53.4ZM392.059 174V141L462.559 5.99999H500.059L429.559 141H498.559V90H500.059H533.059V141H563.059V174H533.059V216H498.559V174H392.059Z" fill="#E8F0EB"/>
</svg>
