<svg xmlns="http://www.w3.org/2000/svg" width="663" height="160" viewBox="0 0 663 160" fill="none">
    <g clip-path="url(#clip0_1129_120160)">
        <path d="M83.7583 59.817C83.3426 59.3987 83.5505 59.6078 83.7583 59.817V59.817ZM50.7122 142.85V5.85621L30.3442 29.6993H43.6458L19.7445 63.1634H35.9558L9.5605 101.438H38.6577H41.1517V103.948V146.614L50.7122 142.85ZM70.0411 101.438C70.8724 101.438 71.7038 101.438 72.5351 101.438C73.99 101.438 75.6527 101.438 77.1075 101.229C79.1859 101.229 81.2643 100.81 82.927 100.183C84.7975 99.5556 86.2523 98.9281 87.7072 98.0915C87.915 97.8824 88.3307 97.8824 88.3307 97.6732C92.2796 95.1634 94.5658 90.7712 95.3972 86.3791C96.2285 81.7778 95.605 76.9673 93.5266 73.4118C93.3188 73.2026 93.3188 72.9935 93.111 72.7843C92.0718 71.1111 90.6169 69.4379 88.9542 68.183C87.4994 66.9281 85.6288 65.8824 83.5505 65.2549C83.5505 65.2549 83.3426 65.2549 82.927 65.0458C82.0956 64.8366 81.6799 64.6275 81.0564 64.4183C78.3545 62.9543 78.3545 61.6993 80.2251 58.1438C80.6407 57.3072 81.0564 56.4706 81.2643 55.8431C82.927 51.2418 83.1348 46.6405 81.6799 42.6667C80.4329 38.6928 77.5232 35.3464 73.7821 33.2549C73.1586 33.0458 72.5351 32.6275 71.9116 32.4183C68.3784 31.1634 67.7549 30.5359 68.794 27.817C69.0019 27.3987 69.0019 27.1895 69.2097 26.7712C69.4175 26.5621 69.6254 26.1438 69.8332 25.5163C70.6646 23.4248 70.8724 21.1242 70.6646 18.8235C70.4567 16.3137 69.6254 13.5948 68.1705 11.5033C66.7157 9.41177 64.6373 7.52941 61.7276 6.27451C59.8571 5.64706 57.7787 5.22876 55.0768 5.01961V142.85L64.2216 146.614V103.948V101.438H70.0411ZM51.5436 0H54.869H56.116H56.3238C59.2335 0.20915 61.7276 0.627451 64.0138 1.46405C67.9627 2.9281 70.8724 5.43791 72.9508 8.57516C75.0292 11.5033 76.0683 15.0588 76.2762 18.4052C76.484 21.5425 76.0683 24.6797 75.0292 27.1895C75.0292 27.3987 74.8213 27.6078 74.8213 27.6078C75.4448 27.817 75.8605 28.0261 76.484 28.4444C81.4721 31.1634 85.0053 35.5556 86.8759 40.5752C88.5386 45.5948 88.5386 51.451 86.2523 57.3072C85.8367 58.1438 85.421 59.1895 85.0053 60.0261L85.421 60.2353C88.1229 61.0719 90.4091 62.536 92.2796 64C94.358 65.6732 96.2285 67.7647 97.4755 70.0654C97.6834 70.4837 97.8912 70.6928 98.0991 70.902C100.593 75.5033 101.632 81.5686 100.593 87.2157C99.5539 93.0719 96.4364 98.5098 91.2404 101.856C90.8248 102.065 90.6169 102.275 90.4091 102.484C88.5386 103.529 86.668 104.366 84.5897 104.993C82.5113 105.621 80.0172 106.039 77.5232 106.248C76.0683 106.248 74.6135 106.458 72.9508 106.458C72.1194 106.458 71.2881 106.458 70.4567 106.458V152.052L53.6219 160L36.7871 152.052V106.458H4.78025H0L2.70188 102.484L25.9796 68.183H9.5605L33.4618 34.719H19.121L46.9712 2.0915C48.6339 0.20915 49.4652 0 51.5436 0ZM43.2301 151.007L52.9984 154.562L63.3903 151.007L52.9984 147.451L43.2301 151.007Z" fill="#769882" />
        <path d="M206.8 0.625H209.917H221.972H253.563C254.187 0.625 254.602 1.0433 254.602 1.67075L249.822 17.1479C249.614 17.5662 249.407 18.1936 248.783 18.1936H223.219V44.9649H247.328C247.952 44.9649 248.367 45.3832 248.367 46.0106V61.4878C248.367 62.1152 247.952 62.5335 247.328 62.5335H223.219V89.3047H248.783C249.407 89.3047 249.614 89.723 249.822 90.3505L254.602 105.828C254.81 106.246 254.187 106.873 253.563 106.873H222.18H209.917H206.8C206.176 106.873 205.761 106.455 205.761 105.828V1.67075C205.761 1.0433 206.176 0.625 206.8 0.625Z" fill="#769882" />
        <path d="M623.926 0.631025H639.306H644.71H661.96C662.584 0.631025 663 1.04933 663 1.67678L658.219 17.1539C658.012 17.5722 657.804 18.1997 657.18 18.1997H644.71H640.138V105.415C640.138 106.043 639.722 106.461 639.098 106.461H623.718C623.095 106.461 622.679 106.043 622.679 105.415V17.9905H618.107H605.637C605.013 17.9905 604.805 17.5722 604.597 16.9448L599.817 1.46763C599.609 1.04933 600.233 0.421875 600.856 0.421875H618.107H623.926V0.631025Z" fill="#769882" />
        <path d="M329.218 0.625H344.598C345.221 0.625 345.637 1.0433 345.637 1.67075V34.5074L363.095 1.8799C363.303 1.25245 364.135 0.83415 364.55 0.83415H380.554C381.177 0.83415 381.385 1.25245 380.969 1.8799L356.237 48.1021L381.177 105.2C381.385 105.828 381.177 106.246 380.554 106.246H364.55C363.927 106.246 363.303 105.828 363.095 105.2L345.637 65.0433V105.409C345.637 106.037 345.221 106.455 344.598 106.455H329.218C328.594 106.455 328.179 106.037 328.179 105.409V1.67075C328.179 1.0433 328.594 0.625 329.218 0.625Z" fill="#769882" />
        <path d="M406.942 17.9845V58.7688H422.529C423.984 58.7688 425.231 57.5139 425.231 56.0498V20.7034C425.231 19.2394 423.984 17.9845 422.529 17.9845H406.942ZM390.523 0.625H404.24H405.903H427.933C436.039 0.625 442.482 7.31781 442.482 15.2655V61.2786C442.482 69.4355 435.831 75.9191 427.933 75.9191H406.942V105.2C406.942 105.828 406.526 106.246 405.903 106.246H390.523C389.899 106.246 389.483 105.828 389.483 105.2V61.2786V46.6381V29.6969V15.0564V1.67075C389.691 1.0433 390.107 0.625 390.523 0.625Z" fill="#769882" />
        <path d="M560.124 17.9845V58.7688H561.786H569.061H574.049C575.504 58.7688 576.751 57.5139 576.751 56.0498V20.7034C576.751 19.2394 575.504 17.9845 574.049 17.9845H569.061H561.786H560.124ZM541.211 58.7688H542.873V17.9845H541.211H533.521H528.948C527.493 17.9845 526.246 19.2394 526.246 20.7034V56.0498C526.246 57.5139 527.493 58.7688 528.948 58.7688H533.521H541.211ZM543.912 0.625H547.238H555.759H559.085H579.245C587.35 0.625 593.793 7.31781 593.793 15.2655V61.2786C593.793 69.4355 587.143 75.9191 579.245 75.9191H559.916V105.2C559.916 105.828 559.5 106.246 558.877 106.246H543.497C542.873 106.246 542.458 105.828 542.458 105.2V75.9191H523.129C515.023 75.9191 508.58 69.2263 508.58 61.2786V15.2655C508.58 7.10866 515.231 0.625 523.129 0.625H543.912Z" fill="#769882" />
        <path d="M175.623 0.625H160.243C159.828 0.625 159.204 1.0433 159.204 1.67075L141.122 76.5466C141.122 76.7557 141.122 76.7557 141.122 76.9649L139.252 105.2C139.252 105.828 139.668 106.246 140.083 106.246H155.463C156.087 106.246 156.502 105.828 156.502 105.2L156.918 95.3701L157.957 76.7557L167.726 36.1806L177.494 76.7557L178.533 95.3701L178.949 105.2C178.949 105.828 179.364 106.246 179.988 106.246H195.368C195.991 106.246 196.199 105.828 196.199 105.2L194.744 76.7557C194.744 76.5466 194.744 76.5466 194.744 76.3374L176.663 1.67075C176.663 1.0433 176.039 0.625 175.623 0.625Z" fill="#769882" />
        <path d="M467.42 71.527L475.941 36.1806L484.463 71.527H467.42ZM483.631 0.625H468.251C467.836 0.625 467.212 1.0433 467.212 1.67075L448.923 76.5466C448.923 76.7557 448.923 76.7557 448.923 76.9649L447.468 105.409C447.468 106.037 447.883 106.455 448.299 106.455H463.679C464.303 106.455 464.718 106.037 464.718 105.409L465.134 95.5793L465.342 90.1413H486.333L486.541 95.5793L486.957 105.409C486.957 106.037 487.373 106.455 487.996 106.455H503.376C503.999 106.455 504.207 106.037 504.207 105.409L502.96 76.9649C502.96 76.7557 502.96 76.7557 502.96 76.5466L484.878 1.67075C484.671 1.0433 484.255 0.625 483.631 0.625Z" fill="#769882" />
        <path d="M315.708 18.6119V28.2328C315.708 29.6969 315.5 30.1152 314.253 30.5335L300.328 34.7165C299.288 35.1348 298.457 34.9257 298.457 33.6707V20.7034C298.457 19.2394 297.21 17.9845 295.755 17.9845H282.869C281.414 17.9845 280.167 19.2394 280.167 20.7034V86.1675C280.167 87.6315 281.414 88.8864 282.869 88.8864H295.755C297.21 88.8864 298.457 87.6315 298.457 86.1675V75.5008V73.4093C298.457 72.1544 299.288 71.9453 300.328 72.3636L314.253 76.5466C315.5 76.9649 315.708 77.3832 315.708 78.8472V80.7296V88.4681V91.6054C315.708 99.7623 309.057 106.246 301.159 106.246H277.466C269.36 106.246 262.917 99.5531 262.917 91.6054V15.2655C262.917 7.10866 269.568 0.625 277.466 0.625H301.159C309.265 0.625 315.708 7.31781 315.708 15.2655V18.6119Z" fill="#769882" />
        <path d="M150.683 131.137L155.048 155.816H150.891L147.774 134.065H147.15L144.033 155.816H139.876L144.241 131.137H150.683Z" fill="#769882" />
        <path d="M167.721 131.137V134.692H161.486V141.385H167.305V144.731H161.486V152.261H167.929V155.816H157.537V131.137H167.721Z" fill="#769882" />
        <path d="M184.559 146.616C184.559 149.126 184.351 150.799 183.936 152.054C182.689 155.61 180.195 156.446 177.908 156.446C174.999 156.446 172.92 154.982 171.881 152.054C171.258 150.172 171.05 147.871 171.05 143.479C171.05 139.296 171.05 136.995 171.881 134.904C173.128 131.348 175.622 130.512 177.908 130.512C180.195 130.512 182.689 131.348 183.936 135.113C184.351 136.159 184.559 137.623 184.559 140.133H180.61C180.61 138.878 180.61 138.041 180.61 137.205C180.61 136.159 180.195 133.858 178.116 133.858C176.038 133.858 175.83 135.95 175.622 137.205C175.414 138.878 175.414 141.806 175.414 143.061C175.414 147.035 175.414 148.29 175.622 149.544C175.83 150.59 176.038 152.682 178.116 152.682C180.195 152.682 180.61 150.381 180.61 149.544C180.61 148.917 180.61 148.08 180.61 146.407H184.559V146.616Z" fill="#769882" />
        <path d="M199.734 152.261H205.969L203.059 134.274H202.436L199.734 152.261ZM205.969 131.137L209.918 152.261H210.542V155.816H194.538V152.261H195.162L199.526 131.137H205.969Z" fill="#769882" />
        <path d="M222.599 131.137L227.172 155.816H222.807L219.69 134.065H219.066L215.949 155.816H211.792L216.157 131.137H222.599Z" fill="#769882" />
        <path d="M237.147 134.481C236.108 134.481 235.068 134.481 234.237 135.318C233.406 136.155 233.406 137.619 233.406 138.246C233.406 139.083 233.614 140.338 234.237 141.174C235.068 142.011 235.9 142.22 236.939 142.22H237.978V134.481H237.147ZM241.719 155.815H237.77V145.566H236.523C236.108 145.566 235.484 145.566 234.861 146.194C234.445 146.612 234.237 147.449 234.029 148.285L232.159 155.815H228.002L230.704 146.403C230.912 145.566 231.327 144.311 232.782 143.684C232.159 143.475 231.535 143.266 230.912 142.429C229.665 140.965 229.457 139.292 229.457 137.619C229.457 134.9 230.496 133.226 231.535 132.39C233.406 130.926 235.692 130.926 237.147 130.926H241.927V155.815H241.719Z" fill="#769882" />
        <path d="M257.091 152.261H263.326L260.416 134.274H259.793L257.091 152.261ZM263.534 131.137L267.482 152.261H268.106V155.816H252.103V152.261H252.726L256.675 131.137H263.534Z" fill="#769882" />
        <path d="M280.783 131.137V134.692H274.756V141.385H280.367V144.731H274.756V152.261H281.198V155.816H270.807V131.137H280.783Z" fill="#769882" />
        <path d="M294.084 131.137L298.448 155.816H294.292L291.174 134.065H290.551L287.433 155.816H283.276L287.641 131.137H294.084Z" fill="#769882" />
        <path d="M305.306 145.568H309.67L307.8 134.065H307.176L305.306 145.568ZM310.71 131.137L315.49 155.607H311.333L310.294 148.914H304.682L303.643 155.607H299.486L304.267 131.137H310.71Z" fill="#769882" />
    </g>
    <defs>
        <clipPath id="clip0_1129_120160">
            <rect width="663" height="160" fill="white" />
        </clipPath>
    </defs>
</svg>