<svg xmlns="http://www.w3.org/2000/svg" width="976" height="513" viewBox="0 0 976 513" fill="none">
    <g clip-path="url(#clip0_374_32869)">
        <mask id="mask0_374_32869" style="mask-type:luminance" maskUnits="userSpaceOnUse" x="0" y="-18" width="976" height="531">
            <path d="M0 -17.9999H975.999V513H0V-17.9999Z" fill="white" />
        </mask>
        <g mask="url(#mask0_374_32869)">
            <path d="M115.717 247.453C149.58 245.662 176.713 218.425 178.427 184.466C180.141 218.425 207.273 245.662 241.137 247.453H244.518V247.545C244.575 247.546 244.633 247.548 244.69 247.548V135.526C243.618 128.725 243.055 121.753 243.054 114.649H241.137C207.273 116.44 180.141 143.677 178.427 177.636C176.713 143.677 149.58 116.44 115.717 114.649H112.419V218.886L112.164 219.016V247.453H115.717Z" fill="#E8F0EB" fill-opacity="0.7" />
            <path d="M244.691 114.64V114.554C244.634 114.554 244.577 114.555 244.52 114.555V114.64H244.691Z" fill="#E8F0EB" fill-opacity="0.7" />
            <path d="M10.0783 114.648H51.1703V114.553H61.2486V114.648H102.341V114.553H112.164V-17.8407L0 52.3568H77.3816L0.11842 114.553H10.0783V114.648Z" fill="#E8F0EB" fill-opacity="0.7" />
            <path d="M424.341 43.3676H305.045L254.513 -7.63132H450.231L424.341 43.3676ZM454.761 5.7011L476.444 48.4142L476.221 48.8543L454.761 91.1268L454.514 90.6413L433.338 48.9256L433.079 48.4142L454.761 5.7011ZM365.579 104.46L315.046 53.4609H424.341L450.231 104.46H365.579ZM171.269 48.3246L122.165 97.5383V-0.889679L171.269 48.3246ZM178.341 41.237L129.237 -7.97728H227.446L178.341 41.237ZM227.446 104.627H129.236L178.341 55.4122L227.446 104.627ZM185.413 48.3246L234.518 -0.889679V97.5389L185.413 48.3246ZM56.2095 236.215L22.2247 218.886L56.2095 201.556L90.1949 218.886L56.2095 236.215ZM112.42 114.649H115.717H241.137H243.054C243.055 121.753 243.618 128.724 244.69 135.526C254.687 198.957 309.479 247.461 375.58 247.461V234.362C309.606 234.362 256.124 180.761 256.124 114.64H244.69H244.518V114.556V-3.91043L361.412 114.554H364.84H375.58H454.168L487.744 48.4142L454.168 -17.7252H244.518V-17.9998H112.164V-17.8401V114.554H102.341V114.649V213.747L61.2487 192.793V114.649V114.554H51.1703V114.649V192.793L10.0783 213.747V114.649V114.554H0.118452H0V218.886L56.2095 247.548L112.164 219.016L112.42 218.886V114.649Z" fill="#E8F0EB" fill-opacity="0.7" />
            <path d="M375.581 234.361V114.64H256.125C256.125 180.76 309.607 234.361 375.581 234.361Z" fill="#E8F0EB" fill-opacity="0.7" />
            <path d="M731.309 114.907V114.993C731.366 114.993 731.423 114.991 731.481 114.991V114.907H731.309Z" fill="#E8F0EB" fill-opacity="0.7" />
            <path d="M734.861 114.898C768.724 113.107 795.857 85.8706 797.571 51.9123C799.286 85.8706 826.418 113.107 860.282 114.898H863.579V10.6619L863.834 10.5312V-18.0004C828.333 -18.0004 799.345 9.9435 797.571 45.081C795.797 9.9435 766.809 -18.0004 731.309 -18.0004V94.0213C732.381 100.823 732.944 107.794 732.944 114.898H734.861Z" fill="#E8F0EB" fill-opacity="0.7" />
            <path d="M965.921 114.994V114.899H924.829V114.994H914.751V114.899H873.659V114.994H863.836V247.388L976 177.19H898.618L975.881 114.994H965.921Z" fill="#E8F0EB" fill-opacity="0.7" />
            <path d="M551.656 186.18H670.952L721.485 237.179H525.767L551.656 186.18ZM521.237 223.847L499.554 181.134L499.777 180.694L521.237 138.421L542.919 181.134L521.237 223.847ZM610.419 125.088L660.951 176.087H551.656L525.767 125.088H610.419ZM804.729 181.223L853.833 132.01V230.438L804.729 181.223ZM797.657 188.311L846.761 237.525H748.551L797.657 188.311ZM748.551 124.922H846.762L797.657 174.136L748.551 124.922ZM790.585 181.223L741.479 230.438V132.009L790.585 181.223ZM919.788 -6.66733L953.773 10.6625L919.788 27.9917L885.803 10.6625L919.788 -6.66733ZM873.656 114.994V114.899V15.8013L914.749 36.7548V114.899V114.994H924.827V114.899V36.7548L965.919 15.8013V114.899V114.994H975.879H975.997V10.6625L919.788 -17.9998L863.834 10.5318L863.578 10.6625V114.899H860.28H734.86H732.944C732.943 107.795 732.38 100.824 731.308 94.0219C721.31 30.5908 666.518 -17.9133 600.418 -17.9133V-4.81381C666.391 -4.81381 719.873 48.7874 719.873 114.908H731.308H731.479V114.992V233.458L614.585 114.994H611.157H600.418H521.83L488.254 181.134L521.83 247.273H731.479V247.455C732.613 247.458 733.74 247.489 734.86 247.548H860.28C861.457 247.486 862.641 247.453 863.834 247.453V247.388V114.994H873.656Z" fill="#E8F0EB" fill-opacity="0.7" />
            <path d="M600.418 -4.81447V114.907H719.873C719.873 48.7867 666.391 -4.81447 600.418 -4.81447Z" fill="#E8F0EB" fill-opacity="0.7" />
            <path d="M523.038 44.2923L600.42 -18H488V114.649L600.42 44.2923H523.038Z" fill="#E8F0EB" fill-opacity="0.7" />
            <path d="M241.137 380.101C207.274 381.892 180.141 409.129 178.427 443.087C176.713 409.129 149.581 381.892 115.717 380.101H112.42V484.338L112.164 484.468V513C147.665 513 176.654 485.056 178.427 449.919C180.201 485.056 209.19 513 244.69 513V400.978C243.618 394.176 243.055 387.205 243.054 380.101H241.137Z" fill="#E8F0EB" fill-opacity="0.7" />
            <path d="M244.691 380.092V380.006C244.634 380.006 244.577 380.008 244.52 380.008V380.092H244.691Z" fill="#E8F0EB" fill-opacity="0.7" />
            <path d="M10.0783 380.102H51.1703V380.006H61.2486V380.102H102.341V380.006H112.164V247.612L0 317.809H77.3816L0.11842 380.006H10.0783V380.102Z" fill="#E8F0EB" fill-opacity="0.7" />
            <path d="M424.341 308.82H305.045L254.513 257.821H450.231L424.341 308.82ZM454.761 271.153L476.444 313.866L476.221 314.306L454.761 356.579L454.514 356.093L433.338 314.377L433.079 313.866L454.761 271.153ZM365.579 369.913L315.046 318.913H424.341L450.231 369.913H365.579ZM185.413 313.777L234.518 264.562V362.991L185.413 313.777ZM178.341 320.864L227.446 370.079H129.236L178.341 320.864ZM129.237 257.475H227.446L178.341 306.689L129.237 257.475ZM122.165 264.562L171.269 313.777L122.165 362.99V264.562ZM56.2095 501.668L22.2247 484.338L56.2095 467.009L90.1949 484.338L56.2095 501.668ZM361.412 380.006H364.84H375.58H454.168L487.744 313.866L454.168 247.727H244.518V247.545V247.452H241.137H115.717H112.164V247.548V247.612V380.006H102.341V380.101V479.199L61.2487 458.245V380.101V380.006H51.1703V380.101V458.245L10.0783 479.199V380.101V380.006H0.118452H0V484.338L56.2095 513L112.164 484.468L112.42 484.338V380.101H115.717H241.137H243.054C243.055 387.205 243.618 394.177 244.69 400.978C254.687 464.409 309.479 512.913 375.58 512.913V499.814C309.606 499.814 256.124 446.213 256.124 380.092H244.69H244.518V380.008V261.542L361.412 380.006Z" fill="#E8F0EB" fill-opacity="0.7" />
            <path d="M375.581 499.813V380.092H256.125C256.125 446.212 309.607 499.813 375.581 499.813Z" fill="#E8F0EB" fill-opacity="0.7" />
            <path d="M452.96 450.708L375.578 513H487.998V380.351L375.578 450.708H452.96Z" fill="#E8F0EB" fill-opacity="0.7" />
            <path d="M860.282 247.547C826.419 249.338 799.286 276.575 797.572 310.533C795.857 276.575 768.725 249.338 734.861 247.547C733.741 247.488 732.614 247.457 731.481 247.454C731.423 247.454 731.366 247.452 731.309 247.452V359.473C732.381 366.275 732.944 373.247 732.944 380.351H734.861C768.725 378.56 795.857 351.322 797.572 317.364C799.286 351.322 826.419 378.56 860.282 380.351H863.579V276.114L863.834 275.983V247.547V247.452C862.643 247.452 861.459 247.485 860.282 247.547Z" fill="#E8F0EB" fill-opacity="0.7" />
            <path d="M731.309 380.359V380.445C731.366 380.445 731.423 380.443 731.481 380.443V380.359H731.309Z" fill="#E8F0EB" fill-opacity="0.7" />
            <path d="M965.921 380.351H924.829V380.446H914.751V380.351H873.659V380.446H863.836V512.84L976 442.643H898.618L975.881 380.446H965.921V380.351Z" fill="#E8F0EB" fill-opacity="0.7" />
            <path d="M551.656 451.633H670.952L721.485 502.632H525.767L551.656 451.633ZM521.237 489.299L499.554 446.586L499.777 446.146L521.237 403.873L521.483 404.359L542.66 446.075L542.919 446.586L521.237 489.299ZM610.419 390.54L660.951 441.539H551.656L525.767 390.54H610.419ZM804.729 446.676L853.833 397.462V495.89L804.729 446.676ZM797.657 453.763L846.761 502.977H748.551L797.657 453.763ZM748.551 390.374H846.762L797.657 439.588L748.551 390.374ZM790.585 446.676L741.479 495.89V397.461L790.585 446.676ZM919.788 258.785L953.773 276.115L919.788 293.444L885.803 276.115L919.788 258.785ZM863.578 380.351H860.28H734.86H732.944C732.943 373.247 732.38 366.276 731.308 359.474C721.31 296.043 666.518 247.539 600.418 247.539V260.638C666.391 260.638 719.873 314.24 719.873 380.361H731.308H731.479V380.444V498.911L614.585 380.447H611.157H600.418H521.83L488.254 446.586L521.83 512.725H731.479V513H863.834V512.84V380.447H873.656V380.351V281.253L914.749 302.207V380.351V380.447H924.827V380.351V302.207L965.919 281.253V380.351V380.447H975.879H975.997V276.115L919.788 247.453L863.834 275.985L863.578 276.115V380.351Z" fill="#E8F0EB" fill-opacity="0.7" />
            <path d="M600.418 260.638V380.36H719.873C719.873 314.239 666.391 260.638 600.418 260.638Z" fill="#E8F0EB" fill-opacity="0.7" />
            <path d="M600.421 309.744H523.039L600.421 247.452H488.001V114.899L375.582 185.256H452.963L375.582 247.547H488.001V380.102L600.421 309.744Z" fill="#E8F0EB" fill-opacity="0.7" />
        </g>
    </g>
    <defs>
        <clipPath id="clip0_374_32869">
            <rect width="976" height="531" fill="white" transform="translate(0 -18)" />
        </clipPath>
    </defs>
</svg>