<svg width="24" height="24" viewBox="0 0 24 24" fill="none" xmlns="http://www.w3.org/2000/svg">
<g clip-path="url(#clip0_1098_118476)">
<path d="M23.6302 10.3788L21.6252 7.04984L12.0002 10.2628L2.35923 7.05084L0.374226 10.3458C0.171667 10.6818 0.0475794 11.0592 0.0112178 11.4498C-0.0251438 11.8405 0.0271595 12.2343 0.164226 12.6018C0.440226 13.3508 1.03423 13.9248 1.79223 14.1778L1.99623 14.2458L1.98923 20.6978L11.9852 24.0298L21.9802 20.6978L21.9882 14.2468L22.2312 14.1658C22.5992 14.0443 22.9349 13.8411 23.2131 13.5715C23.4914 13.3019 23.7051 12.9728 23.8382 12.6088C23.9736 12.2456 24.0252 11.8565 23.9891 11.4706C23.9531 11.0846 23.8304 10.7118 23.6302 10.3798V10.3788ZM1.10223 12.2538C1.01755 12.0267 0.985259 11.7833 1.00777 11.542C1.03028 11.3006 1.10701 11.0674 1.23223 10.8598L2.80323 8.25184L11.2382 11.0628L9.29023 14.3098C9.10575 14.6219 8.81939 14.8609 8.47934 14.9866C8.13929 15.1123 7.76632 15.117 7.42323 14.9998L2.11023 13.2288C1.87967 13.1529 1.6693 13.0257 1.4949 12.8568C1.3205 12.688 1.1866 12.4818 1.10323 12.2538H1.10223ZM11.4852 22.8078L2.98923 19.9758L2.99623 14.5778L7.10623 15.9478C7.66536 16.1376 8.27273 16.1292 8.82644 15.9242C9.38014 15.7192 9.84649 15.33 10.1472 14.8218L11.4922 12.5818L11.4862 22.8068L11.4852 22.8078ZM20.9802 19.9758L12.4852 22.8068L12.4912 12.5788L13.8372 14.8228C14.1394 15.3298 14.606 15.7179 15.1595 15.9226C15.713 16.1273 16.32 16.1362 16.8792 15.9478L20.9872 14.5778L20.9792 19.9748L20.9802 19.9758ZM22.9012 12.2608C22.8195 12.4839 22.6883 12.6856 22.5176 12.8508C22.3468 13.0161 22.1409 13.1405 21.9152 13.2148L16.5632 14.9988C16.2199 15.1154 15.847 15.1105 15.5069 14.9849C15.1669 14.8593 14.8803 14.6206 14.6952 14.3088L12.7502 11.0668L21.1832 8.25284L22.7742 10.8938C23.0232 11.3098 23.0702 11.8078 22.9022 12.2618L22.9012 12.2608ZM5.90523 6.12385L4.84423 5.77084L10.5252 0.0898438L13.3652 2.92984L14.5002 1.79484L18.6422 5.93684L17.5822 6.29084L14.5002 3.20884L10.1652 7.54384L9.10423 7.19085L12.6572 3.63784L10.5242 1.50484L5.90523 6.12385Z" fill="#326B43"/>
</g>
<defs>
<clipPath id="clip0_1098_118476">
<rect width="24" height="24" fill="white"/>
</clipPath>
</defs>
</svg>
