<svg width="40" height="40" viewBox="0 0 40 40" fill="none" xmlns="http://www.w3.org/2000/svg">
<path d="M5 26.6979C5 28.5363 6.495 30.0313 8.33333 30.0313C10.1717 30.0313 11.6667 28.5363 11.6667 26.6979C11.6667 24.8596 10.1717 23.3646 8.33333 23.3646C6.495 23.3646 5 24.8596 5 26.6979ZM10 26.6979C9.9808 27.1271 9.79682 27.5322 9.48636 27.8291C9.1759 28.126 8.7629 28.2917 8.33333 28.2917C7.90377 28.2917 7.49076 28.126 7.1803 27.8291C6.86984 27.5322 6.68586 27.1271 6.66667 26.6979C6.68586 26.2688 6.86984 25.8636 7.1803 25.5667C7.49076 25.2698 7.90377 25.1041 8.33333 25.1041C8.7629 25.1041 9.1759 25.2698 9.48636 25.5667C9.79682 25.8636 9.9808 26.2688 10 26.6979ZM35.8333 5.03125H4.16667C3.062 5.03257 2.00296 5.47199 1.22185 6.2531C0.440735 7.03421 0.00132321 8.09325 0 9.19792L0 35.0313H40C40 34.4019 40 33.4229 40 33.4229C40 33.4229 38.9726 33.3646 38.5938 33.3646H1.66667V15.0313H38.3333C38.3333 15.0313 38.3333 31.5848 38.3333 33.2031C38.3333 34.8215 40 34.7865 40 34.7865V9.19792C40 6.90125 38.1317 5.03125 35.8333 5.03125ZM1.66667 13.3646V9.19792C1.66667 7.81958 2.78833 6.69792 4.16667 6.69792H35.8333C37.2117 6.69792 38.3333 7.81958 38.3333 9.19792V13.3646H1.66667Z" fill="#326B43"/>
</svg>
