<svg xmlns="http://www.w3.org/2000/svg" width="40" height="40" viewBox="0 0 40 40" fill="none">
    <g clip-path="url(#clip0_1_7230)">
        <path d="M30 13.3333C33.6767 13.3333 36.6667 10.3433 36.6667 6.66667C36.6667 2.99 33.6767 0 30 0C26.3233 0 23.3333 2.99 23.3333 6.66667C23.3333 10.3433 26.3233 13.3333 30 13.3333ZM30 1.66667C32.7567 1.66667 35 3.91 35 6.66667C35 9.42333 32.7567 11.6667 30 11.6667C27.2433 11.6667 25 9.42333 25 6.66667C25 3.91 27.2433 1.66667 30 1.66667ZM13.3333 18.3333C13.3333 22.01 16.3233 25 20 25C23.6767 25 26.6667 22.01 26.6667 18.3333C26.6667 14.6567 23.6767 11.6667 20 11.6667C16.3233 11.6667 13.3333 14.6567 13.3333 18.3333ZM20 13.3333C22.7567 13.3333 25 15.5767 25 18.3333C25 21.09 22.7567 23.3333 20 23.3333C17.2433 23.3333 15 21.09 15 18.3333C15 15.5767 17.2433 13.3333 20 13.3333ZM10 13.3333C13.6767 13.3333 16.6667 10.3433 16.6667 6.66667C16.6667 2.99 13.6767 0 10 0C6.32333 0 3.33333 2.99 3.33333 6.66667C3.33333 10.3433 6.32333 13.3333 10 13.3333ZM10 1.66667C12.7567 1.66667 15 3.91 15 6.66667C15 9.42333 12.7567 11.6667 10 11.6667C7.24333 11.6667 5 9.42333 5 6.66667C5 3.91 7.24333 1.66667 10 1.66667ZM30 33.3333C30 30.5767 27.7567 28.3333 25 28.3333H15C12.2433 28.3333 10 30.5767 10 33.3333V38.3333H0V40H40V38.3333H30V33.3333ZM11.6667 33.3333C11.6667 31.495 13.1617 30 15 30H25C26.8383 30 28.3333 31.495 28.3333 33.3333V38.3333H11.6667V33.3333ZM40 21.6667V28.3333H38.3333V21.6667C38.3333 19.8283 36.8383 18.3333 35 18.3333H30C30 17.765 29.9417 17.21 29.85 16.6667H35C37.7567 16.6667 40 18.91 40 21.6667ZM1.66667 28.3333H0V21.6667C0 18.91 2.24333 16.6667 5 16.6667H10.15C10.0583 17.21 10 17.765 10 18.3333H5C3.16167 18.3333 1.66667 19.8283 1.66667 21.6667V28.3333Z" fill="#326B43" />
    </g>
    <defs>
        <clipPath id="clip0_1_7230">
            <rect width="40" height="40" fill="white" />
        </clipPath>
    </defs>
    </svg>