<svg xmlns="http://www.w3.org/2000/svg" width="40" height="40" viewBox="0 0 40 40" fill="none">
    <g clip-path="url(#clip0_398_28600)">
        <path d="M14.1667 8.33333C16.465 8.33333 18.3333 6.465 18.3333 4.16667C18.3333 1.86833 16.465 0 14.1667 0C11.8683 0 10 1.86833 10 4.16667C10 6.465 11.8683 8.33333 14.1667 8.33333ZM14.1667 1.66667C15.545 1.66667 16.6667 2.78833 16.6667 4.16667C16.6667 5.545 15.545 6.66667 14.1667 6.66667C12.7883 6.66667 11.6667 5.545 11.6667 4.16667C11.6667 2.78833 12.7883 1.66667 14.1667 1.66667ZM8.33333 16.6667H6.66667V14.1667C6.66667 11.8683 8.535 10 10.8333 10H17.5C19.7983 10 21.6667 11.8683 21.6667 14.1667V16.6667H20V14.1667C20 12.7883 18.8783 11.6667 17.5 11.6667H10.8333C9.455 11.6667 8.33333 12.7883 8.33333 14.1667V16.6667ZM38.635 16.09C38.2285 15.7197 37.753 15.4333 37.2356 15.2471C36.7182 15.0609 36.1692 14.9787 35.62 15.005C35.0708 15.0287 34.5318 15.1613 34.0342 15.395C33.5367 15.6288 33.0905 15.959 32.7217 16.3667L26.5017 23.205C26.2392 22.2829 25.6836 21.4714 24.9189 20.8932C24.1542 20.3149 23.222 20.0014 22.2633 20H4.16667C3.06187 20.0009 2.00257 20.4402 1.22136 21.2214C0.440153 22.0026 0.000882779 23.0619 0 24.1667L0 35.8333C0 38.1317 1.86833 40 4.16667 40H22.875L38.9383 21.9717C39.6688 21.1475 40.0462 20.0694 39.9895 18.9696C39.9328 17.8698 39.4463 16.8346 38.635 16.09ZM37.695 20.86L22.1267 38.3317H4.16667C2.78833 38.3317 1.66667 37.21 1.66667 35.8317V24.165C1.66667 22.7867 2.78833 21.665 4.16667 21.665H22.2617C23.77 21.665 25 22.8933 25 24.4033C25 25.7567 23.9917 26.9217 22.6617 27.11L13.2267 28.3383L13.4417 29.9917L22.8867 28.7617C23.7074 28.6406 24.4777 28.2917 25.11 27.7546C25.7423 27.2175 26.2112 26.5137 26.4633 25.7233L33.9567 17.49C34.1782 17.2443 34.4464 17.0452 34.7458 16.9044C35.0451 16.7636 35.3695 16.6839 35.7 16.67C36.375 16.6383 37.015 16.87 37.5133 17.3233C38.5283 18.25 38.61 19.8367 37.695 20.8617V20.86Z" fill="#326B43" />
    </g>
    <defs>
        <clipPath id="clip0_398_28600">
            <rect width="40" height="40" fill="white" />
        </clipPath>
    </defs>
</svg>