<svg xmlns="http://www.w3.org/2000/svg" width="24" height="24" viewBox="0 0 24 24">
    <path d="M24 10.5C24 8.019 21.981 6 19.5 6H17V3.5C17 2.122 15.879 1 14.5 1H12V2H14.5C15.327 2 16 2.673 16 3.5V18H1V12H0V19H2.176C2.05938 19.3205 1.99982 19.6589 2 20C2 21.654 3.346 23 5 23C6.654 23 8 21.654 8 20C8 19.656 7.94 19.319 7.824 19H16.176C16.0594 19.3205 15.9998 19.6589 16 20C16 21.654 17.346 23 19 23C20.654 23 22 21.654 22 20C22 19.656 21.94 19.319 21.824 19H24V10.5ZM7 20C7 21.103 6.103 22 5 22C3.897 22 3 21.103 3 20C3 19.648 3.095 19.307 3.277 19H6.723C6.905 19.307 7 19.648 7 20ZM19.5 7C21.43 7 23 8.57 23 10.5V12H17V7H19.5ZM21 20C21 21.103 20.103 22 19 22C17.897 22 17 21.103 17 20C17 19.648 17.095 19.307 17.277 19H20.723C20.905 19.307 21 19.648 21 20ZM17 18V13H23V18H17ZM10 2H0V1H10V2ZM8 6H0V5H8V6ZM6 10H0V9H6V10Z" fill="#326b43" />
</svg>