<svg xmlns="http://www.w3.org/2000/svg" width="16" height="16" viewBox="0 0 16 16">
    <path d="M8.00016 1.33301C4.32016 1.33301 1.3335 4.31967 1.3335 7.99967C1.3335 11.6797 4.32016 14.6663 8.00016 14.6663C11.6802 14.6663 14.6668 11.6797 14.6668 7.99967C14.6668 4.31967 11.6802 1.33301 8.00016 1.33301ZM5.82016 5.10634C6.36016 5.10634 6.80683 5.54634 6.80683 6.09301C6.80683 6.63301 6.36683 7.07967 5.82016 7.07967C5.28016 7.07967 4.8335 6.63967 4.8335 6.09301C4.8335 5.54634 5.2735 5.10634 5.82016 5.10634ZM5.90016 10.533C5.80016 10.633 5.6735 10.6797 5.54683 10.6797C5.42016 10.6797 5.2935 10.633 5.1935 10.533C5.00016 10.3397 5.00016 10.0197 5.1935 9.82634L9.56016 5.45967C9.7535 5.26634 10.0735 5.26634 10.2668 5.45967C10.4602 5.65301 10.4602 5.97301 10.2668 6.16634L5.90016 10.533ZM10.1802 10.893C9.64016 10.893 9.1935 10.453 9.1935 9.90634C9.1935 9.36634 9.6335 8.91967 10.1802 8.91967C10.7202 8.91967 11.1668 9.35967 11.1668 9.90634C11.1668 10.453 10.7268 10.893 10.1802 10.893Z" fill="#fe3b3b" />
</svg>