<svg xmlns="http://www.w3.org/2000/svg" width="40" height="40" viewBox="0 0 40 40" fill="none">
    <g clip-path="url(#clip0_1_7218)">
        <path d="M38.635 16.0921C37.8114 15.3484 36.7286 14.9582 35.62 15.0054C35.0708 15.0299 34.5318 15.163 34.0344 15.397C33.5369 15.631 33.0907 15.9613 32.7217 16.3688L26.5017 23.2054C26.2392 22.2834 25.6836 21.4718 24.9189 20.8936C24.1542 20.3153 23.222 20.0018 22.2633 20.0004H4.16667C3.06187 20.0013 2.00257 20.4406 1.22136 21.2218C0.440153 22.003 0.000882779 23.0623 0 24.1671L0 35.8338C0 38.1321 1.86833 40.0004 4.16667 40.0004H22.875L38.9383 21.9721C39.6688 21.1479 40.0462 20.0698 39.9895 18.97C39.9328 17.8703 39.4463 16.8367 38.635 16.0921ZM37.695 20.8621L22.1267 38.3338H4.16667C2.78833 38.3338 1.66667 37.2121 1.66667 35.8338V24.1671C1.66667 22.7888 2.78833 21.6671 4.16667 21.6671H22.2617C23.77 21.6671 25 22.8954 25 24.4054C25 25.7588 23.9917 26.9238 22.6617 27.1121L13.2267 28.3404L13.4417 29.9938L22.8867 28.7638C23.7074 28.6427 24.4777 28.2938 25.11 27.7567C25.7423 27.2196 26.2112 26.5158 26.4633 25.7254L33.9567 17.4904C34.1786 17.2452 34.4469 17.0465 34.7462 16.9058C35.0454 16.765 35.3696 16.685 35.7 16.6704C36.37 16.6371 37.0167 16.8704 37.5133 17.3254C38.5283 18.2504 38.61 19.8354 37.695 20.8621ZM1.42333 5.14877C2.70333 7.74043 4.295 10.9654 7.21 12.5654C8.14 13.0754 9.16833 13.3321 10.3667 13.3321C10.835 13.3321 12.125 13.2888 13.7683 12.2254C14.6667 13.9421 15.0033 15.5454 15.0033 16.6671H16.67C16.67 15.4471 17.2583 12.9954 19.3233 11.4088C19.7596 11.9996 20.3273 12.4808 20.9816 12.8143C21.636 13.1479 22.3589 13.3246 23.0933 13.3304C23.8783 13.3304 24.6717 13.1371 25.4033 12.7288C27.59 11.5054 29.6017 9.22377 31.3767 5.94877L31.7683 5.22543L31.05 4.82377C30.825 4.69877 25.5133 1.78877 20.7667 4.44043C19.8244 4.96291 19.0893 5.79215 18.6836 6.7903C18.2779 7.78846 18.2261 8.89539 18.5367 9.9271C17.4271 10.7245 16.5317 11.7837 15.93 13.0104C15.6855 12.3672 15.3942 11.7427 15.0583 11.1421C15.335 10.8321 15.595 10.4804 15.8333 10.0771C16.246 9.37966 16.5131 8.60585 16.6185 7.80237C16.7239 6.99889 16.6654 6.18238 16.4467 5.4021C16.2234 4.58861 15.8377 3.82874 15.313 3.16823C14.7882 2.50772 14.1353 1.96024 13.3933 1.55877C6.83667 -2.04123 0.916667 1.92543 0.666667 2.09543L0.0366667 2.52877C0.0366667 2.52877 1.075 4.44543 1.42333 5.14877ZM20.1183 7.74543C20.3417 6.95377 20.86 6.29543 21.58 5.89543C22.7567 5.23543 24.0033 5.00543 25.1717 5.00543C26.9617 5.00543 28.5717 5.5471 29.475 5.92377C28.3433 7.85043 26.6767 10.1054 24.5867 11.2738C23.873 11.6718 23.0306 11.7705 22.2442 11.5484C21.4578 11.3262 20.7916 10.8013 20.3917 10.0888C19.99 9.37043 19.8917 8.53877 20.1167 7.7471L20.1183 7.74543ZM12.5933 3.02043C13.71 3.6321 14.5067 4.63543 14.84 5.84377C14.9989 6.40911 15.0417 7.00079 14.9658 7.58312C14.8899 8.16545 14.6969 8.72638 14.3983 9.2321C14.3083 9.38543 14.2033 9.5021 14.105 9.6371C12.6 7.56043 10.31 5.50377 6.93 3.94377L6.23333 5.4571C9.44167 6.9371 11.55 8.8821 12.8983 10.8071C12.1395 11.3106 11.2621 11.6065 10.3533 11.6654C9.53755 11.677 8.73188 11.4839 8.01 11.1038C5.555 9.7571 4.155 6.9171 2.91667 4.41043C2.69 3.95377 2.47167 3.51043 2.25667 3.09543C3.83167 2.2671 8.07833 0.5421 12.5933 3.02043Z" fill="#326B43" />
    </g>
    <defs>
        <clipPath id="clip0_1_7218">
            <rect width="40" height="40" fill="white" />
        </clipPath>
    </defs>
    </svg>