<svg xmlns="http://www.w3.org/2000/svg" width="16" height="16" viewBox="0 0 16 16">
    <path fill-rule="evenodd" clip-rule="evenodd" d="M6.80472 2.17804C7.0137 1.81312 7.37078 1.33032 8.00008 1.33032C8.62939 1.33032 8.98647 1.81312 9.19544 2.17804C9.41439 2.56038 9.63378 3.10828 9.89066 3.74979L9.93565 3.86214C10.0953 4.26069 10.1971 4.51285 10.2942 4.69787C10.3842 4.86934 10.4444 4.93103 10.4936 4.96767C10.5428 5.00427 10.6189 5.04417 10.8085 5.08104C11.0132 5.12085 11.2835 5.14591 11.7105 5.18422L11.912 5.20229C12.5443 5.25896 13.0913 5.30799 13.4947 5.40334C13.8912 5.49706 14.417 5.69521 14.6076 6.26279C14.798 6.82994 14.499 7.30542 14.2398 7.61988C13.976 7.93992 13.5698 8.30998 13.1001 8.73791L12.7262 9.07867C12.4634 9.31813 12.2977 9.46986 12.1798 9.59766C12.0702 9.71645 12.0348 9.78048 12.0164 9.82764C12.0048 9.85723 11.9952 9.88755 11.9876 9.91841C11.9755 9.96764 11.9676 10.0405 11.9888 10.201C12.0117 10.3736 12.0598 10.5933 12.1367 10.9407L12.1917 11.189C12.3213 11.7739 12.4303 12.2659 12.4729 12.6437C12.5113 12.9847 12.5345 13.4874 12.2002 13.8602C12.0254 14.0552 11.798 14.1958 11.5452 14.2648C11.0615 14.397 10.6224 14.1499 10.3354 13.9625C10.0174 13.7548 9.62729 13.4364 9.16368 13.058L9.13268 13.0327C8.8011 12.7621 8.58784 12.589 8.41303 12.4719C8.2481 12.3614 8.16726 12.3361 8.11416 12.3276C8.03859 12.3155 7.96158 12.3155 7.88601 12.3276C7.83291 12.3361 7.75206 12.3614 7.58714 12.4719C7.41232 12.589 7.19907 12.7621 6.86749 13.0327L6.83647 13.0581C6.37286 13.4365 5.98281 13.7548 5.66475 13.9625C5.37777 14.1499 4.93863 14.397 4.45493 14.2648C4.20217 14.1958 3.97479 14.0552 3.79993 13.8602C3.46566 13.4874 3.48888 12.9847 3.52731 12.6437C3.56988 12.2659 3.67887 11.7739 3.80845 11.189L3.86346 10.9407C3.94041 10.5933 3.98849 10.3736 4.01134 10.201C4.03259 10.0405 4.02467 9.96764 4.01256 9.91841C4.00496 9.88755 3.99536 9.85723 3.98381 9.82764C3.96541 9.78048 3.93 9.71645 3.82037 9.59766C3.70243 9.46986 3.53678 9.31813 3.27399 9.07867L2.90005 8.73792C2.43037 8.30998 2.02421 7.93993 1.76039 7.61988C1.50118 7.30542 1.20215 6.82994 1.39259 6.26279C1.58318 5.69521 2.109 5.49706 2.50551 5.40334C2.90891 5.30799 3.45588 5.25896 4.0882 5.20229C4.10544 5.20074 4.12274 5.19919 4.14011 5.19763L4.28962 5.18422C4.71669 5.14591 4.98697 5.12085 5.19168 5.08104C5.38126 5.04417 5.4574 5.00427 5.50654 4.96767C5.55574 4.93103 5.61596 4.86934 5.70595 4.69787C5.80304 4.51285 5.90491 4.26069 6.06452 3.86214L6.09 3.79852C6.09653 3.78222 6.10303 3.76597 6.10951 3.74979C6.36639 3.10828 6.58578 2.56038 6.80472 2.17804Z" fill="#E6B017" />
</svg>