<svg xmlns="http://www.w3.org/2000/svg" width="12" height="12" viewBox="0 0 12 12" fill="none">
    <path d="M0.292875 10.2929C-0.097625 10.6834 -0.097625 11.3166 0.292875 11.7071C0.683375 12.0976 1.31657 12.0976 1.70707 11.7071L0.292875 10.2929ZM12 1C12 0.4477 11.5523 0 11 0H1.99997C1.44767 0 0.999975 0.4477 0.999975 1C0.999975 1.5523 1.44767 2 1.99997 2H9.99998V10C9.99998 10.5523 10.4477 11 11 11C11.5523 11 12 10.5523 12 10V1ZM1.70707 11.7071L11.7071 1.7071L10.2929 0.2929L0.292875 10.2929L1.70707 11.7071Z" fill="white" />
</svg>