<svg xmlns="http://www.w3.org/2000/svg" width="32" height="32" viewBox="0 0 32 32" fill="none">
    <rect width="32" height="32" rx="16" fill="#769882" />
    <path d="M19.7815 13.851C19.728 13.7961 19.7548 13.8235 19.7815 13.851V13.851ZM15.5278 24.749V6.76863L12.906 9.89804H14.6182L11.5415 14.2902H13.6283L10.2306 19.3137H13.9761H14.2971V19.6431V25.2431L15.5278 24.749ZM18.0158 19.3137C18.1228 19.3137 18.2298 19.3137 18.3368 19.3137C18.5241 19.3137 18.7381 19.3137 18.9254 19.2863C19.1929 19.2863 19.4605 19.2314 19.6745 19.149C19.9153 19.0667 20.1025 18.9843 20.2898 18.8745C20.3166 18.8471 20.3701 18.8471 20.3701 18.8196C20.8784 18.4902 21.1727 17.9137 21.2797 17.3373C21.3867 16.7333 21.3064 16.102 21.0389 15.6353C21.0121 15.6078 21.0121 15.5804 20.9854 15.5529C20.8516 15.3333 20.6644 15.1137 20.4503 14.949C20.2631 14.7843 20.0223 14.6471 19.7548 14.5647C19.7548 14.5647 19.728 14.5647 19.6745 14.5373C19.5675 14.5098 19.514 14.4824 19.4337 14.4549C19.0859 14.2627 19.0859 14.098 19.3267 13.6314C19.3802 13.5216 19.4337 13.4118 19.4605 13.3294C19.6745 12.7255 19.7012 12.1216 19.514 11.6C19.3535 11.0784 18.9789 10.6392 18.4974 10.3647C18.4171 10.3373 18.3368 10.2824 18.2566 10.2549C17.8018 10.0902 17.7215 10.0078 17.8553 9.65098C17.882 9.59608 17.882 9.56863 17.9088 9.51373C17.9355 9.48627 17.9623 9.43137 17.989 9.34902C18.0961 9.07451 18.1228 8.77255 18.0961 8.47059C18.0693 8.14118 17.9623 7.78431 17.775 7.5098C17.5877 7.23529 17.3202 6.98824 16.9457 6.82353C16.7049 6.74118 16.4374 6.68627 16.0896 6.65882V24.749L17.2667 25.2431V19.6431V19.3137H18.0158ZM15.6348 6H16.0628H16.2233H16.2501C16.6246 6.02745 16.9457 6.08235 17.24 6.19216C17.7483 6.38431 18.1228 6.71373 18.3903 7.12549C18.6579 7.5098 18.7916 7.97647 18.8184 8.41569C18.8451 8.82745 18.7916 9.23922 18.6579 9.56863C18.6579 9.59608 18.6311 9.62353 18.6311 9.62353C18.7114 9.65098 18.7649 9.67843 18.8451 9.73333C19.4872 10.0902 19.942 10.6667 20.1828 11.3255C20.3968 11.9843 20.3968 12.7529 20.1025 13.5216C20.049 13.6314 19.9955 13.7686 19.942 13.8784L19.9955 13.9059C20.3433 14.0157 20.6376 14.2078 20.8784 14.4C21.1459 14.6196 21.3867 14.8941 21.5472 15.1961C21.574 15.251 21.6007 15.2784 21.6275 15.3059C21.9485 15.9098 22.0823 16.7059 21.9485 17.4471C21.8147 18.2157 21.4134 18.9294 20.7446 19.3686C20.6911 19.3961 20.6644 19.4235 20.6376 19.451C20.3968 19.5882 20.156 19.698 19.8885 19.7804C19.621 19.8627 19.2999 19.9176 18.9789 19.9451C18.7916 19.9451 18.6044 19.9726 18.3903 19.9726C18.2833 19.9726 18.1763 19.9726 18.0693 19.9726V25.9569L15.9023 27L13.7353 25.9569V19.9726H9.61532H9L9.34779 19.451L12.3441 14.949H10.2306L13.3073 10.5569H11.4613L15.0462 6.27451C15.2602 6.02745 15.3672 6 15.6348 6ZM14.5646 25.8196L15.822 26.2863L17.1597 25.8196L15.822 25.3529L14.5646 25.8196Z" fill="white" />
</svg>