<svg xmlns="http://www.w3.org/2000/svg" width="32" height="32" viewBox="0 0 32 32" fill="none">
    <path d="M15.9993 0C12.4643 0.00388213 9.07519 1.40989 6.57555 3.90953C4.0759 6.40917 2.6699 9.7983 2.66602 13.3333C2.66602 20.376 13.866 30.044 15.138 31.124L15.9993 31.852L16.8607 31.124C18.1327 30.044 29.3327 20.376 29.3327 13.3333C29.3288 9.7983 27.9228 6.40917 25.4232 3.90953C22.9235 1.40989 19.5344 0.00388213 15.9993 0ZM15.9993 20C14.6808 20 13.3919 19.609 12.2955 18.8765C11.1992 18.1439 10.3447 17.1027 9.84015 15.8846C9.33557 14.6664 9.20355 13.3259 9.46078 12.0327C9.71801 10.7395 10.353 9.55164 11.2853 8.61929C12.2177 7.68694 13.4055 7.052 14.6987 6.79476C15.992 6.53753 17.3324 6.66955 18.5506 7.17414C19.7687 7.67872 20.8099 8.5332 21.5425 9.62953C22.275 10.7259 22.666 12.0148 22.666 13.3333C22.6639 15.1008 21.9608 16.7953 20.7111 18.045C19.4613 19.2948 17.7668 19.9979 15.9993 20Z" fill="#769882" />
    <path d="M16 17.332C18.2091 17.332 20 15.5412 20 13.332C20 11.1229 18.2091 9.33203 16 9.33203C13.7909 9.33203 12 11.1229 12 13.332C12 15.5412 13.7909 17.332 16 17.332Z" fill="#769882" />
    </svg>