<svg width="24" height="24" viewBox="0 0 24 24" fill="none" xmlns="http://www.w3.org/2000/svg">
<g clip-path="url(#clip0_1098_118481)">
<path d="M17 0.5C17 3.532 14.532 6 11.5 6H2.5C1.8372 6.00079 1.20178 6.26444 0.73311 6.73311C0.264441 7.20178 0.000793929 7.8372 0 8.5L0 12.5C0 13.535 0.632 14.424 1.529 14.804L5.617 24H7.747C8.512 24 9.218 23.617 9.635 22.976C10.052 22.334 10.115 21.535 9.804 20.835L7.211 15H11.5C14.532 15 17 17.468 17 20.5V21H18V0H17V0.5ZM8.89 21.241C8.97647 21.4309 9.0132 21.6397 8.99676 21.8477C8.98032 22.0557 8.91123 22.2561 8.796 22.43C8.68381 22.6061 8.52865 22.7507 8.34513 22.8502C8.16161 22.9498 7.95577 23.001 7.747 22.999H6.266L2.711 14.999H6.116L8.89 21.241ZM17 17.04C16.4149 16.1097 15.6036 15.3429 14.6417 14.8113C13.6799 14.2797 12.599 14.0005 11.5 14H2.5C1.673 14 1 13.327 1 12.5V8.5C1 7.673 1.673 7 2.5 7H11.5C12.599 6.99947 13.6799 6.72035 14.6417 6.18872C15.6036 5.65708 16.4149 4.89029 17 3.96V17.04ZM21.065 12.858L23.353 15.146L22.646 15.853L20.358 13.565L21.065 12.858ZM21.103 8.103L20.396 7.396L22.646 5.146L23.353 5.853L21.103 8.103ZM23.999 9.999V10.999H20.999V9.999H23.999Z" fill="#326B43"/>
</g>
<defs>
<clipPath id="clip0_1098_118481">
<rect width="24" height="24" fill="white"/>
</clipPath>
</defs>
</svg>
