<svg xmlns="http://www.w3.org/2000/svg" width="40" height="40" viewBox="0 0 40 40" fill="none">
    <g clip-path="url(#clip0_398_28577)">
        <path d="M40 17.4993C40 13.3643 36.635 9.99935 32.5 9.99935H28.3333V5.83268C28.3333 3.53602 26.465 1.66602 24.1667 1.66602H4.16667C3.062 1.66734 2.00296 2.10675 1.22185 2.88787C0.440735 3.66898 0.00132321 4.72802 0 5.83268L0 31.666H3.63333C3.44 32.1993 3.33333 32.7577 3.33333 33.3327C3.33333 36.0893 5.57667 38.3327 8.33333 38.3327C11.09 38.3327 13.3333 36.0893 13.3333 33.3327C13.3333 32.7577 13.2267 32.1993 13.0333 31.666H26.965C26.7717 32.1993 26.665 32.7577 26.665 33.3327C26.665 36.0893 28.9083 38.3327 31.665 38.3327C34.4217 38.3327 36.665 36.0893 36.665 33.3327C36.665 32.7577 36.5583 32.1993 36.365 31.666H39.9983L40 17.4993ZM32.5 11.666C35.7167 11.666 38.3333 14.2827 38.3333 17.4993V19.9993H28.3333V11.666H32.5ZM11.6667 33.3327C11.6667 35.171 10.1717 36.666 8.33333 36.666C6.495 36.666 5 35.171 5 33.3327C5 32.741 5.19833 32.181 5.50667 31.666H11.16C11.4683 32.181 11.6667 32.741 11.6667 33.3327ZM26.6667 29.9993H1.66667V5.83268C1.66667 4.45435 2.78833 3.33268 4.16667 3.33268H24.1667C25.545 3.33268 26.6667 4.45435 26.6667 5.83268V29.9993ZM35 33.3327C35 35.171 33.505 36.666 31.6667 36.666C29.8283 36.666 28.3333 35.171 28.3333 33.3327C28.3333 32.741 28.5317 32.181 28.84 31.666H34.4933C34.8017 32.181 35 32.741 35 33.3327ZM28.3333 29.9993V21.666H38.3333V29.9993H28.3333ZM21.9167 11.0843L23.095 12.2627L14.425 20.9343C14.1928 21.1669 13.917 21.3514 13.6135 21.4773C13.3099 21.6032 12.9845 21.668 12.6558 21.668C12.3272 21.668 12.0018 21.6032 11.6982 21.4773C11.3946 21.3514 11.1189 21.1669 10.8867 20.9343L5.23333 15.636L6.37333 14.421L12.045 19.7377C12.1222 19.8183 12.2147 19.8828 12.317 19.9274C12.4194 19.972 12.5295 19.9959 12.6412 19.9976C12.7528 19.9993 12.8637 19.9788 12.9673 19.9374C13.071 19.8959 13.1654 19.8342 13.245 19.756L21.9167 11.0843Z" fill="#326B43" />
    </g>
    <defs>
        <clipPath id="clip0_398_28577">
            <rect width="40" height="40" fill="white" />
        </clipPath>
    </defs>
</svg>