<svg xmlns="http://www.w3.org/2000/svg" width="40" height="40" viewBox="0 0 40 40" fill="none">
    <path d="M10.7683 24.445L11.9283 23.25L16.9017 28.08C17.058 28.2383 17.2708 28.328 17.4933 28.3296C17.7157 28.3311 17.9298 28.2444 18.0883 28.0883L27.7483 18.5717L28.9167 19.76L19.2633 29.2717C18.7942 29.7389 18.1589 30.0009 17.4968 30.0003C16.8347 29.9997 16.1999 29.7364 15.7317 29.2683L10.7683 24.445ZM40 13.3333H38.3333V40H1.66667V13.3333H0V4.16667C0 1.86833 1.87 0 4.16667 0H35.8333C38.1317 0 40 1.86833 40 4.16667V13.3333ZM36.6667 13.3333H3.33333V38.3333H36.6667V13.3333ZM38.3333 4.16667C38.3333 2.78833 37.2117 1.66667 35.8333 1.66667H4.16667C2.78833 1.66667 1.66667 2.78833 1.66667 4.16667V11.6667H38.3333V4.16667Z" fill="#326B43" />
</svg>