<svg width="40" height="40" viewBox="0 0 40 40" fill="none" xmlns="http://www.w3.org/2000/svg">
<path d="M1.66667 4.16667C1.66667 5.545 2.78833 6.66667 4.16667 6.66667H40V33.3333H22.35C22.18 32.7667 21.9783 32.215 21.7683 31.6667H38.3333V8.33333H4.16667C3.26205 8.33064 2.38348 8.03017 1.66667 7.47833V16.75C1.11333 16.71 0.563333 16.665 0 16.665V4.16667C0 1.87 1.86833 0 4.16667 0H40V1.66667H4.16667C2.78833 1.66667 1.66667 2.78833 1.66667 4.16667ZM0 28.3333V30C5.515 30 10 34.485 10 40H11.6667C11.6667 33.5667 6.43167 28.3333 0 28.3333ZM0 20V21.6667C10.1083 21.6667 18.3333 29.8917 18.3333 40H20C20 28.9717 11.0283 20 0 20ZM1.66667 36.6667C1.22464 36.6667 0.800716 36.8423 0.488155 37.1548C0.175595 37.4674 0 37.8913 0 38.3333C0 38.7754 0.175595 39.1993 0.488155 39.5118C0.800716 39.8244 1.22464 40 1.66667 40C2.10869 40 2.53262 39.8244 2.84518 39.5118C3.15774 39.1993 3.33333 38.7754 3.33333 38.3333C3.33333 37.8913 3.15774 37.4674 2.84518 37.1548C2.53262 36.8423 2.10869 36.6667 1.66667 36.6667ZM35 20C35 19.558 34.8244 19.134 34.5118 18.8215C34.1993 18.5089 33.7754 18.3333 33.3333 18.3333C32.8913 18.3333 32.4674 18.5089 32.1548 18.8215C31.8423 19.134 31.6667 19.558 31.6667 20C31.6667 20.442 31.8423 20.8659 32.1548 21.1785C32.4674 21.4911 32.8913 21.6667 33.3333 21.6667C33.7754 21.6667 34.1993 21.4911 34.5118 21.1785C34.8244 20.8659 35 20.442 35 20Z" fill="#326B43"/>
</svg>
