<svg xmlns="http://www.w3.org/2000/svg" xmlns:xlink="http://www.w3.org/1999/xlink" viewBox="0 0 300 300">
    <style>:root>svg{display:none}:root>svg:target{display:block}</style>
    <svg id="logo" xmlns="http://www.w3.org/2000/svg" viewBox="0 0 216 52">
        <path d="M27.2878 19.4405C27.1523 19.3046 27.2201 19.3725 27.2878 19.4405V19.4405ZM16.5216 46.4261V1.90327L9.88589 9.65229H14.2194L6.4326 20.5281H11.7141L3.11473 32.9673H12.5944H13.4069V33.783V47.6497L16.5216 46.4261ZM22.8188 32.9673C23.0897 32.9673 23.3605 32.9673 23.6313 32.9673C24.1053 32.9673 24.647 32.9673 25.121 32.8993C25.7981 32.8993 26.4752 32.7634 27.0169 32.5595C27.6263 32.3556 28.1003 32.1516 28.5743 31.8797C28.642 31.8118 28.7774 31.8118 28.7774 31.7438C30.0639 30.9281 30.8088 29.5007 31.0796 28.0732C31.3505 26.5778 31.1473 25.0144 30.4702 23.8588C30.4025 23.7908 30.4025 23.7229 30.3348 23.6549C29.9962 23.1111 29.5223 22.5673 28.9806 22.1595C28.5066 21.7516 27.8972 21.4118 27.2201 21.2078C27.2201 21.2078 27.1524 21.2078 27.0169 21.1399C26.7461 21.0719 26.6107 21.0039 26.4075 20.9359C25.5273 20.4601 25.5273 20.0523 26.1367 18.8967C26.2721 18.6248 26.4075 18.3529 26.4752 18.149C27.0169 16.6536 27.0846 15.1582 26.6107 13.8667C26.2044 12.5752 25.2564 11.4876 24.0376 10.8078C23.8345 10.7399 23.6313 10.6039 23.4282 10.5359C22.2771 10.1281 22.074 9.92418 22.4125 9.04052C22.4802 8.90458 22.4802 8.8366 22.548 8.70065C22.6157 8.63268 22.6834 8.49673 22.7511 8.29281C23.0219 7.61307 23.0897 6.86536 23.0219 6.11765C22.9542 5.30196 22.6834 4.4183 22.2094 3.73856C21.7354 3.05882 21.0583 2.44706 20.1103 2.03922C19.5009 1.83529 18.8238 1.69935 17.9436 1.63137V46.4261L20.9229 47.6497V33.783V32.9673H22.8188ZM16.7925 0H17.8759H18.2821H18.3498C19.2978 0.0679739 20.1103 0.203922 20.8552 0.475817C22.1417 0.951634 23.0897 1.76732 23.7668 2.78693C24.4439 3.73856 24.7824 4.89412 24.8502 5.9817C24.9179 7.00131 24.7824 8.02092 24.4439 8.8366C24.4439 8.90458 24.3762 8.97255 24.3762 8.97255C24.5793 9.04052 24.7147 9.1085 24.9179 9.24444C26.5429 10.1281 27.694 11.5556 28.3034 13.1869C28.8451 14.8183 28.8451 16.7216 28.1003 18.6248C27.9649 18.8967 27.8295 19.2366 27.694 19.5085L27.8295 19.5765C28.7097 19.8484 29.4545 20.3242 30.0639 20.8C30.7411 21.3438 31.3505 22.0235 31.7567 22.7712C31.8245 22.9072 31.8922 22.9752 31.9599 23.0431C32.7724 24.5386 33.111 26.5098 32.7724 28.3451C32.4339 30.2484 31.4182 32.0157 29.7254 33.1033C29.59 33.1712 29.5223 33.2392 29.4545 33.3072C28.8451 33.6471 28.2357 33.919 27.5586 34.1229C26.8815 34.3268 26.069 34.4627 25.2564 34.5307C24.7824 34.5307 24.3085 34.5987 23.7668 34.5987C23.4959 34.5987 23.2251 34.5987 22.9542 34.5987V49.417L17.4696 52L11.985 49.417V34.5987H1.55737H0L0.880251 33.3072L8.46395 22.1595H3.11473L10.9016 11.2837H6.22947L15.3028 0.679739C15.8445 0.0679739 16.1154 0 16.7925 0ZM14.084 49.0771L17.2665 50.2327L20.652 49.0771L17.2665 47.9216L14.084 49.0771Z" />
        <path d="M67.3737 0.204102H68.3894H72.3167H82.6088C82.812 0.204102 82.9474 0.340049 82.9474 0.543971L81.39 5.57404C81.3223 5.70998 81.2546 5.91391 81.0515 5.91391H72.7229V14.6146H80.5775C80.7806 14.6146 80.916 14.7505 80.916 14.9544V19.9845C80.916 20.1884 80.7806 20.3244 80.5775 20.3244H72.7229V29.025H81.0515C81.2546 29.025 81.3223 29.161 81.39 29.3649L82.9474 34.395C83.0151 34.5309 82.812 34.7348 82.6088 34.7348H72.3844H68.3894H67.3737C67.1706 34.7348 67.0352 34.5989 67.0352 34.395V0.543971C67.0352 0.340049 67.1706 0.204102 67.3737 0.204102Z" />
        <path d="M203.27 0.203716H208.281H210.041H215.661C215.865 0.203716 216 0.339664 216 0.543585L214.443 5.57365C214.375 5.7096 214.307 5.91352 214.104 5.91352H210.041H208.552V34.2586C208.552 34.4625 208.416 34.5985 208.213 34.5985H203.202C202.999 34.5985 202.864 34.4625 202.864 34.2586V5.84555H201.374H197.312C197.108 5.84555 197.041 5.7096 196.973 5.50568L195.416 0.475611C195.348 0.339664 195.551 0.135742 195.754 0.135742H201.374H203.27V0.203716Z" />
        <path d="M107.257 0.204102H112.267C112.47 0.204102 112.606 0.340049 112.606 0.543971V11.2159L118.294 0.611945C118.361 0.408023 118.632 0.272075 118.768 0.272075H123.981C124.184 0.272075 124.252 0.408023 124.117 0.611945L116.059 15.6342L124.184 34.191C124.252 34.395 124.184 34.5309 123.981 34.5309H118.768C118.564 34.5309 118.361 34.395 118.294 34.191L112.606 21.1401V34.259C112.606 34.4629 112.47 34.5989 112.267 34.5989H107.257C107.053 34.5989 106.918 34.4629 106.918 34.259V0.543971C106.918 0.340049 107.053 0.204102 107.257 0.204102Z" />
        <path d="M132.578 5.84593V19.1008H137.657C138.131 19.1008 138.537 18.693 138.537 18.2172V6.72959C138.537 6.25377 138.131 5.84593 137.657 5.84593H132.578ZM127.229 0.204102H131.698H132.24H139.417C142.058 0.204102 144.157 2.37926 144.157 4.96227V19.9165C144.157 22.5675 141.99 24.6747 139.417 24.6747H132.578V34.191C132.578 34.3949 132.443 34.5309 132.24 34.5309H127.229C127.026 34.5309 126.891 34.3949 126.891 34.191V19.9165V15.1583V9.65247V4.8943V0.543971C126.958 0.340049 127.094 0.204102 127.229 0.204102Z" />
        <path d="M182.484 5.84593V19.1008H183.026H185.395H187.021C187.495 19.1008 187.901 18.693 187.901 18.2172V6.72959C187.901 6.25377 187.495 5.84593 187.021 5.84593H185.395H183.026H182.484ZM176.322 19.1008H176.864V5.84593H176.322H173.817H172.327C171.853 5.84593 171.447 6.25377 171.447 6.72959V18.2172C171.447 18.693 171.853 19.1008 172.327 19.1008H173.817H176.322ZM177.202 0.204102H178.286H181.062H182.145H188.713C191.354 0.204102 193.453 2.37926 193.453 4.96227V19.9165C193.453 22.5675 191.286 24.6747 188.713 24.6747H182.416V34.191C182.416 34.3949 182.281 34.5309 182.078 34.5309H177.067C176.864 34.5309 176.728 34.3949 176.728 34.191V24.6747H170.431C167.79 24.6747 165.691 22.4995 165.691 19.9165V4.96227C165.691 2.31129 167.858 0.204102 170.431 0.204102H177.202Z" />
        <path d="M57.2167 0.204102H52.2061C52.0706 0.204102 51.8675 0.340049 51.8675 0.543971L45.9766 24.8786C45.9766 24.9466 45.9766 24.9466 45.9766 25.0146L45.3672 34.191C45.3672 34.3949 45.5026 34.5309 45.638 34.5309H50.6487C50.8518 34.5309 50.9873 34.3949 50.9873 34.191L51.1227 30.9963L51.4612 24.9466L54.6437 11.7597L57.8261 24.9466L58.1647 30.9963L58.3001 34.191C58.3001 34.3949 58.4355 34.5309 58.6387 34.5309H63.6493C63.8524 34.5309 63.9202 34.3949 63.9202 34.191L63.4462 24.9466C63.4462 24.8786 63.4462 24.8786 63.4462 24.8106L57.5553 0.543971C57.5553 0.340049 57.3521 0.204102 57.2167 0.204102Z" />
        <path d="M152.284 23.2472L155.06 11.7597L157.836 23.2472H152.284ZM157.565 0.204102H152.554C152.419 0.204102 152.216 0.340049 152.216 0.543971L146.257 24.8786C146.257 24.9466 146.257 24.9466 146.257 25.0146L145.783 34.259C145.783 34.4629 145.919 34.5989 146.054 34.5989H151.065C151.268 34.5989 151.403 34.4629 151.403 34.259L151.539 31.0642L151.606 29.2969H158.445L158.513 31.0642L158.648 34.259C158.648 34.4629 158.784 34.5989 158.987 34.5989H163.998C164.201 34.5989 164.268 34.4629 164.268 34.259L163.862 25.0146C163.862 24.9466 163.862 24.9466 163.862 24.8786L157.971 0.543971C157.904 0.340049 157.768 0.204102 157.565 0.204102Z" />
        <path d="M102.855 6.04985V9.17665C102.855 9.65247 102.787 9.78841 102.381 9.92436L97.8443 11.2838C97.5058 11.4198 97.2349 11.3518 97.2349 10.944V6.72959C97.2349 6.25377 96.8287 5.84593 96.3547 5.84593H92.1566C91.6826 5.84593 91.2763 6.25377 91.2763 6.72959V28.0054C91.2763 28.4812 91.6826 28.8891 92.1566 28.8891H96.3547C96.8287 28.8891 97.2349 28.4812 97.2349 28.0054V24.5387V23.859C97.2349 23.4512 97.5058 23.3832 97.8443 23.5191L102.381 24.8786C102.787 25.0146 102.855 25.1505 102.855 25.6263V26.2381V28.7531V29.7727C102.855 32.4237 100.688 34.5309 98.1152 34.5309H90.3961C87.7553 34.5309 85.6562 32.3557 85.6562 29.7727V4.96227C85.6562 2.31129 87.823 0.204102 90.3961 0.204102H98.1152C100.756 0.204102 102.855 2.37926 102.855 4.96227V6.04985Z" />
        <path d="M49.0913 42.6196L50.5133 50.6405H49.159L48.1434 43.5713H47.9402L46.9245 50.6405H45.5703L46.9923 42.6196H49.0913Z" />
        <path d="M54.6421 42.6196V43.7752H52.6107V45.9503H54.5067V47.0379H52.6107V49.485H54.7098V50.6405H51.3242V42.6196H54.6421Z" />
        <path d="M60.1278 47.6495C60.1278 48.4652 60.0601 49.009 59.9247 49.4168C59.5184 50.5724 58.7059 50.8443 57.961 50.8443C57.0131 50.8443 56.336 50.3685 55.9974 49.4168C55.7943 48.8051 55.7266 48.0574 55.7266 46.6299C55.7266 45.2704 55.7266 44.5227 55.9974 43.843C56.4037 42.6874 57.2162 42.4155 57.961 42.4155C58.7059 42.4155 59.5184 42.6874 59.9247 43.911C60.0601 44.2508 60.1278 44.7266 60.1278 45.5423H58.8413C58.8413 45.1345 58.8413 44.8626 58.8413 44.5907C58.8413 44.2508 58.7059 43.5031 58.0288 43.5031C57.3516 43.5031 57.2839 44.1828 57.2162 44.5907C57.1485 45.1345 57.1485 46.0861 57.1485 46.494C57.1485 47.7855 57.1485 48.1933 57.2162 48.6012C57.2839 48.941 57.3516 49.6208 58.0288 49.6208C58.7059 49.6208 58.8413 48.873 58.8413 48.6012C58.8413 48.3972 58.8413 48.1253 58.8413 47.5815H60.1278V47.6495Z" />
        <path d="M65.0717 49.485H67.103L66.1551 43.6392H65.952L65.0717 49.485ZM67.103 42.6196L68.3896 49.485H68.5927V50.6405H63.3789V49.485H63.582L65.004 42.6196H67.103Z" />
        <path d="M72.519 42.6196L74.0087 50.6405H72.5867L71.5711 43.5713H71.3679L70.3523 50.6405H68.998L70.42 42.6196H72.519Z" />
        <path d="M77.2586 43.7073C76.92 43.7073 76.5815 43.7073 76.3106 43.9792C76.0398 44.2511 76.0398 44.7269 76.0398 44.9308C76.0398 45.2027 76.1075 45.6106 76.3106 45.8825C76.5815 46.1544 76.8523 46.2223 77.1909 46.2223H77.5294V43.7073H77.2586ZM78.7483 50.6406H77.4617V47.3099H77.0555C76.92 47.3099 76.7169 47.3099 76.5138 47.5138C76.3784 47.6498 76.3106 47.9217 76.2429 48.1936L75.6335 50.6406H74.2793L75.1595 47.5818C75.2273 47.3099 75.3627 46.9021 75.8367 46.6982C75.6335 46.6302 75.4304 46.5622 75.2273 46.2903C74.821 45.8145 74.7533 45.2707 74.7533 44.7269C74.7533 43.8433 75.0918 43.2995 75.4304 43.0276C76.0398 42.5518 76.7846 42.5518 77.2586 42.5518H78.816V50.6406H78.7483Z" />
        <path d="M83.7579 49.485H85.7892L84.8413 43.6392H84.6381L83.7579 49.485ZM85.857 42.6196L87.1435 49.485H87.3466V50.6405H82.1328V49.485H82.3359L83.6225 42.6196H85.857Z" />
        <path d="M91.4787 42.6196V43.7752H89.515V45.9503H91.3432V47.0379H89.515V49.485H91.6141V50.6405H88.2285V42.6196H91.4787Z" />
        <path d="M95.812 42.6196L97.234 50.6405H95.8797L94.8641 43.5713H94.6609L93.6452 50.6405H92.291L93.713 42.6196H95.812Z" />
        <path d="M99.4682 47.3098H100.89L100.281 43.5713H100.078L99.4682 47.3098ZM101.229 42.6196L102.786 50.5726H101.432L101.093 48.3974H99.2651L98.9265 50.5726H97.5723L99.1296 42.6196H101.229Z" />
    </svg>
    <svg id="cart" viewBox="0 0 24 24" xmlns="http://www.w3.org/2000/svg">
        <path d="M21.2451 5.1335C21.0014 4.84094 20.6962 4.60565 20.3512 4.44434C20.0063 4.28302 19.63 4.19963 19.2492 4.2001H5.23695L5.20055 3.8959C5.12606 3.26359 4.82215 2.6806 4.34644 2.25745C3.87073 1.83429 3.25629 1.60039 2.61961 1.6001L2.42721 1.6001C2.19736 1.6001 1.97692 1.69141 1.81439 1.85394C1.65186 2.01647 1.56055 2.23691 1.56055 2.46676C1.56055 2.69662 1.65186 2.91706 1.81439 3.07959C1.97692 3.24212 2.19736 3.33343 2.42721 3.33343H2.61961C2.83189 3.33346 3.03677 3.41139 3.1954 3.55245C3.35403 3.69351 3.45538 3.88788 3.48021 4.0987L4.67275 14.2387C4.79655 15.2932 5.30323 16.2656 6.0966 16.9713C6.88997 17.677 7.91482 18.0668 8.97661 18.0668H18.0272C18.2571 18.0668 18.4775 17.9755 18.64 17.8129C18.8026 17.6504 18.8939 17.43 18.8939 17.2001C18.8939 16.9702 18.8026 16.7498 18.64 16.5873C18.4775 16.4247 18.2571 16.3334 18.0272 16.3334H8.97661C8.4402 16.3319 7.91737 16.1645 7.47982 15.8542C7.04227 15.5439 6.71142 15.1058 6.53261 14.6001H16.8633C17.8793 14.6002 18.863 14.2432 19.6425 13.5917C20.4221 12.9401 20.9479 12.0354 21.1281 11.0355L21.8085 7.26203C21.8764 6.88764 21.8611 6.50289 21.7638 6.13505C21.6664 5.76721 21.4894 5.42528 21.2451 5.1335ZM20.1072 6.95436L19.426 10.7278C19.3178 11.3284 19.0018 11.8718 18.5332 12.2629C18.0647 12.6539 17.4735 12.8677 16.8633 12.8668H6.25701L5.44148 5.93343H19.2492C19.3765 5.93267 19.5024 5.95997 19.618 6.01339C19.7336 6.0668 19.836 6.14502 19.9179 6.24249C19.9998 6.33996 20.0592 6.45427 20.0919 6.57731C20.1247 6.70035 20.1299 6.82908 20.1072 6.95436Z" />
        <path d="M7.62786 22.4003C8.58516 22.4003 9.3612 21.6242 9.3612 20.6669C9.3612 19.7096 8.58516 18.9336 7.62786 18.9336C6.67057 18.9336 5.89453 19.7096 5.89453 20.6669C5.89453 21.6242 6.67057 22.4003 7.62786 22.4003Z" />
        <path d="M16.2939 22.4003C17.2512 22.4003 18.0272 21.6242 18.0272 20.6669C18.0272 19.7096 17.2512 18.9336 16.2939 18.9336C15.3366 18.9336 14.5605 19.7096 14.5605 20.6669C14.5605 21.6242 15.3366 22.4003 16.2939 22.4003Z" />
    </svg>
    <svg id="fav" viewBox="0 0 24 24" xmlns="http://www.w3.org/2000/svg">
        <path d="M20.7285 4.84593C18.4663 2.65126 14.7863 2.65126 12.5247 4.84593L11.9994 5.35538L11.4744 4.84593C9.21288 2.65097 5.5325 2.65097 3.27095 4.84593C1.05531 6.99603 1.04093 10.4042 3.23758 12.7738C5.24109 14.9343 11.15 19.602 11.4007 19.7995C11.564 19.9288 11.7684 19.9993 11.9792 19.9991L11.9991 19.9989C12.2097 20.0084 12.4219 19.9383 12.5976 19.7995C12.8483 19.602 18.7577 14.9343 20.7619 12.7735C22.9582 10.4042 22.9438 6.99603 20.7285 4.84593ZM19.3966 11.5814C17.8345 13.2654 13.5407 16.7386 11.9991 17.9711C10.4575 16.7389 6.16462 13.266 4.60284 11.5817C3.07045 9.92889 3.05606 7.575 4.56948 6.10634C5.34241 5.35657 6.35747 4.98139 7.37254 4.98139C8.38761 4.98139 9.40267 5.35627 10.1756 6.10634L11.3303 7.22685C11.4639 7.35583 11.6364 7.4402 11.8228 7.46776C11.9731 7.49938 12.1292 7.49392 12.2768 7.45188C12.4244 7.40985 12.5588 7.33258 12.6677 7.22714L13.8229 6.10634C15.3691 4.6065 17.8841 4.6068 19.4294 6.10634C20.9428 7.575 20.9284 9.92889 19.3966 11.5814Z" />
    </svg>
    <svg id="product-eye" xmlns="http://www.w3.org/2000/svg" viewBox="0 0 24 24">
        <path d="M22.6467 11.7541C21.9004 10.122 18.9738 4.80005 12.5986 4.80005C6.22343 4.80005 3.2968 10.122 2.55048 11.7541C2.4503 11.9728 2.39844 12.2105 2.39844 12.4511C2.39844 12.6917 2.4503 12.9294 2.55048 13.1481C3.2968 14.7785 6.22343 20.1004 12.5986 20.1004C18.9738 20.1004 21.9004 14.7785 22.6467 13.1464C22.7467 12.9279 22.7984 12.6905 22.7984 12.4502C22.7984 12.21 22.7467 11.9725 22.6467 11.7541ZM12.5986 18.4004C7.2375 18.4004 4.73589 13.8392 4.09837 12.4596C4.73589 11.0613 7.2375 6.50009 12.5986 6.50009C17.9469 6.50009 20.4494 11.0418 21.0988 12.4502C20.4494 13.8587 17.9469 18.4004 12.5986 18.4004Z" />
        <path d="M12.5978 8.2002C11.7572 8.2002 10.9355 8.44946 10.2365 8.91647C9.53761 9.38348 8.99286 10.0473 8.67118 10.8239C8.3495 11.6005 8.26533 12.455 8.42932 13.2795C8.59331 14.1039 8.9981 14.8612 9.59249 15.4556C10.1869 16.05 10.9442 16.4548 11.7686 16.6187C12.5931 16.7827 13.4476 16.6986 14.2242 16.3769C15.0008 16.0552 15.6646 15.5105 16.1316 14.8115C16.5986 14.1126 16.8479 13.2909 16.8479 12.4503C16.8465 11.3235 16.3983 10.2433 15.6016 9.44651C14.8048 8.64976 13.7246 8.20155 12.5978 8.2002ZM12.5978 15.0004C12.0934 15.0004 11.6004 14.8508 11.181 14.5706C10.7617 14.2904 10.4348 13.8921 10.2418 13.4262C10.0488 12.9602 9.99831 12.4475 10.0967 11.9528C10.1951 11.4581 10.438 11.0038 10.7946 10.6471C11.1512 10.2905 11.6056 10.0476 12.1003 9.94924C12.5949 9.85084 13.1077 9.90134 13.5736 10.0944C14.0396 10.2874 14.4379 10.6142 14.7181 11.0336C14.9983 11.4529 15.1478 11.9459 15.1478 12.4503C15.1478 13.1266 14.8792 13.7752 14.4009 14.2535C13.9227 14.7317 13.2741 15.0004 12.5978 15.0004Z" />
    </svg>
    <svg id="product-fav" xmlns="http://www.w3.org/2000/svg" viewBox="0 0 24 24">
        <path d="M13 5.50043C15.1746 3.41027 18.218 3.47733 20.3932 5.56748C22.5233 7.6152 22.5371 10.8611 20.4252 13.1176C18.4982 15.1755 12.816 19.6209 12.575 19.809C12.406 19.9411 12.202 20.0079 11.9995 19.9988L11.9804 19.9991C11.7777 19.9993 11.5812 19.9321 11.4241 19.809C11.183 19.6209 5.50142 15.1755 3.57498 13.1178C1.46281 10.8611 1.47664 7.6152 3.60706 5.56748C5.78163 3.47704 8.82543 3.40827 11 5.49871L12 6.49965L13 5.50043Z" />
    </svg>
    <svg id="profile" viewBox="0 0 24 24" xmlns="http://www.w3.org/2000/svg">
        <path d="M12 12.5C12.923 12.5 13.8252 12.2214 14.5927 11.6995C15.3601 11.1775 15.9582 10.4357 16.3114 9.56775C16.6646 8.6998 16.7571 7.74473 16.577 6.82332C16.3969 5.90191 15.9525 5.05554 15.2998 4.39124C14.6472 3.72695 13.8157 3.27455 12.9104 3.09127C12.0052 2.90799 11.0669 3.00206 10.2141 3.36157C9.36142 3.72109 8.63259 4.32991 8.11981 5.11104C7.60703 5.89218 7.33333 6.81054 7.33333 7.75C7.33457 9.00939 7.82663 10.2168 8.70153 11.1074C9.57644 11.9979 10.7627 12.4987 12 12.5ZM12 4.58334C12.6153 4.58334 13.2168 4.76906 13.7284 5.11701C14.2401 5.46497 14.6388 5.95954 14.8743 6.53817C15.1098 7.1168 15.1714 7.75351 15.0513 8.36779C14.9313 8.98206 14.635 9.54631 14.1999 9.98917C13.7648 10.432 13.2104 10.7336 12.6069 10.8558C12.0035 10.978 11.3779 10.9153 10.8094 10.6756C10.2409 10.4359 9.75506 10.0301 9.41321 9.50931C9.07135 8.98855 8.88889 8.37631 8.88889 7.75C8.88889 6.91015 9.21667 6.1047 9.80011 5.51083C10.3836 4.91697 11.1749 4.58334 12 4.58334ZM12 14.0833C10.1441 14.0854 8.36483 14.8368 7.05253 16.1725C5.74022 17.5083 5.00206 19.3193 5 21.2083C5 21.4183 5.08194 21.6197 5.22781 21.7681C5.37367 21.9166 5.5715 22 5.77778 22C5.98406 22 6.18189 21.9166 6.32775 21.7681C6.47361 21.6197 6.55556 21.4183 6.55556 21.2083C6.55556 19.7386 7.12916 18.329 8.1502 17.2898C9.17123 16.2505 10.556 15.6667 12 15.6667C13.444 15.6667 14.8288 16.2505 15.8498 17.2898C16.8708 18.329 17.4444 19.7386 17.4444 21.2083C17.4444 21.4183 17.5264 21.6197 17.6722 21.7681C17.8181 21.9166 18.0159 22 18.2222 22C18.4285 22 18.6263 21.9166 18.7722 21.7681C18.9181 21.6197 19 21.4183 19 21.2083C18.9979 19.3193 18.2598 17.5083 16.9475 16.1725C15.6352 14.8368 13.8559 14.0854 12 14.0833Z" />
    </svg>
    <svg id="home" xmlns="http://www.w3.org/2000/svg" viewBox="0 0 24 24">
        <path d="M21.2675 9.53968L14.9467 3.21802C14.1644 2.43801 13.1047 2 12 2C10.8953 2 9.83563 2.43801 9.05334 3.21802L2.73251 9.53968C2.49953 9.77117 2.31482 10.0466 2.18908 10.35C2.06334 10.6534 1.99907 10.9788 2.00001 11.3072V19.488C2.00001 20.151 2.2634 20.7869 2.73224 21.2558C3.20108 21.7246 3.83697 21.988 4.50001 21.988H19.5C20.163 21.988 20.7989 21.7246 21.2678 21.2558C21.7366 20.7869 22 20.151 22 19.488V11.3072C22.0009 10.9788 21.9367 10.6534 21.8109 10.35C21.6852 10.0466 21.5005 9.77117 21.2675 9.53968ZM14.5 20.3213H9.5V17.043C9.5 16.38 9.76339 15.7441 10.2322 15.2752C10.7011 14.8064 11.337 14.543 12 14.543C12.663 14.543 13.2989 14.8064 13.7678 15.2752C14.2366 15.7441 14.5 16.38 14.5 17.043V20.3213ZM20.3333 19.488C20.3333 19.709 20.2455 19.921 20.0892 20.0773C19.933 20.2335 19.721 20.3213 19.5 20.3213H16.1667V17.043C16.1667 15.9379 15.7277 14.8781 14.9463 14.0967C14.1649 13.3153 13.1051 12.8763 12 12.8763C10.8949 12.8763 9.83513 13.3153 9.05372 14.0967C8.27232 14.8781 7.83334 15.9379 7.83334 17.043V20.3213H4.50001C4.27899 20.3213 4.06703 20.2335 3.91075 20.0773C3.75447 19.921 3.66668 19.709 3.66668 19.488V11.3072C3.66745 11.0863 3.75517 10.8747 3.91084 10.718L10.2317 4.39885C10.7014 3.93129 11.3372 3.66881 12 3.66881C12.6628 3.66881 13.2986 3.93129 13.7683 4.39885L20.0892 10.7205C20.2442 10.8765 20.3319 11.0872 20.3333 11.3072V19.488Z" />
    </svg>
    <svg id="catalog" xmlns="http://www.w3.org/2000/svg" viewBox="0 0 25 24">
        <path fill-rule="evenodd" clip-rule="evenodd" d="M12.1793 11.8785C12.1793 11.1423 12.3608 10.4175 12.7076 9.7681C13.0544 9.11872 13.5558 8.56482 14.1676 8.15536C14.7794 7.7459 15.4826 7.49351 16.2151 7.42051C16.9476 7.34751 17.6868 7.45614 18.3674 7.73681C19.0479 8.01747 19.6488 8.46152 20.1169 9.02967C20.585 9.59783 20.9059 10.2726 21.0513 10.9943C21.1966 11.716 21.1619 12.4624 20.9502 13.1675C20.7384 13.8725 20.3562 14.5146 19.8374 15.0368L19.8269 15.0473L19.8185 15.0568C19.1908 15.6806 18.3925 16.1046 17.5242 16.2752C16.6558 16.4458 15.7564 16.3555 14.9394 16.0155C14.1224 15.6755 13.4243 15.1012 12.9333 14.3649C12.4423 13.6287 12.1803 12.7635 12.1803 11.8785H12.1793ZM22.7133 11.8785C22.7153 13.2127 22.2747 14.5098 21.4605 15.5667L24.5389 18.6463C24.6779 18.7955 24.7535 18.9928 24.7499 19.1967C24.7463 19.4006 24.6638 19.5951 24.5196 19.7393C24.3754 19.8835 24.1809 19.9661 23.977 19.9697C23.7732 19.9733 23.5759 19.8976 23.4267 19.7586L20.3484 16.68C19.2647 17.5129 17.931 17.9546 16.5644 17.9331C15.1978 17.9117 13.8787 17.4284 12.8217 16.5619C11.7646 15.6955 11.0319 14.4967 10.7426 13.1608C10.4533 11.8249 10.6246 10.4305 11.2286 9.20429C11.8325 7.97811 12.8335 6.99238 14.0689 6.40749C15.3042 5.8226 16.701 5.67296 18.0322 5.98292C19.3633 6.29288 20.5504 7.04419 21.4004 8.11463C22.2503 9.18507 22.713 10.5116 22.7133 11.8785Z" />
        <path d="M5.85711 9.46022H1.51606C1.09297 9.46022 0.75 9.80944 0.75 10.2402C0.75 10.671 1.09297 11.0203 1.51606 11.0203H5.85711C6.2802 11.0203 6.62317 10.671 6.62317 10.2402C6.6232 9.80944 6.2802 9.46022 5.85711 9.46022ZM1.51606 5.56004H12.4645C12.8875 5.56004 13.2305 5.21082 13.2305 4.78002C13.2305 4.34922 12.8875 4 12.4645 4H1.51606C1.09297 4 0.75 4.34922 0.75 4.78002C0.75 5.21082 1.09297 5.56004 1.51606 5.56004ZM8.79371 14.9204H1.51606C1.09297 14.9204 0.75 15.2697 0.75 15.7005C0.75 16.1313 1.09297 16.4805 1.51606 16.4805H8.79371C9.2168 16.4805 9.55977 16.1313 9.55977 15.7005C9.5598 15.2697 9.2168 14.9204 8.79371 14.9204Z" />
    </svg>
    <svg id="close" xmlns="http://www.w3.org/2000/svg" viewBox="0 0 25 25">
        <path d="M24.1741 1.06386C23.813 0.702822 23.3232 0.5 22.8125 0.5C22.3019 0.5 21.8121 0.702822 21.451 1.06386L12.619 9.89583L3.78702 1.06386C3.42587 0.702822 2.93611 0.5 2.42544 0.5C1.91478 0.5 1.42502 0.702822 1.06386 1.06386C0.702822 1.42502 0.5 1.91478 0.5 2.42544C0.5 2.93611 0.702822 3.42587 1.06386 3.78702L9.89583 12.619L1.06386 21.451C0.702822 21.8121 0.5 22.3019 0.5 22.8125C0.5 23.3232 0.702822 23.813 1.06386 24.1741C1.42502 24.5352 1.91478 24.738 2.42544 24.738C2.93611 24.738 3.42587 24.5352 3.78702 24.1741L12.619 15.3421L21.451 24.1741C21.8121 24.5352 22.3019 24.738 22.8125 24.738C23.3232 24.738 23.813 24.5352 24.1741 24.1741C24.5352 23.813 24.738 23.3232 24.738 22.8125C24.738 22.3019 24.5352 21.8121 24.1741 21.451L15.3421 12.619L24.1741 3.78702C24.5352 3.42587 24.738 2.93611 24.738 2.42544C24.738 1.91478 24.5352 1.42502 24.1741 1.06386Z" />
    </svg>
    <svg id="btn-prev" xmlns="http://www.w3.org/2000/svg" viewBox="0 0 24 24">
        <path d="M17.9219 22.5C17.9215 22.1023 17.7633 21.7211 17.4819 21.44L9.80987 13.768C9.57766 13.5359 9.39345 13.2602 9.26777 12.9569C9.14209 12.6535 9.07741 12.3284 9.07741 12C9.07741 11.6717 9.14209 11.3465 9.26777 11.0432C9.39345 10.7398 9.57766 10.4642 9.80987 10.232L17.4719 2.56502C17.7451 2.28211 17.8963 1.90321 17.8929 1.50992C17.8895 1.11662 17.7317 0.740401 17.4536 0.462289C17.1755 0.184177 16.7993 0.0264236 16.406 0.0230059C16.0127 0.0195883 15.6338 0.17078 15.3509 0.444017L7.68887 8.10502C6.65864 9.13728 6.08003 10.5361 6.08003 11.9945C6.08003 13.4529 6.65864 14.8518 7.68887 15.884L15.3609 23.556C15.5704 23.7656 15.8372 23.9085 16.1278 23.9666C16.4184 24.0247 16.7197 23.9954 16.9937 23.8824C17.2677 23.7695 17.502 23.5779 17.6672 23.3318C17.8324 23.0858 17.921 22.7964 17.9219 22.5Z" />
    </svg>
    <svg id="btn-next" xmlns="http://www.w3.org/2000/svg" viewBox="0 0 24 24">
        <path d="M6.07812 22.5C6.07848 22.1023 6.23674 21.7211 6.51813 21.44L14.1901 13.768C14.4223 13.5359 14.6066 13.2602 14.7322 12.9569C14.8579 12.6535 14.9226 12.3284 14.9226 12C14.9226 11.6717 14.8579 11.3465 14.7322 11.0432C14.6066 10.7398 14.4223 10.4642 14.1901 10.232L6.52812 2.56502C6.25489 2.28211 6.1037 1.90321 6.10711 1.50992C6.11053 1.11662 6.26829 0.740401 6.5464 0.462289C6.82451 0.184177 7.20073 0.0264236 7.59402 0.0230059C7.98732 0.0195883 8.36622 0.17078 8.64912 0.444017L16.3111 8.10502C17.3414 9.13728 17.92 10.5361 17.92 11.9945C17.92 13.4529 17.3414 14.8518 16.3111 15.884L8.63913 23.556C8.42965 23.7656 8.16277 23.9085 7.87217 23.9666C7.58158 24.0247 7.28028 23.9954 7.00631 23.8824C6.73234 23.7695 6.49798 23.5779 6.33278 23.3318C6.16759 23.0858 6.07898 22.7964 6.07812 22.5Z" />
    </svg>
    <svg id="chevron-bot" xmlns="http://www.w3.org/2000/svg" viewBox="0 0 24 24">
        <path d="M18.0002 8.36053C17.8686 8.35977 17.7381 8.385 17.6163 8.43476C17.4944 8.48453 17.3836 8.55785 17.2902 8.65053L12.7102 13.2405C12.6172 13.3343 12.5066 13.4087 12.3848 13.4594C12.2629 13.5102 12.1322 13.5363 12.0002 13.5363C11.8682 13.5363 11.7375 13.5102 11.6156 13.4594C11.4937 13.4087 11.3831 13.3343 11.2902 13.2405L6.71019 8.65053C6.52188 8.46223 6.26649 8.35644 6.00019 8.35644C5.73388 8.35644 5.47849 8.46223 5.29019 8.65053C5.10188 8.83884 4.99609 9.09423 4.99609 9.36053C4.99609 9.62683 5.10188 9.88223 5.29019 10.0705L9.88019 14.6505C10.4501 15.1981 11.2098 15.5039 12.0002 15.5039C12.7905 15.5039 13.5502 15.1981 14.1202 14.6505L18.7102 10.0705C18.8039 9.97757 18.8783 9.86697 18.9291 9.74511C18.9798 9.62325 19.006 9.49254 19.006 9.36053C19.006 9.22852 18.9798 9.09782 18.9291 8.97596C18.8783 8.8541 18.8039 8.7435 18.7102 8.65053C18.6167 8.55785 18.5059 8.48453 18.3841 8.43476C18.2623 8.385 18.1318 8.35977 18.0002 8.36053Z" />
    </svg>
    <svg id="chevron-right" xmlns="http://www.w3.org/2000/svg" viewBox="0 0 24 24">
        <path d="M15.3993 9.87982L10.8093 5.28982C10.622 5.10356 10.3685 4.99902 10.1043 4.99902C9.84013 4.99902 9.58668 5.10356 9.39931 5.28982C9.30559 5.38278 9.23119 5.49338 9.18042 5.61524C9.12965 5.7371 9.10352 5.8678 9.10352 5.99982C9.10352 6.13183 9.12965 6.26253 9.18042 6.38439C9.23119 6.50625 9.30559 6.61685 9.39931 6.70982L13.9993 11.2898C14.093 11.3828 14.1674 11.4934 14.2182 11.6152C14.269 11.7371 14.2951 11.8678 14.2951 11.9998C14.2951 12.1318 14.269 12.2625 14.2182 12.3844C14.1674 12.5063 14.093 12.6169 13.9993 12.7098L9.39931 17.2898C9.21101 17.4768 9.1047 17.7309 9.10376 17.9963C9.10282 18.2616 9.20734 18.5165 9.39431 18.7048C9.58129 18.8931 9.83541 18.9994 10.1008 19.0004C10.3661 19.0013 10.621 18.8968 10.8093 18.7098L15.3993 14.1198C15.9611 13.5573 16.2767 12.7948 16.2767 11.9998C16.2767 11.2048 15.9611 10.4423 15.3993 9.87982Z" />
    </svg>
    <svg id="link" xmlns="http://www.w3.org/2000/svg" viewBox="0 0 20 20">
        <path d="M4.29287 14.2929C3.90237 14.6834 3.90237 15.3166 4.29287 15.7071C4.68338 16.0976 5.31657 16.0976 5.70707 15.7071L4.29287 14.2929ZM16 5C16 4.4477 15.5523 4 15 4H5.99997C5.44767 4 4.99997 4.4477 4.99997 5C4.99997 5.5523 5.44767 6 5.99997 6H14V14C14 14.5523 14.4477 15 15 15C15.5523 15 16 14.5523 16 14V5ZM5.70707 15.7071L15.7071 5.7071L14.2929 4.2929L4.29287 14.2929L5.70707 15.7071Z" />
    </svg>
    <svg id="filter" xmlns="http://www.w3.org/2000/svg" viewBox="0 0 24 24">
        <path d="M22 7.25H16C15.59 7.25 15.25 6.91 15.25 6.5C15.25 6.09 15.59 5.75 16 5.75H22C22.41 5.75 22.75 6.09 22.75 6.5C22.75 6.91 22.41 7.25 22 7.25Z" />
        <path d="M6 7.25H2C1.59 7.25 1.25 6.91 1.25 6.5C1.25 6.09 1.59 5.75 2 5.75H6C6.41 5.75 6.75 6.09 6.75 6.5C6.75 6.91 6.41 7.25 6 7.25Z" />
        <path d="M10 10.75C7.66 10.75 5.75 8.84 5.75 6.5C5.75 4.16 7.66 2.25 10 2.25C12.34 2.25 14.25 4.16 14.25 6.5C14.25 8.84 12.34 10.75 10 10.75ZM10 3.75C8.48 3.75 7.25 4.98 7.25 6.5C7.25 8.02 8.48 9.25 10 9.25C11.52 9.25 12.75 8.02 12.75 6.5C12.75 4.98 11.52 3.75 10 3.75Z" />
        <path d="M22 18.25H18C17.59 18.25 17.25 17.91 17.25 17.5C17.25 17.09 17.59 16.75 18 16.75H22C22.41 16.75 22.75 17.09 22.75 17.5C22.75 17.91 22.41 18.25 22 18.25Z" />
        <path d="M8 18.25H2C1.59 18.25 1.25 17.91 1.25 17.5C1.25 17.09 1.59 16.75 2 16.75H8C8.41 16.75 8.75 17.09 8.75 17.5C8.75 17.91 8.41 18.25 8 18.25Z" />
        <path d="M14 21.75C11.66 21.75 9.75 19.84 9.75 17.5C9.75 15.16 11.66 13.25 14 13.25C16.34 13.25 18.25 15.16 18.25 17.5C18.25 19.84 16.34 21.75 14 21.75ZM14 14.75C12.48 14.75 11.25 15.98 11.25 17.5C11.25 19.02 12.48 20.25 14 20.25C15.52 20.25 16.75 19.02 16.75 17.5C16.75 15.98 15.52 14.75 14 14.75Z" />
    </svg>
    <svg id="location" xmlns="http://www.w3.org/2000/svg" viewBox="0 0 24 25" fill="none">
        <mask id="mask0_416_14472" style="mask-type:luminance" maskUnits="userSpaceOnUse" x="0" y="0" width="24" height="25">
            <path d="M23.25 23.75V1.2515H0.75V23.75H23.25Z" stroke="white" stroke-width="1.5" />
        </mask>
        <g mask="url(#mask0_416_14472)">
            <path d="M11.7344 22.5C7.73438 18.7034 4 15.5629 4 10.6414C4 6.3769 7.46964 2.90747 11.7344 2.90747C15.9991 2.90747 19.4687 6.3769 19.4687 10.6414C19.4687 15.5629 15.7344 18.7034 11.7344 22.5Z" stroke-width="1.5" stroke-miterlimit="10" stroke-linecap="round" stroke-linejoin="round" />
            <path d="M11.7344 13.2036C10.0803 13.2036 8.73438 11.8578 8.73438 10.2038C8.73438 8.54978 10.0803 7.20399 11.7344 7.20399C13.3885 7.20399 14.7344 8.54978 14.7344 10.2038C14.7344 11.8578 13.3885 13.2036 11.7344 13.2036Z" stroke-width="1.5" stroke-miterlimit="10" stroke-linecap="round" stroke-linejoin="round" />
        </g>
    </svg>
    <svg id="star-1" xmlns="http://www.w3.org/2000/svg" viewBox="0 0 24 24">
        <path fill-rule="evenodd" clip-rule="evenodd" d="M10.2086 3.26706C10.522 2.71968 11.0577 1.99548 12.0016 1.99548C12.9456 1.99548 13.4812 2.71968 13.7947 3.26706C14.1231 3.84057 14.4522 4.66242 14.8375 5.62469L14.905 5.79321C15.1444 6.39103 15.2972 6.76928 15.4428 7.04681C15.5778 7.30401 15.6681 7.39655 15.7419 7.45151C15.8156 7.5064 15.9298 7.56625 16.2142 7.62156C16.5213 7.68127 16.9267 7.71887 17.5673 7.77633L17.8694 7.80343C18.8179 7.88844 19.6384 7.96198 20.2435 8.10501C20.8382 8.24559 21.627 8.54281 21.9129 9.39419C22.1985 10.2449 21.75 10.9581 21.3612 11.4298C20.9654 11.9099 20.3562 12.465 19.6517 13.1069L19.0908 13.618C18.6966 13.9772 18.4481 14.2048 18.2712 14.3965C18.1067 14.5747 18.0536 14.6707 18.026 14.7415C18.0087 14.7858 17.9943 14.8313 17.9829 14.8776C17.9647 14.9515 17.9529 15.0608 17.9847 15.3015C18.019 15.5604 18.0911 15.89 18.2066 16.411L18.2891 16.7835C18.4834 17.6609 18.6469 18.3988 18.7108 18.9655C18.7684 19.477 18.8033 20.2312 18.3019 20.7903C18.0396 21.0828 17.6985 21.2936 17.3193 21.3973C16.5938 21.5956 15.9351 21.2249 15.5046 20.9438C15.0275 20.6322 14.4424 20.1547 13.747 19.5871L13.7005 19.5491C13.2031 19.1432 12.8833 18.8834 12.621 18.7078C12.3736 18.5421 12.2524 18.5042 12.1727 18.4914C12.0594 18.4733 11.9439 18.4733 11.8305 18.4914C11.7509 18.5042 11.6296 18.5421 11.3822 18.7078C11.12 18.8834 10.8001 19.1432 10.3027 19.5491L10.2562 19.5871C9.56079 20.1547 8.9757 20.6322 8.49861 20.9438C8.06814 21.2249 7.40944 21.5956 6.6839 21.3973C6.30475 21.2936 5.96368 21.0828 5.70139 20.7903C5.19999 20.2312 5.23482 19.477 5.29246 18.9655C5.35631 18.3988 5.51979 17.6609 5.71417 16.7835L5.79669 16.411C5.91211 15.89 5.98422 15.5604 6.0185 15.3015C6.05038 15.0608 6.0385 14.9515 6.02033 14.8776C6.00894 14.8313 5.99454 14.7858 5.97722 14.7415C5.94961 14.6707 5.8965 14.5747 5.73205 14.3965C5.55514 14.2048 5.30667 13.9772 4.91248 13.618L4.35157 13.1069C3.64705 12.465 3.0378 11.9099 2.64208 11.4298C2.25327 10.9581 1.80472 10.2449 2.09039 9.39419C2.37627 8.54281 3.16499 8.24559 3.75976 8.10501C4.36486 7.96198 5.18532 7.88844 6.1338 7.80343C6.15966 7.80111 6.18561 7.79879 6.21166 7.79645L6.43593 7.77633C7.07654 7.71887 7.48195 7.68127 7.78902 7.62156C8.07339 7.56625 8.18759 7.5064 8.2613 7.45151C8.33511 7.39655 8.42544 7.30401 8.56041 7.04681C8.70606 6.76928 8.85885 6.39103 9.09827 5.79321L9.13649 5.69778C9.14628 5.67333 9.15604 5.64896 9.16576 5.62468C9.55107 4.66241 9.88016 3.84057 10.2086 3.26706Z" />
    </svg>
    <svg id="star-5" xmlns="http://www.w3.org/2000/svg" viewBox="0 0 84 16">
        <path fill-rule="evenodd" clip-rule="evenodd" d="M6.80442 2.1778C7.01339 1.81288 7.37047 1.33008 7.99978 1.33008C8.62909 1.33008 8.98617 1.81288 9.19514 2.1778C9.41409 2.56013 9.63348 3.10803 9.89035 3.74955L9.93534 3.8619C10.095 4.26045 10.1968 4.51261 10.2939 4.69763C10.3839 4.86909 10.4441 4.93079 10.4933 4.96743C10.5425 5.00402 10.6186 5.04392 10.8082 5.08079C11.0129 5.12061 11.2832 5.14567 11.7102 5.18398L11.9117 5.20204C12.544 5.25872 13.0909 5.30774 13.4944 5.40309C13.8909 5.49682 14.4167 5.69496 14.6073 6.26255C14.7977 6.8297 14.4987 7.30518 14.2395 7.61964C13.9757 7.93968 13.5695 8.30973 13.0998 8.73766L12.7259 9.07842C12.4631 9.31789 12.2974 9.46961 12.1795 9.59741C12.0699 9.7162 12.0345 9.78024 12.016 9.8274C12.0045 9.85699 11.9949 9.88731 11.9873 9.91816C11.9752 9.9674 11.9673 10.0403 11.9885 10.2008C12.0114 10.3734 12.0595 10.5931 12.1364 10.9404L12.1914 11.1888C12.321 11.7737 12.43 12.2656 12.4726 12.6434C12.511 12.9844 12.5342 13.4872 12.1999 13.86C12.0251 14.055 11.7977 14.1955 11.5449 14.2646C11.0612 14.3968 10.6221 14.1497 10.3351 13.9623C10.0171 13.7546 9.62699 13.4362 9.16337 13.0578L9.13237 13.0325C8.80079 12.7619 8.58754 12.5887 8.41272 12.4716C8.2478 12.3612 8.16695 12.3359 8.11385 12.3274C8.03828 12.3153 7.96127 12.3153 7.8857 12.3274C7.8326 12.3359 7.75176 12.3612 7.58683 12.4716C7.41202 12.5887 7.19876 12.7619 6.86718 13.0325L6.83617 13.0578C6.37256 13.4362 5.9825 13.7546 5.66444 13.9623C5.37746 14.1497 4.93832 14.3968 4.45463 14.2646C4.20187 14.1955 3.97448 14.055 3.79962 13.86C3.46536 13.4872 3.48858 12.9844 3.527 12.6434C3.56957 12.2656 3.67856 11.7737 3.80815 11.1888L3.86316 10.9404C3.9401 10.5931 3.98818 10.3734 4.01103 10.2008C4.03228 10.0403 4.02437 9.9674 4.01225 9.91816C4.00466 9.88731 3.99506 9.85699 3.98351 9.8274C3.9651 9.78024 3.9297 9.7162 3.82007 9.59741C3.70212 9.46961 3.53648 9.31789 3.27369 9.07842L2.89975 8.73768C2.43006 8.30974 2.0239 7.93968 1.76009 7.61964C1.50088 7.30518 1.20185 6.8297 1.39229 6.26255C1.58288 5.69496 2.10869 5.49682 2.5052 5.40309C2.90861 5.30774 3.45558 5.25872 4.0879 5.20204C4.10514 5.2005 4.12244 5.19895 4.1398 5.19739L4.28932 5.18398C4.71639 5.14567 4.98667 5.12061 5.19137 5.08079C5.38096 5.04392 5.45709 5.00402 5.50623 4.96743C5.55544 4.93079 5.61566 4.86909 5.70564 4.69763C5.80274 4.51261 5.9046 4.26044 6.06421 3.8619L6.08969 3.79828C6.09622 3.78197 6.10273 3.76573 6.10921 3.74954C6.36608 3.10803 6.58547 2.56013 6.80442 2.1778Z" />
        <path fill-rule="evenodd" clip-rule="evenodd" d="M23.8044 2.1778C24.0134 1.81288 24.3705 1.33008 24.9998 1.33008C25.6291 1.33008 25.9862 1.81288 26.1951 2.1778C26.4141 2.56013 26.6335 3.10803 26.8904 3.74955L26.9353 3.8619C27.095 4.26045 27.1968 4.51261 27.2939 4.69763C27.3839 4.86909 27.4441 4.93079 27.4933 4.96743C27.5425 5.00402 27.6186 5.04392 27.8082 5.08079C28.0129 5.12061 28.2832 5.14567 28.7102 5.18398L28.9117 5.20204C29.544 5.25872 30.0909 5.30774 30.4944 5.40309C30.8909 5.49682 31.4167 5.69496 31.6073 6.26255C31.7977 6.8297 31.4987 7.30518 31.2395 7.61964C30.9757 7.93968 30.5695 8.30973 30.0998 8.73766L29.7259 9.07842C29.4631 9.31789 29.2974 9.46961 29.1795 9.59741C29.0699 9.7162 29.0345 9.78024 29.016 9.8274C29.0045 9.85699 28.9949 9.88731 28.9873 9.91816C28.9752 9.9674 28.9673 10.0403 28.9885 10.2008C29.0114 10.3734 29.0595 10.5931 29.1364 10.9404L29.1914 11.1888C29.321 11.7737 29.43 12.2656 29.4726 12.6434C29.511 12.9844 29.5342 13.4872 29.1999 13.86C29.0251 14.055 28.7977 14.1955 28.5449 14.2646C28.0612 14.3968 27.6221 14.1497 27.3351 13.9623C27.0171 13.7546 26.627 13.4362 26.1634 13.0578L26.1324 13.0325C25.8008 12.7619 25.5875 12.5887 25.4127 12.4716C25.2478 12.3612 25.167 12.3359 25.1139 12.3274C25.0383 12.3153 24.9613 12.3153 24.8857 12.3274C24.8326 12.3359 24.7518 12.3612 24.5868 12.4716C24.412 12.5887 24.1988 12.7619 23.8672 13.0325L23.8362 13.0578C23.3726 13.4362 22.9825 13.7546 22.6644 13.9623C22.3775 14.1497 21.9383 14.3968 21.4546 14.2646C21.2019 14.1955 20.9745 14.055 20.7996 13.86C20.4654 13.4872 20.4886 12.9844 20.527 12.6434C20.5696 12.2656 20.6786 11.7737 20.8081 11.1888L20.8632 10.9404C20.9401 10.5931 20.9882 10.3734 21.011 10.2008C21.0323 10.0403 21.0244 9.9674 21.0123 9.91816C21.0047 9.88731 20.9951 9.85699 20.9835 9.8274C20.9651 9.78024 20.9297 9.7162 20.8201 9.59741C20.7021 9.46961 20.5365 9.31789 20.2737 9.07842L19.8997 8.73768C19.4301 8.30974 19.0239 7.93968 18.7601 7.61964C18.5009 7.30518 18.2018 6.8297 18.3923 6.26255C18.5829 5.69496 19.1087 5.49682 19.5052 5.40309C19.9086 5.30774 20.4556 5.25872 21.0879 5.20204C21.1051 5.2005 21.1224 5.19895 21.1398 5.19739L21.2893 5.18398C21.7164 5.14567 21.9867 5.12061 22.1914 5.08079C22.381 5.04392 22.4571 5.00402 22.5062 4.96743C22.5554 4.93079 22.6157 4.86909 22.7056 4.69763C22.8027 4.51261 22.9046 4.26044 23.0642 3.8619L23.0897 3.79828C23.0962 3.78197 23.1027 3.76573 23.1092 3.74954C23.3661 3.10803 23.5855 2.56013 23.8044 2.1778Z" />
        <path fill-rule="evenodd" clip-rule="evenodd" d="M40.8044 2.1778C41.0134 1.81288 41.3705 1.33008 41.9998 1.33008C42.6291 1.33008 42.9862 1.81288 43.1951 2.1778C43.4141 2.56013 43.6335 3.10803 43.8904 3.74955L43.9353 3.8619C44.095 4.26045 44.1968 4.51261 44.2939 4.69763C44.3839 4.86909 44.4441 4.93079 44.4933 4.96743C44.5425 5.00402 44.6186 5.04392 44.8082 5.08079C45.0129 5.12061 45.2832 5.14567 45.7102 5.18398L45.9117 5.20204C46.544 5.25872 47.0909 5.30774 47.4944 5.40309C47.8909 5.49682 48.4167 5.69496 48.6073 6.26255C48.7977 6.8297 48.4987 7.30518 48.2395 7.61964C47.9757 7.93968 47.5695 8.30973 47.0998 8.73766L46.7259 9.07842C46.4631 9.31789 46.2974 9.46961 46.1795 9.59741C46.0699 9.7162 46.0345 9.78024 46.016 9.8274C46.0045 9.85699 45.9949 9.88731 45.9873 9.91816C45.9752 9.9674 45.9673 10.0403 45.9885 10.2008C46.0114 10.3734 46.0595 10.5931 46.1364 10.9404L46.1914 11.1888C46.321 11.7737 46.43 12.2656 46.4726 12.6434C46.511 12.9844 46.5342 13.4872 46.1999 13.86C46.0251 14.055 45.7977 14.1955 45.5449 14.2646C45.0612 14.3968 44.6221 14.1497 44.3351 13.9623C44.0171 13.7546 43.627 13.4362 43.1634 13.0578L43.1324 13.0325C42.8008 12.7619 42.5875 12.5887 42.4127 12.4716C42.2478 12.3612 42.167 12.3359 42.1139 12.3274C42.0383 12.3153 41.9613 12.3153 41.8857 12.3274C41.8326 12.3359 41.7518 12.3612 41.5868 12.4716C41.412 12.5887 41.1988 12.7619 40.8672 13.0325L40.8362 13.0578C40.3726 13.4362 39.9825 13.7546 39.6644 13.9623C39.3775 14.1497 38.9383 14.3968 38.4546 14.2646C38.2019 14.1955 37.9745 14.055 37.7996 13.86C37.4654 13.4872 37.4886 12.9844 37.527 12.6434C37.5696 12.2656 37.6786 11.7737 37.8081 11.1888L37.8632 10.9404C37.9401 10.5931 37.9882 10.3734 38.011 10.2008C38.0323 10.0403 38.0244 9.9674 38.0123 9.91816C38.0047 9.88731 37.9951 9.85699 37.9835 9.8274C37.9651 9.78024 37.9297 9.7162 37.8201 9.59741C37.7021 9.46961 37.5365 9.31789 37.2737 9.07842L36.8997 8.73768C36.4301 8.30974 36.0239 7.93968 35.7601 7.61964C35.5009 7.30518 35.2018 6.8297 35.3923 6.26255C35.5829 5.69496 36.1087 5.49682 36.5052 5.40309C36.9086 5.30774 37.4556 5.25872 38.0879 5.20204C38.1051 5.2005 38.1224 5.19895 38.1398 5.19739L38.2893 5.18398C38.7164 5.14567 38.9867 5.12061 39.1914 5.08079C39.381 5.04392 39.4571 5.00402 39.5062 4.96743C39.5554 4.93079 39.6157 4.86909 39.7056 4.69763C39.8027 4.51261 39.9046 4.26044 40.0642 3.8619L40.0897 3.79828C40.0962 3.78197 40.1027 3.76573 40.1092 3.74954C40.3661 3.10803 40.5855 2.56013 40.8044 2.1778Z" />
        <path fill-rule="evenodd" clip-rule="evenodd" d="M57.8044 2.1778C58.0134 1.81288 58.3705 1.33008 58.9998 1.33008C59.6291 1.33008 59.9862 1.81288 60.1951 2.1778C60.4141 2.56013 60.6335 3.10803 60.8904 3.74955L60.9353 3.8619C61.095 4.26045 61.1968 4.51261 61.2939 4.69763C61.3839 4.86909 61.4441 4.93079 61.4933 4.96743C61.5425 5.00402 61.6186 5.04392 61.8082 5.08079C62.0129 5.12061 62.2832 5.14567 62.7102 5.18398L62.9117 5.20204C63.544 5.25872 64.0909 5.30774 64.4944 5.40309C64.8909 5.49682 65.4167 5.69496 65.6073 6.26255C65.7977 6.8297 65.4987 7.30518 65.2395 7.61964C64.9757 7.93968 64.5695 8.30973 64.0998 8.73766L63.7259 9.07842C63.4631 9.31789 63.2974 9.46961 63.1795 9.59741C63.0699 9.7162 63.0345 9.78024 63.016 9.8274C63.0045 9.85699 62.9949 9.88731 62.9873 9.91816C62.9752 9.9674 62.9673 10.0403 62.9885 10.2008C63.0114 10.3734 63.0595 10.5931 63.1364 10.9404L63.1914 11.1888C63.321 11.7737 63.43 12.2656 63.4726 12.6434C63.511 12.9844 63.5342 13.4872 63.1999 13.86C63.0251 14.055 62.7977 14.1955 62.5449 14.2646C62.0612 14.3968 61.6221 14.1497 61.3351 13.9623C61.0171 13.7546 60.627 13.4362 60.1634 13.0578L60.1324 13.0325C59.8008 12.7619 59.5875 12.5887 59.4127 12.4716C59.2478 12.3612 59.167 12.3359 59.1139 12.3274C59.0383 12.3153 58.9613 12.3153 58.8857 12.3274C58.8326 12.3359 58.7518 12.3612 58.5868 12.4716C58.412 12.5887 58.1988 12.7619 57.8672 13.0325L57.8362 13.0578C57.3726 13.4362 56.9825 13.7546 56.6644 13.9623C56.3775 14.1497 55.9383 14.3968 55.4546 14.2646C55.2019 14.1955 54.9745 14.055 54.7996 13.86C54.4654 13.4872 54.4886 12.9844 54.527 12.6434C54.5696 12.2656 54.6786 11.7737 54.8081 11.1888L54.8632 10.9404C54.9401 10.5931 54.9882 10.3734 55.011 10.2008C55.0323 10.0403 55.0244 9.9674 55.0123 9.91816C55.0047 9.88731 54.9951 9.85699 54.9835 9.8274C54.9651 9.78024 54.9297 9.7162 54.8201 9.59741C54.7021 9.46961 54.5365 9.31789 54.2737 9.07842L53.8997 8.73768C53.4301 8.30974 53.0239 7.93968 52.7601 7.61964C52.5009 7.30518 52.2018 6.8297 52.3923 6.26255C52.5829 5.69496 53.1087 5.49682 53.5052 5.40309C53.9086 5.30774 54.4556 5.25872 55.0879 5.20204C55.1051 5.2005 55.1224 5.19895 55.1398 5.19739L55.2893 5.18398C55.7164 5.14567 55.9867 5.12061 56.1914 5.08079C56.381 5.04392 56.4571 5.00402 56.5062 4.96743C56.5554 4.93079 56.6157 4.86909 56.7056 4.69763C56.8027 4.51261 56.9046 4.26044 57.0642 3.8619L57.0897 3.79828C57.0962 3.78197 57.1027 3.76573 57.1092 3.74954C57.3661 3.10803 57.5855 2.56013 57.8044 2.1778Z" />
        <path fill-rule="evenodd" clip-rule="evenodd" d="M74.8044 2.1778C75.0134 1.81288 75.3705 1.33008 75.9998 1.33008C76.6291 1.33008 76.9862 1.81288 77.1951 2.1778C77.4141 2.56013 77.6335 3.10803 77.8904 3.74955L77.9353 3.8619C78.095 4.26045 78.1968 4.51261 78.2939 4.69763C78.3839 4.86909 78.4441 4.93079 78.4933 4.96743C78.5425 5.00402 78.6186 5.04392 78.8082 5.08079C79.0129 5.12061 79.2832 5.14567 79.7102 5.18398L79.9117 5.20204C80.544 5.25872 81.0909 5.30774 81.4944 5.40309C81.8909 5.49682 82.4167 5.69496 82.6073 6.26255C82.7977 6.8297 82.4987 7.30518 82.2395 7.61964C81.9757 7.93968 81.5695 8.30973 81.0998 8.73766L80.7259 9.07842C80.4631 9.31789 80.2974 9.46961 80.1795 9.59741C80.0699 9.7162 80.0345 9.78024 80.016 9.8274C80.0045 9.85699 79.9949 9.88731 79.9873 9.91816C79.9752 9.9674 79.9673 10.0403 79.9885 10.2008C80.0114 10.3734 80.0595 10.5931 80.1364 10.9404L80.1914 11.1888C80.321 11.7737 80.43 12.2656 80.4726 12.6434C80.511 12.9844 80.5342 13.4872 80.1999 13.86C80.0251 14.055 79.7977 14.1955 79.5449 14.2646C79.0612 14.3968 78.6221 14.1497 78.3351 13.9623C78.0171 13.7546 77.627 13.4362 77.1634 13.0578L77.1324 13.0325C76.8008 12.7619 76.5875 12.5887 76.4127 12.4716C76.2478 12.3612 76.167 12.3359 76.1139 12.3274C76.0383 12.3153 75.9613 12.3153 75.8857 12.3274C75.8326 12.3359 75.7518 12.3612 75.5868 12.4716C75.412 12.5887 75.1988 12.7619 74.8672 13.0325L74.8362 13.0578C74.3726 13.4362 73.9825 13.7546 73.6644 13.9623C73.3775 14.1497 72.9383 14.3968 72.4546 14.2646C72.2019 14.1955 71.9745 14.055 71.7996 13.86C71.4654 13.4872 71.4886 12.9844 71.527 12.6434C71.5696 12.2656 71.6786 11.7737 71.8081 11.1888L71.8632 10.9404C71.9401 10.5931 71.9882 10.3734 72.011 10.2008C72.0323 10.0403 72.0244 9.9674 72.0123 9.91816C72.0047 9.88731 71.9951 9.85699 71.9835 9.8274C71.9651 9.78024 71.9297 9.7162 71.8201 9.59741C71.7021 9.46961 71.5365 9.31789 71.2737 9.07842L70.8997 8.73768C70.4301 8.30974 70.0239 7.93968 69.7601 7.61964C69.5009 7.30518 69.2018 6.8297 69.3923 6.26255C69.5829 5.69496 70.1087 5.49682 70.5052 5.40309C70.9086 5.30774 71.4556 5.25872 72.0879 5.20204C72.1051 5.2005 72.1224 5.19895 72.1398 5.19739L72.2893 5.18398C72.7164 5.14567 72.9867 5.12061 73.1914 5.08079C73.381 5.04392 73.4571 5.00402 73.5062 4.96743C73.5554 4.93079 73.6157 4.86909 73.7056 4.69763C73.8027 4.51261 73.9046 4.26044 74.0642 3.8619L74.0897 3.79828C74.0962 3.78197 74.1027 3.76573 74.1092 3.74954C74.3661 3.10803 74.5855 2.56013 74.8044 2.1778Z" />
    </svg>
    <svg id="grid" xmlns="http://www.w3.org/2000/svg" viewBox="0 0 24 24">
        <path d="M19.77 11.25H15.73C13.72 11.25 12.75 10.36 12.75 8.52V3.98C12.75 2.14 13.73 1.25 15.73 1.25H19.77C21.78 1.25 22.75 2.14 22.75 3.98V8.51C22.75 10.36 21.77 11.25 19.77 11.25ZM15.73 2.75C14.39 2.75 14.25 3.13 14.25 3.98V8.51C14.25 9.37 14.39 9.74 15.73 9.74H19.77C21.11 9.74 21.25 9.36 21.25 8.51V3.98C21.25 3.12 21.11 2.75 19.77 2.75H15.73Z" />
        <path d="M19.77 22.75H15.73C13.72 22.75 12.75 21.77 12.75 19.77V15.73C12.75 13.72 13.73 12.75 15.73 12.75H19.77C21.78 12.75 22.75 13.73 22.75 15.73V19.77C22.75 21.77 21.77 22.75 19.77 22.75ZM15.73 14.25C14.55 14.25 14.25 14.55 14.25 15.73V19.77C14.25 20.95 14.55 21.25 15.73 21.25H19.77C20.95 21.25 21.25 20.95 21.25 19.77V15.73C21.25 14.55 20.95 14.25 19.77 14.25H15.73Z" />
        <path d="M8.27 11.25H4.23C2.22 11.25 1.25 10.36 1.25 8.52V3.98C1.25 2.14 2.23 1.25 4.23 1.25H8.27C10.28 1.25 11.25 2.14 11.25 3.98V8.51C11.25 10.36 10.27 11.25 8.27 11.25ZM4.23 2.75C2.89 2.75 2.75 3.13 2.75 3.98V8.51C2.75 9.37 2.89 9.74 4.23 9.74H8.27C9.61 9.74 9.75 9.36 9.75 8.51V3.98C9.75 3.12 9.61 2.75 8.27 2.75H4.23Z" />
        <path d="M8.27 22.75H4.23C2.22 22.75 1.25 21.77 1.25 19.77V15.73C1.25 13.72 2.23 12.75 4.23 12.75H8.27C10.28 12.75 11.25 13.73 11.25 15.73V19.77C11.25 21.77 10.27 22.75 8.27 22.75ZM4.23 14.25C3.05 14.25 2.75 14.55 2.75 15.73V19.77C2.75 20.95 3.05 21.25 4.23 21.25H8.27C9.45 21.25 9.75 20.95 9.75 19.77V15.73C9.75 14.55 9.45 14.25 8.27 14.25H4.23Z" />
    </svg>
    <svg id="list" xmlns="http://www.w3.org/2000/svg" viewBox="0 0 24 24">
        <path d="M19.9 7.25H4.1C2.18 7.25 1.25 6.27 1.25 4.27V4.23C1.25 2.22 2.18 1.25 4.1 1.25H19.9C21.82 1.25 22.75 2.23 22.75 4.23V4.27C22.75 6.27 21.82 7.25 19.9 7.25ZM4.1 2.75C3.09 2.75 2.75 2.96 2.75 4.23V4.27C2.75 5.54 3.09 5.75 4.1 5.75H19.9C20.91 5.75 21.25 5.54 21.25 4.27V4.23C21.25 2.96 20.91 2.75 19.9 2.75H4.1Z" />
        <path d="M19.9 14.75H4.1C2.18 14.75 1.25 13.77 1.25 11.77V11.73C1.25 9.72 2.18 8.75 4.1 8.75H19.9C21.82 8.75 22.75 9.73 22.75 11.73V11.77C22.75 13.77 21.82 14.75 19.9 14.75ZM4.1 10.25C3.09 10.25 2.75 10.46 2.75 11.73V11.77C2.75 13.04 3.09 13.25 4.1 13.25H19.9C20.91 13.25 21.25 13.04 21.25 11.77V11.73C21.25 10.46 20.91 10.25 19.9 10.25H4.1Z" />
        <path d="M19.9 22.25H4.1C2.18 22.25 1.25 21.27 1.25 19.27V19.23C1.25 17.22 2.18 16.25 4.1 16.25H19.9C21.82 16.25 22.75 17.23 22.75 19.23V19.27C22.75 21.27 21.82 22.25 19.9 22.25ZM4.1 17.75C3.09 17.75 2.75 17.96 2.75 19.23V19.27C2.75 20.54 3.09 20.75 4.1 20.75H19.9C20.91 20.75 21.25 20.54 21.25 19.27V19.23C21.25 17.96 20.91 17.75 19.9 17.75H4.1Z" />
    </svg>
    <svg id="tile" xmlns="http://www.w3.org/2000/svg" viewBox="0 0 24 24">
        <path d="M19.9 22.75H4.1C2.18 22.75 1.25 21.77 1.25 19.77V15.73C1.25 13.72 2.18 12.75 4.1 12.75H19.9C21.82 12.75 22.75 13.73 22.75 15.73V19.77C22.75 21.77 21.82 22.75 19.9 22.75ZM4.1 14.25C3.09 14.25 2.75 14.46 2.75 15.73V19.77C2.75 21.04 3.09 21.25 4.1 21.25H19.9C20.91 21.25 21.25 21.04 21.25 19.77V15.73C21.25 14.46 20.91 14.25 19.9 14.25H4.1Z" />
        <path d="M19.9 11.25H4.1C2.18 11.25 1.25 10.27 1.25 8.27V4.23C1.25 2.22 2.18 1.25 4.1 1.25H19.9C21.82 1.25 22.75 2.23 22.75 4.23V8.27C22.75 10.27 21.82 11.25 19.9 11.25ZM4.1 2.75C3.09 2.75 2.75 2.96 2.75 4.23V8.27C2.75 9.54 3.09 9.75 4.1 9.75H19.9C20.91 9.75 21.25 9.54 21.25 8.27V4.23C21.25 2.96 20.91 2.75 19.9 2.75H4.1Z" />
    </svg>
    <svg id="tippy" xmlns="http://www.w3.org/2000/svg" viewBox="0 0 24 24">
        <path d="M12 2C10.0222 2 8.08879 2.58649 6.4443 3.6853C4.79981 4.78412 3.51809 6.3459 2.76121 8.17316C2.00433 10.0004 1.8063 12.0111 2.19215 13.9509C2.578 15.8907 3.53041 17.6725 4.92894 19.0711C6.32746 20.4696 8.10929 21.422 10.0491 21.8078C11.9889 22.1937 13.9996 21.9957 15.8268 21.2388C17.6541 20.4819 19.2159 19.2002 20.3147 17.5557C21.4135 15.9112 22 13.9778 22 12C21.9971 9.34871 20.9426 6.80684 19.0679 4.9321C17.1932 3.05736 14.6513 2.00287 12 2ZM12 20.3333C10.3518 20.3333 8.74066 19.8446 7.37025 18.9289C5.99984 18.0132 4.93174 16.7117 4.30101 15.189C3.67028 13.6663 3.50525 11.9908 3.82679 10.3742C4.14834 8.75774 4.94201 7.27288 6.10745 6.10744C7.27288 4.94201 8.75774 4.14833 10.3743 3.82679C11.9908 3.50525 13.6663 3.67027 15.189 4.301C16.7117 4.93173 18.0132 5.99984 18.9289 7.37025C19.8446 8.74066 20.3333 10.3518 20.3333 12C20.3309 14.2094 19.4522 16.3276 17.8899 17.8899C16.3276 19.4522 14.2094 20.3309 12 20.3333Z" />
        <path d="M11.9987 10.334H11.1654C10.9444 10.334 10.7324 10.4218 10.5761 10.5781C10.4198 10.7343 10.332 10.9463 10.332 11.1673C10.332 11.3883 10.4198 11.6003 10.5761 11.7566C10.7324 11.9129 10.9444 12.0007 11.1654 12.0007H11.9987V17.0006C11.9987 17.2217 12.0865 17.4336 12.2428 17.5899C12.3991 17.7462 12.611 17.834 12.832 17.834C13.053 17.834 13.265 17.7462 13.4213 17.5899C13.5776 17.4336 13.6654 17.2217 13.6654 17.0006V12.0007C13.6654 11.5586 13.4898 11.1347 13.1772 10.8221C12.8646 10.5096 12.4407 10.334 11.9987 10.334Z" />
        <path d="M12 8.66602C12.6904 8.66602 13.25 8.10637 13.25 7.41602C13.25 6.72566 12.6904 6.16602 12 6.16602C11.3096 6.16602 10.75 6.72566 10.75 7.41602C10.75 8.10637 11.3096 8.66602 12 8.66602Z" />
    </svg>
    <svg id="whatsapp" xmlns="http://www.w3.org/2000/svg" viewBox="0 0 22 22">
        <path fill-rule="evenodd" clip-rule="evenodd"
            d="M13.5454 12.2468C13.1417 12.4118 12.8837 13.0438 12.6221 13.3668C12.4879 13.5322 12.3279 13.558 12.1217 13.4751C10.6063 12.8713 9.4446 11.8601 8.60835 10.4655C8.46669 10.2493 8.4921 10.0784 8.66294 9.87759C8.91543 9.58009 9.23293 9.24217 9.30126 8.84134C9.45293 7.95467 8.29377 5.20426 6.76295 6.45051C2.35797 10.0401 14.1112 19.5605 16.2325 14.4113C16.8325 12.9518 14.2146 11.9726 13.5454 12.2468ZM10.9988 19.803C9.44085 19.803 7.90794 19.3888 6.56586 18.6047C6.35045 18.4784 6.09003 18.4451 5.8492 18.5105L2.93297 19.3109L3.9488 17.073C4.01674 16.9236 4.04397 16.7589 4.02772 16.5956C4.01148 16.4322 3.95234 16.2761 3.8563 16.143C2.76963 14.6368 2.19505 12.8584 2.19505 10.9997C2.19505 6.14509 6.1442 2.19592 10.9988 2.19592C15.8533 2.19592 19.802 6.14509 19.802 10.9997C19.802 15.8538 15.8529 19.803 10.9988 19.803ZM10.9988 0.333008C5.11712 0.333008 0.332148 5.11801 0.332148 10.9997C0.332148 13.0688 0.919645 15.0559 2.03589 16.7805L0.415481 20.3493C0.342259 20.5105 0.316461 20.6892 0.341107 20.8645C0.365752 21.0398 0.439822 21.2045 0.554647 21.3393C0.642222 21.4418 0.750959 21.5241 0.873379 21.5805C0.995799 21.637 1.129 21.6663 1.26381 21.6663C1.86464 21.6663 5.14087 20.6368 5.97462 20.408C7.51586 21.2326 9.2446 21.6663 10.9988 21.6663C16.88 21.6663 21.6654 16.8809 21.6654 10.9997C21.6654 5.11801 16.88 0.333008 10.9988 0.333008Z" />
    </svg>
    <svg id="vk" xmlns="http://www.w3.org/2000/svg" viewBox="0 0 22 22">
        <path
            d="M19.5064 10.0169C19.8192 9.63031 20.0676 9.32009 20.251 9.08604C21.572 7.40699 22.1446 6.3344 21.9691 5.86678L21.9003 5.75726C21.8545 5.69148 21.7359 5.63107 21.5452 5.57639C21.3542 5.52175 21.1099 5.51301 20.8122 5.54909L17.5134 5.57133C17.4371 5.56406 17.3601 5.56576 17.2842 5.57639C17.2079 5.58749 17.1583 5.59863 17.1352 5.60926C17.1122 5.6204 17.0933 5.62933 17.0781 5.6366L17.0323 5.66947C16.9942 5.69124 16.9522 5.72968 16.9064 5.7846C16.8606 5.83948 16.8222 5.90309 16.7918 5.97633C16.4329 6.85959 16.0245 7.68098 15.5662 8.44023C15.2836 8.89288 15.0239 9.28556 14.7875 9.61727C14.5507 9.94974 14.3522 10.1942 14.1918 10.3509C14.0315 10.5078 13.8862 10.634 13.7565 10.7286C13.6265 10.8238 13.5274 10.8637 13.4589 10.8492C13.3937 10.8357 13.3287 10.821 13.2641 10.8052C13.1571 10.7397 13.0711 10.6505 13.0064 10.5371C12.9414 10.4242 12.8976 10.2817 12.8746 10.1101C12.8518 9.93864 12.8382 9.79068 12.8346 9.66638C12.8306 9.54237 12.8326 9.3673 12.8404 9.14072C12.848 8.91437 12.8518 8.76135 12.8518 8.68084C12.8518 8.40372 12.8576 8.10247 12.8691 7.7775C12.8804 7.45278 12.8901 7.19526 12.8976 7.00542C12.9052 6.81586 12.909 6.61492 12.909 6.40311C12.909 6.19178 12.8956 6.0254 12.8687 5.90478C12.8417 5.78427 12.8015 5.66683 12.7486 5.55442C12.695 5.4415 12.6168 5.35371 12.5136 5.29184C12.4105 5.2297 12.2827 5.18063 12.13 5.14384C11.725 5.05605 11.2096 5.00916 10.5836 5.00145C9.16319 4.98743 8.25065 5.07494 7.84597 5.2645C7.68562 5.34502 7.54044 5.4543 7.41071 5.5931C7.27313 5.7539 7.25416 5.84165 7.35356 5.85567C7.81183 5.92146 8.13613 6.07862 8.32706 6.3267L8.39587 6.45799C8.44922 6.55324 8.50262 6.72108 8.55622 6.96188C8.60961 7.20273 8.644 7.46918 8.65941 7.76127C8.6976 8.29416 8.6976 8.75021 8.65941 9.13009C8.62123 9.50993 8.58506 9.80542 8.55068 10.0167C8.51625 10.2286 8.46468 10.4 8.39612 10.5313C8.32731 10.663 8.28156 10.7433 8.25854 10.7726C8.23552 10.8016 8.21655 10.8199 8.20138 10.8272C8.10268 10.8635 7.99783 10.882 7.89209 10.8819C7.78509 10.8819 7.65533 10.8306 7.50258 10.7283C7.34979 10.6265 7.19122 10.4858 7.02732 10.3069C6.86292 10.1282 6.67802 9.87795 6.47163 9.55659C6.26549 9.23574 6.0515 8.85586 5.83019 8.41798L5.64707 8.10025C5.53251 7.89619 5.37592 7.59853 5.17739 7.20802C4.97885 6.81752 4.80305 6.43985 4.65055 6.07451C4.58934 5.92146 4.49776 5.80467 4.37564 5.72415L4.31849 5.69128C4.2803 5.66224 4.21909 5.63107 4.13512 5.59839C4.05031 5.56535 3.96192 5.54143 3.87157 5.52708L0.733062 5.54885C0.412363 5.54885 0.194858 5.6185 0.0802987 5.75726L0.0345082 5.8228C0.011365 5.85955 0 5.91806 0 5.9981C0 6.07862 0.0230192 6.17704 0.0688098 6.29359C0.527087 7.32315 1.02537 8.31597 1.56357 9.27201C2.10207 10.2286 2.56973 10.9989 2.9668 11.5828C3.36387 12.1673 3.76854 12.718 4.18107 13.2364C4.5936 13.7548 4.86648 14.0868 5.00001 14.2326C5.13354 14.3789 5.23851 14.4885 5.31493 14.5612L5.60124 14.8243C5.78436 14.9994 6.05373 15.2092 6.40886 15.4539C6.76394 15.6986 7.157 15.9394 7.58875 16.1764C8.02 16.4139 8.52229 16.607 9.09488 16.757C9.66751 16.9069 10.2249 16.967 10.7672 16.9376H12.0844C12.3518 16.9158 12.554 16.8358 12.6915 16.6967L12.7372 16.6421C12.7675 16.5985 12.7964 16.5309 12.8232 16.4397C12.8497 16.3485 12.8635 16.2479 12.8635 16.1386C12.8556 15.8248 12.8807 15.5414 12.9378 15.29C12.995 15.038 13.0599 14.8484 13.1326 14.7203C13.2052 14.5929 13.2871 14.485 13.3789 14.3973C13.4705 14.3095 13.5352 14.257 13.5736 14.2386C13.6118 14.2207 13.6425 14.2079 13.6653 14.2002C13.8483 14.1419 14.0641 14.1985 14.3124 14.3699C14.5606 14.5419 14.7935 14.7532 15.0113 15.0051C15.2287 15.257 15.4903 15.5397 15.7958 15.8538C16.1011 16.1676 16.3684 16.4012 16.5976 16.5545L16.8267 16.6863C16.9794 16.7736 17.1778 16.8538 17.4223 16.9271C17.6667 16.9999 17.8807 17.0183 18.0637 16.9818L20.9961 16.9378C21.2862 16.9378 21.5116 16.8923 21.672 16.8009C21.8323 16.7102 21.9277 16.6092 21.9583 16.4999C21.9886 16.3904 21.9907 16.2668 21.9641 16.1277C21.9373 15.9892 21.9105 15.8925 21.884 15.8378C21.8572 15.7832 21.8323 15.7372 21.8093 15.701C21.4275 15.044 20.6982 14.2371 19.6215 13.2809L19.5985 13.2591L19.5872 13.248L19.5758 13.2373H19.5643C19.0754 12.7919 18.7663 12.4926 18.6365 12.339C18.3999 12.0475 18.3462 11.7517 18.4762 11.4524C18.5673 11.2254 18.9107 10.7472 19.5064 10.0169Z" />
    </svg>
    <svg id="telegram" xmlns="http://www.w3.org/2000/svg" viewBox="0 0 22 22">
        <path
            d="M8.40229 13.2756L8.12037 17.2642C8.52373 17.2642 8.69842 17.0899 8.90791 16.8806L10.799 15.0628L14.7175 17.9492C15.4362 18.3521 15.9425 18.1399 16.1364 17.2842L18.7085 5.16136L18.7092 5.16064C18.9371 4.09207 18.325 3.67421 17.6248 3.93636L2.50606 9.7585C1.47423 10.1614 1.48986 10.7399 2.33066 11.0021L6.19591 12.2114L15.1741 6.56064C15.5966 6.27921 15.9808 6.43493 15.6648 6.71636L8.40229 13.2756Z" />
    </svg>
    <svg id="youtube" xmlns="http://www.w3.org/2000/svg" viewBox="0 0 24 24">
        <path
            d="M22.5398 6.42C22.4155 5.95184 22.1704 5.52454 21.8291 5.18091C21.4877 4.83727 21.062 4.58936 20.5947 4.462C18.8796 4 12 4 12 4C12 4 5.12042 4 3.40442 4.462C2.93721 4.58942 2.51168 4.83736 2.17045 5.181C1.82923 5.52464 1.58429 5.9519 1.46017 6.42C1 8.147 1 11.7495 1 11.7495C1 11.7495 1 15.352 1.46017 17.079C1.58445 17.5472 1.82956 17.9745 2.17094 18.3181C2.51232 18.6617 2.938 18.9096 3.40533 19.037C5.12042 19.499 12 19.499 12 19.499C12 19.499 18.8796 19.499 20.5956 19.037C21.0628 18.9095 21.4884 18.6615 21.8298 18.3179C22.1711 17.9743 22.4163 17.5471 22.5408 17.079C23 15.352 23 11.7495 23 11.7495C23 11.7495 23 8.147 22.5398 6.42ZM9.7505 15.0211V8.47792L15.4998 11.7495L9.7505 15.0211Z" />
    </svg>
    <svg id="bin" xmlns="http://www.w3.org/2000/svg" viewBox="0 0 24 24">
        <path d="M20.9997 6.73046C20.9797 6.73046 20.9497 6.73046 20.9197 6.73046C15.6297 6.20046 10.3497 6.00046 5.11967 6.53046L3.07967 6.73046C2.65967 6.77046 2.28967 6.47046 2.24967 6.05046C2.20967 5.63046 2.50967 5.27046 2.91967 5.23046L4.95967 5.03046C10.2797 4.49046 15.6697 4.70046 21.0697 5.23046C21.4797 5.27046 21.7797 5.64046 21.7397 6.05046C21.7097 6.44046 21.3797 6.73046 20.9997 6.73046Z" />
        <path d="M8.50074 5.72C8.46074 5.72 8.42074 5.72 8.37074 5.71C7.97074 5.64 7.69074 5.25 7.76074 4.85L7.98074 3.54C8.14074 2.58 8.36074 1.25 10.6907 1.25H13.3107C15.6507 1.25 15.8707 2.63 16.0207 3.55L16.2407 4.85C16.3107 5.26 16.0307 5.65 15.6307 5.71C15.2207 5.78 14.8307 5.5 14.7707 5.1L14.5507 3.8C14.4107 2.93 14.3807 2.76 13.3207 2.76H10.7007C9.64074 2.76 9.62074 2.9 9.47074 3.79L9.24074 5.09C9.18074 5.46 8.86074 5.72 8.50074 5.72Z" />
        <path d="M15.2104 22.7496H8.79039C5.30039 22.7496 5.16039 20.8196 5.05039 19.2596L4.40039 9.18959C4.37039 8.77959 4.69039 8.41959 5.10039 8.38959C5.52039 8.36959 5.87039 8.67959 5.90039 9.08959L6.55039 19.1596C6.66039 20.6796 6.70039 21.2496 8.79039 21.2496H15.2104C17.3104 21.2496 17.3504 20.6796 17.4504 19.1596L18.1004 9.08959C18.1304 8.67959 18.4904 8.36959 18.9004 8.38959C19.3104 8.41959 19.6304 8.76959 19.6004 9.18959L18.9504 19.2596C18.8404 20.8196 18.7004 22.7496 15.2104 22.7496Z" />
        <path d="M13.6601 17.25H10.3301C9.92008 17.25 9.58008 16.91 9.58008 16.5C9.58008 16.09 9.92008 15.75 10.3301 15.75H13.6601C14.0701 15.75 14.4101 16.09 14.4101 16.5C14.4101 16.91 14.0701 17.25 13.6601 17.25Z" />
        <path d="M14.5 13.25H9.5C9.09 13.25 8.75 12.91 8.75 12.5C8.75 12.09 9.09 11.75 9.5 11.75H14.5C14.91 11.75 15.25 12.09 15.25 12.5C15.25 12.91 14.91 13.25 14.5 13.25Z" />
    </svg>
    <svg id="download" xmlns="http://www.w3.org/2000/svg" viewBox="0 0 24 24">
        <path d="M9 17.75C8.9 17.75 8.81 17.73 8.71 17.69C8.43 17.58 8.25 17.3 8.25 17V11C8.25 10.59 8.59 10.25 9 10.25C9.41 10.25 9.75 10.59 9.75 11V15.19L10.47 14.47C10.76 14.18 11.24 14.18 11.53 14.47C11.82 14.76 11.82 15.24 11.53 15.53L9.53 17.53C9.39 17.67 9.19 17.75 9 17.75Z" />
        <path d="M8.99945 17.7495C8.80945 17.7495 8.61945 17.6795 8.46945 17.5295L6.46945 15.5295C6.17945 15.2395 6.17945 14.7595 6.46945 14.4695C6.75945 14.1795 7.23945 14.1795 7.52945 14.4695L9.52945 16.4695C9.81945 16.7595 9.81945 17.2395 9.52945 17.5295C9.37945 17.6795 9.18945 17.7495 8.99945 17.7495Z" />
        <path d="M15 22.75H9C3.57 22.75 1.25 20.43 1.25 15V9C1.25 3.57 3.57 1.25 9 1.25H14C14.41 1.25 14.75 1.59 14.75 2C14.75 2.41 14.41 2.75 14 2.75H9C4.39 2.75 2.75 4.39 2.75 9V15C2.75 19.61 4.39 21.25 9 21.25H15C19.61 21.25 21.25 19.61 21.25 15V10C21.25 9.59 21.59 9.25 22 9.25C22.41 9.25 22.75 9.59 22.75 10V15C22.75 20.43 20.43 22.75 15 22.75Z" />
        <path d="M22 10.7505H18C14.58 10.7505 13.25 9.42048 13.25 6.00048V2.00048C13.25 1.70048 13.43 1.42048 13.71 1.31048C13.99 1.19048 14.31 1.26048 14.53 1.47048L22.53 9.47048C22.74 9.68048 22.81 10.0105 22.69 10.2905C22.57 10.5705 22.3 10.7505 22 10.7505ZM14.75 3.81048V6.00048C14.75 8.58048 15.42 9.25048 18 9.25048H20.19L14.75 3.81048Z" />
    </svg>
    <svg id="check" xmlns="http://www.w3.org/2000/svg" viewBox="0 0 25 24">
        <path d="M10.0631 18.4377C9.82095 18.4378 9.58115 18.3901 9.35745 18.2974C9.13375 18.2047 8.93054 18.0688 8.75945 17.8974L4.81807 13.9575C4.39398 13.5332 4.39398 12.8456 4.81807 12.4213C5.2423 11.9972 5.92998 11.9972 6.35421 12.4213L10.0631 16.1302L19.8753 6.31807C20.2995 5.89398 20.9872 5.89398 21.4114 6.31807C21.8355 6.7423 21.8355 7.42998 21.4114 7.85421L11.3668 17.8974C11.1957 18.0688 10.9925 18.2047 10.7688 18.2974C10.5451 18.3901 10.3053 18.4378 10.0631 18.4377Z" />
    </svg>
    <svg id="sort" xmlns="http://www.w3.org/2000/svg" viewBox="0 0 20 20">
        <path d="M9.29042 14.1817L7.11796 16.3542V3.15972C7.11796 2.98475 7.04845 2.81695 6.92473 2.69323C6.80101 2.56951 6.6332 2.5 6.45823 2.5C6.28326 2.5 6.11546 2.56951 5.99174 2.69323C5.86802 2.81695 5.79851 2.98475 5.79851 3.15972V16.3542L3.62605 14.1817C3.56479 14.1205 3.49208 14.0719 3.41205 14.0387C3.33202 14.0056 3.24625 13.9885 3.15962 13.9885C3.073 13.9885 2.98723 14.0056 2.9072 14.0387C2.82717 14.0719 2.75445 14.1205 2.6932 14.1817C2.63195 14.243 2.58336 14.3157 2.55021 14.3957C2.51706 14.4757 2.5 14.5615 2.5 14.6481C2.5 14.7347 2.51706 14.8205 2.55021 14.9006C2.58336 14.9806 2.63195 15.0533 2.6932 15.1145L5.52539 17.9467C5.78268 18.204 6.12046 18.3327 6.45823 18.3327C6.79601 18.3327 7.13379 18.204 7.39108 17.9467L10.2233 15.1145C10.2845 15.0533 10.3331 14.9806 10.3663 14.9006C10.3994 14.8205 10.4165 14.7347 10.4165 14.6481C10.4165 14.5615 10.3994 14.4757 10.3663 14.3957C10.3331 14.3157 10.2845 14.243 10.2233 14.1817C10.162 14.1205 10.0893 14.0719 10.0093 14.0387C9.92924 14.0056 9.84347 13.9885 9.75685 13.9885C9.67022 13.9885 9.58445 14.0056 9.50442 14.0387C9.42439 14.0719 9.35167 14.1205 9.29042 14.1817ZM16.8205 6.65163C16.8818 6.59042 16.9305 6.51771 16.9636 6.43768C16.9968 6.35765 17.0139 6.27185 17.0139 6.18521C17.0139 6.09856 16.9968 6.01277 16.9636 5.93274C16.9305 5.8527 16.8818 5.78 16.8205 5.71879L13.9883 2.8866C13.731 2.62931 13.3932 2.5 13.0555 2.5C12.7177 2.5 12.3799 2.62865 12.1226 2.88594L9.29042 5.71813C9.16672 5.84183 9.09722 6.00961 9.09722 6.18455C9.09722 6.35949 9.16672 6.52727 9.29042 6.65097C9.41413 6.77468 9.5819 6.84417 9.75685 6.84417C9.93179 6.84417 10.0996 6.77468 10.2233 6.65097L12.3957 4.47851V17.6736C12.3957 17.8486 12.4652 18.0164 12.589 18.1401C12.7127 18.2638 12.8805 18.3333 13.0555 18.3333C13.2304 18.3333 13.3982 18.2638 13.522 18.1401C13.6457 18.0164 13.7152 17.8486 13.7152 17.6736V4.47917L15.8876 6.65163C15.9489 6.71295 16.0216 6.7616 16.1016 6.79479C16.1816 6.82798 16.2674 6.84506 16.3541 6.84506C16.4407 6.84506 16.5265 6.82798 16.6065 6.79479C16.6866 6.7616 16.7593 6.71295 16.8205 6.65163Z" />
    </svg>
    <svg id="account-profile" xmlns="http://www.w3.org/2000/svg" viewBox="0 0 24 24">
        <path d="M12 12.75C8.83 12.75 6.25 10.17 6.25 7C6.25 3.83 8.83 1.25 12 1.25C15.17 1.25 17.75 3.83 17.75 7C17.75 10.17 15.17 12.75 12 12.75ZM12 2.75C9.66 2.75 7.75 4.66 7.75 7C7.75 9.34 9.66 11.25 12 11.25C14.34 11.25 16.25 9.34 16.25 7C16.25 4.66 14.34 2.75 12 2.75Z" />
        <path d="M15.8201 22.7513C15.4401 22.7513 15.0801 22.6113 14.8201 22.3513C14.5101 22.0413 14.3701 21.5913 14.4401 21.1213L14.6301 19.7714C14.6801 19.4214 14.8901 19.0113 15.1401 18.7513L18.68 15.2114C20.1 13.7914 21.3501 14.6014 21.9601 15.2114C22.4801 15.7314 22.7501 16.2913 22.7501 16.8513C22.7501 17.4213 22.4901 17.9513 21.9601 18.4813L18.42 22.0214C18.17 22.2714 17.7501 22.4814 17.4001 22.5314L16.05 22.7213C15.97 22.7413 15.9001 22.7513 15.8201 22.7513ZM20.31 15.9213C20.13 15.9213 19.97 16.0414 19.74 16.2714L16.2001 19.8113C16.1701 19.8413 16.12 19.9413 16.12 19.9813L15.9401 21.2313L17.1901 21.0513C17.2301 21.0413 17.33 20.9914 17.36 20.9614L20.9001 17.4213C21.0601 17.2613 21.2501 17.0313 21.2501 16.8513C21.2501 16.7013 21.1301 16.4914 20.9001 16.2714C20.6601 16.0314 20.48 15.9213 20.31 15.9213Z" />
        <path d="M20.9201 19.2213C20.8501 19.2213 20.7801 19.2113 20.7201 19.1913C19.4001 18.8213 18.3501 17.7714 17.9801 16.4514C17.8701 16.0514 18.1001 15.6414 18.5001 15.5314C18.9001 15.4214 19.3101 15.6513 19.4201 16.0513C19.6501 16.8713 20.3001 17.5213 21.1201 17.7513C21.5201 17.8613 21.7501 18.2813 21.6401 18.6713C21.5501 19.0013 21.2501 19.2213 20.9201 19.2213Z" />
        <path d="M3.41016 22.75C3.00016 22.75 2.66016 22.41 2.66016 22C2.66016 17.73 6.85018 14.25 12.0002 14.25C13.0902 14.25 14.1702 14.41 15.1802 14.71C15.5802 14.83 15.8002 15.25 15.6802 15.64C15.5602 16.04 15.1402 16.26 14.7502 16.14C13.8702 15.88 12.9502 15.74 12.0002 15.74C7.68018 15.74 4.16016 18.54 4.16016 21.99C4.16016 22.41 3.82016 22.75 3.41016 22.75Z" />
    </svg>
    <svg id="account-cart" xmlns="http://www.w3.org/2000/svg" viewBox="0 0 24 24">
        <path d="M7.54688 21.0171C8.4221 21.0171 9.1316 20.3076 9.1316 19.4324C9.1316 18.5572 8.4221 17.8477 7.54688 17.8477C6.67166 17.8477 5.96216 18.5572 5.96216 19.4324C5.96216 20.3076 6.67166 21.0171 7.54688 21.0171Z" />
        <path d="M15.4714 21.0171C16.3467 21.0171 17.0562 20.3076 17.0562 19.4324C17.0562 18.5572 16.3467 17.8477 15.4714 17.8477C14.5962 17.8477 13.8867 18.5572 13.8867 19.4324C13.8867 20.3076 14.5962 21.0171 15.4714 21.0171Z" />
        <path d="M20.7681 3.06012C20.6195 2.91157 20.418 2.82812 20.2079 2.82812C19.9978 2.82812 19.7963 2.91157 19.6477 3.06012L15.5599 7.15187L14.331 5.86904C14.1853 5.71752 13.9855 5.63006 13.7754 5.6259C13.5653 5.62174 13.3621 5.70122 13.2106 5.84685C13.0591 5.99249 12.9716 6.19234 12.9674 6.40246C12.9633 6.61257 13.0428 6.81574 13.1884 6.96725L14.4673 8.29763C14.6035 8.44481 14.7682 8.56283 14.9514 8.64454C15.1346 8.72626 15.3324 8.76997 15.533 8.77304H15.5591C15.7557 8.77369 15.9504 8.73529 16.132 8.66007C16.3136 8.58485 16.4784 8.47431 16.6169 8.33487L20.7681 4.18052C20.9167 4.03193 21.0001 3.83042 21.0001 3.62032C21.0001 3.41021 20.9167 3.20871 20.7681 3.06012Z" />
        <path d="M19.3527 9.14393C19.2503 9.12542 19.1452 9.12728 19.0435 9.1494C18.9417 9.17152 18.8454 9.21348 18.7599 9.27286C18.6743 9.33224 18.6014 9.40789 18.5451 9.49549C18.4889 9.58308 18.4504 9.68091 18.432 9.78337L18.3306 10.3451C18.2317 10.8937 17.9432 11.3901 17.5155 11.7476C17.0878 12.105 16.5481 12.3008 15.9907 12.3007H6.29301L5.54819 5.96181H10.716C10.9261 5.96181 11.1277 5.87833 11.2763 5.72973C11.4249 5.58113 11.5083 5.37959 11.5083 5.16945C11.5083 4.9593 11.4249 4.75776 11.2763 4.60916C11.1277 4.46057 10.9261 4.37708 10.716 4.37708H5.3612L5.32792 4.09817C5.25963 3.52022 4.9817 2.9874 4.5468 2.60069C4.11189 2.21398 3.55023 2.00025 2.96827 2H2.79236C2.58221 2 2.38067 2.08348 2.23208 2.23208C2.08348 2.38067 2 2.58221 2 2.79236C2 3.00251 2.08348 3.20405 2.23208 3.35265C2.38067 3.50124 2.58221 3.58472 2.79236 3.58472H2.96827C3.16234 3.58475 3.34966 3.656 3.49469 3.78496C3.63972 3.91393 3.73237 4.09164 3.75508 4.28438L4.84537 13.555C4.95856 14.5191 5.4218 15.4082 6.14715 16.0533C6.8725 16.6985 7.80948 17.0549 8.78024 17.0549H17.0549C17.265 17.0549 17.4666 16.9714 17.6152 16.8228C17.7637 16.6742 17.8472 16.4727 17.8472 16.2625C17.8472 16.0524 17.7637 15.8508 17.6152 15.7022C17.4666 15.5536 17.265 15.4701 17.0549 15.4701H8.78024C8.28859 15.4702 7.80901 15.3179 7.40756 15.0341C7.0061 14.7503 6.70253 14.3489 6.53865 13.8854H15.9907C16.9196 13.8855 17.819 13.5592 18.5317 12.9635C19.2444 12.3678 19.7252 11.5406 19.8899 10.6264L19.9914 10.0639C20.0285 9.8572 19.9821 9.64423 19.8624 9.47174C19.7427 9.29925 19.5593 9.18135 19.3527 9.14393Z" />
    </svg>
    <svg id="log-out" xmlns="http://www.w3.org/2000/svg" viewBox="0 0 24 24">
        <path d="M15.24 22.2705H15.11C10.67 22.2705 8.53002 20.5205 8.16002 16.6005C8.12002 16.1905 8.42002 15.8205 8.84002 15.7805C9.24002 15.7405 9.62002 16.0505 9.66002 16.4605C9.95002 19.6005 11.43 20.7705 15.12 20.7705H15.25C19.32 20.7705 20.76 19.3305 20.76 15.2605V8.74047C20.76 4.67047 19.32 3.23047 15.25 3.23047H15.12C11.41 3.23047 9.93002 4.42047 9.66002 7.62047C9.61002 8.03047 9.26002 8.34047 8.84002 8.30047C8.42002 8.27047 8.12001 7.90047 8.15001 7.49047C8.49001 3.51047 10.64 1.73047 15.11 1.73047H15.24C20.15 1.73047 22.25 3.83047 22.25 8.74047V15.2605C22.25 20.1705 20.15 22.2705 15.24 22.2705Z" />
        <path d="M15.0001 12.75H3.62012C3.21012 12.75 2.87012 12.41 2.87012 12C2.87012 11.59 3.21012 11.25 3.62012 11.25H15.0001C15.4101 11.25 15.7501 11.59 15.7501 12C15.7501 12.41 15.4101 12.75 15.0001 12.75Z" />
        <path d="M5.84994 16.0998C5.65994 16.0998 5.46994 16.0298 5.31994 15.8798L1.96994 12.5298C1.67994 12.2398 1.67994 11.7598 1.96994 11.4698L5.31994 8.11984C5.60994 7.82984 6.08994 7.82984 6.37994 8.11984C6.66994 8.40984 6.66994 8.88984 6.37994 9.17984L3.55994 11.9998L6.37994 14.8198C6.66994 15.1098 6.66994 15.5898 6.37994 15.8798C6.23994 16.0298 6.03994 16.0998 5.84994 16.0998Z" />
    </svg>
    <svg id="orders" xmlns="http://www.w3.org/2000/svg" viewBox="0 0 24 24">
        <path d="M15 12.9492H8C7.59 12.9492 7.25 12.6092 7.25 12.1992C7.25 11.7892 7.59 11.4492 8 11.4492H15C15.41 11.4492 15.75 11.7892 15.75 12.1992C15.75 12.6092 15.41 12.9492 15 12.9492Z" />
        <path d="M12.38 16.9492H8C7.59 16.9492 7.25 16.6092 7.25 16.1992C7.25 15.7892 7.59 15.4492 8 15.4492H12.38C12.79 15.4492 13.13 15.7892 13.13 16.1992C13.13 16.6092 12.79 16.9492 12.38 16.9492Z" />
        <path d="M14 6.75H10C9.04 6.75 7.25 6.75 7.25 4C7.25 1.25 9.04 1.25 10 1.25H14C14.96 1.25 16.75 1.25 16.75 4C16.75 4.96 16.75 6.75 14 6.75ZM10 2.75C9.01 2.75 8.75 2.75 8.75 4C8.75 5.25 9.01 5.25 10 5.25H14C15.25 5.25 15.25 4.99 15.25 4C15.25 2.75 14.99 2.75 14 2.75H10Z" />
        <path d="M15 22.7504H9C3.38 22.7504 2.25 20.1704 2.25 16.0004V10.0004C2.25 5.44042 3.9 3.49042 7.96 3.28042C8.36 3.26042 8.73 3.57042 8.75 3.99042C8.77 4.41042 8.45 4.75042 8.04 4.77042C5.2 4.93042 3.75 5.78042 3.75 10.0004V16.0004C3.75 19.7004 4.48 21.2504 9 21.2504H15C19.52 21.2504 20.25 19.7004 20.25 16.0004V10.0004C20.25 5.78042 18.8 4.93042 15.96 4.77042C15.55 4.75042 15.23 4.39042 15.25 3.98042C15.27 3.57042 15.63 3.25042 16.04 3.27042C20.1 3.49042 21.75 5.44042 21.75 9.99042V15.9904C21.75 20.1704 20.62 22.7504 15 22.7504Z" />
    </svg>
    <svg id="price-list" xmlns="http://www.w3.org/2000/svg" viewBox="0 0 24 24">
        <path d="M15 22.75H9C3.57 22.75 1.25 20.43 1.25 15V9C1.25 3.57 3.57 1.25 9 1.25H14C14.41 1.25 14.75 1.59 14.75 2C14.75 2.41 14.41 2.75 14 2.75H9C4.39 2.75 2.75 4.39 2.75 9V15C2.75 19.61 4.39 21.25 9 21.25H15C19.61 21.25 21.25 19.61 21.25 15V10C21.25 9.59 21.59 9.25 22 9.25C22.41 9.25 22.75 9.59 22.75 10V15C22.75 20.43 20.43 22.75 15 22.75Z" />
        <path d="M22 10.7485H18C14.58 10.7485 13.25 9.41852 13.25 5.99852V1.99852C13.25 1.69852 13.43 1.41852 13.71 1.30852C13.99 1.18852 14.31 1.25852 14.53 1.46852L22.53 9.46852C22.74 9.67852 22.81 10.0085 22.69 10.2885C22.57 10.5685 22.3 10.7485 22 10.7485ZM14.75 3.80852V5.99852C14.75 8.57852 15.42 9.24852 18 9.24852H20.19L14.75 3.80852Z" />
        <path d="M13 13.75H7C6.59 13.75 6.25 13.41 6.25 13C6.25 12.59 6.59 12.25 7 12.25H13C13.41 12.25 13.75 12.59 13.75 13C13.75 13.41 13.41 13.75 13 13.75Z" />
        <path d="M11 17.75H7C6.59 17.75 6.25 17.41 6.25 17C6.25 16.59 6.59 16.25 7 16.25H11C11.41 16.25 11.75 16.59 11.75 17C11.75 17.41 11.41 17.75 11 17.75Z" />
    </svg>
    <svg id="edit" xmlns="http://www.w3.org/2000/svg" viewBox="0 0 20 20">
        <path d="M12.4993 18.9596H7.49935C2.97435 18.9596 1.04102 17.0263 1.04102 12.5013V7.5013C1.04102 2.9763 2.97435 1.04297 7.49935 1.04297H9.16602C9.50768 1.04297 9.79102 1.3263 9.79102 1.66797C9.79102 2.00964 9.50768 2.29297 9.16602 2.29297H7.49935C3.65768 2.29297 2.29102 3.65964 2.29102 7.5013V12.5013C2.29102 16.343 3.65768 17.7096 7.49935 17.7096H12.4993C16.341 17.7096 17.7077 16.343 17.7077 12.5013V10.8346C17.7077 10.493 17.991 10.2096 18.3327 10.2096C18.6744 10.2096 18.9577 10.493 18.9577 10.8346V12.5013C18.9577 17.0263 17.0243 18.9596 12.4993 18.9596Z" />
        <path d="M7.08409 14.7424C6.57576 14.7424 6.10909 14.5591 5.76742 14.2258C5.35909 13.8174 5.18409 13.2258 5.27576 12.6008L5.63409 10.0924C5.70076 9.60911 6.01742 8.98411 6.35909 8.64245L12.9258 2.07578C14.5841 0.417448 16.2674 0.417448 17.9258 2.07578C18.8341 2.98411 19.2424 3.90911 19.1591 4.83411C19.0841 5.58411 18.6841 6.31745 17.9258 7.06745L11.3591 13.6341C11.0174 13.9758 10.3924 14.2924 9.90909 14.3591L7.40076 14.7174C7.29242 14.7424 7.18409 14.7424 7.08409 14.7424ZM13.8091 2.95911L7.24242 9.52578C7.08409 9.68411 6.90076 10.0508 6.86742 10.2674L6.50909 12.7758C6.47576 13.0174 6.52576 13.2174 6.65076 13.3424C6.77576 13.4674 6.97576 13.5174 7.21742 13.4841L9.72576 13.1258C9.94242 13.0924 10.3174 12.9091 10.4674 12.7508L17.0341 6.18411C17.5758 5.64245 17.8591 5.15911 17.9008 4.70911C17.9508 4.16745 17.6674 3.59245 17.0341 2.95078C15.7008 1.61745 14.7841 1.99245 13.8091 2.95911Z" />
        <path d="M16.5423 8.19319C16.484 8.19319 16.4256 8.18486 16.3756 8.16819C14.1839 7.55153 12.4423 5.80986 11.8256 3.61819C11.7339 3.28486 11.9256 2.94319 12.2589 2.84319C12.5923 2.75153 12.934 2.94319 13.0256 3.27653C13.5256 5.05153 14.9339 6.45986 16.7089 6.95986C17.0423 7.05153 17.2339 7.40153 17.1423 7.73486C17.0673 8.01819 16.8173 8.19319 16.5423 8.19319Z" />
    </svg>
    <svg id="plus-btn" xmlns="http://www.w3.org/2000/svg" viewBox="0 0 24 24">
        <path d="M19.875 10.875H13.125V4.125C13.125 3.50368 12.6213 3 12 3C11.3787 3 10.875 3.50368 10.875 4.125V10.875H4.125C3.50368 10.875 3 11.3787 3 12C3 12.6213 3.50368 13.125 4.125 13.125H10.875V19.875C10.875 20.4963 11.3787 21 12 21C12.6213 21 13.125 20.4963 13.125 19.875V13.125H19.875C20.4963 13.125 21 12.6213 21 12C21 11.3787 20.4963 10.875 19.875 10.875Z" />
    </svg>
    <svg id="calculator" xmlns="http://www.w3.org/2000/svg" viewBox="0 0 24 24">
        <path d="M14 22.75H10C4.57 22.75 2.25 20.43 2.25 15V9C2.25 3.57 4.57 1.25 10 1.25H14C19.43 1.25 21.75 3.57 21.75 9V15C21.75 20.43 19.43 22.75 14 22.75ZM10 2.75C5.39 2.75 3.75 4.39 3.75 9V15C3.75 19.61 5.39 21.25 10 21.25H14C18.61 21.25 20.25 19.61 20.25 15V9C20.25 4.39 18.61 2.75 14 2.75H10Z" />
        <path d="M15 10.8301H9C7.76 10.8301 6.75 9.82008 6.75 8.58008V7.58008C6.75 6.34008 7.76 5.33008 9 5.33008H15C16.24 5.33008 17.25 6.34008 17.25 7.58008V8.58008C17.25 9.82008 16.24 10.8301 15 10.8301ZM9 6.83008C8.59 6.83008 8.25 7.17008 8.25 7.58008V8.58008C8.25 8.99008 8.59 9.33008 9 9.33008H15C15.41 9.33008 15.75 8.99008 15.75 8.58008V7.58008C15.75 7.17008 15.41 6.83008 15 6.83008H9Z" />
        <path d="M8.15016 14.9198C8.02016 14.9198 7.89016 14.8898 7.77016 14.8398C7.65016 14.7898 7.54016 14.7198 7.45016 14.6298C7.26016 14.4398 7.16016 14.1898 7.16016 13.9198C7.16016 13.7898 7.18016 13.6598 7.23016 13.5398C7.28016 13.4098 7.35016 13.3098 7.45016 13.2098C7.49016 13.1698 7.54016 13.1198 7.60016 13.0898C7.65016 13.0498 7.71016 13.0198 7.77016 12.9998C7.83016 12.9698 7.90016 12.9498 7.96016 12.9398C8.28016 12.8698 8.63016 12.9798 8.86016 13.2098C8.95016 13.2998 9.03016 13.4098 9.08016 13.5398C9.13016 13.6598 9.16016 13.7898 9.16016 13.9198C9.16016 14.1898 9.05016 14.4398 8.86016 14.6298C8.67016 14.8198 8.42016 14.9198 8.15016 14.9198Z" />
        <path d="M12.1602 14.9199C11.8902 14.9199 11.6402 14.8199 11.4502 14.6299C11.2602 14.4399 11.1602 14.1899 11.1602 13.9199C11.1602 13.7899 11.1802 13.6599 11.2302 13.5399C11.2802 13.4099 11.3502 13.3099 11.4502 13.2099C11.4902 13.1699 11.5402 13.1199 11.6002 13.0899C11.6502 13.0499 11.7102 13.0199 11.7702 12.9999C11.8302 12.9699 11.9002 12.9499 11.9602 12.9399C12.1502 12.8999 12.3502 12.9199 12.5402 12.9999C12.6602 13.0499 12.7702 13.1199 12.8602 13.2099C12.9502 13.3099 13.0302 13.4099 13.0802 13.5399C13.1302 13.6599 13.1602 13.7899 13.1602 13.9199C13.1602 14.1899 13.0502 14.4399 12.8602 14.6299C12.6702 14.8199 12.4202 14.9199 12.1602 14.9199Z" />
        <path d="M16.1502 14.9201C16.0202 14.9201 15.8902 14.8901 15.7702 14.8401C15.6502 14.7901 15.5402 14.7201 15.4502 14.6301C15.3502 14.5301 15.2802 14.4201 15.2302 14.3001C15.1802 14.1801 15.1602 14.0501 15.1602 13.9201C15.1602 13.7901 15.1802 13.6601 15.2302 13.5401C15.2802 13.4101 15.3502 13.3101 15.4502 13.2101C15.8202 12.8401 16.4902 12.8401 16.8602 13.2101C17.0502 13.4001 17.1602 13.6601 17.1602 13.9201C17.1602 14.1901 17.0502 14.4401 16.8602 14.6301C16.6802 14.8101 16.4302 14.9201 16.1502 14.9201Z" />
        <path d="M8.1599 18.9199C7.8899 18.9199 7.6399 18.8199 7.4499 18.6299C7.2599 18.4399 7.1499 18.1899 7.1499 17.9199C7.1499 17.6599 7.2599 17.3999 7.4499 17.2099C7.4899 17.1699 7.5499 17.1199 7.5999 17.0899C7.6499 17.0499 7.7099 17.0199 7.7699 16.9999C7.8299 16.9699 7.8999 16.9499 7.9599 16.9399C8.2899 16.8799 8.6299 16.9799 8.8599 17.2099C8.9099 17.2599 8.9499 17.3099 8.9899 17.3599C9.0199 17.4199 9.0499 17.4799 9.0799 17.5399C9.0999 17.5999 9.1199 17.6599 9.1399 17.7199C9.1499 17.7899 9.1599 17.8499 9.1599 17.9199C9.1599 18.1899 9.0499 18.4399 8.8599 18.6299C8.6699 18.8199 8.4199 18.9199 8.1599 18.9199Z" />
        <path d="M12.1599 18.9199C11.8899 18.9199 11.6399 18.8199 11.4499 18.6299C11.2599 18.4399 11.1499 18.1899 11.1499 17.9199C11.1499 17.6599 11.2599 17.3999 11.4499 17.2099C11.6799 16.9799 12.0299 16.8799 12.3499 16.9399C12.4099 16.9499 12.4799 16.9699 12.5399 16.9999C12.5999 17.0199 12.6599 17.0499 12.7099 17.0899C12.7599 17.1199 12.8099 17.1699 12.8599 17.2099C13.0499 17.3999 13.1499 17.6599 13.1499 17.9199C13.1499 18.1899 13.0499 18.4399 12.8599 18.6299C12.6699 18.8199 12.4199 18.9199 12.1599 18.9199Z" />
        <path d="M16.1502 18.9202C15.8902 18.9202 15.6402 18.8202 15.4502 18.6302C15.2602 18.4402 15.1602 18.1902 15.1602 17.9202C15.1602 17.6602 15.2602 17.4002 15.4502 17.2102C15.5402 17.1202 15.6502 17.0502 15.7702 17.0002C16.1402 16.8502 16.5902 16.9302 16.8602 17.2102C17.0502 17.4002 17.1502 17.6602 17.1502 17.9202C17.1502 18.1902 17.0502 18.4402 16.8602 18.6302C16.7702 18.7202 16.6602 18.7902 16.5402 18.8402C16.4202 18.8902 16.2902 18.9202 16.1502 18.9202Z" />
    </svg>
</svg>