<svg width="32" height="32" viewBox="0 0 32 32" fill="none" xmlns="http://www.w3.org/2000/svg">
<path d="M13.1217 23.7717C12.8406 23.7718 12.5623 23.7165 12.3026 23.6088C12.0429 23.5012 11.807 23.3434 11.6084 23.1445L7.03328 18.571C6.54099 18.0786 6.54099 17.2803 7.03328 16.7879C7.52573 16.2956 8.32398 16.2956 8.81643 16.7879L13.1217 21.0932L24.5117 9.7032C25.0041 9.21091 25.8024 9.21091 26.2948 9.7032C26.7871 10.1956 26.7871 10.9939 26.2948 11.4864L14.635 23.1445C14.4364 23.3434 14.2005 23.5012 13.9408 23.6088C13.6812 23.7165 13.4028 23.7718 13.1217 23.7717Z" fill="#326B43"/>
</svg>
