<svg width="24" height="24" viewBox="0 0 24 24" fill="none" xmlns="http://www.w3.org/2000/svg">
<g clip-path="url(#clip0_1098_118471)">
<path d="M4.68 5C6.058 5 7.18 3.879 7.18 2.5C7.18 1.121 6.058 0 4.68 0C3.302 0 2.18 1.121 2.18 2.5C2.18 3.879 3.302 5 4.68 5ZM4.68 1C5.507 1 6.18 1.673 6.18 2.5C6.18 3.327 5.507 4 4.68 4C3.853 4 3.18 3.327 3.18 2.5C3.18 1.673 3.853 1 4.68 1ZM6 9H7V24H6V17H3V24H2V17H0V8.5C0 7.121 1.122 6 2.5 6H15V7H2.5C1.673 7 1 7.673 1 8.5V16H6V9ZM22 16H20.5V11C20.5 9.897 19.603 9 18.5 9H14.5C13.397 9 12.5 9.897 12.5 11V16H11C9.897 16 9 16.897 9 18V24H24V18C24 16.897 23.103 16 22 16ZM13.5 11C13.5 10.448 13.949 10 14.5 10H18.5C19.051 10 19.5 10.448 19.5 11V16H13.5V11ZM16 23H10V18C10 17.448 10.449 17 11 17H15C15.551 17 16 17.448 16 18V23ZM23 23H17V18C17 17.448 17.449 17 18 17H22C22.551 17 23 17.448 23 18V23ZM17.5 12H15.5V11H17.5V12ZM19 18H21V19H19V18ZM12 18H14V19H12V18Z" fill="#326B43"/>
</g>
<defs>
<clipPath id="clip0_1098_118471">
<rect width="24" height="24" fill="white"/>
</clipPath>
</defs>
</svg>
