<svg width="24" height="24" viewBox="0 0 24 24" fill="none" xmlns="http://www.w3.org/2000/svg">
<g clip-path="url(#clip0_1113_124081)">
<path d="M24 10.5C24 7.467 21.533 5 18.5 5H16V12H14.727L4.227 0H3V5.5C3 6.327 2.327 7 1.5 7H0V8H1.5C2.878 8 4 6.878 4 5.5V1.259L13.398 12H2.5C1.8372 12.0008 1.20178 12.2644 0.73311 12.7331C0.264441 13.2018 0.000793929 13.8372 0 14.5L0 20H2.176C2.06 20.32 2 20.656 2 21C2 22.654 3.346 24 5 24C6.654 24 8 22.654 8 21C8 20.656 7.94 20.32 7.824 20H16.176C16.06 20.32 16 20.656 16 21C16 22.654 17.346 24 19 24C20.654 24 22 22.654 22 21C22 20.656 21.94 20.32 21.824 20H24V10.5ZM7 21C7 22.103 6.103 23 5 23C3.897 23 3 22.103 3 21C3 20.649 3.095 20.307 3.277 20H6.723C6.905 20.307 7 20.649 7 21ZM16 19H1V14.5C1 13.673 1.673 13 2.5 13H16V19ZM21 21C21 22.103 20.103 23 19 23C17.897 23 17 22.103 17 21C17 20.649 17.095 20.307 17.277 20H20.723C20.905 20.307 21 20.649 21 21ZM23 19H17V13H23V19ZM23 12H17V6H18.5C20.981 6 23 8.019 23 10.5V12Z" fill="#326B43"/>
</g>
<defs>
<clipPath id="clip0_1113_124081">
<rect width="24" height="24" fill="white"/>
</clipPath>
</defs>
</svg>
