<svg xmlns="http://www.w3.org/2000/svg" width="40" height="40" viewBox="0 0 40 40" fill="none">
    <path d="M15.001 29.5832C14.3177 29.5832 13.751 29.0166 13.751 28.3332V21.3499L12.551 22.5499C12.0677 23.0332 11.2677 23.0332 10.7844 22.5499C10.301 22.0666 10.301 21.2666 10.7844 20.7832L14.1177 17.4499C14.4677 17.0999 15.0177 16.9832 15.4844 17.1832C15.951 17.3666 16.251 17.8332 16.251 18.3332V28.3332C16.251 29.0166 15.6844 29.5832 15.001 29.5832Z" fill="#769882" />
    <path d="M18.3331 22.9166C18.0164 22.9166 17.6997 22.7999 17.4497 22.5499L14.1164 19.2166C13.6331 18.7332 13.6331 17.9332 14.1164 17.4499C14.5997 16.9666 15.3997 16.9666 15.8831 17.4499L19.2164 20.7832C19.6997 21.2666 19.6997 22.0666 19.2164 22.5499C18.9664 22.7999 18.6497 22.9166 18.3331 22.9166Z" fill="#769882" />
    <path d="M24.9987 37.9166H14.9987C5.9487 37.9166 2.08203 34.0499 2.08203 24.9999V14.9999C2.08203 5.94992 5.9487 2.08325 14.9987 2.08325H23.332C24.0154 2.08325 24.582 2.64992 24.582 3.33325C24.582 4.01659 24.0154 4.58325 23.332 4.58325H14.9987C7.31536 4.58325 4.58203 7.31659 4.58203 14.9999V24.9999C4.58203 32.6833 7.31536 35.4166 14.9987 35.4166H24.9987C32.682 35.4166 35.4154 32.6833 35.4154 24.9999V16.6666C35.4154 15.9833 35.982 15.4166 36.6654 15.4166C37.3487 15.4166 37.9154 15.9833 37.9154 16.6666V24.9999C37.9154 34.0499 34.0487 37.9166 24.9987 37.9166Z" fill="#769882" />
    <path d="M36.6654 17.9166H29.9987C24.2987 17.9166 22.082 15.6999 22.082 9.9999V3.33323C22.082 2.83323 22.382 2.36657 22.8487 2.18323C23.3154 1.98323 23.8487 2.0999 24.2154 2.4499L37.5487 15.7832C37.8987 16.1332 38.0154 16.6832 37.8154 17.1499C37.6154 17.6166 37.1654 17.9166 36.6654 17.9166ZM24.582 6.3499V9.9999C24.582 14.2999 25.6987 15.4166 29.9987 15.4166H33.6487L24.582 6.3499Z" fill="#769882" />
</svg>