<svg width="40" height="40" viewBox="0 0 40 40" fill="none" xmlns="http://www.w3.org/2000/svg">
<g clip-path="url(#clip0_1_175028)">
<path d="M7.30833 17.1782L9.34 18.6866L14.1833 14.8432L19.0183 18.7216L21.1333 17.2616L18.9633 11.7582L23.3333 9.1949V6.66323H17.165L15.505 0.601562H12.8633L11.2017 6.66323H5V9.20656L9.31333 11.6932L7.30833 17.1749V17.1782ZM6.815 8.33156H12.4733L14.135 2.2699H14.235L15.895 8.33156H21.515L16.8917 11.0432L19.1 16.6432H19.0967L14.1933 12.7116L9.30833 16.5866L9.30333 16.5816L11.3617 10.9532L6.81833 8.33156H6.815ZM38.6333 16.0882C38.2279 15.7163 37.7526 15.4289 37.2349 15.2426C36.7173 15.0563 36.1677 14.975 35.6183 15.0032C35.0691 15.0269 34.5301 15.1595 34.0325 15.3933C33.535 15.627 33.0888 15.9573 32.72 16.3649L26.5 23.2032C26.2378 22.2813 25.6826 21.4698 24.9182 20.8915C24.1538 20.3133 23.2218 19.9997 22.2633 19.9982H4.16667C3.062 19.9996 2.00296 20.439 1.22185 21.2201C0.440735 22.0012 0.00132321 23.0602 0 24.1649L0 35.8316C0 38.1299 1.87 39.9982 4.16667 39.9982H22.8733L38.9383 21.9699C39.6681 21.1453 40.0451 20.0672 39.988 18.9675C39.931 17.8679 39.4445 16.8329 38.6333 16.0882ZM37.6933 20.8582L22.1267 38.3299H4.16667C2.78833 38.3299 1.66667 37.2082 1.66667 35.8299V24.1632C1.66667 22.7849 2.78833 21.6632 4.16667 21.6632H22.2633C23.7717 21.6632 25 22.8916 25 24.4016C25 25.7549 23.99 26.9199 22.66 27.1082L13.225 28.3366L13.44 29.9899L22.885 28.7599C23.7059 28.6392 24.4764 28.2904 25.1087 27.7533C25.7411 27.2161 26.2098 26.5121 26.4617 25.7216L33.9533 17.4882C34.1753 17.2426 34.4438 17.0436 34.7434 16.9029C35.043 16.7621 35.3676 16.6823 35.6983 16.6682C36.3617 16.6332 37.015 16.8699 37.5117 17.3216C38.5267 18.2482 38.6083 19.8349 37.6933 20.8599V20.8582Z" fill="#326B43"/>
</g>
<defs>
<clipPath id="clip0_1_175028">
<rect width="40" height="40" fill="white"/>
</clipPath>
</defs>
</svg>
