<svg xmlns="http://www.w3.org/2000/svg" width="22" height="22" viewBox="0 0 24 24">
    <path
        d="M22.5398 6.42C22.4155 5.95184 22.1704 5.52454 21.8291 5.18091C21.4877 4.83727 21.062 4.58936 20.5947 4.462C18.8796 4 12 4 12 4C12 4 5.12042 4 3.40442 4.462C2.93721 4.58942 2.51168 4.83736 2.17045 5.181C1.82923 5.52464 1.58429 5.9519 1.46017 6.42C1 8.147 1 11.7495 1 11.7495C1 11.7495 1 15.352 1.46017 17.079C1.58445 17.5472 1.82956 17.9745 2.17094 18.3181C2.51232 18.6617 2.938 18.9096 3.40533 19.037C5.12042 19.499 12 19.499 12 19.499C12 19.499 18.8796 19.499 20.5956 19.037C21.0628 18.9095 21.4884 18.6615 21.8298 18.3179C22.1711 17.9743 22.4163 17.5471 22.5408 17.079C23 15.352 23 11.7495 23 11.7495C23 11.7495 23 8.147 22.5398 6.42ZM9.7505 15.0211V8.47792L15.4998 11.7495L9.7505 15.0211Z" fill="white" />
</svg>